<svg
    xmlns="http://www.w3.org/2000/svg" style="transform: none; transform-origin: 50% 50%; cursor: move;" viewBox="0 0 8210 8760">
    <g fill="rgb(57,43,28)" style="transform: none;">
        <g style="transform: none;">
            <path d="M8022 8602 c-56 -38 -299 -279 -437 -433 -60 -68 -164 -181 -230 -250 -66 -69 -142 -149 -169 -178 -57 -61 -121 -105 -139 -94 -7 3 -29 20 -49 36 -20 16 -43 27 -50 24 -7 -2 -47 -49 -88 -103 -41 -55 -106 -137 -145 -183 -38 -45 -81 -100 -95 -121 -25 -39 -101 -129 -154 -185 -16 -16 -47 -52 -67 -78 -75 -94 -504 -526 -618 -623 -71 -59 -82 -62 -170 -40 -90 23 -196 16 -261 -16 -30 -15 -72 -29 -94 -33 -52 -9 -167 -66 -235 -117 -104 -78 -387 -336 -408 -372 -7 -12 -12 -33 -13 -48 0 -21 5 -28 20 -28 34 0 123 45 180 92 30 24 75 59 100 77 25 18 63 49 85 69 23 20 56 46 75 56 19 11 69 39 110 63 77 45 154 73 199 73 15 0 43 -11 64 -25 30 -21 37 -32 37 -59 0 -54 -27 -115 -77 -175 -102 -121 -198 -228 -242 -272 -25 -25 -77 -81 -116 -124 -38 -44 -87 -96 -108 -116 -21 -21 -48 -55 -59 -76 -11 -21 -37 -54 -57 -73 -20 -19 -50 -53 -66 -75 -61 -82 -438 -446 -518 -501 -45 -30 -45 -30 -177 -13 -58 8 -130 13 -161 13 -58 -2 -242 -55 -269 -79 -8 -7 -37 -24 -65 -38 -27 -14 -64 -36 -81 -49 -125 -92 -208 -164 -330 -286 -117 -116 -143 -147 -152 -182 -8 -35 -8 -42 5 -47 21 -8 161 65 168 88 3 10 20 27 38 38 18 11 61 43 97 71 96 74 139 107 195 145 28 19 73 50 101 70 54 38 175 72 220 61 39 -10 84 -55 84 -84 0 -41 -52 -113 -166 -232 -40 -41 -90 -95 -111 -120 -21 -25 -94 -103 -163 -174 -69 -70 -127 -133 -129 -139 -2 -7 -38 -48 -80 -92 -42 -44 -108 -116 -146 -159 -119 -134 -458 -472 -491 -489 -55 -28 -105 -31 -182 -9 -76 22 -67 23 -242 -20 -132 -32 -286 -139 -524 -363 -156 -146 -186 -188 -193 -265 -5 -55 -4 -60 14 -60 10 0 35 16 54 36 18 19 49 42 66 49 18 8 57 36 85 64 145 137 345 302 390 321 12 5 34 19 48 30 53 43 167 -8 185 -83 7 -28 -29 -83 -135 -207 -31 -36 -75 -91 -98 -122 -23 -31 -63 -74 -88 -95 -26 -21 -59 -51 -73 -68 -115 -130 -369 -402 -418 -449 -24 -22 -61 -67 -83 -100 -21 -34 -61 -78 -87 -98 -26 -20 -61 -56 -78 -79 -16 -23 -48 -61 -69 -83 -22 -23 -76 -81 -120 -131 -43 -49 -114 -126 -156 -170 -43 -44 -149 -154 -236 -245 -199 -207 -311 -336 -347 -403 -16 -29 -39 -61 -52 -72 -31 -26 -54 -92 -62 -177 -6 -64 -5 -68 17 -76 37 -14 118 5 173 40 87 54 160 113 211 169 27 30 92 101 146 159 109 116 165 183 182 213 5 11 40 50 77 86 97 98 264 279 305 331 40 51 157 179 261 286 39 39 75 76 80 82 6 6 42 41 80 79 110 108 245 251 245 260 0 4 28 36 62 70 35 34 92 96 128 137 36 42 117 131 181 198 182 193 190 202 335 395 29 39 68 81 85 94 34 24 247 234 349 345 76 83 177 164 204 164 29 0 95 -41 103 -64 15 -49 -7 -156 -69 -328 -6 -16 -66 -84 -134 -153 -68 -69 -124 -129 -124 -134 0 -5 -18 -31 -40 -57 -61 -75 -48 -102 32 -64 63 29 216 179 224 219 5 22 14 33 30 37 29 7 64 49 64 75 0 10 16 33 36 51 24 21 53 69 84 133 41 87 48 112 54 188 3 52 13 101 23 120 17 32 22 123 13 253 -3 43 0 57 21 81 13 17 31 41 39 54 8 13 40 49 70 79 136 137 420 445 465 505 28 37 66 80 87 96 50 40 163 158 239 249 60 72 87 100 160 165 19 17 66 65 105 107 76 83 120 107 206 115 58 6 88 -19 88 -71 0 -33 -53 -186 -73 -213 -5 -7 -21 -36 -37 -65 -15 -29 -43 -83 -63 -119 -19 -37 -38 -80 -42 -97 -3 -17 -20 -51 -36 -76 -17 -25 -28 -50 -24 -56 3 -5 22 -10 42 -10 30 0 43 8 82 49 58 61 113 136 141 192 13 24 30 55 40 69 22 31 52 84 102 178 29 56 38 85 38 123 0 27 7 67 16 89 10 25 14 54 11 77 -13 84 -26 150 -37 181 -23 64 0 120 96 227 25 27 127 145 226 260 100 116 268 296 373 400 105 105 209 212 229 240 63 82 227 243 291 286 45 31 65 39 85 34 69 -17 98 -103 65 -193 -23 -63 -146 -272 -194 -329 -39 -46 -84 -110 -103 -146 -69 -128 -78 -156 -59 -186 13 -21 86 18 146 77 46 45 165 196 165 209 0 4 10 17 21 29 12 13 27 32 33 43 6 10 29 50 50 87 22 38 45 76 52 84 20 24 61 158 77 250 9 54 13 123 10 187 -7 146 16 198 136 308 83 77 215 208 262 263 l48 54 -29 43 c-17 24 -30 51 -30 60 0 23 28 74 67 120 18 22 58 72 89 110 31 39 84 99 118 135 33 36 79 88 100 115 22 28 53 64 70 80 40 40 175 192 201 227 11 14 53 64 93 111 39 46 72 87 72 91 0 3 14 28 30 54 31 51 39 92 18 92 -7 0 -32 -13 -56 -28z"></path>
        </g>
    </g>
</svg>