<svg
    xmlns="http://www.w3.org/2000/svg" style="transform: matrix(1, 0, 0, 1, 0, 0); transform-origin: 50% 50%; cursor: move; max-height: none; transition: transform 200ms ease-in-out 0s;" viewBox="0 1000 4680 4680">
    
    <g fill="rgb(225,225,222)">
        <g >
            <path d="M110 3943 c0 -21 -7 -81 -15 -133 -17 -110 -19 -294 -4 -395 5 -38 13 -101 16 -140 3 -38 10 -78 15 -87 5 -10 13 -37 17 -60 20 -97 61 -240 89 -309 17 -41 37 -94 46 -119 47 -134 205 -315 405 -463 97 -73 288 -169 413 -208 46 -15 69 -28 74 -41 6 -19 83 -59 139 -72 17 -4 46 -17 65 -30 45 -29 136 -59 160 -53 12 3 28 -6 45 -23 l27 -29 -11 -94 c-6 -53 -11 -120 -11 -151 0 -51 -16 -107 -56 -191 -19 -41 -44 -179 -44 -242 0 -29 7 -68 16 -87 16 -32 16 -35 -3 -63 -37 -51 -53 -103 -53 -172 0 -81 14 -136 46 -178 18 -24 24 -44 24 -86 0 -40 7 -66 25 -98 33 -57 39 -67 60 -112 27 -56 158 -191 232 -239 l64 -43 -33 -5 c-26 -4 -29 -7 -15 -13 10 -4 36 -7 58 -7 37 0 39 2 39 30 0 19 -7 33 -19 40 -95 51 -270 230 -292 299 -6 20 -19 45 -29 56 -24 28 -40 80 -40 132 0 33 -8 56 -29 86 -16 23 -34 67 -41 97 -11 50 -10 60 9 104 12 26 30 61 41 76 24 34 26 86 5 154 -12 40 -13 62 -5 110 15 85 50 192 80 248 6 10 10 39 10 65 0 91 34 400 60 554 6 30 10 78 10 106 0 28 11 81 24 119 67 191 94 256 125 299 42 58 54 130 25 142 -15 6 -10 9 21 13 30 4 41 10 44 25 2 11 9 23 16 28 30 17 125 279 125 343 0 16 -13 54 -29 86 -16 31 -43 98 -60 148 -48 138 -49 140 -86 140 -24 0 -37 -7 -49 -25 -15 -23 -23 -25 -89 -26 -39 0 -81 -4 -92 -9 -13 -5 -26 -3 -37 7 -9 8 -30 13 -50 11 l-33 -3 -3 -80 -2 -80 45 -65 c208 -302 236 -353 238 -437 2 -61 1 -63 -23 -63 -17 0 -34 -13 -55 -41 -16 -22 -67 -74 -112 -115 -84 -76 -351 -374 -407 -453 -17 -24 -36 -50 -42 -58 -13 -19 -46 -9 -172 49 -46 21 -88 38 -94 38 -20 0 -127 59 -200 111 -114 81 -279 240 -338 325 -30 43 -65 111 -80 153 -15 42 -39 110 -54 151 -33 89 -43 122 -81 280 -36 147 -55 472 -36 600 6 36 11 98 11 138 0 65 -2 72 -20 72 -16 0 -20 -7 -20 -37z"></path>
            <path d="M4530 3948 c0 -18 7 -53 16 -77 17 -50 20 -256 5 -356 -23 -150 -31 -194 -41 -219 -5 -15 -10 -41 -10 -58 0 -30 -7 -60 -32 -133 -10 -31 -14 -44 -48 -164 -23 -83 -67 -182 -134 -306 -24 -45 -92 -133 -145 -188 -75 -78 -268 -222 -361 -268 -77 -39 -284 -119 -355 -138 -52 -14 -70 -2 -245 164 -216 203 -246 227 -289 223 l-36 -3 -3 -79 c-2 -44 2 -102 8 -130 19 -82 28 -358 19 -544 -8 -169 -8 -175 15 -225 71 -158 96 -248 103 -368 4 -70 2 -87 -11 -98 -21 -17 -21 -120 -1 -176 26 -73 14 -126 -55 -235 -15 -25 -31 -64 -35 -88 -4 -23 -18 -56 -31 -71 -13 -16 -31 -48 -39 -70 -38 -108 -88 -163 -216 -238 -70 -40 -79 -49 -79 -74 0 -28 2 -29 48 -28 66 1 103 17 42 19 l-45 0 63 32 c107 53 195 146 228 241 8 22 25 52 38 68 14 16 32 55 41 86 9 32 33 84 53 116 33 54 36 67 40 149 4 69 0 102 -13 142 -16 48 -17 54 -1 83 21 42 22 219 1 300 -28 109 -32 118 -84 236 -17 39 -21 67 -21 161 l0 114 35 12 c20 7 45 25 57 41 19 25 28 29 73 29 44 0 55 4 80 30 26 27 34 30 71 24 50 -7 91 11 150 68 34 32 65 47 180 87 256 88 420 187 585 351 193 192 312 432 378 765 7 33 16 74 22 91 5 17 9 44 9 61 0 17 6 53 14 79 56 189 38 594 -25 594 -15 0 -19 -7 -19 -32z"></path>
            <path d="M2702 3528 c-16 -40 -35 -91 -42 -113 -15 -45 -27 -74 -64 -157 -17 -37 -26 -74 -26 -107 0 -33 -7 -62 -20 -83 -15 -25 -20 -51 -20 -110 0 -87 18 -138 56 -159 14 -7 24 -22 24 -34 0 -32 19 -45 65 -45 52 0 65 13 65 67 0 35 8 53 43 98 31 41 49 55 67 55 18 0 48 23 110 86 47 47 97 93 111 101 35 21 59 64 59 106 0 32 -3 35 -37 41 -21 4 -68 9 -104 12 l-66 6 -6 53 c-5 54 -36 124 -91 208 -26 40 -36 47 -62 47 -30 0 -34 -4 -62 -72z"></path>
            <path d="M2410 1651 l0 -41 41 0 40 0 -3 38 c-3 35 -5 37 -40 40 l-38 3 0 -40z"></path>
        </g>
    </g>
    <g fill="rgb(225,201,180)" >
        <g >
            <path d="M126 3968 c-3 -7 -7 -53 -10 -102 -4 -48 -11 -108 -17 -132 -13 -50 -4 -114 15 -114 9 0 16 18 19 48 4 26 11 81 16 122 16 118 14 190 -4 190 -9 0 -17 -6 -19 -12z"></path>
            <path d="M4520 3951 c0 -16 7 -48 16 -72 21 -56 24 -296 5 -384 -8 -33 -17 -85 -21 -115 -14 -97 -21 -134 -35 -185 -21 -72 -45 -179 -45 -198 0 -9 -4 -17 -10 -17 -5 0 -10 -8 -10 -18 0 -43 -101 -265 -158 -347 -78 -111 -131 -171 -217 -243 -160 -135 -254 -187 -500 -281 -33 -12 -69 -27 -80 -31 -45 -19 -80 -20 -106 -3 -15 10 -98 85 -185 167 -219 205 -248 228 -293 224 -32 -3 -36 -7 -39 -32 -6 -50 8 -116 24 -116 14 0 18 16 15 62 -1 14 2 29 8 32 12 8 86 -55 266 -224 77 -72 152 -139 168 -148 35 -21 34 -34 -3 -65 -35 -30 -37 -37 -11 -37 10 0 38 18 62 40 24 22 62 45 84 51 70 19 277 99 355 138 93 46 286 190 361 268 53 55 121 143 145 188 67 124 111 223 134 306 34 120 38 133 48 164 24 70 32 103 32 126 0 13 6 53 14 89 30 130 36 167 45 280 11 124 1 312 -18 348 -6 11 -11 30 -11 41 0 14 -6 21 -20 21 -15 0 -20 -7 -20 -29z"></path>
            <path d="M2701 3548 c-12 -35 -38 -106 -57 -158 -19 -52 -40 -111 -47 -130 -6 -19 -14 -37 -18 -40 -4 -3 -17 -27 -28 -54 -25 -56 -28 -116 -7 -116 8 0 16 -6 19 -12 2 -7 7 -11 9 -8 15 14 118 185 118 194 0 6 -20 -11 -45 -39 -52 -59 -59 -44 -19 43 37 83 49 112 64 157 7 22 26 73 42 113 l30 72 19 -24 c39 -50 99 -175 105 -219 5 -38 3 -51 -11 -67 -18 -20 -18 -21 1 -35 25 -19 45 -19 38 -1 -9 23 33 39 80 31 23 -4 56 -9 74 -12 17 -3 32 -7 32 -10 0 -15 -36 -62 -58 -75 -14 -9 -65 -55 -113 -104 -49 -48 -91 -85 -95 -81 -7 7 32 78 82 150 36 50 43 77 20 77 -8 0 -18 -14 -22 -32 -3 -18 -15 -39 -25 -46 -24 -17 -89 -140 -89 -169 0 -20 5 -23 39 -23 33 0 45 7 90 54 28 30 51 60 51 65 0 6 4 11 10 11 15 0 102 67 132 103 19 22 28 44 28 68 l0 37 -65 16 c-35 9 -85 16 -110 16 l-45 0 0 38 c0 43 -34 121 -92 210 -37 58 -43 62 -77 62 -36 0 -38 -1 -60 -62z"></path>
            <path d="M1859 3496 c-19 -33 -21 -34 -100 -38 -47 -3 -84 -10 -88 -17 -5 -8 -13 -6 -26 9 -12 13 -31 20 -56 20 -47 0 -53 -16 -47 -118 4 -73 -1 -63 157 -292 40 -57 84 -126 97 -154 24 -50 33 -136 14 -136 -5 0 -10 -4 -10 -9 0 -5 -12 -22 -27 -38 -16 -16 -48 -54 -73 -85 -25 -32 -50 -57 -56 -58 -21 0 -35 -28 -32 -59 l3 -31 81 78 c44 42 90 90 102 105 18 24 24 27 41 17 17 -8 19 -15 11 -35 -9 -22 -7 -25 15 -25 23 0 25 4 25 45 0 33 4 45 15 45 9 0 15 9 15 25 0 16 6 25 15 25 10 0 15 10 15 30 0 28 -2 29 -20 18 -11 -7 -20 -21 -20 -31 0 -23 -29 -34 -41 -16 -13 21 -11 39 6 39 8 0 15 7 15 16 0 12 -39 88 -88 170 -17 28 -97 148 -177 264 -38 54 -45 73 -45 112 0 54 10 65 35 38 22 -24 43 -25 81 -5 18 9 57 15 101 15 67 0 74 2 90 26 l16 26 13 -24 c6 -12 24 -59 39 -103 34 -101 83 -205 97 -205 16 0 2 88 -21 137 -21 43 -35 83 -66 191 -18 60 -19 62 -52 62 -28 0 -37 -6 -54 -34z"></path>
            <path d="M100 3498 c1 -63 31 -301 45 -358 38 -158 48 -191 81 -280 15 -41 39 -109 54 -151 15 -42 50 -110 80 -153 59 -85 224 -244 338 -325 73 -52 180 -111 200 -111 6 0 48 -17 94 -38 138 -64 178 -74 178 -44 0 19 -22 30 -201 102 -147 59 -203 96 -369 239 -185 160 -255 266 -337 515 -30 88 -61 193 -69 231 -9 39 -19 86 -24 105 -5 19 -15 92 -21 163 -11 111 -15 127 -31 127 -12 0 -18 -7 -18 -22z"></path>
            <path d="M2736 3313 c-15 -15 -4 -33 19 -33 14 0 25 4 25 10 0 12 -35 31 -44 23z"></path>
            <path d="M2729 2884 c-48 -61 -55 -66 -86 -62 -32 4 -33 3 -33 -29 0 -26 4 -33 20 -33 12 0 17 5 14 14 -4 9 5 15 28 19 18 2 35 3 37 1 9 -8 -11 -36 -29 -41 -37 -10 -23 -33 20 -33 52 0 65 23 56 101 -7 55 -6 59 14 59 16 0 20 6 20 35 0 19 -2 35 -4 35 -2 0 -28 -30 -57 -66z"></path>
            <path d="M1790 2563 c-8 -16 -16 -31 -18 -35 -2 -5 8 -8 22 -8 23 0 26 4 26 35 0 42 -12 45 -30 8z"></path>
            <path d="M1477 2412 c-10 -10 -17 -28 -17 -40 0 -15 -6 -22 -18 -22 -26 0 -52 -32 -52 -63 0 -22 -5 -27 -24 -27 -26 0 -110 -89 -160 -168 -31 -49 -32 -95 -2 -100 11 -3 16 0 12 7 -11 16 60 112 198 269 69 78 128 147 131 152 11 18 -51 10 -68 -8z"></path>
            <path d="M1676 2258 c-10 -38 -7 -48 14 -48 16 0 20 7 20 35 0 40 -24 49 -34 13z"></path>
            <path d="M1580 2176 c0 -31 6 -34 13 -6 3 11 1 23 -4 26 -5 3 -9 -6 -9 -20z"></path>
            <path d="M1656 2078 c-11 -42 -7 -58 14 -58 17 0 20 7 20 40 0 45 -23 57 -34 18z"></path>
            <path d="M2880 1775 c0 -41 24 -49 34 -10 4 14 14 25 24 26 14 0 14 2 -3 9 -42 18 -55 12 -55 -25z"></path>
            <path d="M2671 1744 c-12 -15 -21 -32 -21 -39 0 -6 -13 -54 -30 -105 -33 -102 -64 -162 -104 -199 l-25 -24 -31 27 c-22 18 -43 26 -69 26 -20 0 -42 5 -48 11 -19 19 -175 1 -228 -25 l-44 -23 -35 36 c-19 20 -66 97 -103 171 l-69 135 -56 3 c-73 4 -76 -1 -121 -188 -46 -189 -60 -322 -61 -560 0 -159 3 -209 19 -269 16 -63 23 -76 48 -90 17 -9 59 -36 95 -59 61 -41 68 -43 116 -37 148 18 211 17 272 -6 92 -34 123 -35 201 -4 65 27 73 27 189 22 106 -6 124 -4 135 10 8 9 44 36 80 59 96 62 99 72 99 295 0 120 3 180 10 173 5 -5 13 -41 17 -79 7 -59 12 -72 31 -80 16 -7 22 -18 22 -42 0 -17 7 -38 15 -47 8 -8 15 -26 15 -40 0 -19 5 -26 20 -26 24 0 25 11 5 65 -18 52 -19 99 0 115 11 9 13 35 11 128 -4 147 -23 219 -101 397 -15 35 -20 63 -17 93 4 37 2 42 -16 42 -15 0 -22 -8 -24 -27 -4 -25 -5 -24 -12 12 -11 59 -35 121 -57 149 -29 37 -99 37 -128 0z m228 -326 c1 -5 -3 -8 -9 -8 -5 0 -10 12 -9 28 0 24 1 25 9 7 5 -11 9 -23 9 -27z m-891 -395 c-10 -2 -26 -2 -35 0 -10 3 -2 5 17 5 19 0 27 -2 18 -5z m562 -3 c0 -13 -40 -13 -60 0 -11 7 -5 10 23 10 20 0 37 -4 37 -10z m194 -175 c-27 -41 -66 -56 -153 -57 -80 0 -116 11 -171 55 -21 16 -22 18 -5 14 147 -44 211 -45 292 -4 27 13 49 23 51 21 2 -1 -4 -14 -14 -29z m-930 -30 c66 -20 198 -20 237 1 17 8 33 14 35 11 12 -12 -108 -51 -168 -55 -59 -4 -73 -1 -113 22 -65 39 -63 43 9 21z"></path>
            <path d="M2133 1713 c-37 -7 -64 -51 -61 -97 3 -38 5 -41 36 -44 18 -2 40 2 48 9 12 10 14 6 14 -25 l0 -36 130 0 130 0 0 25 c0 22 4 25 35 25 l35 0 0 59 c0 88 -8 91 -195 90 -82 -1 -160 -4 -172 -6z m243 -109 l29 -16 -30 8 c-41 10 -134 10 -170 1 l-30 -8 30 15 c41 20 136 20 171 0z"></path>
            <path d="M1592 1468 c-66 -137 -96 -273 -82 -381 10 -80 17 -90 56 -85 28 3 29 6 41 78 6 41 12 117 12 168 1 84 -1 92 -18 92 -15 0 -18 5 -13 23 3 12 10 25 15 28 13 9 22 99 10 99 -5 0 -15 -10 -21 -22z"></path>
            <path d="M1512 595 c29 -44 38 -44 38 0 0 32 -2 35 -30 35 l-30 0 22 -35z"></path>
            <path d="M2757 223 c-4 -3 -7 -22 -7 -42 l1 -36 29 33 c17 18 30 37 30 42 0 11 -43 14 -53 3z"></path>
            <path d="M2527 63 c-4 -3 -7 -19 -7 -35 0 -26 3 -28 40 -28 41 0 58 20 18 21 l-23 0 23 16 c12 8 22 19 22 24 0 10 -63 12 -73 2z"></path>
        </g>
    </g>
    <g fill="rgb(180,149,104)" >
        <g >
            <path d="M121 3857 c-8 -67 -15 -165 -18 -217 -4 -91 17 -349 37 -440 29 -134 45 -192 93 -338 82 -247 152 -353 337 -513 156 -134 236 -188 340 -227 104 -39 261 -109 279 -126 25 -23 45 -22 30 2 -9 15 -6 27 16 63 16 24 44 62 64 85 150 169 220 246 330 359 69 72 140 148 156 169 28 35 33 38 53 27 12 -6 22 -18 22 -26 0 -24 27 -17 34 8 11 40 7 77 -7 71 -8 -3 -18 6 -25 21 -17 37 -15 45 9 45 20 0 21 1 5 23 -8 12 -29 49 -44 82 -16 33 -62 107 -102 165 -149 214 -154 221 -157 275 -2 27 1 57 6 65 9 12 14 10 39 -13 33 -32 48 -34 75 -9 15 13 37 17 98 17 76 -1 79 0 90 27 23 55 35 52 54 -15 29 -100 43 -143 63 -189 11 -24 24 -56 31 -71 8 -20 16 -27 27 -23 9 3 22 6 29 6 7 0 16 12 20 28 3 15 18 52 32 82 14 30 44 97 67 149 35 79 47 97 79 115 l38 21 35 -39 c19 -22 39 -58 45 -80 6 -23 24 -69 40 -103 16 -34 36 -99 45 -145 9 -46 20 -87 25 -93 5 -5 9 -19 9 -32 0 -19 5 -23 29 -23 23 0 35 10 65 55 50 75 45 90 -9 30 -25 -27 -45 -46 -45 -42 0 4 21 53 46 109 26 57 59 139 74 183 56 160 74 205 81 205 11 0 85 -119 114 -183 21 -45 25 -66 20 -96 -4 -22 -13 -42 -21 -45 -21 -8 -17 -33 7 -39 15 -4 22 1 29 19 13 34 52 40 137 20 40 -10 73 -20 73 -22 0 -15 -52 -71 -95 -101 -27 -20 -78 -67 -113 -104 -66 -70 -82 -81 -82 -54 0 35 -49 -1 -50 -36 0 -9 -11 -24 -24 -32 -13 -9 -34 -32 -46 -51 -12 -21 -30 -36 -41 -36 -10 0 -19 -5 -19 -11 0 -7 12 -9 34 -5 39 8 52 -4 36 -34 -12 -22 -49 -27 -68 -8 -9 9 -12 5 -12 -20 0 -22 5 -32 15 -32 9 0 19 -8 22 -17 8 -21 87 -151 126 -208 15 -22 27 -52 27 -66 0 -56 12 -89 32 -89 17 0 19 5 13 39 -4 22 -2 42 3 45 14 9 84 -49 266 -220 87 -82 171 -157 187 -167 29 -19 37 -41 19 -52 -5 -3 -10 -13 -10 -22 0 -10 12 -4 40 21 22 19 52 38 67 42 16 3 37 9 48 14 11 4 47 19 80 31 246 94 340 146 500 281 86 72 139 132 217 243 39 57 123 228 144 295 8 25 21 65 28 90 8 25 20 70 26 100 7 30 18 73 25 95 13 38 17 63 35 185 4 30 13 82 21 115 7 35 13 128 13 220 1 132 -3 172 -19 228 l-20 67 -1065 -1 c-586 0 -1090 -4 -1120 -8 -30 -5 -56 -5 -58 0 -2 5 -491 9 -1086 9 l-1082 0 -13 -123z m1739 -1127 c0 -5 -7 -10 -15 -10 -8 0 -15 5 -15 10 0 6 7 10 15 10 8 0 15 -4 15 -10z"></path>
            <path d="M1716 2371 c-3 -4 -10 -20 -15 -35 -10 -24 -8 -26 14 -26 22 0 25 4 25 35 0 33 -12 46 -24 26z"></path>
            <path d="M2665 1748 c-8 -13 -29 -68 -46 -123 -31 -101 -65 -171 -102 -212 -20 -23 -20 -23 -51 -3 -31 18 -90 37 -151 47 -39 6 -188 -22 -218 -42 -22 -14 -25 -13 -55 18 -17 17 -61 91 -97 162 -36 72 -73 136 -82 143 -25 18 -97 15 -122 -5 -16 -13 -32 -60 -61 -176 -22 -87 -40 -173 -41 -190 l-1 -32 -8 32 c-4 17 -15 40 -25 49 -16 17 -18 17 -30 1 -34 -47 -82 -271 -70 -329 14 -69 28 -88 62 -88 29 0 33 3 33 25 0 14 5 25 10 25 6 0 10 -49 10 -127 0 -166 27 -277 73 -302 16 -9 60 -36 96 -59 72 -48 53 -46 211 -26 40 5 50 10 50 25 0 16 -8 19 -52 19 -28 0 -66 -5 -83 -11 -29 -11 -36 -8 -96 32 -36 24 -79 51 -96 60 -48 26 -66 121 -65 337 1 219 15 340 59 522 40 167 53 193 91 188 23 -3 35 -20 94 -137 46 -91 84 -151 118 -187 30 -32 50 -62 50 -76 0 -20 56 -78 74 -78 13 0 4 23 -20 56 -36 47 -27 79 29 104 51 21 153 34 162 20 4 -6 -9 -10 -32 -10 -22 0 -43 -4 -49 -9 -5 -5 -25 -11 -44 -13 -24 -2 -36 -9 -38 -22 -4 -19 -5 -19 141 0 31 4 53 2 60 -5 16 -16 57 -14 57 3 0 8 -11 17 -25 20 -29 7 -34 26 -6 26 27 0 81 -48 81 -71 0 -11 -11 -30 -25 -43 -29 -27 -32 -46 -7 -46 25 1 46 20 67 60 10 19 35 54 55 76 21 23 46 56 55 74 17 32 54 141 74 216 14 52 45 82 69 68 25 -16 61 -85 73 -140 29 -138 38 -292 32 -564 -6 -320 -7 -323 -92 -377 -31 -19 -66 -44 -78 -56 -21 -18 -34 -20 -147 -18 -113 2 -130 0 -189 -23 l-64 -26 -49 21 c-27 11 -73 23 -101 26 -49 5 -53 4 -53 -16 0 -15 6 -21 23 -21 12 0 53 -11 91 -25 85 -31 94 -31 181 0 60 21 88 25 192 25 l123 0 43 33 c23 17 59 41 80 52 61 32 77 80 78 237 1 103 3 125 10 99 6 -19 18 -35 30 -38 12 -3 19 -14 19 -29 0 -18 5 -24 23 -24 20 0 22 4 19 33 -3 23 3 39 18 57 19 22 21 32 15 85 -3 33 -8 80 -9 105 -5 60 -24 142 -36 154 -6 6 -10 22 -10 37 0 15 -4 31 -10 34 -5 3 -10 14 -10 23 0 10 -9 35 -20 57 -11 22 -20 45 -20 52 0 7 -6 13 -14 13 -9 0 -20 28 -32 82 -10 44 -31 101 -46 125 -27 42 -29 43 -82 43 -46 0 -58 -4 -71 -22z m281 -383 c7 -18 -14 -47 -27 -39 -5 3 -9 16 -9 30 0 27 27 34 36 9z m-1356 -107 c0 -100 -11 -159 -29 -156 -22 4 -28 48 -6 48 14 0 15 9 9 69 -3 38 -3 74 0 80 16 25 26 8 26 -41z m1358 -46 c10 -46 1 -182 -10 -152 -14 40 -38 129 -38 143 0 27 19 69 29 63 5 -4 14 -28 19 -54z m-1387 -165 c-1 -12 -15 -9 -19 4 -3 6 1 10 8 8 6 -3 11 -8 11 -12z m1427 -39 c-2 -37 -7 -53 -17 -53 -20 0 -39 34 -24 43 6 4 15 20 18 35 12 46 26 30 23 -25z"></path>
            <path d="M2165 1725 c-5 -2 -21 -6 -35 -9 -45 -10 -70 -42 -70 -91 0 -50 8 -75 22 -75 6 0 17 -8 24 -17 11 -16 32 -18 184 -18 171 0 171 0 190 25 15 19 20 41 20 92 0 65 -1 68 -30 83 -22 11 -61 15 -162 14 -73 0 -137 -2 -143 -4z m283 -51 c22 -15 32 -74 12 -74 -5 0 -10 4 -10 8 0 5 -17 16 -38 25 -60 27 -194 23 -255 -7 -54 -26 -70 -18 -40 22 26 35 47 40 188 41 94 1 125 -2 143 -15z m-83 -113 c31 -7 16 -9 -65 -9 -101 0 -103 0 -65 13 22 7 51 11 65 9 14 -3 43 -9 65 -13z"></path>
            <path d="M2206 1069 c-3 -8 -6 -31 -8 -51 -3 -28 -1 -35 8 -27 18 15 28 69 15 82 -7 7 -12 6 -15 -4z"></path>
            <path d="M1890 1051 c-30 -4 -46 -11 -48 -22 -4 -23 20 -30 118 -36 75 -5 91 -3 129 17 39 19 42 23 28 37 -17 17 -37 10 -37 -13 0 -21 -18 -17 -25 6 -5 17 -14 20 -63 18 -31 0 -77 -4 -102 -7z"></path>
            <path d="M2454 1045 c-19 -15 -18 -16 10 -41 27 -23 34 -25 90 -20 34 4 80 6 103 6 46 0 58 10 48 40 -7 23 -43 27 -51 5 -9 -22 -41 -18 -47 5 -4 17 -14 20 -69 20 -42 0 -71 -5 -84 -15z"></path>
            <path d="M1720 930 c-15 -9 -6 -59 20 -110 20 -39 83 -80 124 -80 36 0 35 32 -1 48 l-28 12 34 -5 c18 -3 57 -6 85 -6 28 -1 41 -4 29 -6 -15 -3 -23 -12 -23 -25 0 -18 4 -20 41 -15 55 7 166 63 185 93 13 20 14 27 4 39 -16 19 -51 13 -129 -21 -97 -43 -215 -25 -287 45 -26 25 -46 36 -54 31z"></path>
            <path d="M2739 906 c-19 -13 -57 -31 -83 -40 -47 -16 -52 -16 -147 9 -116 30 -104 29 -123 9 -22 -21 -20 -31 12 -61 58 -54 98 -67 212 -66 116 0 154 12 184 58 21 32 19 109 -4 112 -8 1 -31 -8 -51 -21z m1 -71 c-43 -42 -155 -53 -232 -21 -22 9 -8 11 71 8 84 -4 103 -1 137 16 51 27 53 27 24 -3z"></path>
        </g>
    </g>
    <g fill="rgb(116,131,110)" >
        <g >
            <path d="M4520 3936 c0 -8 5 -18 10 -21 6 -3 10 -17 10 -31 0 -15 6 -24 15 -24 18 0 19 13 3 57 -12 33 -38 46 -38 19z"></path>
            <path d="M104 3664 c-13 -68 14 -264 36 -264 4 0 4 19 -1 43 -4 23 -8 90 -9 150 0 107 -13 141 -26 71z"></path>
            <path d="M2820 3537 c0 -28 43 -105 48 -85 2 10 -8 37 -22 60 -16 26 -26 36 -26 25z"></path>
            <path d="M4537 3463 c-2 -5 -7 -20 -11 -35 -5 -21 -3 -28 8 -28 13 0 26 28 26 58 0 13 -16 17 -23 5z"></path>
            <path d="M1685 3440 c-4 -6 -22 -8 -43 -4 l-37 7 24 -27 c14 -14 28 -26 32 -26 10 0 59 45 59 54 0 10 -28 7 -35 -4z"></path>
            <path d="M2637 3352 c-20 -46 -21 -52 -4 -52 14 0 37 45 37 72 0 30 -15 20 -33 -20z"></path>
            <path d="M1556 3354 c-9 -25 -7 -64 4 -64 6 0 10 18 10 40 0 43 -4 50 -14 24z"></path>
            <path d="M1991 3288 c11 -29 29 -79 39 -111 l18 -57 -32 -103 c-35 -109 -62 -171 -85 -200 -8 -9 -19 -27 -25 -40 -15 -28 -38 -28 -51 1 -10 22 -35 31 -35 12 0 -6 -11 -28 -25 -50 -30 -47 -32 -61 -5 -34 47 47 63 54 76 32 4 -6 -1 -17 -11 -25 -11 -7 -13 -13 -7 -13 22 0 12 -34 -24 -87 -20 -29 -52 -95 -71 -145 -19 -51 -44 -118 -55 -148 -11 -30 -24 -95 -28 -145 -11 -116 -26 -225 -41 -295 -6 -30 -12 -82 -13 -115 -4 -126 -18 -281 -28 -310 -6 -16 -16 -43 -23 -60 -22 -54 -33 -99 -51 -192 -16 -88 -16 -95 0 -157 18 -64 18 -66 -3 -94 -76 -107 -80 -240 -10 -336 22 -30 29 -51 29 -86 0 -55 16 -107 40 -135 10 -11 23 -36 29 -56 22 -70 156 -208 291 -301 l25 -17 -35 -1 c-52 -1 -17 -20 38 -20 40 0 42 2 42 29 0 24 -10 35 -65 71 -87 56 -259 230 -228 230 4 0 40 -9 78 -19 147 -41 209 -46 545 -46 267 1 340 4 408 18 46 9 88 19 93 23 20 12 7 -15 -28 -62 -49 -64 -62 -75 -160 -132 -77 -44 -83 -49 -83 -79 0 -29 3 -33 28 -33 15 0 38 4 52 7 23 7 21 8 -15 13 l-40 6 37 16 c131 58 229 153 270 260 11 28 30 64 43 79 13 16 26 48 30 71 4 24 20 63 35 88 77 121 89 207 46 313 -13 32 -22 66 -19 77 4 15 0 20 -15 20 -25 0 -42 27 -43 67 -2 56 -21 123 -35 123 -11 0 -14 -16 -14 -69 0 -69 15 -131 31 -131 5 0 9 -7 9 -15 0 -8 7 -15 15 -15 8 0 15 -8 15 -17 0 -9 9 -43 21 -76 15 -43 19 -71 15 -100 -8 -50 -59 -146 -94 -180 -38 -35 -147 -75 -239 -88 -43 -6 -80 -12 -84 -14 -3 -2 -74 -9 -158 -15 -262 -20 -587 16 -717 79 -47 23 -158 144 -180 197 -30 72 -17 153 37 223 11 13 19 34 19 47 0 14 6 24 14 24 16 0 26 21 26 56 0 13 5 24 10 24 6 0 10 18 10 40 0 33 -3 40 -20 40 -16 0 -20 -7 -20 -36 0 -32 -2 -35 -22 -28 -13 3 -25 8 -28 11 -11 10 9 181 30 248 l13 40 13 -30 12 -30 7 30 c3 17 10 46 15 66 6 20 10 54 10 75 0 61 32 375 50 489 5 33 17 112 26 175 9 63 25 135 36 160 11 25 30 79 43 120 14 41 36 91 51 110 14 19 35 55 46 79 11 24 46 91 78 148 33 58 66 131 75 162 9 31 20 70 26 87 5 17 9 51 9 77 0 26 4 47 8 47 11 0 32 69 32 104 0 43 -26 30 -40 -19 -7 -25 -15 -43 -19 -40 -3 4 -18 37 -32 73 -16 39 -33 68 -43 70 -14 3 -14 -3 5 -50z m-423 -2242 c3 -12 -1 -17 -10 -14 -7 3 -15 13 -16 22 -3 12 1 17 10 14 7 -3 15 -13 16 -22z"></path>
            <path d="M1750 3280 c0 -22 4 -48 8 -58 57 -115 103 -212 112 -232 13 -30 62 -116 73 -126 21 -22 2 49 -29 101 -44 77 -84 161 -84 180 0 9 5 24 12 34 7 11 8 26 3 37 -8 16 -10 14 -13 -13 -4 -41 -21 -43 -28 -3 -4 17 -11 30 -16 30 -5 0 -8 15 -7 33 2 18 0 38 -5 45 -14 24 -26 11 -26 -28z"></path>
            <path d="M2900 3291 c-6 -16 -18 -32 -26 -35 -22 -9 -16 -24 16 -41 37 -19 37 -32 1 -82 -16 -22 -37 -55 -46 -74 -9 -19 -47 -80 -83 -136 -64 -97 -69 -102 -102 -102 -19 0 -42 5 -51 12 -46 35 -64 139 -34 197 8 16 44 74 80 129 94 145 82 150 -17 7 -38 -55 -73 -96 -82 -96 -5 0 38 120 53 148 14 27 14 32 -2 32 -8 0 -18 -10 -24 -22 -20 -43 -38 -93 -35 -101 1 -5 -2 -6 -6 -3 -5 3 -12 24 -16 46 -4 26 -11 40 -21 40 -20 0 -20 -53 0 -145 8 -39 15 -97 15 -130 1 -66 15 -103 69 -178 31 -42 39 -47 73 -47 27 0 38 4 38 15 0 8 -6 15 -13 15 -16 0 -47 31 -47 47 0 10 45 25 80 28 24 2 304 279 298 296 -3 9 -37 -18 -103 -83 -55 -53 -101 -95 -103 -94 -2 2 1 12 6 23 5 10 20 38 32 63 13 25 41 69 62 99 44 62 46 71 18 89 -42 26 -20 56 60 85 8 3 -2 6 -22 6 -21 1 -38 6 -38 11 0 21 -18 9 -30 -19z"></path>
            <path d="M2730 3296 c0 -8 15 -17 34 -20 19 -4 39 -13 46 -21 7 -8 19 -15 27 -15 22 0 10 25 -14 28 -12 2 -29 12 -39 23 -20 22 -54 26 -54 5z"></path>
            <path d="M165 3120 c8 -16 15 -40 15 -54 0 -14 5 -28 10 -31 6 -3 10 -15 10 -26 0 -10 7 -19 15 -19 18 0 18 4 6 28 -6 9 -13 34 -16 55 -3 20 -10 37 -15 37 -6 0 -10 9 -10 20 0 11 -7 20 -15 20 -14 0 -14 -3 0 -30z"></path>
            <path d="M4456 3067 c-9 -23 -16 -49 -16 -57 0 -16 -17 -72 -37 -117 -15 -37 -17 -63 -3 -63 17 0 65 122 75 195 2 17 7 42 11 58 10 43 -11 32 -30 -16z"></path>
            <path d="M2711 3048 c-11 -18 -34 -52 -51 -76 -17 -23 -30 -50 -28 -60 3 -12 9 -7 20 19 8 19 34 51 57 71 24 21 41 44 41 56 0 31 -15 27 -39 -10z"></path>
            <path d="M210 2968 c0 -11 16 -64 30 -103 5 -11 14 -42 20 -70 15 -58 77 -177 132 -252 48 -66 92 -111 193 -195 139 -117 167 -138 211 -158 23 -11 46 -24 49 -30 7 -12 35 -14 35 -2 -1 4 -23 18 -50 31 -28 14 -74 44 -103 68 -199 165 -264 226 -295 276 -9 15 -22 27 -29 27 -7 0 -13 7 -13 14 0 8 -13 35 -30 59 -16 25 -30 50 -30 55 0 6 -12 39 -26 74 -34 81 -49 123 -65 176 -11 39 -29 57 -29 30z"></path>
            <path d="M4355 2774 c-17 -42 -19 -54 -5 -54 10 0 24 22 40 64 16 42 -17 32 -35 -10z"></path>
            <path d="M4300 2671 c-12 -23 -13 -51 -2 -51 8 0 42 52 42 64 0 14 -30 4 -40 -13z"></path>
            <path d="M1583 2504 c-51 -52 -93 -99 -93 -104 0 -6 -5 -10 -11 -10 -14 0 -48 -41 -49 -57 0 -7 -6 -13 -13 -13 -23 0 -59 -46 -55 -71 3 -20 15 -9 85 72 45 51 111 123 148 159 79 77 113 120 93 119 -7 0 -55 -43 -105 -95z"></path>
            <path d="M2860 2440 c0 -6 -7 -10 -16 -10 -14 0 -15 -12 -9 -97 4 -54 12 -120 18 -148 14 -67 18 -718 4 -727 -7 -4 -7 -20 2 -47 6 -23 9 -46 6 -51 -10 -17 5 -70 20 -70 16 0 31 91 27 165 -6 95 -6 120 -4 223 1 72 6 104 15 106 6 3 24 7 38 10 14 3 31 17 37 31 10 22 17 25 67 25 35 0 54 4 50 10 -3 6 -22 10 -41 10 -22 0 -37 6 -40 15 -10 26 -34 17 -34 -13 0 -20 -9 -35 -30 -50 -16 -12 -33 -22 -38 -22 -10 0 -22 141 -22 254 0 64 -18 206 -40 316 -5 25 -5 49 0 53 4 5 26 -1 49 -12 22 -12 41 -17 41 -12 0 5 -12 14 -27 20 -16 6 -38 15 -50 21 -15 6 -23 6 -23 0z"></path>
            <path d="M3065 2283 c37 -35 61 -51 63 -43 5 15 -86 99 -108 99 -8 0 12 -25 45 -56z"></path>
            <path d="M1564 2293 c-9 -16 -34 -48 -54 -73 -35 -42 -55 -76 -135 -225 l-33 -61 21 -14 c29 -20 77 -40 91 -40 6 0 -9 11 -34 24 -28 14 -44 29 -42 38 3 21 56 113 118 206 71 109 106 172 96 172 -6 0 -18 -12 -28 -27z"></path>
            <path d="M1582 2160 c0 -19 2 -27 5 -17 2 9 2 25 0 35 -3 9 -5 1 -5 -18z"></path>
            <path d="M3050 2072 c42 -62 132 -152 152 -152 11 0 28 -4 38 -10 29 -15 80 7 128 57 42 42 43 45 25 58 -42 33 -84 30 -44 -2 l22 -18 -19 -25 c-11 -14 -36 -33 -56 -44 -34 -18 -37 -18 -73 -1 -21 9 -74 52 -117 94 -46 45 -70 62 -56 43z"></path>
            <path d="M1550 1975 c0 -85 3 -115 13 -115 9 0 11 28 9 115 -2 63 -7 115 -13 115 -5 0 -9 -50 -9 -115z"></path>
            <path d="M1090 2065 c0 -2 17 -13 38 -24 20 -10 46 -28 56 -40 24 -26 56 -30 35 -4 -8 9 -14 26 -14 37 0 14 -5 20 -15 17 -27 -8 -64 -3 -68 8 -4 11 -32 16 -32 6z"></path>
            <path d="M2666 1758 c-17 -24 -22 -88 -7 -88 5 0 18 16 30 35 28 48 63 48 93 0 29 -44 38 -44 38 0 0 28 -4 35 -20 35 -13 0 -20 7 -20 20 0 17 -7 20 -49 20 -40 0 -53 -4 -65 -22z"></path>
            <path d="M1738 1739 c-23 -13 -25 -79 -3 -79 8 0 15 7 15 15 0 8 12 22 26 32 25 16 28 16 55 0 l29 -16 0 29 c0 29 -1 30 -52 30 -29 0 -61 -5 -70 -11z"></path>
            <path d="M2390 1717 c0 -7 16 -19 36 -26 19 -7 38 -19 41 -27 10 -26 23 -14 23 20 0 26 -5 35 -22 40 -39 10 -78 7 -78 -7z"></path>
            <path d="M2576 1514 c-9 -25 -7 -74 4 -74 10 0 24 22 40 64 9 23 7 26 -14 26 -13 0 -27 -7 -30 -16z"></path>
            <path d="M1960 1485 c0 -26 47 -82 103 -124 15 -12 17 -10 17 18 0 26 -4 31 -25 31 -19 0 -25 5 -25 23 -1 31 -23 57 -49 57 -11 0 -21 -2 -21 -5z"></path>
            <path d="M2240 1439 c0 -19 4 -21 30 -15 17 3 40 2 53 -3 12 -5 41 -14 63 -20 23 -6 53 -23 68 -37 l26 -27 0 36 c0 45 -17 56 -115 73 -105 19 -125 18 -125 -7z"></path>
            <path d="M2123 1435 c-27 -12 -33 -20 -33 -45 l0 -31 30 21 c17 12 49 24 70 27 31 4 40 10 40 24 0 15 -7 19 -37 19 -21 -1 -53 -7 -70 -15z"></path>
            <path d="M2930 1413 c0 -13 5 -23 10 -23 13 0 13 11 0 30 -8 12 -10 11 -10 -7z"></path>
            <path d="M1630 1315 c0 -40 24 -49 34 -12 10 37 7 47 -14 47 -16 0 -20 -7 -20 -35z"></path>
            <path d="M1620 1220 c0 -45 23 -57 34 -17 11 41 7 57 -14 57 -17 0 -20 -7 -20 -40z"></path>
            <path d="M2962 1228 c2 -20 9 -34 19 -36 11 -2 15 4 13 20 -1 13 -3 29 -3 36 -1 6 -8 12 -17 12 -11 0 -14 -8 -12 -32z"></path>
            <path d="M2980 1121 c0 -16 6 -41 14 -56 9 -16 12 -41 9 -61 -4 -22 -2 -34 6 -34 7 0 11 30 11 90 0 83 -1 90 -20 90 -15 0 -20 -7 -20 -29z"></path>
            <path d="M1620 805 c0 -39 28 -153 43 -172 11 -15 77 -18 77 -4 0 5 -11 16 -24 24 -18 12 -29 37 -46 102 -24 90 -50 116 -50 50z"></path>
            <path d="M2083 828 c-21 -10 -34 -58 -17 -58 13 0 104 54 104 62 0 11 -61 9 -87 -4z"></path>
            <path d="M2856 751 c-3 -4 -10 -20 -15 -35 -10 -24 -8 -26 14 -26 22 0 25 4 25 35 0 33 -12 46 -24 26z"></path>
            <path d="M2706 605 c-39 -29 -54 -35 -96 -35 -43 0 -50 -3 -50 -20 0 -18 7 -20 66 -20 59 0 69 3 104 33 25 19 40 41 40 55 0 30 -11 28 -64 -13z"></path>
            <path d="M1812 570 c3 -31 7 -35 43 -43 22 -4 59 -5 83 -2 33 5 42 10 42 26 0 22 -10 23 -63 8 -33 -9 -41 -7 -73 17 l-36 28 4 -34z"></path>
            <path d="M2190 530 c0 -15 7 -20 25 -20 14 0 25 -4 25 -10 0 -5 20 -10 45 -10 41 0 45 2 45 25 0 21 -3 23 -23 16 -15 -6 -34 -4 -56 5 -45 19 -61 18 -61 -6z"></path>
        </g>
    </g>
    <g fill="rgb(123,89,48)" >
        <g >
            <path d="M1000 3976 c0 -6 97 -36 116 -36 10 0 31 -4 48 -9 17 -5 67 -17 111 -26 44 -9 101 -22 126 -30 26 -8 64 -15 85 -15 22 0 55 -4 74 -10 37 -11 318 -15 328 -6 15 16 -25 25 -158 35 -226 17 -416 44 -435 62 -5 5 -32 9 -60 9 -27 1 -61 7 -75 15 -22 12 -160 22 -160 11z"></path>
            <path d="M1600 3977 c0 -6 78 -30 165 -51 39 -10 86 -22 106 -27 20 -5 70 -9 112 -9 42 0 78 -4 82 -10 12 -19 -105 -97 -188 -125 -129 -44 -328 -64 -457 -45 -122 17 -315 61 -352 81 -10 5 -27 9 -37 9 -11 0 -30 4 -43 9 -13 5 -50 17 -83 27 -33 10 -69 24 -80 30 -11 7 -38 17 -60 24 -22 7 -44 15 -50 19 -13 7 -107 40 -117 41 -5 0 -8 -7 -8 -15 0 -8 6 -15 14 -15 8 0 49 -16 91 -36 43 -19 98 -42 124 -50 25 -9 60 -22 76 -29 49 -20 185 -62 260 -79 39 -9 87 -22 108 -28 37 -11 38 -12 15 -21 -12 -5 -45 -15 -73 -22 -58 -15 -168 -55 -308 -114 -54 -23 -106 -41 -115 -41 -34 0 -223 -72 -358 -136 -77 -36 -103 -58 -84 -69 22 -13 196 -6 275 12 83 18 216 79 223 101 6 20 -31 14 -94 -17 -79 -39 -198 -71 -264 -71 -31 0 -50 4 -45 9 14 12 197 84 290 114 44 14 118 40 165 57 47 18 110 41 140 52 30 11 72 28 93 38 20 10 75 26 120 35 45 9 98 20 118 26 20 5 91 9 157 9 178 0 383 45 472 104 19 13 57 44 83 70 42 40 58 49 120 62 40 9 98 23 129 31 l57 16 28 -30 c56 -59 164 -94 316 -100 94 -4 107 -7 107 -23 0 -23 16 -36 70 -53 39 -13 79 -21 215 -43 16 -2 41 -15 55 -28 14 -13 41 -26 60 -29 117 -18 118 -18 211 -161 47 -72 111 -178 141 -236 62 -116 168 -369 168 -399 0 -11 5 -23 11 -26 6 -4 14 -17 19 -29 20 -49 -3 94 -27 167 -52 163 -183 419 -279 546 -30 40 -54 77 -54 82 0 13 24 11 56 -6 16 -8 36 -15 44 -15 9 0 34 -18 55 -41 22 -22 92 -77 155 -121 63 -45 142 -101 175 -124 33 -23 93 -72 134 -109 40 -36 75 -64 78 -61 16 16 -100 140 -182 194 -22 15 -68 47 -102 72 -33 25 -92 67 -130 95 -51 37 -63 51 -49 53 10 2 35 -3 55 -11 20 -8 66 -27 103 -41 199 -77 199 -77 246 -141 61 -82 82 -95 82 -48 0 25 4 22 62 -38 47 -49 63 -60 66 -47 9 46 -137 172 -275 238 -78 38 -317 127 -398 150 -136 38 -235 63 -260 67 -16 3 -44 11 -62 19 -17 8 -38 14 -47 14 -9 0 -16 4 -16 10 0 11 64 30 102 30 43 0 109 16 288 70 58 18 137 41 175 52 39 12 102 31 141 44 135 43 278 42 157 -1 -27 -10 -57 -21 -68 -25 -11 -5 -47 -11 -80 -15 -88 -9 -94 -25 -9 -25 80 0 193 33 257 76 24 16 45 23 58 19 16 -6 19 -1 19 29 0 20 -1 36 -3 36 -50 0 -275 -37 -337 -56 -47 -14 -101 -29 -120 -35 -19 -5 -83 -25 -142 -43 -59 -19 -137 -42 -175 -51 -37 -8 -90 -22 -118 -29 -98 -28 -235 -39 -321 -26 -43 7 -93 18 -111 26 -17 8 -35 14 -41 14 -5 0 -15 7 -22 15 -10 12 -7 15 17 20 15 4 38 11 51 16 13 5 33 9 45 9 27 0 238 102 256 124 12 14 9 16 -19 16 -17 0 -44 -8 -58 -19 -35 -25 -88 -46 -197 -82 -77 -25 -106 -29 -201 -29 -96 0 -122 4 -199 29 -49 17 -97 39 -108 50 -19 19 -19 19 9 35 28 15 25 15 -78 16 -86 0 -108 -3 -108 -14 0 -26 -141 -49 -259 -42 -58 3 -118 10 -135 15 -90 27 -128 34 -198 38 -43 3 -78 2 -78 0z"></path>
            <path d="M4516 3953 c4 -16 11 -34 17 -40 16 -21 21 -298 7 -398 -7 -49 -16 -119 -19 -155 -4 -36 -13 -75 -19 -87 -7 -12 -12 -38 -12 -59 0 -31 2 -35 15 -24 8 7 15 28 15 47 0 19 5 44 12 56 26 50 51 365 38 498 -16 173 -20 189 -41 189 -16 0 -18 -5 -13 -27z"></path>
            <path d="M136 3908 c-4 -26 -5 -60 0 -75 8 -27 8 -27 12 10 2 20 2 54 0 75 l-4 37 -8 -47z"></path>
            <path d="M110 3615 c0 -57 4 -95 10 -95 6 0 10 38 10 95 0 57 -4 95 -10 95 -6 0 -10 -38 -10 -95z"></path>
            <path d="M2243 3559 c-24 -15 -41 -43 -72 -117 -23 -53 -50 -113 -60 -132 -10 -19 -24 -56 -31 -82 -7 -27 -16 -48 -19 -48 -4 0 -13 21 -20 48 -8 26 -24 70 -37 98 -13 28 -24 60 -24 71 0 11 -7 26 -15 33 -13 11 -15 9 -15 -13 0 -26 25 -93 43 -116 18 -21 56 -143 57 -178 0 -26 4 -33 20 -33 11 0 20 6 20 13 0 7 16 51 36 97 20 47 43 102 50 123 29 78 85 177 109 193 25 16 27 16 49 -5 28 -26 34 -38 85 -167 22 -55 45 -130 51 -165 14 -82 29 -129 41 -129 5 0 9 -13 9 -30 0 -19 5 -30 14 -30 15 0 28 34 16 47 -4 4 -12 40 -19 78 -6 39 -15 96 -21 127 -5 31 -22 85 -39 120 -16 35 -34 81 -40 103 -6 22 -24 57 -41 78 -27 32 -37 37 -73 37 -25 0 -55 -9 -74 -21z"></path>
            <path d="M4250 3556 c0 -7 16 -48 35 -90 29 -64 35 -89 35 -146 0 -38 -6 -84 -14 -102 -15 -36 -26 -74 -51 -183 -9 -38 -21 -86 -26 -106 -14 -55 -12 -119 5 -119 9 0 15 18 19 53 3 28 18 90 32 137 14 47 30 101 35 120 5 19 13 54 19 76 6 23 11 85 11 138 0 84 -3 103 -25 147 -23 45 -58 89 -70 89 -3 0 -5 -6 -5 -14z"></path>
            <path d="M2700 3515 c0 -8 5 -15 10 -15 6 0 10 7 10 15 0 8 -4 15 -10 15 -5 0 -10 -7 -10 -15z"></path>
            <path d="M127 3383 c3 -71 10 -136 14 -145 5 -9 9 -32 9 -52 0 -40 8 -66 21 -66 14 0 11 58 -5 89 -9 17 -15 56 -15 97 1 62 -18 204 -26 204 -2 0 -1 -57 2 -127z"></path>
            <path d="M1931 3498 c0 -7 4 -22 9 -33 7 -17 9 -15 9 13 1 17 -3 32 -9 32 -5 0 -10 -6 -9 -12z"></path>
            <path d="M1557 3493 c-4 -3 -7 -31 -6 -62 l1 -56 10 38 c11 39 27 47 48 21 26 -31 46 -34 86 -15 22 11 56 22 77 26 22 4 36 12 34 19 -6 16 -47 11 -101 -14 l-47 -23 -36 37 c-35 35 -53 43 -66 29z"></path>
            <path d="M1087 3413 c-144 -221 -210 -339 -266 -478 -18 -44 -36 -89 -41 -100 -5 -11 -11 -33 -15 -50 -3 -16 -9 -40 -12 -52 -9 -36 10 -26 29 15 9 20 27 62 41 92 13 30 28 66 32 80 22 70 150 304 230 418 25 35 37 17 30 -46 -9 -76 -14 -92 -29 -92 -13 0 -30 -29 -39 -65 -3 -11 -15 -45 -27 -75 -12 -30 -31 -82 -41 -115 -22 -65 -106 -230 -146 -282 -26 -35 -47 -42 -57 -18 -8 21 -26 19 -26 -3 0 -22 30 -52 53 -52 22 0 103 109 158 215 49 94 119 287 119 328 0 14 7 30 15 37 12 10 15 7 21 -16 8 -33 -3 -272 -16 -334 -12 -57 -13 -260 -1 -279 21 -32 31 3 31 107 0 59 5 134 10 167 6 33 10 177 9 320 -1 143 -2 279 -1 303 1 23 -3 42 -8 42 -5 0 -28 -30 -53 -67z"></path>
            <path d="M2666 3436 c-9 -21 -16 -43 -16 -48 0 -11 -27 -75 -41 -98 -5 -8 -12 -22 -15 -30 -18 -45 -22 -58 -33 -91 -14 -43 -14 -49 -1 -49 6 0 10 9 10 20 0 11 10 37 23 58 29 47 51 99 78 184 23 76 21 113 -5 54z"></path>
            <path d="M1840 3445 c0 -8 4 -15 9 -15 5 0 11 7 15 15 3 9 0 15 -9 15 -8 0 -15 -7 -15 -15z"></path>
            <path d="M3455 3333 c11 -87 11 -506 0 -600 -10 -98 6 -95 33 6 19 69 22 104 22 297 0 199 -2 226 -22 292 -13 39 -27 72 -32 72 -5 0 -5 -28 -1 -67z"></path>
            <path d="M1551 3327 c-1 -27 55 -127 71 -127 13 0 9 9 -21 53 -15 23 -33 56 -39 72 l-10 30 -1 -28z"></path>
            <path d="M2910 3295 c0 -26 14 -33 26 -14 4 7 25 9 61 4 39 -5 53 -3 49 4 -4 6 -32 11 -62 11 -30 0 -54 5 -54 10 0 6 -4 10 -10 10 -5 0 -10 -11 -10 -25z"></path>
            <path d="M1640 3175 c0 -2 36 -58 80 -124 44 -65 80 -124 80 -130 0 -6 5 -11 10 -11 15 0 12 16 -5 30 -8 7 -15 17 -15 23 0 15 -133 216 -142 217 -5 0 -8 -2 -8 -5z"></path>
            <path d="M4470 3133 c0 -16 -6 -48 -14 -73 -8 -25 -20 -65 -27 -90 -10 -41 -23 -75 -49 -135 -5 -11 -17 -40 -28 -65 -30 -72 -128 -227 -185 -293 -77 -89 -199 -191 -310 -259 -54 -33 -96 -62 -94 -65 8 -7 136 66 211 120 150 108 253 220 342 369 30 51 54 95 54 99 0 4 13 36 29 71 29 64 41 98 61 178 6 25 16 59 21 76 12 40 12 94 -1 94 -5 0 -10 -12 -10 -27z"></path>
            <path d="M2923 3028 c-68 -67 -111 -102 -123 -100 -17 3 -90 -70 -90 -90 0 -4 9 -17 20 -28 l20 -20 0 21 c0 13 53 72 153 169 83 82 146 149 138 150 -8 0 -61 -46 -118 -102z"></path>
            <path d="M180 3076 c0 -21 6 -36 15 -40 16 -6 19 12 9 52 -9 33 -24 26 -24 -12z"></path>
            <path d="M2040 3061 c-16 -31 -12 -51 10 -51 16 0 20 7 20 35 0 39 -14 46 -30 16z"></path>
            <path d="M200 3008 c0 -26 12 -58 22 -58 14 0 5 63 -9 68 -7 2 -13 -2 -13 -10z"></path>
            <path d="M230 2905 c0 -14 5 -25 10 -25 6 0 10 -9 10 -21 0 -12 6 -35 14 -52 7 -18 21 -48 30 -69 9 -20 16 -41 16 -46 0 -25 58 -118 118 -187 35 -41 68 -75 71 -75 4 0 37 -29 73 -65 37 -36 73 -65 80 -65 7 0 -3 14 -22 31 -92 82 -176 168 -213 222 -68 97 -81 120 -101 172 -10 28 -27 73 -38 100 -11 28 -23 62 -25 78 -7 34 -23 36 -23 2z"></path>
            <path d="M2520 2895 c0 -30 3 -35 24 -35 23 0 24 2 13 35 -6 19 -16 35 -24 35 -8 0 -13 -13 -13 -35z"></path>
            <path d="M1833 2820 c-7 -11 -13 -25 -13 -31 0 -6 -13 -30 -28 -53 -48 -70 -46 -73 7 -17 45 47 52 59 49 88 -3 31 -4 32 -15 13z"></path>
            <path d="M2600 2765 c0 -28 4 -35 20 -35 11 0 20 -7 20 -15 0 -8 3 -15 8 -15 4 0 30 -41 57 -91 28 -50 65 -108 83 -131 23 -28 32 -50 32 -76 0 -57 10 -82 32 -82 18 0 19 5 13 50 -6 46 -5 51 17 59 17 7 19 10 5 10 -10 1 -22 13 -27 27 -6 15 -21 41 -33 58 -31 43 -112 177 -120 199 -4 10 -17 17 -31 17 -17 0 -30 10 -43 30 -23 39 -33 38 -33 -5z"></path>
            <path d="M1880 2698 l-19 -43 21 -3 c26 -5 38 13 38 56 0 44 -17 40 -40 -10z"></path>
            <path d="M1597 2518 c-167 -167 -267 -277 -344 -380 -35 -47 -71 -89 -79 -92 -8 -3 -12 -10 -9 -16 12 -19 34 -10 49 18 8 16 34 51 58 79 122 144 263 300 362 401 61 61 105 112 98 112 -7 0 -67 -55 -135 -122z"></path>
            <path d="M1816 2582 c-10 -12 -29 -50 -42 -86 l-24 -66 25 0 c21 0 25 5 25 30 0 17 4 30 9 30 14 0 33 55 29 85 l-3 27 -19 -20z"></path>
            <path d="M2931 2413 c0 -5 28 -32 62 -62 34 -30 124 -114 200 -188 75 -73 141 -133 146 -133 5 0 17 -7 26 -16 9 -9 23 -13 32 -10 13 5 6 14 -33 40 -27 18 -107 89 -179 156 -124 117 -241 220 -251 220 -2 0 -4 -3 -3 -7z"></path>
            <path d="M1714 2335 c-19 -46 -18 -65 5 -65 20 0 31 25 31 73 0 38 -18 34 -36 -8z"></path>
            <path d="M749 2227 c19 -21 81 -54 81 -43 0 2 -24 18 -52 36 -48 29 -51 30 -29 7z"></path>
            <path d="M1676 2138 c-10 -38 -7 -48 14 -48 16 0 20 7 20 35 0 40 -24 49 -34 13z"></path>
            <path d="M3688 2132 c-26 -9 -50 -20 -54 -24 -4 -5 -18 -8 -31 -8 -13 0 -46 -11 -73 -25 -27 -14 -58 -25 -69 -25 -20 0 -37 -17 -27 -27 3 -3 38 8 78 25 66 28 166 65 211 79 9 3 17 9 17 14 0 5 -1 9 -2 8 -2 0 -24 -8 -50 -17z"></path>
            <path d="M1656 1998 c-10 -38 -7 -48 14 -48 16 0 20 7 20 35 0 40 -24 49 -34 13z"></path>
            <path d="M1646 1908 c-10 -38 -7 -48 14 -48 16 0 20 7 20 35 0 40 -24 49 -34 13z"></path>
            <path d="M1630 1830 c-13 -24 -3 -70 16 -70 10 0 14 13 14 45 0 48 -12 58 -30 25z"></path>
            <path d="M2870 1790 c0 -48 25 -56 35 -10 7 33 1 50 -21 50 -10 0 -14 -12 -14 -40z"></path>
            <path d="M2673 1775 c-15 -11 -32 -48 -54 -118 -35 -112 -76 -202 -106 -230 -19 -16 -22 -16 -53 0 -93 46 -278 48 -360 3 -23 -12 -26 -10 -62 29 -20 23 -61 91 -89 149 -29 59 -59 115 -67 124 -30 36 -142 35 -162 -2 -14 -27 -80 -282 -81 -316 l-1 -29 -10 33 c-13 37 -23 40 -38 12 -8 -14 -8 -31 -2 -53 13 -44 9 -263 -6 -314 -10 -32 -18 -43 -33 -43 -16 0 -19 -4 -13 -22 9 -31 9 -32 42 -20 l29 10 6 -126 c3 -85 11 -145 24 -181 17 -51 22 -56 82 -87 34 -18 75 -44 90 -58 22 -21 37 -26 80 -26 29 0 61 5 72 10 34 18 159 13 219 -10 69 -25 138 -25 215 1 53 18 74 20 176 14 l116 -7 34 30 c19 16 59 45 90 65 74 47 89 83 89 217 0 84 2 99 15 94 8 -4 18 -18 21 -33 4 -14 10 -30 14 -36 5 -5 14 -29 21 -52 8 -31 18 -43 31 -43 23 0 23 22 -2 90 -11 30 -20 63 -20 72 0 10 -6 18 -13 18 -7 0 -21 14 -31 31 -14 24 -20 58 -23 148 -2 64 -6 177 -9 251 -3 74 -4 183 -4 243 2 102 1 107 -19 107 -15 0 -21 -6 -21 -22 -1 -21 -2 -20 -17 7 -31 59 -63 85 -108 85 -22 0 -50 -7 -62 -15z m94 -47 c31 -35 49 -75 66 -158 30 -137 38 -279 31 -552 -5 -229 -9 -268 -25 -304 -11 -22 -30 -46 -43 -52 -13 -5 -49 -31 -81 -57 l-58 -47 -90 10 c-97 11 -185 -1 -247 -33 -30 -15 -34 -15 -98 9 -108 41 -167 43 -318 11 -24 -5 -37 -1 -64 21 -18 16 -60 42 -93 59 -59 30 -60 32 -78 94 -13 50 -17 110 -19 270 -2 240 7 316 64 541 39 155 43 165 69 174 42 15 56 1 112 -111 66 -132 108 -196 151 -228 l36 -27 26 25 c30 28 79 50 93 42 5 -3 27 -1 49 5 27 7 52 8 78 1 20 -6 50 -13 66 -16 16 -4 44 -22 62 -41 l32 -36 39 36 c47 42 91 128 128 251 31 103 48 135 73 135 10 0 28 -10 39 -22z"></path>
            <path d="M2293 1392 c-24 -2 -43 -7 -43 -12 0 -7 80 -2 89 6 8 7 -5 9 -46 6z"></path>
            <path d="M2442 1270 c-7 -11 -9 -20 -4 -20 4 0 13 9 20 20 7 11 9 20 4 20 -4 0 -13 -9 -20 -20z"></path>
            <path d="M1927 1039 c-9 -6 -26 -9 -37 -7 -10 2 -18 -1 -17 -7 1 -5 9 -9 17 -8 8 1 23 -3 33 -9 19 -10 115 -13 124 -4 3 2 2 14 -2 25 -5 17 -14 21 -53 21 -26 0 -55 -5 -65 -11z"></path>
            <path d="M2479 1034 c-20 -24 13 -44 70 -44 62 0 75 10 55 38 -12 17 -25 22 -63 22 -32 0 -53 -5 -62 -16z"></path>
            <path d="M2657 1034 c-16 -16 -6 -35 16 -32 12 2 22 10 22 18 0 16 -26 25 -38 14z"></path>
            <path d="M1728 914 c-10 -9 10 -76 29 -103 11 -14 39 -36 64 -49 38 -20 55 -23 121 -19 65 3 88 10 152 43 73 37 99 65 79 85 -12 12 -183 -51 -183 -67 0 -13 -77 -30 -87 -20 -4 3 3 6 15 6 38 0 25 29 -15 35 -54 9 -80 21 -128 60 -23 19 -44 32 -47 29z"></path>
            <path d="M2715 884 c-71 -40 -123 -43 -230 -15 -76 20 -95 18 -95 -8 0 -41 82 -86 178 -96 138 -16 232 31 232 115 0 48 -6 49 -85 4z"></path>
            <path d="M2152 1731 c-23 -4 -55 -17 -70 -28 -23 -17 -27 -28 -30 -82 -3 -55 0 -63 23 -85 22 -20 41 -26 113 -32 47 -3 129 -4 182 -1 88 6 97 8 117 34 19 23 23 41 23 93 0 99 -10 105 -180 107 -74 1 -154 -2 -178 -6z m308 -51 c16 -25 11 -83 -10 -110 -18 -24 -22 -25 -152 -25 -158 0 -211 14 -103 27 72 9 88 10 175 6 35 -2 54 2 66 14 16 15 14 18 -21 32 -45 19 -185 22 -236 5 -19 -7 -42 -21 -51 -33 -15 -18 -19 -19 -28 -6 -23 36 7 85 60 96 14 3 30 7 35 9 6 3 65 3 133 2 97 -2 125 -5 132 -17z"></path>
            <path d="M1626 1698 c-10 -38 -7 -48 14 -48 16 0 20 7 20 35 0 40 -24 49 -34 13z"></path>
            <path d="M1616 1618 c-11 -42 -7 -58 14 -58 17 0 20 7 20 40 0 45 -23 57 -34 18z"></path>
            <path d="M1556 1357 c-5 -15 -6 -31 -2 -34 11 -11 18 5 14 34 l-4 28 -8 -28z"></path>
            <path d="M2950 1341 c0 -5 -3 -18 -6 -28 -5 -16 -4 -16 10 1 18 23 20 36 6 36 -5 0 -10 -4 -10 -9z"></path>
            <path d="M1530 1258 c0 -32 3 -39 10 -28 13 20 13 70 0 70 -5 0 -10 -19 -10 -42z"></path>
            <path d="M2961 1261 c-15 -28 -14 -46 5 -62 12 -10 14 -23 10 -51 -4 -27 -1 -48 13 -73 l18 -35 6 53 c3 33 0 64 -9 86 -8 18 -14 46 -14 62 0 35 -16 46 -29 20z"></path>
            <path d="M1480 881 c-16 -31 -12 -51 10 -51 16 0 20 7 20 35 0 39 -14 46 -30 16z"></path>
            <path d="M2970 645 c0 -39 14 -46 30 -16 16 31 12 51 -10 51 -16 0 -20 -7 -20 -35z"></path>
            <path d="M2780 260 c0 -11 -7 -20 -15 -20 -8 0 -15 -9 -15 -20 0 -11 -7 -20 -15 -20 -10 0 -15 -10 -15 -30 0 -26 2 -29 18 -19 19 12 79 90 88 114 5 11 -1 15 -20 15 -19 0 -26 -5 -26 -20z"></path>
            <path d="M1701 213 c8 -9 22 -25 32 -35 16 -17 17 -16 17 17 0 33 -2 35 -31 35 -28 0 -30 -2 -18 -17z"></path>
            <path d="M1785 130 c3 -5 19 -19 35 -30 l30 -21 0 30 c0 29 -3 31 -36 31 -20 0 -33 -4 -29 -10z"></path>
            <path d="M1870 72 c0 -4 15 -16 33 -27 l32 -20 -35 -5 c-27 -4 -31 -7 -17 -13 10 -4 32 -7 48 -7 26 0 29 3 29 34 0 22 -6 36 -16 40 -23 9 -74 7 -74 -2z"></path>
            <path d="M2523 65 c-7 -8 -13 -26 -13 -40 0 -22 4 -25 33 -25 17 0 39 5 47 10 12 8 9 10 -12 10 -35 0 -36 13 -3 28 14 6 25 16 25 22 0 15 -63 11 -77 -5z"></path>
        </g>
    </g>
    <g fill="rgb(23,21,20)" >
        <g >
            <path d="M2270 3552 c-36 -17 -82 -91 -121 -191 -9 -25 -32 -82 -51 -126 -19 -44 -42 -114 -52 -155 -27 -115 -43 -158 -93 -250 -26 -47 -59 -110 -74 -140 -15 -30 -43 -81 -62 -113 -19 -31 -42 -81 -52 -110 -9 -28 -27 -79 -40 -112 -21 -55 -36 -132 -66 -360 -6 -44 -15 -102 -20 -130 -5 -27 -11 -93 -14 -145 -2 -52 -10 -135 -16 -185 -6 -49 -10 -103 -10 -120 1 -16 4 -93 7 -170 5 -126 3 -145 -15 -188 -12 -27 -27 -47 -36 -47 -8 0 -15 -8 -15 -18 0 -10 -11 -34 -25 -53 -55 -73 -66 -186 -29 -277 20 -49 133 -171 178 -193 155 -75 606 -110 891 -69 33 5 93 13 134 19 89 14 196 54 234 90 41 38 90 143 95 206 4 51 -18 146 -39 169 -5 6 -9 17 -9 26 0 9 -9 25 -21 36 -35 31 -41 53 -46 158 -5 103 -8 474 -5 741 2 147 -8 311 -28 450 -6 39 -14 95 -18 126 -6 41 -16 67 -37 92 -17 19 -52 76 -80 126 -27 50 -58 94 -68 97 -17 5 -44 40 -94 123 -18 28 -23 51 -23 103 0 41 -8 91 -19 125 -11 32 -25 87 -31 122 -6 35 -29 108 -51 162 -21 53 -39 101 -39 106 0 18 -72 93 -88 93 -9 0 -33 -8 -52 -18z m68 -69 c19 -27 70 -148 97 -228 7 -22 16 -69 20 -104 4 -35 14 -79 21 -98 8 -19 19 -68 24 -111 15 -114 31 -148 130 -258 26 -29 61 -83 79 -120 18 -38 45 -82 61 -99 46 -48 68 -197 76 -517 l6 -208 -35 35 c-31 31 -41 35 -85 35 -34 0 -56 -5 -68 -17 -22 -23 -54 -92 -54 -120 0 -12 -4 -24 -9 -28 -5 -3 -17 -31 -26 -63 -9 -31 -31 -80 -48 -108 l-30 -51 -31 17 c-17 10 -49 21 -71 25 l-40 8 58 12 c92 20 137 80 123 167 -15 93 -47 108 -227 108 -70 0 -138 -4 -151 -9 -13 -5 -35 -12 -49 -15 -14 -3 -38 -17 -52 -30 -24 -22 -27 -32 -27 -90 0 -55 4 -69 22 -86 13 -11 32 -23 43 -25 107 -21 129 -28 110 -36 -11 -4 -35 -8 -53 -8 -18 -1 -42 -6 -54 -12 -16 -9 -24 -7 -44 12 -26 25 -108 178 -118 223 -4 16 -20 41 -36 57 -25 26 -35 29 -93 29 -76 0 -100 -15 -122 -75 l-15 -40 4 70 c7 101 22 205 35 245 6 19 11 54 11 77 0 103 56 330 91 368 5 5 9 17 9 26 0 21 28 82 61 134 40 62 159 295 174 340 7 22 20 72 30 110 9 39 26 86 36 106 10 20 19 43 19 51 0 8 11 35 24 60 13 24 27 55 31 69 10 36 87 183 99 191 18 12 24 10 44 -19z m434 -1750 c34 -37 48 -66 64 -132 28 -123 36 -235 35 -532 0 -365 -1 -369 -90 -426 -31 -20 -70 -48 -87 -63 -32 -27 -33 -27 -146 -22 -99 4 -124 2 -181 -17 -81 -26 -89 -26 -153 -2 -92 33 -166 34 -312 5 -28 -5 -38 -2 -62 21 -15 15 -57 41 -91 59 -59 30 -65 36 -84 87 -18 49 -20 77 -18 313 1 266 6 312 50 491 41 166 52 195 80 206 48 18 73 -7 136 -133 57 -114 134 -218 162 -218 8 0 31 11 51 25 21 14 51 25 70 25 18 0 45 5 59 12 25 11 30 10 145 -24 19 -6 47 -22 63 -36 l27 -26 36 35 c47 44 84 120 123 246 22 70 39 107 54 118 30 21 39 19 69 -12z m-313 -47 c27 -25 28 -79 1 -116 -17 -25 -29 -29 -91 -35 -39 -4 -108 -4 -154 0 -69 5 -89 11 -110 31 -54 50 -14 119 77 135 24 4 91 7 150 6 88 -2 110 -5 127 -21z m-858 -916 c11 -71 28 -127 43 -149 6 -7 29 -21 51 -31 22 -9 62 -34 89 -54 47 -37 49 -37 120 -32 39 3 94 8 121 11 37 5 71 0 130 -16 106 -30 165 -34 207 -16 74 33 121 39 203 27 90 -14 130 -8 162 22 13 12 51 40 85 62 86 56 106 95 107 206 1 78 2 83 15 59 7 -14 19 -49 25 -76 14 -59 6 -101 -37 -178 -29 -53 -81 -87 -186 -120 -204 -63 -665 -71 -891 -14 -142 36 -159 45 -233 128 -85 94 -92 107 -92 170 0 56 11 91 43 138 l22 33 3 -53 c1 -28 7 -81 13 -117z"></path>
            <path d="M1945 1029 c-11 -16 15 -30 50 -27 19 2 30 9 30 18 0 19 -70 27 -80 9z"></path>
            <path d="M2497 1026 c-8 -21 2 -26 56 -26 41 0 48 3 43 16 -3 9 -6 18 -6 20 0 2 -20 4 -44 4 -28 0 -46 -5 -49 -14z"></path>
            <path d="M2720 874 c-46 -29 -63 -34 -115 -34 -34 0 -84 7 -111 15 -61 18 -94 19 -94 2 0 -42 95 -78 206 -79 130 -1 184 30 184 107 0 31 -2 31 -70 -11z"></path>
            <path d="M1740 880 c0 -6 7 -26 15 -46 18 -43 97 -84 165 -84 80 0 222 52 245 90 16 26 -10 27 -70 4 -52 -19 -84 -24 -154 -24 -85 0 -91 2 -141 35 -57 39 -60 40 -60 25z"></path>
            <path d="M2150 1600 c0 -16 27 -23 58 -15 l27 8 -25 7 c-37 12 -60 11 -60 0z"></path>
            <path d="M2380 1601 c-22 -4 -30 -9 -23 -14 15 -9 63 2 63 14 0 5 -1 8 -2 8 -2 -1 -19 -4 -38 -8z"></path>
            <path d="M2742 2867 c-24 -25 -28 -37 -12 -37 5 0 16 14 25 30 19 36 16 38 -13 7z"></path>
            <path d="M1607 359 c3 -19 15 -47 26 -64 56 -82 194 -209 265 -243 17 -9 32 -19 32 -24 0 -4 -434 -8 -965 -8 -637 0 -965 -3 -965 -10 0 -7 787 -10 2340 -10 1553 0 2340 3 2340 10 0 7 -364 10 -1071 10 -951 0 -1070 2 -1059 15 7 8 16 15 20 15 26 0 157 89 195 133 48 55 85 124 85 157 0 24 -5 24 -61 4 -115 -40 -195 -48 -499 -49 -349 0 -378 4 -672 92 -16 5 -17 1 -11 -28z m213 -85 c92 -20 346 -44 471 -44 113 0 368 24 433 41 21 6 40 8 42 6 3 -2 -21 -31 -53 -64 -40 -41 -82 -71 -136 -98 -42 -21 -82 -44 -88 -52 -9 -10 -62 -13 -250 -13 l-238 0 -88 59 c-48 32 -117 89 -153 126 -60 62 -63 67 -35 60 17 -4 59 -14 95 -21z"></path>
        </g>
    </g>
    <g fill="rgb(1,1,1)" >
        <g >
            <path d="M2269 3537 c-16 -13 -92 -155 -104 -196 -4 -14 -18 -45 -31 -69 -13 -25 -24 -52 -24 -60 0 -8 -9 -31 -19 -51 -10 -20 -27 -67 -36 -106 -10 -38 -23 -88 -30 -110 -15 -45 -134 -278 -174 -340 -33 -52 -61 -113 -61 -134 0 -9 -4 -21 -9 -26 -35 -38 -91 -265 -91 -368 0 -23 -5 -58 -11 -77 -26 -78 -45 -306 -55 -630 -4 -135 -3 -231 2 -227 5 5 12 57 15 115 7 111 16 169 50 312 34 144 51 170 117 170 40 0 87 -42 98 -86 12 -53 93 -199 129 -234 l35 -34 39 22 c21 12 53 22 71 22 18 0 48 7 67 17 33 15 38 15 82 0 25 -10 53 -17 62 -17 9 0 33 -12 54 -26 24 -16 46 -23 59 -20 27 7 79 94 101 168 9 32 21 60 26 63 5 4 9 16 9 29 0 12 12 45 26 74 30 60 59 74 100 48 45 -30 69 -84 102 -226 13 -58 8 611 -6 720 -20 158 -32 204 -62 235 -16 17 -43 61 -61 99 -18 37 -53 91 -79 120 -96 108 -121 155 -124 238 -2 29 -12 80 -23 113 -12 33 -24 87 -28 120 -11 91 -77 273 -122 333 -26 34 -64 42 -94 19z m181 -1825 c63 -31 70 -110 15 -162 -44 -41 -164 -52 -288 -26 -93 20 -117 39 -117 94 0 38 37 79 79 88 14 3 35 9 46 14 11 5 67 9 125 9 79 0 114 -4 140 -17z"></path>
            <path d="M1602 1037 c-7 -16 -28 -48 -47 -71 -19 -24 -41 -59 -50 -79 -18 -44 -20 -188 -3 -220 6 -12 42 -56 80 -98 48 -54 81 -81 111 -92 158 -58 384 -83 662 -73 257 9 393 34 515 94 48 23 59 35 88 90 21 39 36 84 39 117 9 88 -24 193 -79 249 l-28 30 -1 -120 c-1 -149 -14 -179 -107 -240 -34 -22 -73 -51 -86 -63 -28 -26 -38 -27 -153 -16 -84 8 -140 0 -211 -32 -19 -8 -41 -13 -50 -10 -176 51 -215 54 -373 32 -43 -6 -50 -4 -95 30 -27 21 -67 46 -89 55 -45 19 -59 33 -69 70 -4 14 -12 41 -17 60 -6 19 -14 98 -18 175 -6 123 -8 136 -19 112z"></path>
            <path d="M2520 1020 c0 -5 14 -10 30 -10 17 0 30 5 30 10 0 6 -13 10 -30 10 -16 0 -30 -4 -30 -10z"></path>
            <path d="M2766 882 c-4 -7 -25 -21 -46 -32 -46 -23 -182 -28 -237 -8 -36 13 -52 6 -34 -16 15 -18 56 -27 151 -33 93 -6 146 10 166 50 15 29 15 63 0 39z"></path>
            <path d="M2065 818 c-11 -7 -60 -13 -110 -14 -128 -3 -123 -2 -96 -20 19 -13 37 -15 92 -10 71 6 149 31 149 47 0 12 -11 11 -35 -3z"></path>
            <path d="M1620 351 c0 -17 53 -88 113 -150 34 -35 102 -90 150 -122 l88 -59 268 0 c213 0 271 3 280 13 6 8 46 31 88 52 54 26 95 56 133 96 55 57 109 144 97 156 -4 3 -26 -1 -49 -10 -66 -24 -131 -36 -281 -52 -173 -19 -252 -19 -442 0 -155 15 -238 30 -362 65 -83 23 -83 23 -83 11z"></path>
        </g>
    </g>
</svg>