<svg xmlns="http://www.w3.org/2000/svg" width="512" height="512" viewBox="0 0 512 512" version="1.1">
	<path d="M 237.655 18.597 C 213.395 22.980, 188.667 36.050, 170.913 53.875 C 160.015 64.818, 155.108 71.667, 148.129 85.682 C 143.659 94.658, 138 108.818, 138 111.026 C 138 112.665, 150.867 121.714, 156.376 123.950 C 161.009 125.830, 162.345 125.984, 165.845 125.042 C 168.555 124.312, 170.475 123.005, 171.576 121.140 C 173.366 118.111, 176.829 115.496, 177.786 116.453 C 178.111 116.778, 177.386 119.085, 176.174 121.579 C 173.379 127.332, 169.276 129.205, 159.547 129.167 C 148.988 129.125, 145.162 127.174, 138.886 118.629 C 136.069 114.794, 136.034 114.780, 135.154 117.129 C 133.436 121.713, 129.079 145.619, 127.995 156.410 C 125.767 178.590, 120.867 202.762, 114.295 223.989 C 108.633 242.275, 107.834 250.420, 110.984 257.742 C 113.634 263.902, 121.493 271.696, 128.773 275.385 C 133.987 278.027, 145.104 281.333, 152.770 282.521 C 155.118 282.885, 157.652 283.795, 158.400 284.543 C 159.149 285.292, 160.546 289.108, 161.506 293.024 C 162.466 296.941, 164.301 301.392, 165.584 302.917 C 170.492 308.750, 185.044 313.011, 205 314.460 C 221.578 315.663, 222.159 315.810, 221.810 318.731 C 221.552 320.887, 220.582 321.633, 216.035 323.173 C 209.030 325.546, 205.196 329.326, 201.002 337.996 C 197.658 344.909, 197.588 344.974, 191.377 347.041 C 187.936 348.186, 183.530 350.387, 181.586 351.932 C 179.137 353.878, 174.787 355.558, 167.418 357.405 C 150.830 361.561, 148.018 363.548, 137.562 378.500 C 134.870 382.350, 130.042 389.176, 126.834 393.669 C 123.625 398.162, 121 402.499, 121 403.307 C 121 405.639, 127.711 414.958, 134.120 421.527 C 137.354 424.842, 140 428.395, 140 429.424 C 140 431.842, 131.825 459.570, 128.535 468.312 C 127.141 472.016, 126 475.934, 126 477.020 C 126 479.148, 132.083 486.439, 135.291 488.156 C 137.181 489.167, 137.228 488.957, 136.541 482.540 C 135.892 476.479, 136.150 474.949, 139.380 465.687 C 141.334 460.084, 144.074 451.646, 145.470 446.936 C 146.866 442.226, 148.634 437.516, 149.399 436.470 C 150.749 434.623, 150.945 434.650, 156.145 437.415 C 159.090 438.981, 162.266 440.991, 163.203 441.881 C 164.799 443.398, 169.128 460.679, 172.001 477 C 173.627 486.239, 175.104 488.185, 180.207 487.805 C 186.419 487.342, 186.657 486.365, 184.793 468.994 C 183.230 454.437, 183.239 453.713, 185.047 449.627 C 186.946 445.333, 190.843 427.963, 198.086 391.500 C 200.271 380.500, 202.293 370.841, 202.580 370.036 C 202.893 369.156, 205.128 372.354, 208.171 378.036 C 215.506 391.729, 221.538 400.719, 223.893 401.466 C 226.405 402.263, 233.556 399.225, 239.908 394.661 C 244.209 391.572, 245.288 391.282, 254.800 390.658 L 265.055 389.986 272.115 394.945 C 275.998 397.672, 280.745 400.421, 282.664 401.054 C 285.807 402.091, 286.401 401.972, 288.661 399.853 C 291.185 397.485, 302.277 379.727, 305.590 372.750 C 307.132 369.502, 309 367.772, 309 369.591 C 309 371.232, 315.307 406.246, 316.459 411 C 317.191 414.025, 318.069 417.725, 318.408 419.223 L 319.025 421.946 304.369 422.223 C 284.526 422.598, 285.913 420.432, 285.679 451.410 L 285.500 475.153 288.178 477.467 C 289.651 478.740, 294.207 481.630, 298.301 483.890 L 305.746 488 319.301 488 C 332.575 488, 332.895 487.948, 334.826 485.494 C 335.910 484.116, 337.315 479.954, 337.948 476.244 C 339.745 465.723, 344.037 447.013, 345.279 444.287 C 345.975 442.760, 348.979 440.525, 353.176 438.411 C 356.902 436.535, 360.172 435, 360.443 435 C 360.714 435, 362.109 438.938, 363.543 443.750 C 364.978 448.563, 367.972 457.877, 370.197 464.448 C 373.732 474.885, 374.167 477.130, 373.637 482.198 C 373.236 486.034, 373.394 488, 374.102 488 C 376.201 488, 384.067 481.582, 384.607 479.428 C 384.932 478.134, 383.076 471.210, 380.077 462.530 C 374.683 446.912, 371 433.659, 371 429.862 C 371 428.431, 373.030 425.463, 376.358 422.029 C 379.304 418.988, 383.810 413.510, 386.370 409.856 L 391.024 403.213 386.667 397.856 C 384.271 394.910, 379.001 387.555, 374.955 381.511 C 363.960 365.082, 361.243 362.476, 352.127 359.616 C 347.932 358.300, 341.870 356.642, 338.655 355.931 C 334.653 355.047, 332.350 353.938, 331.352 352.414 C 330.077 350.469, 326.839 348.883, 315.845 344.818 C 313.943 344.114, 312.479 342.196, 310.682 338.051 C 307.455 330.612, 302.867 325.429, 298.200 323.950 C 292.781 322.232, 290 320.213, 290 317.996 C 290 315.576, 290.486 315.469, 310.147 313.537 C 337.366 310.861, 344.729 307.092, 348.860 293.717 C 352.083 283.283, 351.969 283.396, 360.492 282.129 C 387.070 278.176, 404.553 263.055, 402.712 245.613 C 402.415 242.801, 400.075 233.975, 397.512 226 C 389.258 200.322, 385.083 179.040, 383.040 152.226 C 378.724 95.584, 350.129 48.858, 307.583 28.927 C 284.591 18.157, 260.109 14.540, 237.655 18.597 M 247.095 49.521 C 233.523 51.978, 217.065 58.044, 198.448 67.450 C 179.775 76.885, 159.915 89.217, 154.250 94.896 C 150.778 98.376, 149.940 102, 152.607 102 C 153.729 102, 154.009 102.528, 153.536 103.750 C 153.163 104.713, 152.602 107.638, 152.290 110.250 C 151.775 114.551, 151.914 115, 153.763 115 C 155.921 115, 158 110.786, 158 106.410 C 158 105.149, 158.450 103.840, 159 103.500 C 159.562 103.153, 160 103.945, 160 105.306 C 160 108.865, 163.641 113, 166.775 113 C 168.222 113, 174.827 111.232, 181.453 109.072 C 224.683 94.975, 235.962 91.115, 248 86.302 C 268.493 78.108, 281.918 69.961, 288.067 61.987 L 290.544 58.776 305.022 68.198 C 322.676 79.688, 330.869 84.274, 337.750 86.518 C 341.937 87.884, 343 88.668, 343 90.393 C 343 91.582, 343.620 93.443, 344.378 94.527 C 345.135 95.612, 345.773 97.625, 345.795 99 C 345.817 100.375, 346.549 104.801, 347.422 108.837 C 348.957 115.931, 348.943 116.257, 347.004 118.721 C 344.469 121.945, 344.468 125.014, 347 129.739 C 349.595 134.580, 349.522 137.281, 346.540 146.669 C 345.188 150.929, 344.247 154.580, 344.449 154.783 C 345.097 155.430, 352.111 142.181, 353.192 138.269 C 353.801 136.064, 353.960 131.133, 353.576 126.386 C 352.919 118.287, 353.564 114.631, 358.077 100.853 C 359.199 97.431, 359.072 96.927, 356.021 92.679 C 354.233 90.189, 352.373 86.028, 351.889 83.433 C 350.931 78.307, 349.531 76, 347.378 76 C 345.484 76, 345.606 80.993, 347.568 83.793 C 349.228 86.163, 349.184 90.500, 347.500 90.500 C 346.950 90.500, 346.354 89.468, 346.175 88.207 C 345.921 86.418, 344.027 85.072, 337.556 82.082 C 329.832 78.513, 315.054 69.936, 298.500 59.412 C 282.863 49.471, 265.657 46.161, 247.095 49.521 M 349 99.294 C 349 101.085, 351.787 103.546, 352.739 102.595 C 353.573 101.760, 351.823 98.774, 350.179 98.226 C 349.530 98.010, 349 98.491, 349 99.294 M 320.098 127.959 C 317.021 135.707, 309.693 147.041, 303.162 154.157 C 297.346 160.494, 283.930 169.577, 270.710 176.129 L 261.919 180.486 253.522 176.186 C 248.903 173.821, 243.937 170.951, 242.485 169.809 L 239.845 167.733 243.825 163.617 C 249.109 158.151, 256.202 146.953, 261.604 135.548 C 264.022 130.444, 266 125.981, 266 125.629 C 266 125.278, 262.288 128.735, 257.750 133.312 C 244.287 146.891, 228.524 156.349, 206.844 163.855 C 195.658 167.728, 176.139 175.904, 166.622 180.704 L 161.744 183.163 162.378 188.555 C 163.603 198.978, 182.050 258.033, 187.929 270.350 C 191.677 278.204, 200.066 287.612, 208.317 293.215 C 215.544 298.123, 232.162 306.154, 242.047 309.516 C 255.174 313.981, 262.320 312.619, 286.500 301.045 C 306.123 291.652, 315.340 283.480, 321.791 269.754 C 325.590 261.670, 348 192.717, 348 189.111 C 348 186.649, 347.215 186.017, 340.504 183.067 C 330.753 178.782, 327.926 175.488, 324.895 164.880 C 322.782 157.487, 322.501 154.469, 322.511 139.250 C 322.517 129.762, 322.510 122, 322.494 122 C 322.478 122, 321.400 124.682, 320.098 127.959 M 223.500 139.510 C 218.550 144.555, 211.575 150.822, 208 153.436 C 199.919 159.345, 199.896 159.368, 203.521 158.001 C 212.177 154.735, 222.826 146.092, 229.654 136.791 C 235.583 128.714, 232.952 129.876, 223.500 139.510 M 306.547 135.281 C 305.530 137.051, 303.101 140.525, 301.149 143 C 299.197 145.475, 298.596 146.637, 299.814 145.582 C 302.334 143.399, 309.405 133.072, 308.796 132.463 C 308.575 132.242, 307.563 133.510, 306.547 135.281 M 197.903 173.112 C 191.989 173.985, 187.971 176.099, 183.520 180.682 C 179.454 184.869, 178.213 188.347, 180.011 190.513 C 181.976 192.881, 184.402 192.248, 185.844 188.991 C 186.615 187.248, 189.139 184.827, 191.838 183.241 C 195.987 180.801, 197.490 180.500, 205.500 180.500 C 213.989 180.500, 214.518 180.376, 214.811 178.318 C 215.370 174.386, 206.915 171.783, 197.903 173.112 M 296.833 173.124 C 292.534 174.338, 289.512 177.286, 290.344 179.454 C 290.836 180.737, 292.378 180.880, 299.935 180.344 C 307.171 179.830, 309.823 180.042, 313.441 181.424 C 317.990 183.162, 323 187.958, 323 190.577 C 323 192.309, 326.145 192.455, 327.800 190.800 C 331.201 187.399, 326.045 178.653, 318.482 174.992 C 313.110 172.391, 302.629 171.487, 296.833 173.124 M 139.315 194.464 C 135.038 196.324, 132.995 200.621, 133.022 207.700 C 133.040 212.574, 135.827 222, 137.249 222 C 137.440 222, 137.575 218.439, 137.548 214.086 C 137.505 207.053, 137.770 205.885, 139.924 203.586 C 142.726 200.597, 146.316 200.269, 151.686 202.513 C 153.677 203.345, 155.435 203.898, 155.592 203.741 C 155.749 203.585, 155.182 202.021, 154.332 200.266 C 153.372 198.284, 151.192 196.303, 148.578 195.038 C 143.663 192.659, 143.490 192.648, 139.315 194.464 M 360.193 195.023 C 357.477 196.679, 353.454 202.782, 354.431 203.763 C 354.575 203.908, 356.323 203.345, 358.314 202.513 C 369.177 197.975, 376.056 205.028, 373.175 217.750 C 371.998 222.947, 373.032 223.254, 375.348 218.396 C 380.853 206.852, 376.359 192.994, 367.114 193.004 C 365.126 193.006, 362.012 193.915, 360.193 195.023 M 197.759 198.423 C 191.767 200.561, 188.962 202.870, 186.938 207.328 C 184.721 212.212, 184.584 213.992, 186.161 217.453 C 187.802 221.056, 188.601 220.643, 189.889 215.526 C 191.117 210.649, 195.828 204.540, 199.002 203.710 C 201.649 203.018, 201.525 203.799, 198.627 206.079 C 190.679 212.331, 190.977 228.206, 199.202 236.704 C 202.874 240.498, 206.748 241.568, 211.332 240.056 C 223.596 236.008, 226.965 215.652, 217.195 204.622 C 215.569 202.787, 215.590 202.756, 217.694 203.860 C 218.901 204.493, 220.165 205.458, 220.503 206.005 C 221.391 207.441, 223 207.228, 223 205.674 C 223 203.558, 218.808 200.196, 214.096 198.534 C 208.820 196.672, 202.779 196.631, 197.759 198.423 M 295.942 197.948 C 289.476 199.910, 284 204.221, 284 207.349 C 284 209.341, 284.009 209.341, 286.250 207.323 C 290.058 203.895, 291.375 203.571, 289.165 206.607 C 283.674 214.151, 283.427 226.938, 288.640 233.772 C 291.882 238.023, 299.092 241.443, 302.839 240.508 C 310.101 238.696, 315.937 230.452, 315.978 221.946 C 316.006 216.048, 312.084 208.072, 307.956 205.633 C 304.394 203.529, 304.585 202.607, 308.385 203.560 C 312.408 204.570, 315.794 209.381, 317.169 216.040 C 319.244 226.083, 322.612 222.504, 322.115 210.785 C 321.964 207.227, 316.569 201.164, 311.509 198.865 C 307.381 196.990, 300.445 196.582, 295.942 197.948 M 360.457 208.450 C 353.945 211.188, 346.508 220.726, 352.005 219.288 C 354.577 218.616, 357 220.627, 357 223.435 C 357 226.354, 352.341 230.635, 348 231.706 C 345.234 232.388, 344.028 233.498, 342.250 236.997 C 336.858 247.607, 342.090 252.506, 352.054 246.175 C 357.312 242.835, 362.763 236.866, 364.477 232.573 C 366.039 228.658, 368.385 212.445, 367.661 210.559 C 366.661 207.954, 363.699 207.087, 360.457 208.450 M 144.446 209.697 C 143.052 211.091, 142.858 212.566, 143.360 217.967 C 144.647 231.809, 149.148 240.601, 157.737 246.048 C 168.431 252.830, 173.211 247.142, 166.648 235.442 C 164.873 232.278, 163.736 231.410, 160.729 230.921 C 156.727 230.270, 153.405 227.851, 152.470 224.906 C 151.583 222.112, 153.725 219, 156.535 219 C 159.422 219, 159.469 218.808, 157.520 215.039 C 154.317 208.844, 147.915 206.228, 144.446 209.697 M 205.285 210.484 C 199.689 212.903, 199.557 220.685, 205.064 223.533 C 210.481 226.334, 216 223.037, 216 217 C 216 211.029, 211.025 208.004, 205.285 210.484 M 295.455 212.455 C 292.500 215.410, 292.427 216.548, 294.931 220.655 C 300.108 229.145, 312.172 223.035, 307.618 214.229 C 305.055 209.273, 299.454 208.456, 295.455 212.455 M 252.500 261 C 252.101 261.646, 252.224 262.624, 252.774 263.174 C 253.441 263.841, 254.016 263.783, 254.500 263 C 254.899 262.354, 254.776 261.376, 254.226 260.826 C 253.559 260.159, 252.984 260.217, 252.500 261 M 275.879 276.324 C 274.795 277.521, 273.141 279.325, 272.204 280.333 C 268.017 284.839, 256.540 287.034, 247.856 284.989 C 240.084 283.160, 235.203 280.455, 234.822 277.766 C 234.558 275.906, 233.875 275.500, 231.014 275.500 C 224.258 275.500, 226.583 281.222, 235.452 286.419 C 249.751 294.799, 266.792 293.194, 278.926 282.325 C 283.614 278.125, 283.953 275.744, 280.010 274.713 C 278.554 274.332, 277.210 274.857, 275.879 276.324 M 268 319.668 C 260.539 321.811, 258.069 322.053, 247.793 321.651 C 239.649 321.332, 235.804 321.544, 235.161 322.346 C 234.653 322.981, 233.944 327.325, 233.585 332 L 232.931 340.500 243.465 350.323 C 249.259 355.726, 254.625 360.001, 255.390 359.823 C 256.154 359.646, 261.833 354.656, 268.009 348.735 L 279.237 337.970 278.823 328.489 C 278.595 323.274, 277.979 318.607, 277.454 318.118 C 276.889 317.591, 273.032 318.223, 268 319.668 M 212.667 334.984 C 208.882 339.482, 205.726 348.720, 206.520 352.973 C 208.025 361.039, 223.591 389, 226.575 389 C 228.520 389, 231.533 383.883, 234.073 376.267 C 235.216 372.839, 236.905 369.149, 237.826 368.066 C 239.355 366.269, 239.826 366.214, 243.250 367.431 C 245.618 368.273, 247 368.386, 247 367.737 C 247 367.172, 242.115 361.488, 236.144 355.105 C 230.173 348.722, 223.634 340.913, 221.613 337.750 C 219.592 334.587, 217.317 332, 216.558 332 C 215.799 332, 214.048 333.343, 212.667 334.984 M 290.886 335.750 C 289.634 337.813, 282.320 345.910, 274.633 353.745 C 266.945 361.579, 260.968 368.302, 261.351 368.684 C 261.733 369.066, 264.323 368.560, 267.106 367.559 C 273.507 365.257, 273.945 365.667, 277.414 377.193 C 279.975 385.704, 282.260 389.576, 284.064 388.461 C 287.049 386.615, 303.320 357.884, 304.432 352.495 C 305.693 346.379, 299.123 332, 295.067 332 C 293.938 332, 292.236 333.527, 290.886 335.750 M 168 366.446 C 156.220 369.762, 150.956 374.567, 139.616 392.355 C 134.549 400.303, 133.022 403.494, 133.526 405.083 C 135.474 411.221, 158.057 430.599, 164 431.233 L 166.500 431.500 167.130 419 C 167.961 402.509, 171.370 383.689, 176.595 366.750 C 177.247 364.636, 174.744 364.547, 168 366.446 M 335 366.989 C 335 368.083, 335.892 372.245, 336.983 376.239 C 340.660 389.702, 343 406.609, 343 419.708 L 343 432.217 345.750 431.550 C 353.054 429.777, 367.662 418.315, 374.515 408.980 L 378.170 404.001 367.534 388.050 C 360.757 377.887, 355.737 371.396, 353.699 370.159 C 351.191 368.638, 338.396 365, 335.553 365 C 335.249 365, 335 365.895, 335 366.989 M 253.315 409.464 C 247.210 412.119, 245.247 420.117, 249.250 426.025 C 253.280 431.973, 259.772 432.382, 265.128 427.026 C 270.221 421.933, 268.267 412.778, 261.393 409.516 C 257.568 407.701, 257.370 407.700, 253.315 409.464 M 300 455.782 C 300 466.507, 300.033 466.657, 302.978 469.479 C 305.317 471.720, 307.137 472.430, 311.466 472.789 C 321.306 473.605, 323.554 470.282, 324.175 454 L 324.500 445.500 312.250 445.219 L 300 444.938 300 455.782 M 253.388 450.980 C 244.441 454.595, 245.166 469.920, 254.429 472.976 C 262.327 475.583, 270.562 467.156, 268.111 458.976 C 266.036 452.052, 259.509 448.507, 253.388 450.980" stroke="none" fill="black" fill-rule="evenodd"/>
</svg>