<svg viewBox="160 0 140 330" xmlns="http://www.w3.org/2000/svg">
<path d="M596 263V287H618V263H596ZM648 233V317H566V233H648Z"/>
<path d="M655.783 220H558V190H655.783V220Z"/>
<path d="M606.891 109C596.458 109 588 117.458 588 127.891C588 138.325 596.458 146.783 606.891 146.783C617.325 146.783 625.783 138.325 625.783 127.891C625.783 117.458 617.325 109 606.891 109ZM558 127.891C558 100.889 579.889 79 606.891 79C633.893 79 655.783 100.889 655.783 127.891C655.783 154.893 633.893 176.783 606.891 176.783C579.889 176.783 558 154.893 558 127.891Z"/>
<path d="M32 300H116L116 330H2L2.00001 260H32L32 300Z"/>
<path d="M1.31134e-06 212H112.5V242H72.5V260H42.5V242H0L1.31134e-06 212Z"/>
<path d="M57.8914 127C47.458 127 39 135.458 39 145.891C39 156.325 47.458 164.783 57.8914 164.783C68.3249 164.783 76.7829 156.325 76.7829 145.891C76.7829 135.458 68.3249 127 57.8914 127ZM9 145.891C9 118.889 30.8894 97 57.8914 97C84.8934 97 106.783 118.889 106.783 145.891C106.783 172.893 84.8934 194.783 57.8914 194.783C30.8894 194.783 9 172.893 9 145.891Z"/>
<path d="M85 30H25V0H85V30ZM115.5 79.5H0V49.5H115.5V79.5Z"/>
<path d="M190 127V151H212V127H190ZM242 97L242 181H160V97H242Z"/>
<path d="M270 180V90H300V180H270Z"/>
<path d="M216 245H300V275H186V205H216V245Z"/>
<path d="M388.706 89H433.706V119H400.532L433.706 196.428L406.326 196.782L388.706 156.5L372.758 196.428H343.706L376.281 119H343.706V89H388.706Z"/>
<path d="M497.706 90V202.5H467.706V162.5H449.706V132.5H467.706V90H497.706Z"/>
<path d="M448.597 235C438.164 235 429.706 243.458 429.706 253.891C429.706 264.325 438.164 272.783 448.597 272.783C459.03 272.783 467.488 264.325 467.488 253.891C467.488 243.458 459.03 235 448.597 235ZM399.706 253.891C399.706 226.889 421.595 205 448.597 205C475.599 205 497.488 226.889 497.488 253.891C497.488 280.893 475.599 302.783 448.597 302.783C421.595 302.783 399.706 280.893 399.706 253.891Z"/>
</svg>
