<svg viewBox="0 0 858 406" xmlns="http://www.w3.org/2000/svg">
<path d="M376.923 106.47L322.062 167.834L288.737 130.559L376.923 31.9195L468.072 133.874L434.747 171.149L376.923 106.47Z" />
<path d="M107.392 266.127L244.728 266.127L244.728 316.127L57.3918 316.127L57.3918 206.756L107.392 206.756L107.392 266.127Z" />
<path d="M498.488 211.341V5H548.488V80.8781H577.6V130.878H548.488V211.341H498.488Z" />
<path d="M778.888 211.341V5H828.888V80.8781H858V130.878H828.888V211.341H778.888Z" />
<path d="M198.411 170.073L198.411 4.99988L248.411 4.99988L248.411 170.073L198.411 170.073Z" />
<path d="M685.797 406L685.797 290.157L786.71 290.157L786.71 273.941L685.825 273.941L685.825 223.941L836.71 223.941L836.71 340.157L735.797 340.157L735.797 356L836.683 356L836.683 406L685.797 406Z" />
<path d="M666.551 63.0147L666.551 112.059L701.819 112.059L701.819 63.0147L666.551 63.0147ZM751.819 13.0147L751.819 162.059L616.551 162.059L616.551 13.0147L751.819 13.0147Z" />
<path d="M80.574 50.1755C66.2484 50.1755 50 64.1062 50 87.3374C50 110.569 66.2484 124.499 80.574 124.499C94.8995 124.499 111.148 110.569 111.148 87.3374C111.148 64.1062 94.8995 50.1755 80.574 50.1755ZM0 87.3374C0 41.9065 33.5142 0.175537 80.574 0.175537C127.634 0.175537 161.148 41.9065 161.148 87.3374C161.148 132.768 127.634 174.499 80.574 174.499C33.5142 174.499 0 132.768 0 87.3374Z" />
</svg>
