<svg xmlns="http://www.w3.org/2000/svg" width="512" height="512" viewBox="0 0 512 512" version="1.1">
	<path d="M 282.500 5.075 C 279.750 5.538, 273.057 7.285, 267.627 8.958 C 262.197 10.631, 256.895 12, 255.845 12 C 254.796 12, 249.338 10.594, 243.718 8.877 C 228.821 4.323, 214.489 3.813, 199.947 7.321 C 179.770 12.188, 165.928 18.229, 149 29.555 C 120.407 48.687, 99.644 74.114, 88.440 103.719 C 81.451 122.186, 78.353 146.025, 80.960 161.269 C 82.035 167.552, 81.968 170.177, 80.488 179.787 C 79.540 185.946, 78.976 192.094, 79.235 193.450 C 79.693 195.844, 79.517 195.924, 73.208 196.208 C 64.436 196.602, 63.893 197.583, 66.849 207.702 C 73.671 231.053, 92.982 257.940, 115.643 275.639 C 120.121 279.137, 124.071 282.744, 124.421 283.655 C 125.998 287.764, 117.753 291.939, 107.530 292.208 C 104.488 292.288, 102 292.689, 102 293.099 C 102 294.703, 112.797 303.171, 118.995 306.428 C 131.845 313.181, 144.513 315.349, 178.250 316.572 C 188.254 316.934, 196 317.627, 196 318.159 C 196 319.441, 190.964 321.385, 182.178 323.493 C 170.352 326.332, 167.808 329.405, 153.363 358.299 C 148.633 367.760, 139.563 384.950, 133.206 396.500 C 111.514 435.911, 109.683 441.260, 114.377 451.512 C 122.785 469.877, 136.765 481.873, 155.128 486.481 C 166.367 489.301, 166.612 489.486, 171.052 498.489 C 176.462 509.460, 179.374 512.227, 185.078 511.814 C 188.915 511.536, 189.792 510.982, 192.697 507 C 199.522 497.644, 201.127 496.343, 206.743 495.614 C 213.636 494.719, 218.798 489.935, 221.975 481.500 C 225.152 473.066, 225.626 467.715, 223.597 463.211 C 222.335 460.411, 222.133 458.518, 222.772 455.500 C 223.781 450.735, 222.715 444.021, 220.385 440.464 C 217.784 436.495, 213.484 434.814, 205.330 434.578 C 201.070 434.455, 197.445 433.841, 196.732 433.124 C 195.813 432.198, 195.500 424.568, 195.500 403.099 C 195.500 371.789, 195.297 370.594, 190.086 371.199 C 188.207 371.418, 186.956 372.594, 185.514 375.500 C 181.868 382.842, 159.818 423.488, 159.025 424.328 C 158.595 424.784, 154.965 425.568, 150.958 426.071 C 143.397 427.021, 140 428.896, 140 432.120 C 140 434.602, 142.376 435.612, 149.998 436.373 C 157.235 437.095, 178.951 442.601, 180.483 444.103 C 181.121 444.728, 179.658 446.728, 176.309 449.808 C 173.472 452.415, 170.829 455.833, 170.435 457.403 C 170.041 458.973, 170.001 464.226, 170.345 469.078 C 170.739 474.626, 170.596 478.132, 169.961 478.524 C 168.814 479.233, 151.486 473.720, 145.651 470.791 C 137.586 466.742, 125.877 452.636, 124.384 445.171 C 123.567 441.086, 127.206 432.955, 141.867 406.107 C 148.957 393.123, 157.543 376.934, 160.946 370.132 C 169.925 352.184, 176.874 339.807, 179.342 337.364 C 180.529 336.190, 185.292 333.989, 189.927 332.473 L 198.353 329.718 199.927 331.783 C 200.792 332.919, 204.381 339.062, 207.902 345.434 C 211.424 351.806, 215.747 358.687, 217.509 360.726 L 220.713 364.433 225.107 362.474 C 227.523 361.397, 232.368 358.565, 235.873 356.181 C 244.699 350.176, 246.139 351.958, 238.628 359.589 C 234.951 363.325, 232.627 366.672, 231.942 369.217 C 231.284 371.660, 231.005 384.214, 231.196 402.809 L 231.500 432.500 234.203 437.623 C 238.996 446.709, 248.312 453.082, 256.616 452.956 C 264.430 452.837, 273.514 447.106, 277.614 439.708 L 280.500 434.500 280.500 402.500 C 280.500 371.376, 280.439 370.387, 278.284 366.357 C 277.066 364.079, 274.253 360.661, 272.034 358.762 C 268.083 355.379, 266.989 352.743, 269.017 351.489 C 269.577 351.143, 272.164 352.737, 274.767 355.031 C 277.370 357.325, 281.441 360.341, 283.813 361.733 C 287.372 363.821, 288.541 364.075, 290.500 363.182 C 293.937 361.616, 299.647 353.921, 306.446 341.693 C 313.177 329.585, 312.814 329.772, 323.341 333.024 C 328.198 334.524, 330.619 335.929, 332.697 338.454 C 334.239 340.328, 340.110 350.780, 345.745 361.681 C 351.379 372.581, 362.072 392.525, 369.507 406 C 382.515 429.575, 387 439.030, 387 442.878 C 387 446.039, 381.228 456.317, 376.306 461.922 C 371.278 467.647, 361.942 472.800, 349.737 476.586 C 342.144 478.941, 341.413 478.224, 342.851 469.833 C 344.525 460.071, 342.403 453.576, 335.993 448.837 C 330.637 444.877, 331.652 443.990, 346.500 439.658 C 351.450 438.214, 358.610 436.598, 362.412 436.068 C 370.031 435.006, 372.567 433.361, 371.545 430.143 C 370.795 427.777, 365.704 426.023, 359.500 425.990 C 357.300 425.979, 354.982 425.639, 354.348 425.235 C 352.883 424.300, 345.588 411.666, 333.306 388.792 C 327.993 378.897, 323.048 370.572, 322.316 370.291 C 321.584 370.010, 319.863 370.515, 318.492 371.413 L 316 373.046 316 401.832 C 316 423.350, 315.684 431.017, 314.750 432.201 C 313.889 433.291, 311.215 433.934, 306.159 434.265 C 298.047 434.796, 295.128 436.319, 291.154 442.092 C 289.065 445.125, 288.859 446.324, 289.283 453 C 289.630 458.465, 289.352 461.295, 288.261 463.429 C 285.255 469.309, 289.517 484.694, 295.943 491.157 C 298.767 493.997, 300.687 494.975, 304.540 495.532 C 311.279 496.506, 311.645 496.775, 316.897 504.622 C 321.306 511.209, 321.685 511.513, 325.886 511.814 C 329.705 512.088, 330.719 511.700, 333.728 508.814 C 335.628 506.991, 338.667 502.575, 340.481 499 C 342.295 495.425, 344.701 491.668, 345.827 490.652 C 346.953 489.635, 351.615 487.724, 356.187 486.404 C 372.543 481.684, 382.243 474.910, 390.860 462.194 C 397.132 452.939, 399 448.551, 399 443.075 C 399 434.366, 395.627 427.068, 374.468 390 C 369.916 382.025, 363.155 369.425, 359.445 362 C 349.626 342.353, 342.445 330.441, 338.696 327.581 C 336.844 326.169, 331.296 323.970, 326.026 322.560 C 316.525 320.017, 313.413 318.468, 316.083 317.610 C 316.862 317.360, 327.400 316.668, 339.500 316.073 C 351.600 315.477, 364.425 314.528, 368 313.962 C 381.615 311.808, 395.015 306.012, 403.750 298.500 C 409.509 293.546, 409.261 292.387, 402.404 292.206 C 395.362 292.021, 386 288.024, 386 285.203 C 386 284.056, 388.461 281.362, 392.173 278.446 C 408.573 265.561, 417.449 256.105, 428.159 240.110 C 442.046 219.370, 449.011 201.411, 444.800 197.200 C 444.140 196.540, 441.075 196, 437.989 196 L 432.377 196 432.398 187.750 C 432.409 183.213, 432.037 175.621, 431.570 170.879 C 430.884 163.911, 431.057 160.888, 432.473 155.111 C 434 148.881, 434.070 146.907, 433.024 139.750 C 427.509 102.036, 408.852 67.598, 380.500 42.798 C 349.390 15.586, 310.043 0.440, 282.500 5.075 M 200.500 28.824 C 193.612 31.248, 188.982 34.440, 178.500 43.990 C 170.228 51.527, 160.236 58.607, 142.085 69.794 C 138.253 72.156, 132.933 76.053, 130.262 78.454 C 124.571 83.571, 111.576 97.909, 112.128 98.461 C 112.337 98.671, 117.550 96.918, 123.711 94.567 C 136.483 89.694, 136.270 89.325, 127.803 101.648 C 125.101 105.580, 118.186 113.374, 112.436 118.969 C 106.272 124.966, 102.908 128.861, 104.240 128.458 C 117.318 124.508, 134.922 113.929, 150.874 100.431 C 156.030 96.069, 162.780 90.475, 165.874 88 C 170.725 84.120, 171.248 83.891, 169.670 86.337 C 168.664 87.897, 168.089 89.422, 168.393 89.726 C 169.820 91.153, 182.790 78.881, 187.126 72 C 188.686 69.525, 189.971 68.085, 189.981 68.800 C 190.008 70.631, 187.149 75.985, 184.359 79.327 C 177.621 87.400, 185.377 83.355, 196.115 73.196 C 206.451 63.417, 212.370 54.332, 212.445 48.132 C 212.500 43.507, 212.494 43.500, 208.827 43.194 C 204.378 42.824, 196.715 46.456, 190.944 51.670 C 186.071 56.072, 186.561 54.161, 192.711 44.777 C 195.135 41.080, 199.679 35.926, 202.809 33.324 C 205.939 30.723, 208.928 28.236, 209.450 27.797 C 211.135 26.384, 205.648 27.013, 200.500 28.824 M 285.667 46.667 C 285.300 47.033, 285 49.002, 285 51.041 C 285 66.758, 305.583 87.990, 330.170 97.637 C 334.638 99.389, 339.636 102.573, 345.184 107.199 C 360.869 120.279, 381.216 131.975, 401 139.282 C 410.511 142.796, 421.013 144.930, 420.985 143.344 C 420.977 142.880, 417.265 138.173, 412.735 132.884 C 401.278 119.506, 386 97.794, 386 94.890 C 386 94.489, 390.487 96.600, 395.971 99.581 C 401.455 102.561, 406.196 105, 406.506 105 C 407.716 105, 398.142 92.358, 391.595 85.312 C 379.196 71.966, 366.033 64.393, 360.218 67.258 C 354.398 70.127, 355.832 76.483, 364.736 87.285 C 375.297 100.096, 384.024 113, 382.126 113 C 381.104 113, 349.570 94.090, 338.988 87.131 L 332.500 82.865 337.564 87.697 C 344.936 94.732, 364.354 109.280, 381 120.238 C 402.246 134.224, 404.915 138.015, 387.232 129.087 C 374.253 122.534, 363.741 116.103, 349.523 106.016 C 335.644 96.170, 330.363 91.152, 318.989 77 C 314.348 71.225, 305.953 61.888, 300.334 56.250 C 291.025 46.912, 287.636 44.697, 285.667 46.667 M 164.460 73.298 C 159.488 78.359, 152.063 86.054, 147.960 90.397 L 140.500 98.294 146.500 94.514 C 155.448 88.876, 167.645 78.251, 171.021 73.155 C 172.659 70.681, 174.034 68.397, 174.077 68.079 C 174.119 67.760, 174.304 66.713, 174.488 65.750 C 174.672 64.787, 174.525 64.022, 174.162 64.048 C 173.798 64.074, 169.432 68.237, 164.460 73.298 M 258.075 89.218 C 256.086 95.969, 249.654 109.144, 244.941 116.119 C 231.506 136.002, 213.693 148.135, 185 156.948 C 179.225 158.722, 174.153 160.503, 173.730 160.907 C 173.306 161.310, 174.064 162.231, 175.414 162.954 C 179.904 165.357, 181.320 172.140, 177.795 174.359 C 176.459 175.201, 175.579 174.953, 173.730 173.217 C 169.908 169.626, 167.065 170.359, 161 176.500 C 153.001 184.600, 151.407 183.728, 154.594 172.995 C 155.514 169.896, 157.382 166.511, 159.012 164.989 L 161.836 162.351 148.168 162.796 C 140.651 163.041, 134.275 163.451, 134 163.707 C 133.725 163.963, 133.611 168.415, 133.747 173.599 C 134.240 192.387, 145.099 237.536, 152.998 253.645 C 161.839 271.671, 180.899 286.743, 204.736 294.556 C 219.664 299.448, 233.572 301.320, 255 301.320 C 277.173 301.320, 290.606 299.421, 307.030 293.962 C 337.047 283.985, 354.738 267.222, 363.480 240.473 C 373.402 210.114, 381.862 164.943, 377.886 163.559 C 377.124 163.294, 370.335 162.948, 362.800 162.789 L 349.099 162.500 351.497 165 C 352.815 166.375, 354.593 169.173, 355.447 171.218 C 357.006 174.950, 357.583 182, 356.330 182 C 355.962 182, 353.357 179.525, 350.542 176.500 C 344.825 170.357, 340.856 169.292, 337.500 173 C 334.932 175.838, 331.194 175.622, 330.434 172.593 C 329.699 169.665, 331.306 166.244, 334.801 163.298 C 337.780 160.786, 338.297 161.114, 326.500 158.035 C 314.288 154.847, 297.544 146.149, 289.593 138.864 C 277.968 128.212, 268.827 112.951, 263.320 95 C 261.885 90.325, 260.402 86.148, 260.024 85.718 C 259.645 85.288, 258.768 86.863, 258.075 89.218 M 225.272 116.828 C 220.248 123.415, 212.546 131.198, 204.500 137.815 C 201.167 140.556, 200.917 140.990, 203 140.415 C 209.672 138.576, 222.258 126.535, 228.001 116.499 C 229.768 113.409, 231.035 110.702, 230.815 110.482 C 230.596 110.263, 228.101 113.118, 225.272 116.828 M 197.750 155.080 C 195.856 156.183, 192.991 161.098, 193.015 163.200 C 193.056 166.630, 194.683 167.425, 198.853 166.049 C 202.307 164.909, 203.413 164.948, 206.884 166.337 C 210.588 167.819, 211.039 167.818, 212.527 166.330 C 216.382 162.475, 209.961 153.976, 203.234 154.030 C 201.180 154.047, 198.712 154.519, 197.750 155.080 M 299.589 157.077 C 296.878 160.298, 296.202 164.802, 298.137 166.737 C 298.986 167.586, 300.282 167.471, 303.258 166.280 C 306.612 164.938, 307.794 164.885, 310.731 165.947 C 313.686 167.016, 314.452 166.976, 315.739 165.689 C 317.738 163.691, 316.792 160.065, 313.384 156.657 C 309.422 152.695, 303.115 152.887, 299.589 157.077 M 181 180.903 C 168.217 183.571, 159.231 193.667, 156.931 207.945 C 155.370 217.639, 158.622 222.744, 161.585 215.250 C 167.678 199.837, 169.800 197.447, 169.800 205.996 C 169.800 216.737, 176.291 226.488, 185.147 229.051 C 189.458 230.299, 197.728 228.658, 202.151 225.677 C 207.718 221.925, 211.089 216.113, 211.718 209.179 C 212.753 197.756, 208.328 188.640, 199.423 183.854 C 194.052 180.968, 186.493 179.757, 181 180.903 M 316.707 181.556 C 311.049 183.362, 304.669 189.314, 301.933 195.339 C 299.213 201.329, 299.400 210.169, 302.381 216.571 C 308.547 229.814, 324.335 233.791, 334.680 224.708 C 339.595 220.392, 342.003 214.583, 342.244 206.458 L 342.441 199.811 344.600 202.322 C 345.788 203.702, 347.822 207.795, 349.121 211.416 C 350.907 216.396, 351.946 218, 353.386 218 C 355.128 218, 355.240 217.427, 354.698 211.250 C 353.482 197.378, 348.447 189.315, 337.699 184.023 C 330.126 180.295, 323.208 179.482, 316.707 181.556 M 317.051 193.752 C 312.960 195.825, 311.496 199.888, 313.089 204.747 C 314.453 208.908, 317.483 211, 322.146 211 C 332.676 211, 336.005 197.407, 326.452 193.415 C 322.114 191.603, 321.227 191.635, 317.051 193.752 M 185.262 194.529 C 181.164 197.399, 181.477 206.360, 185.789 209.637 C 188.425 211.639, 193.348 211.239, 197.102 208.717 C 199.934 206.815, 200.551 205.734, 200.807 202.229 C 201.055 198.828, 200.633 197.542, 198.602 195.511 C 195.641 192.550, 188.807 192.046, 185.262 194.529 M 250.750 222.080 C 248.422 223.436, 248.524 226.675, 250.934 227.965 C 253.796 229.496, 256.496 229.229, 259.050 227.161 L 261.321 225.321 259.161 223.161 C 256.848 220.848, 253.585 220.429, 250.750 222.080 M 124.500 224.672 C 116.995 226.323, 113.307 230.569, 114.532 236.147 C 115.951 242.606, 125.402 250, 132.238 250 C 136.023 250, 140 247.620, 140 245.355 C 140 242.609, 132.966 227.546, 130.845 225.750 C 128.758 223.983, 128.123 223.875, 124.500 224.672 M 378.226 227.619 C 377.155 229.754, 375.052 234.599, 373.553 238.386 C 370.877 245.146, 370.862 245.307, 372.724 247.168 C 376.028 250.472, 381.244 250.605, 387.500 247.544 C 396.196 243.289, 399.893 236.248, 396.890 229.657 C 395.500 226.606, 391.970 224.961, 385.337 224.274 L 380.174 223.738 378.226 227.619 M 158.340 228.569 C 157.031 229.878, 156.271 231.544, 156.597 232.392 C 157.465 234.653, 163.186 238.700, 170.221 242.028 C 181.239 247.240, 181.118 245.219, 169.962 237.686 C 163.764 233.501, 165.927 233.276, 172.925 237.377 C 179.101 240.997, 180.324 241.120, 177.339 237.823 C 176.426 236.813, 175.864 235.812, 176.089 235.596 C 176.315 235.381, 179.182 236.039, 182.460 237.059 C 185.738 238.079, 188.663 238.671, 188.959 238.374 C 189.256 238.077, 188.086 236.573, 186.361 235.031 C 182.630 231.698, 174.184 228.370, 166.329 227.138 C 161.110 226.320, 160.475 226.434, 158.340 228.569 M 336.836 228.919 C 330.158 231.055, 324.448 234.389, 323.576 236.663 C 322.660 239.050, 323.470 239.323, 326.657 237.700 C 328.221 236.905, 330.625 235.920, 332 235.513 L 334.500 234.773 332.184 236.987 C 328.478 240.530, 330.449 240.550, 338.048 237.048 C 341.938 235.255, 345.333 234, 345.593 234.259 C 345.852 234.519, 342.900 236.643, 339.032 238.980 C 332.201 243.108, 330.453 245, 333.471 245 C 337.762 245, 353.403 235.719, 354.668 232.423 C 354.984 231.599, 354.443 230.042, 353.466 228.963 C 351.187 226.445, 344.627 226.427, 336.836 228.919 M 230.445 250.068 C 222.142 252.481, 219.700 262.331, 225.588 269.657 C 229.631 274.687, 239.619 279.690, 248.250 281.008 C 263.517 283.339, 279.826 277.142, 284.973 267.053 C 287.699 261.709, 287.546 257.802, 284.467 254.143 C 279.790 248.585, 271.448 247.709, 263.158 251.904 C 256.559 255.244, 254.126 255.263, 245 252.041 C 235.872 248.818, 235.105 248.714, 230.445 250.068 M 267.462 258.725 C 258.917 262.329, 251.912 262.727, 244.500 260.031 C 234.764 256.490, 233.423 256.425, 231.474 259.400 C 229.913 261.782, 229.902 262.202, 231.348 264.408 C 232.216 265.733, 235.505 268.078, 238.657 269.621 C 243.335 271.909, 246.062 272.498, 253.501 272.823 C 261.290 273.164, 263.372 272.896, 267.830 270.978 C 274.042 268.305, 278.234 263.782, 277.803 260.218 C 277.330 256.309, 274.246 255.864, 267.462 258.725 M 210.989 312.250 C 207.103 318.624, 209.242 328.425, 218.004 344.390 C 220.777 349.443, 222.777 352, 223.956 352 C 226.020 352, 229.454 349.523, 236.690 342.813 C 242.052 337.841, 245.118 336.922, 249.151 339.081 C 255.649 342.558, 250.204 333.884, 242.740 328.867 C 239.308 326.560, 231.905 321.146, 226.288 316.836 C 220.672 312.526, 215.378 309, 214.524 309 C 213.669 309, 212.079 310.462, 210.989 312.250 M 289 313.561 C 285.975 316.052, 278.458 321.513, 272.295 325.696 C 264.077 331.275, 260.815 334.093, 260.057 336.266 C 258.556 340.573, 259.591 341.249, 264.136 338.931 C 268.968 336.466, 269.453 336.699, 278.590 345.880 C 282.174 349.482, 285.541 352, 286.772 352 C 289.372 352, 291.599 348.913, 297.654 336.913 C 303.602 325.126, 304.484 318.428, 300.804 313 C 299.499 311.075, 297.547 309.395, 296.466 309.266 C 295.357 309.134, 292.102 311.007, 289 313.561 M 242 314.845 C 242 316.410, 242.804 318.418, 243.787 319.307 C 246.318 321.598, 252.442 324.002, 255.718 323.990 C 259.638 323.976, 268.617 319.584, 269.997 317.005 C 272.422 312.475, 271.098 312, 256.031 312 L 242 312 242 314.845 M 248.500 364.218 C 241.007 368.526, 240.568 370.579, 240.532 401.500 C 240.500 428.344, 240.514 428.529, 243 433.448 C 246.337 440.053, 249.851 442.500, 256 442.500 C 261.244 442.500, 264.741 440.565, 268.438 435.617 C 270.396 432.997, 270.515 431.351, 270.791 403.138 C 271.081 373.576, 271.070 373.400, 268.791 370.051 C 263.561 362.365, 255.668 360.096, 248.500 364.218 M 328.022 418.691 C 328.010 425.946, 328.394 432.126, 328.877 432.424 C 330.019 433.130, 339.732 430.243, 340.523 428.962 C 341.138 427.968, 333.074 412.035, 329.807 407.791 C 328.097 405.568, 328.044 405.890, 328.022 418.691 M 176.630 417.544 C 173.401 423.382, 171.151 428.512, 171.630 428.943 C 172.973 430.153, 179.028 432, 181.649 432 C 183.964 432, 183.998 431.852, 183.882 422.250 C 183.677 405.410, 183.428 405.249, 176.630 417.544 M 197.189 448.064 C 189.371 451.970, 183.578 458.422, 182.006 464.973 C 179.590 475.045, 184.712 487, 191.443 487 L 194.041 487 191.888 482.780 L 189.735 478.560 193.354 481.738 C 197.725 485.576, 203.733 487.432, 207.342 486.060 C 211.694 484.405, 213.271 479, 209.401 479 C 207.280 479, 200.621 475.453, 198.941 473.429 C 197.641 471.863, 197.735 471.782, 200.008 472.510 C 208.448 475.215, 212.647 474.868, 214.258 471.332 C 215.237 469.185, 214.998 468.096, 212.618 463.862 C 209.995 459.196, 209.925 458.764, 211.416 456.488 C 213.032 454.022, 213.485 449.427, 212.393 446.582 C 211.361 443.893, 204.124 444.598, 197.189 448.064 M 300.200 446.200 C 298.550 447.850, 298.697 450.559, 300.660 454.696 C 302.278 458.106, 302.251 458.330, 299.567 463.630 C 296.914 468.870, 296.876 469.161, 298.514 471.662 C 300.083 474.056, 300.614 474.212, 305.357 473.665 C 308.186 473.340, 311.625 472.761, 313 472.380 C 318.141 470.953, 312.002 475.892, 305.841 478.138 C 299.927 480.294, 298.600 482.200, 301.200 484.800 C 304.432 488.032, 316.944 484.773, 320.434 479.791 C 322.726 476.519, 322.340 478.930, 319.942 482.863 C 318.815 484.712, 318.168 486.502, 318.506 486.839 C 319.822 488.156, 326.556 483.309, 328.676 479.519 C 333.765 470.420, 332.451 462.468, 324.521 454.377 C 317.325 447.035, 303.884 442.516, 300.200 446.200" stroke="none" fill="black" fill-rule="evenodd"/>
</svg>