<svg xmlns="http://www.w3.org/2000/svg" viewBox="0 0 512 512" version="1.1">
	<path d="M 222 24.088 C 181.036 29.346, 145.389 50.527, 124.540 82 C 108.486 106.233, 99.614 138.753, 102.045 164.452 C 103.198 176.639, 105.056 183.736, 110.779 197.814 C 115.191 208.665, 115.327 209.300, 114.115 213.314 C 110.989 223.668, 110.670 227.353, 112.388 233.262 C 115.925 245.430, 131.916 261.351, 149.383 270.095 C 154.940 272.877, 159.611 275.277, 159.763 275.430 C 159.916 275.583, 158.187 276.934, 155.922 278.433 C 152.830 280.479, 151.077 282.759, 148.894 287.573 C 146.014 293.925, 145.900 294.030, 137.076 298.462 C 130.855 301.586, 127.160 304.183, 124.833 307.067 C 123 309.338, 119.608 313.394, 117.295 316.080 C 113.456 320.540, 112.093 323.588, 110.544 331.179 C 109.933 334.176, 112.377 333.454, 82.500 339.470 C 47.457 346.528, 37.867 348.811, 35.939 350.555 C 33.450 352.808, 33.450 357.061, 35.943 368.547 C 37.011 373.471, 40.431 391.450, 43.542 408.500 C 46.654 425.550, 49.547 439.870, 49.971 440.322 C 50.396 440.774, 59.464 439.542, 70.122 437.585 C 80.780 435.627, 93.550 433.385, 98.500 432.601 C 109.025 430.936, 109.127 430.983, 114.245 439.928 C 121.292 452.245, 129.458 457.017, 143.432 456.983 C 151.505 456.963, 157.231 455.585, 182.781 447.508 C 192.836 444.330, 201.319 441.985, 201.631 442.298 C 202.630 443.297, 200.949 445, 198.964 445 C 197.909 445, 196.328 446.097, 195.450 447.437 C 194.571 448.777, 192.506 450.169, 190.859 450.531 C 187.161 451.343, 186.028 453.816, 188.518 455.637 C 191.074 457.506, 210.383 465.025, 248.659 479.058 L 281.223 490.997 287.361 489.433 C 302.217 485.648, 338.282 475.567, 346.500 472.902 C 351.450 471.298, 359.667 469.300, 364.760 468.464 C 376.418 466.549, 378.349 465.800, 381.055 462.139 C 383.005 459.502, 384.022 459.101, 390.372 458.473 C 398.379 457.680, 447.697 445.703, 449.218 444.182 C 451.086 442.314, 448.886 439.127, 443.705 436.192 C 440.842 434.571, 437.680 432.331, 436.678 431.214 C 434.614 428.914, 433.679 429.295, 455.756 423.435 C 467.922 420.205, 469.633 419.247, 467.774 416.706 C 466.021 414.308, 458.414 412.472, 440.220 410.054 C 417.830 407.078, 419.693 408.035, 420.508 399.925 L 421.192 393.112 416.346 388.384 C 409.407 381.615, 400.950 375.594, 393.310 371.984 C 389.667 370.262, 384.619 367.127, 382.093 365.015 C 375.288 359.328, 365.518 353.934, 356.562 350.919 C 348.718 348.279, 348.593 348.184, 346.062 342.874 C 343.525 337.552, 342.800 336.914, 330.886 329.500 C 328.479 328.002, 326.850 325.535, 324.400 319.676 C 322.601 315.372, 319.210 309.365, 316.866 306.326 C 312.844 301.113, 312.714 300.743, 314.552 299.765 C 319.738 297.007, 327.919 286.988, 332.469 277.823 C 336.769 269.161, 337.259 267.430, 337.972 258.407 C 338.403 252.958, 339.437 246.872, 340.271 244.883 C 341.830 241.163, 354.539 221.798, 366.445 205 C 381.728 183.438, 387.601 163.289, 384.987 141.382 C 382.185 117.902, 372.806 99.032, 354.547 80.140 C 343.459 68.668, 334.533 61.452, 329.029 59.510 C 326.741 58.703, 322.536 56.080, 319.684 53.682 C 308.038 43.888, 293.082 35.941, 275.105 29.997 C 255.807 23.616, 239.669 21.820, 222 24.088 M 224 48.292 C 215.534 51.381, 208.476 55.359, 192 66.330 C 166.575 83.259, 159.230 89.224, 150.896 99.712 C 145.068 107.045, 139.700 116.924, 138.512 122.500 C 138.089 124.488, 139.119 123.223, 141.567 118.748 C 146.370 109.969, 154.588 100.259, 164.382 91.791 C 173.982 83.491, 176.243 83.011, 171.630 90.250 C 169.791 93.138, 167.552 96.929, 166.656 98.676 L 165.026 101.851 173.263 97.271 C 182.603 92.078, 193.398 87, 195.097 87 C 195.724 87, 195.059 88.545, 193.619 90.433 C 192.178 92.322, 191 94.085, 191 94.353 C 191 94.620, 192.617 94.392, 194.594 93.846 C 196.570 93.301, 198.434 93.101, 198.736 93.403 C 199.496 94.163, 193.249 100.031, 181.472 109.619 C 168.919 119.840, 157 130.861, 157 132.249 C 157 132.832, 157.787 132.606, 158.750 131.745 C 162.866 128.065, 196.389 107, 198.130 107 C 199.976 107, 199.969 107.143, 197.909 111.250 C 196.737 113.588, 192.647 119.692, 188.821 124.815 L 181.864 134.130 194.182 125.975 C 200.957 121.489, 209.728 115.610, 213.674 112.910 C 220.701 108.101, 223 107.109, 223 108.886 C 223 110.574, 205.152 126.748, 192.824 136.231 C 186.015 141.469, 175.031 150.198, 168.417 155.628 C 161.803 161.057, 154.841 166.764, 152.946 168.308 C 151.051 169.852, 150.175 170.784, 151 170.379 C 153.102 169.348, 197.561 135.057, 213.401 122.250 C 225.150 112.751, 225.529 114.158, 214.953 128 C 208.338 136.657, 192.460 152.413, 186.250 156.481 C 179.653 160.803, 181.219 160.593, 189.750 156.011 C 207.745 146.347, 228.631 130.858, 254.925 107.679 C 271.463 93.100, 272.559 92.793, 266.940 104.319 C 260.418 117.695, 248.946 130.125, 229.826 144.532 C 219.277 152.480, 202.100 161.641, 195.880 162.635 C 193.721 162.980, 191.696 163.682, 191.379 164.195 C 190.627 165.412, 196.571 164.417, 205.500 161.831 C 219.096 157.893, 239.412 146.617, 253.128 135.395 C 271.776 120.138, 286.089 94.943, 284.715 79.789 C 284.061 72.579, 279.142 61.927, 275.205 59.196 C 271.016 56.289, 242.158 46.835, 236 46.352 C 231.891 46.029, 228.856 46.520, 224 48.292 M 319.175 76.289 C 316.914 79.013, 316.170 86.169, 317.109 96.151 C 318.046 106.108, 317.226 117.563, 315.049 124.934 C 314.491 126.822, 314.221 128.554, 314.449 128.782 C 314.982 129.316, 318 119.198, 318 116.878 C 318 113.227, 320.016 114.098, 322.385 118.772 C 325.390 124.703, 328 136.850, 328 144.907 C 328 156.942, 324.644 176.675, 320.586 188.500 C 319.036 193.019, 332.459 166.007, 334.639 160.221 C 338.110 151.007, 339.112 145.561, 339.085 136.026 C 339.059 126.328, 337.350 119.630, 332.388 109.777 C 326.661 98.404, 328.651 96.555, 336.901 105.582 C 343.633 112.948, 351.344 128.615, 354.422 141.181 C 356.009 147.660, 357.737 152.103, 359.647 154.614 C 362.311 158.116, 362.497 158.967, 362.451 167.432 L 362.402 176.500 363.770 170 C 364.523 166.425, 365.215 158.100, 365.309 151.500 C 365.449 141.617, 365.074 138.096, 363.185 131.542 C 358.434 115.055, 348.049 98.411, 332.567 82.471 C 325.194 74.880, 321.688 73.261, 319.175 76.289 M 304.655 169.750 C 295.155 181.992, 282.026 191.715, 264.903 199.191 C 257.824 202.282, 256.888 202.431, 243.500 202.608 C 235.629 202.712, 226.119 203.471, 221.776 204.343 C 213.397 206.025, 191.197 212.755, 189.377 214.165 C 187.360 215.726, 186.967 224.261, 188.486 233.500 C 190.646 246.641, 190.684 246.405, 186.750 244.372 C 184.963 243.448, 181.157 240.961, 178.293 238.846 C 175.429 236.731, 172.616 235, 172.043 235 C 171.434 235, 171 237.523, 171 241.066 C 171 250.878, 167.904 253.720, 162.953 248.450 C 160.938 246.305, 159.974 245.997, 156.899 246.517 C 153.634 247.069, 152.663 246.664, 147.870 242.757 C 141.620 237.662, 140.954 235.430, 145.750 235.647 C 147.537 235.729, 149 235.496, 149 235.130 C 149 234.230, 143.877 226.651, 142.761 225.901 C 141.025 224.733, 136.855 226.291, 135.278 228.698 C 133.806 230.945, 133.817 231.553, 135.408 236.320 C 136.360 239.169, 137.369 242.063, 137.652 242.750 C 138.630 245.126, 135.369 243.991, 133.343 241.250 C 127.258 233.019, 126.320 226.150, 130.589 221.077 C 135.379 215.384, 144.300 217.725, 154.465 227.343 C 159.150 231.776, 159.833 232.149, 159.325 230 C 156.276 217.103, 147.410 208, 137.897 208 C 122.080 208, 116.116 226.318, 127.255 240.684 C 131.797 246.541, 143.956 256.428, 151.311 260.243 C 156.811 263.097, 158.428 263.457, 165.839 263.477 L 174.177 263.500 179.299 270 C 193.915 288.550, 210.464 299.836, 235.379 308.246 C 251.132 313.564, 261.264 314.327, 272.179 311.019 C 291.813 305.068, 306.969 296.956, 315.700 287.724 C 321.435 281.660, 324.128 276.912, 326.339 268.970 C 328.013 262.953, 329.052 249.850, 327.793 250.628 C 327.357 250.897, 327 251.680, 327 252.368 C 327 253.055, 326.322 254.491, 325.494 255.559 C 324.090 257.369, 324.056 257.311, 324.994 254.685 C 325.547 253.137, 326 249.035, 326 245.570 C 326 240.710, 325.526 238.667, 323.927 236.635 C 321.021 232.939, 319.833 233.356, 321.551 237.468 C 325.668 247.322, 320.470 261.040, 311.496 264.001 C 302.059 267.116, 294.922 254.746, 299.798 243.724 C 302.103 238.513, 309.064 230.536, 313.148 228.423 C 320.485 224.629, 328.281 228.654, 329.603 236.917 C 329.966 239.187, 330.579 241.240, 330.967 241.479 C 332.109 242.186, 341 225.399, 341 222.534 C 341 221.080, 339.905 218.814, 338.545 217.455 C 336.282 215.191, 335.347 215, 326.545 215 C 320.558 215, 317 214.609, 317 213.952 C 317 212.348, 322.115 207.899, 325.718 206.367 C 333.012 203.268, 339.733 205.951, 343.010 213.272 L 344.788 217.242 345.461 214.180 C 346.393 209.934, 344.977 207.850, 338.923 204.554 C 333.749 201.739, 333.629 201.724, 324.840 202.806 C 316.280 203.860, 315.787 204.063, 310.529 208.699 C 307.535 211.339, 301.353 215.377, 296.792 217.672 C 289.165 221.510, 288.474 221.688, 288.177 219.899 C 287.658 216.768, 290.814 208.447, 297.999 194 C 303.663 182.613, 305.738 177.447, 309.547 165.250 C 310.271 162.931, 309.136 163.975, 304.655 169.750 M 184.750 170.706 C 185.988 170.944, 188.012 170.944, 189.250 170.706 C 190.488 170.467, 189.475 170.272, 187 170.272 C 184.525 170.272, 183.512 170.467, 184.750 170.706 M 202.071 185.680 C 200.736 189.431, 197.915 195.762, 195.803 199.750 C 193.691 203.738, 192.349 207, 192.821 207 C 193.293 207, 197.914 204.844, 203.090 202.208 C 212.940 197.192, 222.459 191.113, 229.916 185.075 L 234.332 181.500 222.416 180.883 C 215.862 180.544, 209.150 179.950, 207.500 179.563 C 204.542 178.870, 204.466 178.955, 202.071 185.680 M 223.459 205.332 C 213.319 207.922, 205.088 214.534, 203.404 221.441 L 202.687 224.382 206.594 221.998 C 217.811 215.152, 219.765 214.578, 232.500 214.393 C 239.100 214.298, 245.756 213.724, 247.290 213.119 C 249.683 212.176, 249.928 211.734, 249.011 210.020 C 246.414 205.168, 233.428 202.785, 223.459 205.332 M 225.994 229.423 C 219.672 231.170, 217.119 232.638, 212.250 237.325 C 207.665 241.739, 207.071 243.600, 209.646 245.483 C 210.629 246.202, 211.603 248.974, 212.063 252.363 C 214.806 272.579, 236.918 280.195, 244.914 263.677 C 248.701 255.856, 246.976 243.051, 241.290 236.768 C 239.077 234.323, 241.361 234.380, 246.289 236.892 C 250.632 239.107, 251.220 237.820, 247.832 233.514 C 243.682 228.238, 235.699 226.743, 225.994 229.423 M 215.635 239.073 C 214.186 240.212, 213 241.787, 213 242.573 C 213 244.935, 214.370 244.175, 216.759 240.488 C 219.381 236.440, 219.227 236.247, 215.635 239.073 M 308.655 240.829 C 303.885 246.100, 309.814 254.318, 315.635 250.504 C 317.336 249.389, 318 248.021, 318 245.632 C 318 239.868, 312.215 236.895, 308.655 240.829 M 230.483 244.019 C 228.060 246.696, 229.433 252.517, 233.135 255.264 C 235.487 257.009, 236.079 257.072, 238.635 255.852 C 241.016 254.716, 241.551 253.778, 241.805 250.297 C 242.035 247.131, 241.609 245.609, 240.055 244.055 C 237.431 241.431, 232.841 241.413, 230.483 244.019 M 219.750 247.571 C 219.338 247.990, 219 249.698, 219 251.367 C 219 253.536, 219.307 254.093, 220.078 253.322 C 220.671 252.729, 221.009 251.021, 220.828 249.526 C 220.648 248.031, 220.162 247.151, 219.750 247.571 M 282.667 274.667 C 280.477 276.856, 286.313 281.861, 289.590 280.604 C 291.314 279.942, 291.435 276.835, 289.800 275.200 C 288.517 273.917, 283.772 273.562, 282.667 274.667 M 166.065 284.513 C 155.912 289.983, 155.700 291.555, 163.861 300.835 C 167.085 304.501, 172.352 311.100, 175.565 315.500 C 183.261 326.039, 199.606 346.638, 200.913 347.446 C 202.652 348.521, 206.320 345.379, 211.909 338.027 C 214.847 334.162, 217.982 331.002, 218.876 331.004 C 221.454 331.010, 226.759 334.664, 227.478 336.931 C 228.064 338.776, 228.931 339, 235.496 339 C 243.089 339, 243.678 338.744, 247.673 333.708 C 248.678 332.442, 250.913 330.366, 252.640 329.096 C 255.485 327.004, 256.047 326.914, 258.603 328.143 C 260.155 328.889, 262.429 330.991, 263.656 332.813 L 265.886 336.126 266.572 332.467 C 267.559 327.208, 265.535 321.172, 262.532 320.419 C 258.291 319.354, 249.836 322.559, 245.694 326.802 C 243.605 328.940, 242.032 331.322, 242.198 332.095 C 242.719 334.521, 232.704 333.427, 225.683 330.290 C 217.715 326.730, 202.015 314.916, 194.432 306.775 C 188.512 300.420, 186.430 297.604, 179.628 286.750 C 177.432 283.246, 175.336 281.009, 174.262 281.023 C 173.293 281.035, 169.604 282.606, 166.065 284.513 M 254 290.384 C 254 292.956, 261.558 298.749, 265.861 299.476 C 269.132 300.029, 271.097 299.644, 275.652 297.559 C 279.802 295.659, 281.051 294.651, 280.248 293.848 C 279.446 293.046, 278.212 293.324, 275.705 294.873 C 273.797 296.052, 270.593 297, 268.514 297 C 265.473 297, 264.009 296.244, 260.765 293 C 256.695 288.930, 254 287.888, 254 290.384 M 152.269 309.033 C 162.354 319.403, 167.751 334.265, 166.602 348.500 C 166.247 352.900, 165.688 358.223, 165.360 360.328 C 164.779 364.056, 164.837 364.147, 167.592 363.828 C 169.616 363.593, 170.617 362.788, 171.111 361 C 172.349 356.515, 172.004 342.642, 170.496 336.246 C 167.703 324.401, 157.590 307.908, 151.045 304.523 C 145.971 301.899, 146.218 302.811, 152.269 309.033 M 300.763 308.570 C 300.450 308.883, 301.033 312.146, 302.058 315.820 C 306.163 330.522, 307.065 347.740, 303.996 352.774 C 302.898 354.575, 302 356.604, 302 357.282 C 302 357.961, 307.452 363.849, 314.116 370.367 L 326.233 382.217 338.366 378.141 C 345.040 375.898, 354.303 373.117, 358.952 371.959 C 367.839 369.746, 371 368.472, 371 367.104 C 371 365.803, 359.988 360.275, 354.792 358.968 C 350.864 357.980, 349.301 358.050, 345.364 359.392 C 342.768 360.276, 340.324 361, 339.932 361 C 339.541 361, 339.284 357.887, 339.361 354.083 C 339.540 345.170, 337.841 342.732, 327.957 337.714 C 320.728 334.045, 320.437 333.754, 318.444 328.214 C 315.465 319.936, 313.244 315.984, 309.187 311.750 C 305.964 308.386, 302.322 307.011, 300.763 308.570 M 127.672 318.273 C 120.367 325.162, 117.524 336.638, 120.397 347.644 C 122.603 356.099, 122.405 363.372, 119.569 378 C 113.634 408.619, 115.696 428.612, 126 440.347 C 130.593 445.578, 133.860 447.004, 141.200 446.978 C 153.699 446.935, 179.010 439.616, 200.121 429.939 C 216.520 422.423, 235.424 416.085, 241.583 416.038 C 244.388 416.017, 250.849 414.656, 256 413 C 261.134 411.350, 265.897 410, 266.584 410 C 267.272 410, 269.972 410.916, 272.585 412.037 C 276.220 413.594, 277.516 413.783, 278.099 412.841 C 279.262 410.957, 277.182 407.959, 273.923 406.823 C 270.307 405.563, 269.810 401.998, 273.250 402.004 C 276.357 402.009, 281.684 405.431, 282.478 407.931 C 283.365 410.726, 285.794 410.545, 287.144 407.584 C 288.022 405.655, 287.867 404.396, 286.372 401.345 C 284.876 398.289, 283.501 397.155, 279.522 395.694 C 269.917 392.167, 269.543 389.137, 279.068 392.021 C 287.094 394.451, 289.586 396.216, 290.988 400.465 C 292.171 404.048, 293.368 404.686, 295.901 403.082 C 297.453 402.100, 296.931 393.608, 295.109 390.204 C 294.520 389.102, 289.937 386.801, 283.809 384.530 C 278.139 382.429, 272.469 380.036, 271.209 379.213 C 268.356 377.349, 267.053 377.897, 256.738 385.297 C 252.471 388.359, 246.621 391.742, 243.740 392.816 C 237.223 395.244, 196.258 401.535, 174.079 403.514 C 164.960 404.327, 156.375 405.251, 155 405.567 C 153.625 405.882, 149.214 408.650, 145.197 411.717 C 137.067 417.924, 134.883 417.914, 136.942 411.676 C 139.776 403.089, 150.624 395.144, 157.703 396.472 C 161.725 397.227, 161.851 396.308, 158.511 390.609 C 156.081 386.463, 156.051 386.166, 157.235 378.042 L 158.448 369.722 154.774 362.988 L 151.101 356.254 153.655 353.877 C 155.966 351.727, 156.161 350.958, 155.705 345.809 C 154.580 333.123, 143.406 317.231, 134.335 315.417 C 131.852 314.920, 130.706 315.411, 127.672 318.273 M 284 322.826 C 284 325.469, 286.278 343.489, 287.530 350.750 C 288.301 355.220, 291 355.127, 291 350.631 C 291 347.270, 289.023 334.868, 286.936 325.136 C 285.749 319.600, 284 318.225, 284 322.826 M 183.835 343.402 C 184.482 356.222, 180.608 375.026, 174.565 388.389 L 171.902 394.279 183.701 393.731 C 197.681 393.082, 231.988 387.799, 240.500 384.985 C 243.800 383.894, 249.984 380.769, 254.242 378.040 C 265.582 370.773, 265.832 370.665, 274 369.502 L 281.500 368.435 281.812 364.115 C 282.017 361.285, 281.602 359.217, 280.607 358.119 C 278.696 356.007, 276 345.818, 276 340.707 C 276 335.829, 274.603 336.172, 270.450 342.072 C 268.735 344.507, 266.593 346.643, 265.690 346.819 C 263.974 347.152, 261.023 344.589, 257.260 339.500 L 255.043 336.500 250.013 341.865 C 246.014 346.130, 244.526 347.109, 242.750 346.645 C 241.522 346.324, 237.515 346.557, 233.847 347.162 C 227.705 348.177, 226.808 348.085, 222.519 346.009 L 217.861 343.754 216.253 346.127 C 213.393 350.349, 207.010 355.959, 204.289 356.642 C 202.673 357.048, 200.636 356.746, 199.069 355.869 C 196.887 354.646, 190.796 346.972, 184.975 338.114 C 183.553 335.948, 183.476 336.302, 183.835 343.402 M 54.661 355.750 C 53.953 356.914, 65.266 420.939, 66.975 425.434 C 68.036 428.224, 70.457 428.856, 71.334 426.572 C 72.033 424.751, 63.623 373.319, 61.430 366 C 58.737 357.011, 56.217 353.195, 54.661 355.750 M 288.393 361.419 C 287.464 363.840, 288.846 368, 290.579 368 C 291.744 368, 292.045 367.103, 291.810 364.327 C 291.484 360.467, 289.429 358.718, 288.393 361.419 M 281.500 374.738 C 277.388 375.676, 278.063 376.754, 283.762 378.353 C 286.990 379.259, 289.939 380, 290.316 380 C 291.548 380, 291.032 375.947, 289.750 375.552 C 286.840 374.656, 283.366 374.313, 281.500 374.738 M 295 377.418 C 295 378.198, 294.747 379.495, 294.439 380.299 C 294.077 381.241, 295.148 382.546, 297.446 383.967 C 300.183 385.658, 301.274 387.201, 302.126 390.586 C 303.379 395.560, 304.202 395.978, 306.443 392.777 C 308.521 389.811, 308.400 387.168, 306.005 383.241 C 302.906 378.158, 295 373.975, 295 377.418 M 371.136 377.012 C 369.348 377.774, 369.034 378.336, 369.848 379.317 C 370.637 380.268, 370.236 382.316, 368.339 387.012 C 366.918 390.531, 365.534 395.053, 365.265 397.059 C 364.838 400.248, 365.074 400.788, 367.138 401.340 C 373.011 402.913, 373.554 402.479, 376.936 393.516 C 378.698 388.850, 380.557 384.774, 381.069 384.457 C 383.548 382.926, 383.412 385.692, 380.607 393.894 C 378.918 398.831, 377.754 403.073, 378.018 403.321 C 378.283 403.569, 380.365 404.079, 382.645 404.456 L 386.789 405.140 389.477 397.070 C 391.154 392.035, 392.697 389, 393.582 389 C 395.481 389, 395.382 390.172, 392.811 398.156 C 391.606 401.895, 390.852 405.185, 391.133 405.467 C 391.415 405.749, 392.985 406.247, 394.623 406.575 C 397.473 407.145, 397.711 406.911, 400.225 401.085 C 404.108 392.086, 406.286 393.006, 403.865 402.622 C 402.005 410.010, 405.472 411.078, 409.782 404.443 C 414.182 397.670, 413.889 395.954, 407.342 390.136 C 399.269 382.961, 387.054 376.962, 379.420 376.423 C 376.164 376.192, 372.436 376.458, 371.136 377.012 M 358.465 380.027 C 355.033 381.115, 350.599 383.507, 348.188 385.571 C 343.871 389.266, 340.402 394.527, 341.754 395.329 C 343.042 396.094, 353.996 398.342, 354.334 397.911 C 357.278 394.148, 362.977 384.902, 363.525 383 C 363.921 381.625, 364.695 379.938, 365.245 379.250 C 366.541 377.629, 365.730 377.722, 358.465 380.027 M 313.192 404.525 C 302.843 407.965, 289 414.557, 289 416.044 C 289 417.143, 294.885 418.950, 321.500 426.020 C 334.150 429.380, 346.840 433.190, 349.699 434.486 L 354.898 436.843 357.852 431.671 C 361.480 425.320, 367.808 419.174, 374.710 415.300 L 379.921 412.375 370.710 410.179 C 358.572 407.286, 327.091 400.987, 325.081 401.049 C 324.211 401.076, 318.861 402.640, 313.192 404.525 M 392.176 420.070 C 386.450 421.197, 378.292 425.011, 374.191 428.479 C 369.569 432.388, 365.021 440.676, 365.009 445.211 C 365.001 448.713, 365.232 448.985, 369.101 450.027 C 371.356 450.635, 373.303 450.989, 373.427 450.816 C 373.551 450.642, 374.673 448.803, 375.921 446.729 C 381.255 437.861, 386.125 436.385, 413.306 435.394 L 430.113 434.782 428.306 432.746 C 419.495 422.814, 404.670 417.613, 392.176 420.070 M 244 424.582 C 234.375 426.981, 225.397 428.956, 224.050 428.971 C 222.596 428.988, 221.986 429.354, 222.550 429.872 C 224.234 431.416, 243.978 438.641, 263.733 444.941 L 282.965 451.075 288.705 448.449 C 297.556 444.400, 313.894 438.404, 320 436.963 L 325.500 435.664 322.369 434.378 C 318.057 432.606, 265.905 419.974, 263.469 420.111 C 262.386 420.172, 253.625 422.184, 244 424.582 M 210.704 441.166 C 208.617 444.508, 207.042 447.370, 207.204 447.527 C 207.658 447.965, 246.313 462.383, 266.370 469.596 L 284.240 476.022 308.370 466.879 C 342.402 453.984, 348.208 452.339, 353.908 453.974 C 357.567 455.023, 357.849 454.125, 354.750 451.289 C 351.306 448.137, 348.870 447.793, 338.324 448.969 C 326.521 450.285, 311.819 455.016, 296.098 462.558 C 289.826 465.567, 284.619 467.910, 284.525 467.764 C 284.431 467.619, 283.559 465.353, 282.587 462.729 C 280.465 457.003, 280.063 456.776, 261 450.503 C 253.025 447.878, 239.850 443.317, 231.721 440.366 C 223.593 437.415, 216.393 435.020, 215.721 435.045 C 215.050 435.070, 212.792 437.824, 210.704 441.166" stroke="none"  fill-rule="evenodd"/>
</svg>