<svg
    xmlns="http://www.w3.org/2000/svg" viewBox="400 0 3780 3780">
    <g id="l3Dg33OMeka1Wu43RrhFaFt" fill="rgb(33,22,17)">
            <path id="p13KpX0rzG" d="M2117 4699 c-222 -18 -437 -82 -569 -167 -32 -21 -36 -28 -31 -53 8 -42 -18 -47 -85 -15 -86 40 -165 56 -300 63 l-124 6 7 -46 c8 -54 -1 -59 -36 -21 -35 38 -72 54 -122 54 -72 0 -71 -38 4 -108 37 -34 33 -48 -20 -62 -78 -21 -191 -121 -191 -169 0 -9 -6 -25 -14 -36 -7 -11 -16 -37 -19 -57 -6 -38 -5 -38 28 -38 33 0 34 2 33 34 -1 37 27 89 81 149 55 61 152 102 212 90 26 -5 26 -5 11 -36 -9 -18 -18 -58 -20 -91 -5 -58 -5 -58 -48 -77 -23 -11 -79 -24 -123 -31 -81 -11 -106 -29 -58 -42 38 -10 63 -39 75 -87 6 -25 23 -66 38 -92 29 -52 40 -56 116 -33 l46 15 25 -37 c13 -20 44 -56 67 -79 38 -36 46 -40 63 -30 37 22 100 57 104 57 1 0 3 -7 3 -15 0 -8 3 -15 8 -15 15 0 32 -56 33 -109 1 -51 2 -53 9 -21 17 79 35 115 65 129 17 8 32 17 35 20 3 3 14 11 25 17 11 6 34 34 50 62 34 58 64 67 106 33 l23 -18 -31 -49 c-83 -131 -136 -279 -117 -332 13 -36 32 -39 39 -5 15 71 30 114 67 191 45 92 193 322 208 322 15 0 128 -162 174 -251 39 -73 96 -223 96 -250 0 -5 -51 -34 -112 -65 -171 -85 -168 -83 -168 -162 l0 -67 -62 -55 -61 -54 -30 34 c-37 44 -94 165 -103 219 -8 52 -27 53 -44 2 -10 -33 -10 -46 0 -73 37 -95 69 -148 122 -200 32 -32 58 -62 58 -68 0 -12 56 -63 105 -97 17 -12 57 -29 88 -38 32 -9 57 -20 57 -24 0 -10 -41 -44 -70 -58 -14 -6 -45 -21 -70 -32 -49 -23 -112 -76 -123 -104 -5 -14 -11 -16 -27 -7 -26 14 -25 43 1 79 19 25 20 33 10 64 -14 42 -43 70 -67 65 -23 -4 -64 -64 -64 -91 0 -12 10 -31 21 -44 19 -19 21 -28 13 -64 -8 -38 -13 -43 -61 -61 -135 -50 -210 -211 -164 -350 13 -38 92 -118 117 -118 23 0 24 -17 10 -87 -8 -37 -24 -135 -36 -218 -11 -82 -27 -188 -35 -235 -8 -47 -24 -148 -35 -225 -12 -77 -34 -206 -51 -286 -16 -80 -29 -162 -29 -181 0 -20 -4 -58 -10 -85 -5 -26 -22 -118 -36 -203 -14 -85 -37 -207 -50 -270 -40 -182 -38 -170 -19 -170 26 0 136 64 166 97 35 37 43 80 29 148 -7 32 -9 78 -5 106 6 46 9 49 35 49 52 0 60 -8 59 -59 -1 -25 -4 -57 -8 -71 -7 -26 9 -102 22 -101 4 1 8 4 8 9 1 4 10 13 20 20 14 10 19 26 20 65 0 29 4 75 10 102 24 126 24 130 -7 154 -24 19 -36 21 -71 16 l-42 -6 -3 48 c-2 26 0 59 4 73 4 14 12 58 19 98 l12 72 33 0 c33 0 33 -1 26 -32 -4 -18 -7 -62 -6 -97 0 -54 3 -66 23 -82 21 -17 44 -15 70 7 4 4 17 116 27 240 l6 71 -50 16 c-28 10 -63 17 -78 17 -26 0 -26 1 -21 48 11 98 28 218 33 235 8 25 41 21 60 -8 14 -21 15 -34 6 -85 -8 -46 -8 -69 2 -97 16 -48 30 -51 52 -14 10 17 23 31 28 31 20 0 126 -122 126 -146 0 -38 -59 -175 -96 -223 -33 -43 -42 -82 -26 -108 6 -10 17 -8 46 8 48 26 59 14 50 -51 -10 -75 -66 -169 -114 -193 -16 -8 -26 -23 -28 -41 -5 -41 9 -49 51 -27 l37 19 6 -24 c9 -35 -34 -113 -71 -128 -42 -18 -57 -39 -62 -89 -6 -62 5 -74 58 -58 46 14 109 69 109 94 0 9 13 42 30 74 16 31 30 63 30 70 0 7 10 22 23 33 l22 21 11 -27 c6 -15 9 -44 7 -64 -4 -27 -1 -39 13 -50 11 -8 16 -11 12 -6 -3 4 2 16 13 27 17 17 17 22 5 57 -33 93 -38 147 -26 304 6 84 11 190 11 236 -1 51 2 82 9 82 6 0 33 -12 60 -26 l50 -26 0 -72 c0 -41 -5 -77 -11 -83 -9 -9 -8 -20 4 -46 27 -57 41 -62 70 -28 22 27 24 36 20 94 -5 57 -3 66 18 85 26 25 93 29 122 8 15 -12 17 -28 15 -127 -1 -63 0 -123 2 -134 5 -19 1 -20 -90 -17 -88 4 -97 2 -122 -20 -27 -23 -28 -26 -28 -134 0 -73 -4 -114 -12 -122 -10 -10 -7 -16 11 -28 12 -9 20 -22 18 -28 -3 -7 1 -13 9 -13 18 0 27 29 12 39 -9 5 -4 8 14 8 19 0 27 5 27 18 0 9 3 45 7 80 l7 62 42 0 c23 0 57 -3 74 -6 29 -6 31 -9 31 -50 0 -32 -9 -58 -32 -96 -58 -94 -37 -193 62 -282 38 -34 43 -36 63 -23 12 8 45 45 72 82 46 63 50 73 50 124 0 48 -5 64 -37 111 -40 58 -44 78 -28 126 10 30 11 30 78 26 37 -2 68 -5 69 -6 2 -2 3 -31 4 -67 1 -35 6 -67 11 -70 6 -4 6 -15 -2 -29 -7 -12 -7 -20 -2 -16 6 3 15 -9 22 -27 10 -30 12 -31 22 -13 6 11 23 31 37 44 21 20 23 26 13 42 -8 13 -12 62 -12 135 l0 114 -117 3 -118 3 -2 149 c-1 94 2 145 8 139 6 -6 33 -6 67 -2 31 4 61 4 66 -1 9 -9 4 -95 -7 -120 -4 -9 7 -30 27 -53 l34 -38 32 41 c28 35 31 45 22 63 -6 12 -12 51 -14 86 l-3 65 59 33 c33 19 63 32 69 30 5 -1 10 -70 12 -152 2 -83 9 -184 15 -225 11 -64 10 -85 -6 -152 -19 -84 -13 -107 16 -71 10 13 22 23 27 23 10 0 93 -177 93 -196 0 -20 68 -73 111 -85 47 -15 59 -5 59 48 0 51 -17 81 -57 102 -32 16 -45 33 -76 99 -36 78 -45 112 -29 112 14 0 32 -23 32 -41 0 -22 20 -37 58 -45 30 -6 32 -5 32 21 0 18 -12 39 -37 64 -72 69 -110 139 -123 224 -6 43 -9 85 -6 93 10 25 25 15 37 -26 9 -29 19 -42 42 -49 16 -6 33 -8 38 -5 17 10 9 50 -17 85 -48 64 -114 204 -114 241 0 10 14 25 31 34 17 8 51 34 76 57 l45 41 18 -23 c21 -29 35 -22 50 24 9 28 9 41 -3 65 -14 28 -14 33 6 70 24 43 57 55 57 20 0 -12 6 -33 14 -48 7 -15 17 -68 20 -119 l7 -92 -28 -7 c-15 -3 -45 -10 -67 -16 l-39 -9 8 -57 c4 -31 9 -94 10 -140 3 -70 7 -88 28 -115 l25 -32 16 40 c15 35 16 49 5 118 -14 83 -11 91 33 102 36 9 42 -6 63 -168 13 -94 14 -131 6 -141 -6 -7 -38 -16 -70 -20 -32 -4 -60 -9 -63 -11 -2 -3 1 -40 8 -82 7 -43 13 -107 14 -143 0 -48 6 -71 19 -87 26 -32 43 -29 35 5 -4 20 -3 23 5 13 17 -25 24 31 12 89 -18 85 -16 97 25 110 30 10 38 10 45 -1 17 -27 21 -78 11 -157 -13 -112 -9 -126 57 -178 55 -43 136 -82 147 -71 3 3 -3 47 -15 99 -38 176 -76 390 -166 928 -13 80 -31 195 -39 257 -9 61 -23 132 -31 157 -9 26 -13 51 -10 56 9 15 -6 110 -17 104 -5 -4 -7 8 -3 28 8 44 -20 206 -40 228 -24 27 -19 87 10 114 33 31 32 36 -10 36 -34 0 -35 1 -35 39 0 22 -4 43 -10 46 -10 6 -15 255 -5 255 18 0 66 -34 98 -69 58 -65 66 -119 26 -197 -6 -11 -9 -33 -7 -48 l3 -27 35 29 35 30 0 108 c0 122 -5 134 -71 182 -25 18 -57 31 -87 34 -67 8 -87 29 -87 91 0 38 5 56 21 73 36 39 10 116 -44 129 -22 6 -29 2 -47 -27 -26 -43 -26 -86 2 -115 19 -21 20 -25 7 -38 -13 -13 -22 -9 -79 34 -36 28 -99 68 -140 89 -41 22 -75 45 -75 52 0 6 20 19 45 27 56 19 91 43 155 104 l50 49 89 -50 c49 -28 92 -50 96 -50 4 0 20 -10 35 -22 20 -15 39 -21 64 -19 20 1 54 -5 75 -14 40 -17 106 -13 106 5 0 6 6 10 14 10 21 0 46 45 57 105 9 52 9 57 -17 89 -16 19 -52 46 -80 60 -29 14 -55 34 -58 43 -2 10 -4 77 -4 148 1 127 -1 142 -43 281 -5 17 -9 37 -9 44 0 8 -14 48 -32 91 -30 75 -32 77 -57 67 -14 -6 -35 -14 -46 -18 -38 -15 -180 -72 -212 -86 -38 -17 -63 -18 -63 -2 0 19 111 291 125 306 10 11 14 10 25 -3 11 -14 18 -3 50 77 20 51 58 144 84 206 33 77 47 122 44 142 -4 29 -3 30 33 30 21 0 75 9 121 20 106 25 135 25 178 -2 22 -13 59 -24 100 -27 l65 -6 -3 -80 c-2 -52 2 -98 12 -129 11 -35 12 -54 5 -62 -36 -44 -190 -114 -251 -114 -27 0 -59 27 -121 106 -19 25 -20 27 -3 21 11 -4 52 -10 92 -14 l74 -6 0 41 c0 40 1 41 38 44 36 3 37 4 37 43 l0 40 -70 1 c-101 1 -129 6 -75 13 44 6 45 7 48 44 l3 37 -74 0 c-41 0 -89 -3 -106 -6 -28 -6 -31 -10 -31 -45 0 -38 -1 -39 -36 -39 -35 0 -35 -1 -32 -37 3 -35 6 -38 36 -41 28 -3 32 -7 32 -33 0 -16 6 -30 13 -30 6 -1 -1 -4 -18 -8 -25 -5 -31 -11 -33 -40 -2 -19 4 -52 14 -73 9 -21 15 -40 13 -43 -3 -2 -35 -10 -72 -17 -55 -10 -67 -16 -67 -32 0 -16 5 -18 39 -13 22 3 44 0 50 -6 8 -8 14 -8 23 1 7 7 27 12 45 12 18 0 33 5 33 11 0 6 10 23 22 38 l23 27 48 -20 c43 -18 53 -19 110 -8 118 24 257 108 257 156 0 12 -7 44 -16 70 -13 37 -14 62 -8 114 14 118 10 124 -84 133 -66 6 -131 25 -143 43 -9 11 -116 -1 -177 -20 -26 -8 -95 -18 -153 -21 -102 -5 -106 -5 -111 15 -12 44 -286 155 -448 181 -191 32 -293 36 -483 20z m373 -60 c36 -5 106 -19 155 -32 l90 -22 -87 -3 -88 -3 0 -189 0 -190 -34 0 c-19 0 -41 -3 -50 -6 -12 -5 -16 6 -18 58 -3 58 -5 63 -27 66 -13 2 -39 1 -57 -3 l-34 -6 0 -93 c0 -72 -4 -96 -15 -106 -11 -9 -15 -28 -14 -59 2 -25 -1 -94 -5 -153 -8 -102 -7 -107 13 -117 19 -11 61 -86 61 -110 0 -7 -30 -11 -77 -11 -76 0 -78 1 -95 30 -21 36 -74 70 -110 70 -24 0 -32 9 -64 73 l-37 72 -1 337 -1 338 -100 1 -100 1 45 14 c174 55 443 73 650 43z m-1391 -201 c-1 -49 -2 -51 -9 -18 -4 19 -11 43 -15 53 -5 12 -3 17 9 17 13 0 16 -10 15 -52z m791 -175 l-1 -228 -37 43 c-29 32 -45 42 -69 42 -26 0 -37 -9 -83 -72 l-53 -73 -10 30 c-9 29 -118 323 -132 357 -5 13 6 23 52 46 52 27 88 39 203 70 19 6 56 10 83 11 l47 1 0 -227z m941 208 c57 -12 168 -57 198 -80 l23 -18 -57 -139 c-32 -76 -95 -238 -142 -359 -46 -121 -104 -272 -128 -335 l-44 -115 6 -172 c4 -118 10 -173 17 -173 7 0 36 -24 65 -54 l53 -54 -34 -25 c-18 -13 -47 -32 -64 -40 l-32 -16 -4 102 c-4 102 -22 160 -65 209 -11 13 -13 35 -8 105 3 48 8 175 10 282 2 148 6 196 17 202 10 7 13 75 12 355 l-1 346 66 -5 c36 -3 87 -10 112 -16z m-1913 -27 c21 -21 29 -33 19 -30 -10 3 -27 6 -38 6 -12 0 -19 7 -19 20 0 11 -4 20 -10 20 -5 0 -10 5 -10 10 0 19 20 10 58 -26z m417 6 c49 -16 50 -18 55 -63 6 -46 5 -47 -21 -47 -15 0 -52 12 -83 26 -56 25 -56 26 -56 70 0 50 -2 50 105 14z m-138 -152 c113 -49 169 -139 132 -211 -16 -32 -131 -147 -146 -147 -14 0 -115 148 -133 194 -12 33 15 104 57 149 29 30 48 33 90 15z m257 -95 c17 -35 96 -250 96 -263 0 -11 -67 20 -112 52 -24 17 -26 22 -16 48 5 17 8 66 6 110 -2 44 0 80 4 80 4 0 14 -12 22 -27z m-441 -219 c26 -43 27 -48 12 -64 -16 -17 -114 -65 -120 -58 -9 10 -54 107 -57 123 -2 15 7 21 52 30 83 18 83 18 113 -31z m422 -118 c20 -14 20 -15 -1 -36 l-21 -22 -39 20 c-22 11 -48 27 -59 35 -20 15 -20 16 3 40 l24 25 36 -24 c21 -13 46 -30 57 -38z m-269 -46 c50 0 67 -17 36 -38 -12 -8 -22 -21 -22 -28 0 -23 -14 -16 -59 30 -29 30 -39 45 -29 49 7 2 17 1 23 -4 5 -5 28 -9 51 -9z m2003 -152 c30 -77 59 -192 69 -279 9 -70 2 -209 -14 -269 -18 -73 -57 -180 -65 -180 -24 0 -267 135 -303 168 -23 21 -52 45 -64 54 -23 16 -24 20 -20 125 4 100 7 116 48 217 25 60 52 113 60 117 19 9 253 97 261 98 4 1 16 -23 28 -51z m-721 -110 c78 -10 82 -12 82 -36 0 -23 -3 -24 -37 -18 -21 3 -86 6 -145 6 -106 0 -108 0 -108 23 0 13 3 27 7 30 10 11 109 8 201 -5z m2 -152 l65 -12 -2 -48 c-1 -26 -4 -50 -6 -52 -3 -3 -31 3 -63 13 -85 26 -277 24 -356 -4 -56 -19 -58 -19 -58 -1 0 13 20 28 65 50 36 18 65 38 65 44 0 7 6 15 13 17 24 10 213 5 277 -7z m-510 -160 c0 -19 -5 -38 -11 -42 -6 -3 -19 -20 -30 -38 l-19 -31 0 26 c0 15 -3 40 -6 57 -5 26 -2 32 22 46 41 22 44 20 44 -18z m1438 -207 c30 -51 24 -76 -28 -123 -47 -42 -87 -49 -75 -13 4 12 17 58 29 103 24 92 37 98 74 33z m-1198 28 c0 -2 -23 -23 -51 -47 -31 -26 -47 -35 -40 -23 18 34 91 90 91 70z m-328 -92 c-3 -54 -7 -73 -15 -69 -7 4 -33 20 -58 36 l-45 31 40 38 c23 21 50 39 61 39 19 0 20 -5 17 -75z m548 -170 c197 -15 374 -89 484 -202 l38 -40 0 -232 c0 -159 -3 -236 -11 -244 -6 -6 -11 -28 -11 -49 l0 -38 -609 0 -608 0 -6 40 c-3 23 -11 47 -17 56 -14 15 -20 448 -7 461 4 3 7 15 7 25 0 10 4 18 9 18 9 0 126 82 164 115 9 8 24 15 32 15 8 0 15 4 15 9 0 5 12 11 28 14 15 2 63 14 108 26 76 20 246 41 289 35 11 -2 54 -5 95 -9z m-920 -564 c-5 -11 -10 -36 -10 -55 0 -42 -4 -43 -48 -16 -37 23 -69 71 -78 116 -11 57 40 141 111 185 l30 19 3 -115 c1 -66 -2 -123 -8 -134z m110 -250 c-1 -16 -19 -33 -29 -27 -12 8 -15 49 -4 60 7 7 33 -20 33 -33z m1435 -10 c-3 -11 -10 -21 -15 -21 -13 0 -21 31 -14 53 5 17 8 18 21 4 9 -9 13 -23 8 -36z m-105 -92 c36 -41 119 -51 161 -19 17 12 32 20 33 18 2 -1 10 -57 19 -123 49 -360 142 -951 203 -1284 25 -134 42 -246 39 -249 -10 -11 -85 72 -85 94 0 12 5 45 12 73 14 62 -5 189 -30 198 -8 4 -42 2 -76 -4 -34 -6 -63 -8 -66 -6 -9 8 24 21 68 28 86 13 84 2 47 245 -14 91 -25 167 -25 169 0 2 -35 1 -77 -2 -81 -6 -74 6 11 18 l46 7 0 54 c0 51 -35 314 -45 343 -5 13 -47 12 -117 -5 -16 -4 -28 -2 -28 4 0 5 23 12 50 16 28 4 57 9 65 12 18 7 19 73 2 189 l-12 80 -403 0 -402 0 0 -157 0 -157 112 -3 c78 -2 113 -7 116 -15 3 -10 -24 -13 -112 -13 l-116 0 0 -200 0 -200 115 0 c96 0 115 -3 115 -15 0 -12 -19 -15 -115 -15 l-115 0 0 -200 0 -200 115 0 c96 0 115 -3 115 -15 0 -12 -19 -15 -115 -15 l-115 0 0 -89 c0 -85 2 -93 37 -151 l36 -62 -20 -42 c-11 -23 -33 -56 -48 -74 -27 -32 -28 -32 -48 -15 -30 27 -77 104 -77 128 0 11 16 45 35 74 35 52 36 56 33 140 l-3 86 -118 3 c-88 2 -117 6 -114 15 2 8 40 13 120 15 l117 3 0 199 0 200 -121 0 c-92 0 -120 3 -117 13 3 8 39 13 121 15 l117 3 0 199 0 200 -115 0 c-96 0 -115 3 -115 15 0 12 19 15 115 15 l116 0 -3 156 -3 156 -395 1 -395 2 -12 -80 c-6 -44 -12 -103 -12 -132 -1 -57 -2 -57 82 -69 75 -10 55 -23 -28 -17 -42 3 -75 2 -75 -3 0 -5 -11 -83 -25 -174 -14 -91 -25 -175 -25 -188 0 -25 2 -26 83 -42 31 -6 57 -16 57 -22 0 -6 -9 -8 -22 -4 -30 9 -128 20 -128 15 -1 -2 -12 -78 -25 -169 -36 -244 -39 -232 47 -245 44 -7 77 -20 68 -28 -3 -2 -32 0 -66 6 -34 6 -68 8 -76 5 -9 -4 -20 -32 -28 -69 -11 -51 -11 -76 -1 -137 14 -84 9 -99 -58 -151 -30 -23 -33 -24 -28 -6 22 69 129 694 192 1120 19 132 42 281 50 330 8 50 17 120 21 157 l7 66 21 -24 c16 -18 36 -25 78 -30 57 -7 58 -6 91 29 l33 37 245 3 c134 1 406 1 604 -1 l360 -4 25 -29z m-750 -301 l0 -68 -99 0 c-55 0 -106 -3 -115 -6 -13 -5 -16 -25 -16 -118 0 -83 -4 -117 -15 -132 -24 -31 -19 -102 9 -139 14 -18 21 -36 16 -41 -4 -5 -10 -20 -12 -32 -3 -24 -4 -23 -68 19 -36 24 -100 79 -144 122 l-78 78 8 72 c4 40 8 99 9 131 l0 59 -66 16 c-36 9 -65 21 -63 26 1 6 5 26 8 45 l6 35 310 0 310 0 0 -67z m865 24 c4 -24 4 -46 2 -48 -2 -3 -32 -10 -66 -16 l-61 -12 0 -53 c0 -30 5 -86 11 -124 13 -82 8 -92 -78 -177 -53 -52 -188 -152 -205 -152 -4 0 -8 11 -8 24 0 14 -5 28 -11 31 -6 4 0 19 15 40 30 39 35 98 11 131 -10 15 -15 56 -17 140 l-3 119 -112 3 -113 3 0 67 0 67 314 0 314 0 7 -43z m-865 -412 l0 -110 -51 0 -50 0 26 35 c23 29 26 42 22 82 -3 27 -8 60 -12 76 -7 26 -6 27 29 27 l36 0 0 -110z m296 95 c4 -8 -1 -26 -10 -40 -23 -36 -20 -83 9 -121 14 -18 25 -35 25 -38 0 -3 -20 -6 -45 -6 l-45 0 0 110 0 110 30 0 c18 0 33 -6 36 -15z m-669 -472 c-6 -159 -17 -237 -30 -217 -3 6 -2 26 3 43 15 54 24 245 12 268 -12 22 -5 63 11 63 6 0 8 -53 4 -157z m1002 121 c-5 -59 -3 -229 3 -289 6 -55 5 -63 -3 -35 -16 53 -24 368 -10 354 7 -6 11 -20 10 -30z m-1158 -703 c-12 -21 -61 -56 -61 -43 0 17 41 62 56 62 11 0 12 -4 5 -19z m1342 -13 c11 -15 18 -30 15 -33 -7 -7 -68 44 -68 57 0 18 33 3 53 -24z"></path>
            <path id="pisLYb88Z" d="M2183 2573 c-8 -2 -13 -22 -13 -44 l0 -39 43 0 c24 0 79 -3 121 -7 l77 -6 -3 44 c-3 36 -7 44 -28 50 -29 8 -179 10 -197 2z"></path>
            <path id="ppX70G7pa" d="M2223 2443 c-8 -3 -13 -23 -13 -49 l0 -44 80 0 80 0 0 40 c0 29 -5 42 -19 50 -20 10 -106 13 -128 3z"></path>
            <path id="p15oZfrMbd" d="M1980 2380 c-11 -11 -20 -33 -20 -50 0 -26 -4 -30 -28 -30 -44 0 -64 -20 -60 -60 3 -34 4 -35 48 -34 124 4 210 17 230 36 29 27 28 109 -2 138 -31 29 -139 29 -168 0z"></path>
            <path id="py5t6PaqD" d="M2430 2380 c-24 -24 -28 -106 -6 -135 14 -19 108 -34 236 -39 44 -1 45 0 48 34 4 41 -16 60 -65 60 -31 0 -33 2 -33 33 0 50 -25 67 -98 67 -49 0 -66 -4 -82 -20z"></path>
            <path id="pgJxNUBpg" d="M2066 2137 c-23 -16 -49 -23 -110 -27 l-81 -5 -3 -37 c-4 -51 19 -62 123 -56 66 3 91 9 128 32 45 26 47 29 47 71 l0 45 -37 0 c-23 -1 -50 -9 -67 -23z"></path>
            <path id="pmg9MNjFG" d="M2412 2113 c3 -45 6 -49 48 -72 34 -19 64 -26 126 -29 103 -6 126 5 122 56 l-3 37 -80 5 c-61 4 -88 11 -112 28 -18 13 -46 22 -68 22 l-36 0 3 -47z"></path>
            <path id="pDdQINcx8" d="M3560 3823 c-25 -8 -53 -19 -62 -24 -10 -5 -28 -9 -41 -9 -20 0 -22 -5 -22 -42 0 -24 -6 -43 -13 -46 -20 -6 -15 -70 8 -84 11 -7 20 -19 20 -26 0 -9 7 -8 25 4 16 10 25 26 25 42 l0 26 20 -22 c25 -26 67 -38 89 -25 9 5 24 25 33 43 10 19 28 41 42 49 33 20 42 68 18 101 -23 31 -77 36 -142 13z m0 -103 c28 -28 26 -50 -5 -50 -32 0 -70 33 -62 54 9 22 43 20 67 -4z"></path>
            <path id="p1ElhF5N8j" d="M1297 3515 c-11 -54 -19 -68 -51 -83 -31 -15 -30 -33 2 -104 21 -47 36 -48 49 -4 9 28 8 36 -3 40 -20 8 -17 34 4 38 15 3 16 12 12 78 -5 70 -6 72 -13 35z"></path>
            <path id="pP9aN1BOP" d="M2710 343 c0 -42 16 -61 24 -29 4 18 2 32 -9 42 -13 14 -15 13 -15 -13z"></path>
    </g>
    <g id="l3Tw5BDRgsdI1O6ly5RXezK" fill="rgb(61,74,189)">
            <path id="pVA5JOh7F" d="M1715 4540 c-13 -6 -2 -7 30 -3 28 3 52 7 54 9 9 8 -65 2 -84 -6z"></path>
            <path id="py1LyKyIN" d="M2761 4546 c2 -2 27 -6 54 -10 34 -4 43 -3 30 3 -19 9 -93 15 -84 7z"></path>
            <path id="p19xFmoz5I" d="M1587 4508 c-32 -11 -56 -22 -54 -24 2 -3 38 7 78 20 41 14 65 25 54 25 -11 0 -46 -10 -78 -21z"></path>
            <path id="pQBW3OWBF" d="M2895 4520 c17 -4 54 -17 83 -29 29 -12 51 -17 47 -12 -8 14 -112 51 -138 50 -17 -1 -15 -3 8 -9z"></path>
            <path id="pu5b1jTh9" d="M1730 4508 c-114 -31 -151 -43 -201 -68 -30 -16 -60 -34 -66 -42 -8 -10 1 -41 33 -121 24 -59 64 -168 90 -242 26 -74 50 -135 53 -135 4 0 38 43 75 96 l69 96 34 -38 c18 -22 50 -60 70 -86 20 -27 41 -48 45 -48 12 0 10 94 -3 107 -7 7 -9 90 -7 252 l3 241 -80 -1 c-44 -1 -96 -5 -115 -11z"></path>
            <path id="p1F9bw1xG9" d="M2625 4267 c7 -255 0 -451 -16 -441 -11 6 -12 -5 -15 -226 -1 -96 -6 -227 -11 -290 -8 -101 -7 -117 8 -135 45 -54 63 -109 64 -190 0 -44 -3 -92 -8 -107 -7 -26 -5 -28 20 -28 57 0 203 90 203 124 0 15 -122 136 -137 136 -7 0 -12 48 -16 143 l-5 142 44 115 c103 274 201 528 271 698 72 175 74 184 57 198 -30 22 -136 71 -182 83 -23 6 -59 16 -81 21 -21 6 -75 10 -121 10 l-82 0 7 -253z"></path>
            <path id="pwqL1izJ2" d="M3054 4461 c8 -13 76 -52 76 -43 0 7 -65 52 -75 52 -4 0 -4 -4 -1 -9z"></path>
            <path id="pv0hCpt8d" d="M1420 4372 c0 -19 29 -86 35 -80 3 3 -4 25 -15 49 -11 24 -20 38 -20 31z"></path>
            <path id="pD1DDsqJm" d="M3113 4345 c-6 -17 -39 -96 -72 -178 -34 -81 -61 -153 -61 -160 0 -6 34 69 75 168 41 99 73 184 72 190 -2 5 -8 -4 -14 -20z"></path>
            <path id="pUTIYfHDR" d="M1505 4147 c23 -61 54 -149 69 -194 15 -46 31 -83 36 -83 13 0 -123 374 -140 385 -4 3 11 -46 35 -108z"></path>
            <path id="po3aUjUvT" d="M1725 3960 c-31 -45 -55 -83 -53 -85 2 -3 28 29 58 70 61 86 57 86 127 -7 21 -26 41 -48 46 -48 9 0 -70 106 -101 133 -19 18 -21 17 -77 -63z"></path>
            <path id="pfRWrnAAo" d="M2563 3730 c0 -47 2 -66 4 -42 2 23 2 61 0 85 -2 23 -4 4 -4 -43z"></path>
            <path id="p1EtnqUeSy" d="M2831 3632 c-5 -10 -28 -67 -51 -127 -41 -108 -42 -112 -42 -234 1 -68 3 -126 6 -129 3 -3 6 51 6 120 0 121 2 130 36 220 52 134 64 168 59 168 -2 0 -9 -8 -14 -18z"></path>
            <path id="pjXS8nONp" d="M1853 3332 c-51 -25 -53 -27 -52 -67 2 -28 3 -32 6 -13 5 31 13 39 84 78 68 37 35 39 -38 2z"></path>
            <path id="pK2XBkJUu" d="M1882 3302 c-30 -15 -50 -32 -48 -38 12 -31 18 -184 8 -184 -6 0 -15 7 -20 15 -7 13 -21 3 -76 -50 -38 -37 -66 -72 -63 -79 14 -35 195 -131 213 -113 4 3 1 29 -6 57 -19 81 11 211 61 256 15 14 19 31 19 91 0 85 -4 87 -88 45z"></path>
    </g>
    <g id="l5ULabdg0sD2CljA1b39IlM" fill="rgb(109,188,74)">
            <path id="pmRLvuLI2" d="M826 4507 c-17 -13 -17 -16 -3 -44 28 -54 72 -83 126 -83 39 0 134 -23 150 -36 2 -2 -2 -10 -9 -19 -11 -13 -9 -15 13 -15 14 0 37 4 50 9 19 7 37 4 77 -15 55 -25 75 -30 66 -15 -10 16 -96 51 -126 51 -16 0 -30 5 -30 10 0 17 63 11 110 -11 41 -20 198 -54 206 -46 2 2 -6 27 -18 56 l-23 52 25 19 25 19 -47 21 c-87 38 -195 60 -300 60 -54 0 -98 -4 -98 -9 0 -5 9 -30 20 -56 37 -86 20 -87 -66 -5 -34 33 -71 60 -82 60 -11 0 -26 2 -34 5 -7 3 -22 -1 -32 -8z m324 -83 c0 -34 -4 -53 -10 -49 -5 3 -10 28 -10 56 0 27 5 49 10 49 6 0 10 -25 10 -56z m50 19 c0 -29 -15 -61 -24 -52 -8 8 6 79 15 79 5 0 9 -12 9 -27z"></path>
            <path id="pBPXSaL5v" d="M3410 4513 c-14 -2 -67 -13 -119 -24 -64 -14 -117 -20 -167 -17 -41 2 -74 0 -74 -4 0 -4 12 -15 28 -25 65 -40 64 -33 11 -159 -97 -229 -113 -275 -102 -293 19 -31 55 -42 118 -36 60 5 162 29 173 39 3 3 -7 34 -21 68 -40 92 -21 98 54 15 l61 -67 57 0 c73 0 165 31 233 78 62 44 68 64 43 156 -14 51 -15 72 -6 121 9 48 8 62 -4 82 -13 20 -21 22 -60 17 -37 -6 -54 -2 -104 25 -59 30 -69 32 -121 24z m5 -142 c-15 -13 -145 -25 -145 -12 0 12 29 18 100 20 32 0 50 -3 45 -8z m95 -97 c-1 -13 -291 -7 -304 6 -8 8 34 10 147 7 86 -3 157 -9 157 -13z m-147 -58 c67 -13 86 -21 75 -32 -6 -5 -111 10 -150 22 -20 6 -24 24 -5 24 6 -1 42 -7 80 -14z"></path>
            <path id="piPsaqvbq" d="M945 4350 c28 -4 63 -13 79 -19 18 -7 33 -8 39 -2 11 11 -78 32 -131 30 -34 -1 -33 -2 13 -9z"></path>
            <path id="p3F85YOJk" d="M1350 4281 c0 -9 49 -22 79 -20 12 0 11 2 -4 8 -39 15 -75 21 -75 12z"></path>
            <path id="puf4CBgCT" d="M2391 4173 c0 -36 3 -43 9 -28 12 28 12 75 0 75 -5 0 -10 -21 -9 -47z"></path>
            <path id="pbdHlBoMK" d="M2428 4175 c-2 -25 0 -45 4 -45 5 0 8 20 8 45 0 25 -2 45 -4 45 -2 0 -6 -20 -8 -45z"></path>
            <path id="pbtxI5VnM" d="M2621 3708 c0 -33 2 -38 9 -23 12 28 12 65 0 65 -5 0 -10 -19 -9 -42z"></path>
            <path id="p9xpOkF50" d="M2217 3593 c-17 -16 -5 -33 23 -33 23 0 30 4 30 20 0 14 -7 20 -23 20 -13 0 -27 -3 -30 -7z"></path>
            <path id="pgUyhZ5qz" d="M2390 3580 c0 -16 7 -20 35 -20 40 0 49 24 13 34 -38 10 -48 7 -48 -14z"></path>
            <path id="pEnqJAWfw" d="M2606 3554 c-9 -24 -7 -54 4 -54 6 0 10 16 10 35 0 38 -4 44 -14 19z"></path>
            <path id="p17APKOKXK" d="M2346 3242 c-2 -4 -7 -23 -11 -43 -6 -34 -5 -37 20 -43 15 -4 29 -6 30 -4 2 2 6 22 10 46 8 50 -7 57 -23 10 l-11 -33 6 38 c5 33 -7 51 -21 29z"></path>
            <path id="pxA8AknEw" d="M2410 3204 c-13 -33 -13 -34 5 -34 10 0 15 10 15 30 0 37 -7 38 -20 4z"></path>
            <path id="ptTTBKvK6" d="M2075 3181 c8 -17 13 -36 12 -43 -2 -7 -2 -10 0 -6 2 4 11 4 19 1 19 -7 18 9 -3 46 -24 42 -50 43 -28 2z"></path>
            <path id="p1OpZDdkU" d="M2034 3184 c3 -9 6 -18 6 -20 0 -2 7 -4 15 -4 13 0 14 4 5 20 -13 24 -35 27 -26 4z"></path>
            <path id="pH2Kz3Hcv" d="M2121 3166 c15 -32 32 -34 27 -4 -2 13 -11 24 -21 26 -15 3 -16 0 -6 -22z"></path>
            <path id="pXwKsRG0u" d="M2730 3106 c0 -3 20 -26 45 -53 27 -29 45 -42 45 -33 0 9 -17 33 -38 53 -34 33 -52 45 -52 33z"></path>
            <path id="pPcy3Wluf" d="M2528 3050 c-13 -8 -14 -14 -5 -34 7 -14 20 -27 30 -30 9 -2 14 0 11 5 -3 5 2 12 10 15 22 9 21 35 -1 27 -15 -5 -14 -3 2 10 20 16 20 16 -5 16 -14 0 -32 -4 -42 -9z"></path>
            <path id="pUaklFkqN" d="M1705 3005 c-21 -17 -25 -24 -14 -25 16 0 56 37 48 45 -3 2 -18 -7 -34 -20z"></path>
            <path id="pDR6SG1sF" d="M1910 2980 c0 -5 12 -11 28 -11 l27 -1 -27 -9 c-16 -5 -28 -12 -28 -16 -1 -7 72 -25 76 -19 1 0 4 13 7 27 6 22 3 28 -16 33 -34 9 -67 7 -67 -4z"></path>
            <path id="pVdzBihO2" d="M2978 2798 c-29 -45 -29 -58 -3 -58 16 0 25 6 25 15 0 8 5 15 11 15 14 0 7 42 -7 47 -6 2 -18 -7 -26 -19z"></path>
            <path id="pHeD85Mw5" d="M2980 2493 c0 -17 19 -35 29 -29 18 12 12 36 -9 36 -11 0 -20 -3 -20 -7z"></path>
            <path id="p9NHsQjue" d="M2923 2005 c0 -22 2 -30 4 -17 2 12 2 30 0 40 -3 9 -5 -1 -4 -23z"></path>
            <path id="p9cLIxKFS" d="M2957 2020 c-7 -28 3 -60 19 -60 10 0 14 13 14 40 0 43 -23 57 -33 20z"></path>
            <path id="p1EvhDftti" d="M2400 1980 c0 -5 20 -10 45 -10 25 0 45 5 45 10 0 6 -20 10 -45 10 -25 0 -45 -4 -45 -10z"></path>
            <path id="pr4fqCQWs" d="M2400 1940 c0 -17 7 -20 45 -20 49 0 64 23 23 34 -45 12 -68 7 -68 -14z"></path>
            <path id="p12r39O0Zr" d="M1437 1943 c-4 -3 -7 -15 -7 -25 0 -29 44 -20 48 10 3 16 -2 22 -16 22 -10 0 -22 -3 -25 -7z"></path>
            <path id="p10InUgir5" d="M2987 1943 c-18 -5 -18 -6 -1 -24 21 -23 28 -24 48 -3 31 30 10 42 -47 27z"></path>
            <path id="pz90t0YMm" d="M3104 1923 c4 -16 12 -63 18 -105 10 -65 15 -78 30 -78 21 0 21 -4 8 80 -20 132 -20 130 -42 130 -17 0 -19 -4 -14 -27z"></path>
            <path id="pWfDZubhz" d="M1540 1931 c0 -5 7 -14 16 -21 13 -11 19 -10 37 8 l21 22 -37 0 c-20 0 -37 -4 -37 -9z"></path>
            <path id="pYYy2EZcE" d="M3047 1896 c-12 -10 -28 -11 -52 -6 -32 7 -35 6 -35 -16 0 -22 4 -24 55 -24 54 0 55 0 55 30 0 34 1 34 -23 16z"></path>
            <path id="pE6wXtgOR" d="M1520 1876 c0 -22 4 -26 31 -26 26 0 59 18 59 33 0 2 -16 4 -35 5 -20 1 -40 4 -45 7 -6 4 -10 -5 -10 -19z"></path>
            <path id="pJsCO8W7y" d="M2060 1729 c0 -21 3 -22 81 -16 74 5 82 4 86 -14 9 -34 33 -22 33 16 l0 35 -100 0 c-96 0 -100 -1 -100 -21z"></path>
            <path id="p06MCeLYo" d="M2440 1736 c0 -16 30 -26 83 -26 30 0 37 4 37 20 0 18 -7 20 -60 20 -44 0 -60 -4 -60 -14z"></path>
            <path id="p1BnIQRNL8" d="M2900 1730 c0 -21 10 -24 48 -14 36 10 27 34 -13 34 -28 0 -35 -4 -35 -20z"></path>
            <path id="p156h2nAFH" d="M3050 1735 c0 -8 7 -15 16 -15 9 0 18 -9 21 -20 9 -35 33 -24 33 15 0 33 -2 35 -35 35 -24 0 -35 -5 -35 -15z"></path>
            <path id="p16UPh8PBQ" d="M2093 1683 c20 -2 54 -2 75 0 20 2 3 4 -38 4 -41 0 -58 -2 -37 -4z"></path>
            <path id="pfIEjkeFC" d="M1386 1598 c-10 -38 -7 -48 14 -48 16 0 20 7 20 35 0 40 -24 49 -34 13z"></path>
            <path id="p17wVc7q9y" d="M1445 1543 c4 -38 8 -69 9 -70 0 -1 29 -5 64 -9 53 -6 62 -4 62 9 0 11 -13 18 -37 22 -77 13 -76 12 -69 66 6 45 5 49 -15 49 -20 0 -21 -3 -14 -67z"></path>
            <path id="p18q5oXE90" d="M3160 1575 c0 -28 4 -35 20 -35 21 0 24 10 14 48 -10 36 -34 27 -34 -13z"></path>
            <path id="p1HBB1t8qN" d="M1500 1565 c0 -19 4 -35 8 -35 4 0 6 16 4 35 -2 19 -6 35 -8 35 -2 0 -4 -16 -4 -35z"></path>
            <path id="pD7ZhKc0g" d="M2975 1479 c-7 -10 -2 -67 11 -131 3 -16 12 -28 21 -28 12 0 13 8 8 39 l-6 39 50 12 c34 8 51 17 51 27 0 13 -9 15 -48 10 -48 -6 -49 -5 -44 19 3 19 0 24 -16 24 -12 0 -24 -5 -27 -11z"></path>
            <path id="p16S8mqCoV" d="M1366 1458 c-10 -38 -7 -48 14 -48 16 0 20 7 20 35 0 40 -24 49 -34 13z"></path>
            <path id="peqj4Ozgg" d="M1430 1425 c0 -19 5 -35 10 -35 6 0 10 7 10 15 0 9 9 15 25 15 18 0 25 5 25 20 0 16 -7 20 -35 20 -33 0 -35 -2 -35 -35z"></path>
            <path id="pWkaeYVCs" d="M1510 1426 c0 -8 12 -17 26 -20 26 -7 27 -9 21 -64 -4 -31 -9 -72 -13 -89 -6 -28 -4 -33 13 -33 17 0 21 11 32 82 7 55 8 84 1 86 -5 2 -10 15 -10 28 0 21 -5 24 -35 24 -23 0 -35 -5 -35 -14z"></path>
            <path id="p19H3C2c9L" d="M1963 1380 c0 -30 2 -43 4 -27 2 15 2 39 0 55 -2 15 -4 2 -4 -28z"></path>
            <path id="pz1DbJgd6" d="M1996 1408 c-3 -13 -6 -35 -6 -50 0 -23 4 -28 24 -28 15 0 26 7 29 20 3 11 12 20 21 20 9 0 16 7 16 15 0 9 -9 15 -25 15 -16 0 -25 6 -25 15 0 24 -27 18 -34 -7z"></path>
            <path id="p1D3w94wUK" d="M1622 1350 c0 -19 2 -27 5 -17 2 9 2 25 0 35 -3 9 -5 1 -5 -18z"></path>
            <path id="pXW5Qthy7" d="M1346 1328 c-10 -38 -7 -48 14 -48 16 0 20 7 20 35 0 40 -24 49 -34 13z"></path>
            <path id="pr0Q3TPf6" d="M2990 1265 c0 -28 4 -35 20 -35 20 0 26 22 14 54 -12 30 -34 18 -34 -19z"></path>
            <path id="p3jpXdLGK" d="M2510 1202 c0 -11 9 -27 20 -37 20 -18 20 -17 20 18 0 30 -4 37 -20 37 -13 0 -20 -7 -20 -18z"></path>
            <path id="p1BOuc519M" d="M2010 1173 l1 -38 24 28 c32 36 31 47 0 47 -22 0 -25 -4 -25 -37z"></path>
            <path id="p7J7LxprP" d="M1306 1068 c-10 -38 -7 -48 14 -48 16 0 20 7 20 35 0 40 -24 49 -34 13z"></path>
            <path id="pdNEFUZPy" d="M3240 1045 c0 -28 4 -35 20 -35 21 0 24 10 14 48 -10 36 -34 27 -34 -13z"></path>
            <path id="peKv3tqUd" d="M1510 1035 c0 -20 -5 -25 -25 -25 -31 0 -34 -25 -4 -33 15 -4 20 -11 16 -21 -4 -11 -1 -16 12 -16 13 0 20 10 25 33 3 17 9 44 12 60 5 23 3 27 -15 27 -16 0 -21 -6 -21 -25z"></path>
            <path id="plFYoqxTp" d="M1572 1020 c0 -19 2 -27 5 -17 2 9 2 25 0 35 -3 9 -5 1 -5 -18z"></path>
            <path id="pYqfquOBx" d="M1963 1010 c0 -25 2 -35 4 -22 2 12 2 32 0 45 -2 12 -4 2 -4 -23z"></path>
            <path id="p7jRYuPZI" d="M2792 1038 c-18 -18 -14 -38 8 -38 13 0 20 7 20 19 0 25 -13 34 -28 19z"></path>
            <path id="pPy24zdf5" d="M1997 1023 c-4 -3 -7 -19 -7 -35 0 -21 5 -28 20 -28 16 0 20 7 20 35 0 33 -16 46 -33 28z"></path>
            <path id="p7GjBinYI" d="M3042 968 c2 -23 9 -34 22 -36 15 -3 18 1 14 23 -4 20 -1 29 16 35 17 7 14 9 -17 9 -37 1 -38 0 -35 -31z"></path>
            <path id="p18vaASXni" d="M1746 981 c-3 -4 -10 -20 -15 -35 -10 -24 -8 -26 14 -26 22 0 25 4 25 35 0 33 -12 46 -24 26z"></path>
            <path id="p1EqyajFrQ" d="M3260 915 c0 -28 4 -35 20 -35 21 0 24 10 14 48 -10 36 -34 27 -34 -13z"></path>
            <path id="p11M4kBhgX" d="M2803 923 c-17 -6 -17 -73 0 -73 7 0 18 12 23 28 l10 27 32 -49 c18 -28 32 -57 32 -66 0 -19 19 -40 37 -40 23 0 14 26 -32 94 -25 37 -45 72 -45 77 0 9 -36 11 -57 2z"></path>
            <path id="pIDASTQv5" d="M1276 888 c-10 -38 -7 -48 14 -48 16 0 20 7 20 35 0 40 -24 49 -34 13z"></path>
            <path id="pgmwEfig3" d="M1490 875 c0 -40 24 -49 34 -12 10 37 7 47 -14 47 -16 0 -20 -7 -20 -35z"></path>
            <path id="pK7sd1vsd" d="M1697 881 c-20 -33 -21 -41 -7 -41 8 0 40 51 40 65 0 14 -18 2 -33 -24z"></path>
            <path id="pEpHETNkE" d="M2745 880 c-9 -40 3 -90 21 -90 10 0 14 15 14 60 0 45 -4 60 -14 60 -8 0 -17 -13 -21 -30z"></path>
            <path id="pdMbyLma9" d="M1552 870 c0 -19 2 -27 5 -17 2 9 2 25 0 35 -3 9 -5 1 -5 -18z"></path>
            <path id="pKCat4WK" d="M2520 868 c0 -30 13 -58 26 -58 9 0 14 12 14 35 0 28 -4 35 -20 35 -11 0 -20 -6 -20 -12z"></path>
            <path id="p9Kl5V7yS" d="M1756 808 c-12 -45 -7 -68 14 -68 17 0 20 7 20 45 0 49 -23 64 -34 23z"></path>
            <path id="pmJ7pvA4M" d="M1480 808 c0 -7 3 -23 6 -36 5 -18 9 -20 20 -11 22 18 18 59 -6 59 -11 0 -20 -6 -20 -12z"></path>
            <path id="pk9aCVxL0" d="M1722 790 c0 -19 2 -27 5 -17 2 9 2 25 0 35 -3 9 -5 1 -5 -18z"></path>
            <path id="p13jNZfONe" d="M3050 802 c0 -19 18 -42 32 -42 4 0 8 14 8 30 0 23 -4 30 -20 30 -13 0 -20 -7 -20 -18z"></path>
            <path id="pyN4UzhhW" d="M1973 774 c-3 -9 3 -25 16 -37 l21 -21 0 37 c0 27 -4 37 -15 37 -9 0 -18 -7 -22 -16z"></path>
            <path id="pwShue49c" d="M2510 772 c0 -11 9 -27 20 -37 20 -18 20 -17 20 18 0 30 -4 37 -20 37 -13 0 -20 -7 -20 -18z"></path>
            <path id="p5sYhBmwW" d="M2790 755 c0 -28 4 -35 20 -35 21 0 24 10 14 48 -10 36 -34 27 -34 -13z"></path>
            <path id="p17y115mLE" d="M1740 676 c0 -7 -13 -40 -30 -72 -32 -63 -33 -75 -5 -44 22 25 35 26 35 3 0 -13 9 -19 29 -20 22 -2 30 3 35 20 10 37 7 47 -14 47 -17 0 -20 7 -20 40 0 29 -4 40 -15 40 -8 0 -15 -6 -15 -14z"></path>
            <path id="pwPGoFe4f" d="M1997 593 c-19 -19 -5 -33 33 -33 33 0 40 3 40 20 0 16 -7 20 -33 20 -19 0 -37 -3 -40 -7z"></path>
            <path id="p1Dk1cHboZ" d="M2771 568 c1 -18 -2 -48 -6 -65 -7 -29 -5 -33 14 -33 17 0 21 6 21 30 0 23 4 30 20 30 16 0 20 7 20 31 0 27 2 30 15 19 12 -10 15 -10 15 4 0 13 -11 16 -50 16 l-50 0 1 -32z"></path>
            <path id="pmBaAyvlZ" d="M2540 505 c0 -68 2 -75 20 -75 17 0 20 7 20 53 0 66 -9 97 -26 97 -11 0 -14 -18 -14 -75z"></path>
            <path id="pSv4rhIPO" d="M3105 518 c5 -29 8 -79 9 -110 2 -53 17 -90 32 -75 9 8 9 41 0 135 -7 72 -6 82 8 82 9 0 16 5 16 10 0 6 -16 10 -36 10 l-36 0 7 -52z"></path>
            <path id="p375T8Rb8" d="M2190 525 c0 -8 7 -15 16 -15 9 0 18 -9 21 -20 9 -35 33 -24 33 15 0 33 -2 35 -35 35 -24 0 -35 -5 -35 -15z"></path>
            <path id="pXieOpgyW" d="M1723 495 c-11 -33 -10 -35 13 -35 21 0 24 5 24 35 0 22 -5 35 -13 35 -8 0 -18 -16 -24 -35z"></path>
            <path id="pACmtmfZp" d="M1775 494 c-3 -20 -4 -39 -1 -42 3 -3 6 0 6 6 0 21 16 13 29 -14 18 -41 25 -21 11 35 -14 60 -35 66 -45 15z"></path>
            <path id="pbun5AeRv" d="M2910 524 c1 -21 48 -89 61 -89 26 0 14 31 -23 64 -21 18 -38 29 -38 25z"></path>
            <path id="pMYw8OAb6" d="M1437 493 c-13 -13 -7 -73 7 -73 14 0 26 29 26 63 0 17 -20 23 -33 10z"></path>
            <path id="pvklALNXD" d="M1270 435 c0 -28 4 -35 20 -35 21 0 24 10 14 48 -10 36 -34 27 -34 -13z"></path>
            <path id="p1AbncPRWW" d="M3350 405 c0 -28 4 -35 20 -35 21 0 24 10 14 48 -10 36 -34 27 -34 -13z"></path>
            <path id="p1FFZN7akM" d="M1186 378 c-10 -38 -7 -48 14 -48 16 0 20 7 20 35 0 40 -24 49 -34 13z"></path>
            <path id="pWrBmwZDK" d="M2320 365 c0 -31 3 -35 25 -35 30 0 30 3 8 41 -23 38 -33 37 -33 -6z"></path>
            <path id="pDSeLQB7z" d="M2217 373 c-8 -10 -27 -40 -42 -68 l-26 -50 22 -3 c25 -4 39 12 39 46 0 13 6 22 15 22 10 0 15 11 15 35 0 40 -1 41 -23 18z"></path>
            <path id="pYVXXzscz" d="M2843 348 c19 -46 37 -48 37 -4 0 32 -3 36 -25 36 -24 0 -25 -1 -12 -32z"></path>
            <path id="p7LnKFxPJ" d="M1656 294 c-11 -28 -7 -74 7 -74 7 0 19 17 27 38 8 20 16 40 18 45 2 4 -7 7 -21 7 -14 0 -28 -7 -31 -16z"></path>
            <path id="pIzAYrYXY" d="M3260 292 c0 -34 131 -138 164 -130 25 6 0 48 -29 48 -16 0 -25 6 -25 15 0 10 -11 15 -35 15 -33 0 -35 2 -35 35 0 28 -4 35 -20 35 -13 0 -20 -7 -20 -18z"></path>
            <path id="pOsX4Z950" d="M2933 185 c36 -32 47 -31 47 0 0 22 -4 25 -37 25 l-38 -1 28 -24z"></path>
            <path id="p1DMSMz3y8" d="M2320 104 c0 -39 9 -38 40 6 l21 30 -30 0 c-29 0 -31 -3 -31 -36z"></path>
    </g>
    <g id="lfFbO3FmPFSszGsmXKNnq4" fill="rgb(230,88,56)">
            <path id="pbhszF57t" d="M2105 4679 c-195 -18 -376 -67 -507 -136 -37 -19 -68 -42 -68 -49 0 -18 5 -18 67 6 71 27 209 50 297 50 l71 0 1 -338 2 -338 36 -72 c32 -63 40 -72 64 -72 38 0 89 -34 114 -76 16 -28 26 -34 42 -30 12 3 58 6 104 6 l82 0 0 41 c0 48 -33 124 -60 139 -26 14 -25 48 2 77 20 21 20 24 5 41 -20 22 -21 36 -5 62 10 15 10 27 1 49 -9 24 -8 33 3 42 10 8 14 37 14 104 0 87 1 93 22 98 37 10 41 -1 35 -98 -3 -63 -2 -96 6 -104 9 -9 8 -17 -1 -32 -13 -21 -8 -59 9 -59 12 0 12 -47 -1 -55 -18 -11 -10 -35 14 -45 13 -5 25 -13 27 -19 2 -6 5 55 7 136 2 144 8 169 37 159 6 -1 10 -32 11 -67 0 -36 3 -70 8 -77 4 -6 4 -17 0 -24 -4 -6 -8 -81 -9 -167 -1 -86 -6 -167 -12 -181 -9 -21 -8 -26 8 -34 11 -5 22 -6 26 -3 10 11 21 238 29 600 l7 337 76 0 c89 -1 234 -28 309 -58 79 -33 68 -3 -17 42 -224 117 -557 174 -856 145z"></path>
            <path id="prtO47SZA" d="M1880 4490 c0 -5 5 -10 10 -10 6 0 10 -16 10 -35 0 -19 5 -35 10 -35 11 0 14 49 4 74 -7 17 -34 22 -34 6z"></path>
            <path id="pliAhUA1X" d="M1728 4483 c-10 -2 -18 -8 -18 -12 0 -8 118 4 127 13 7 7 -83 6 -109 -1z"></path>
            <path id="p1AZZCu01g" d="M2722 4484 c9 -9 118 -21 118 -13 0 3 -10 9 -22 13 -29 7 -103 8 -96 0z"></path>
            <path id="p16zzJzupC" d="M872 4350 c-36 -8 -60 -26 -49 -36 3 -4 31 -3 62 1 45 5 55 10 55 26 0 21 -13 22 -68 9z"></path>
            <path id="p15n4xYw6o" d="M950 4340 c0 -13 7 -20 20 -20 21 0 29 -35 10 -42 -6 -2 -16 -34 -22 -72 -11 -68 -11 -69 -57 -89 -32 -15 -74 -22 -138 -25 -96 -5 -111 2 -78 34 8 9 15 29 15 45 0 22 5 29 20 29 16 0 20 7 20 35 0 33 2 35 35 35 31 0 35 3 35 25 0 14 -5 25 -12 25 -22 0 -115 -106 -141 -162 -31 -65 -34 -93 -11 -102 47 -18 230 2 301 34 41 18 43 21 43 63 0 57 16 103 51 149 l29 36 -51 11 c-67 15 -69 14 -69 -9z"></path>
            <path id="pWX5rZvy9" d="M1082 4317 c-39 -41 -71 -111 -72 -158 0 -20 12 -58 26 -84 38 -73 125 -195 138 -195 6 0 29 16 51 35 l40 34 -37 1 c-27 0 -38 -4 -38 -15 0 -8 -7 -15 -15 -15 -9 0 -15 9 -15 25 0 14 -4 25 -10 25 -5 0 -10 7 -10 15 0 8 -4 15 -10 15 -5 0 -10 7 -10 15 0 8 -4 15 -10 15 -5 0 -10 7 -10 15 0 8 -7 15 -15 15 -8 0 -15 9 -15 21 0 11 -4 28 -9 37 -5 9 -11 43 -13 75 -4 54 -4 57 19 57 16 0 23 6 23 20 0 13 7 20 18 20 10 0 22 4 28 10 11 11 84 2 84 -11 0 -5 13 -9 29 -9 23 0 30 -5 33 -22 2 -13 13 -27 24 -32 16 -7 23 -22 28 -53 6 -48 -2 -103 -15 -103 -5 0 -9 -17 -9 -37 l1 -38 24 28 c30 34 48 99 39 140 -21 100 -99 164 -220 181 -36 5 -44 2 -72 -27z"></path>
            <path id="pUScQ6H8g" d="M1350 4283 c0 -13 22 -33 37 -33 7 0 13 7 13 15 0 8 -4 15 -9 15 -5 0 -16 3 -25 6 -9 3 -16 2 -16 -3z"></path>
            <path id="p1A8SYHrwt" d="M1430 4244 c0 -15 6 -24 15 -24 8 0 15 -8 15 -17 0 -26 32 -113 42 -113 4 0 8 -8 8 -18 0 -11 9 -44 19 -75 l20 -57 -40 0 c-32 0 -39 3 -39 20 0 11 -7 20 -15 20 -8 0 -15 5 -15 10 0 6 -7 10 -15 10 -8 0 -15 9 -15 20 0 11 5 20 10 20 6 0 10 16 10 35 0 19 -4 35 -10 35 -5 0 -10 9 -10 20 0 11 5 20 10 20 6 0 10 16 10 35 0 19 -4 35 -9 35 -5 0 -16 3 -25 6 -13 5 -14 1 -6 -28 16 -53 12 -108 -12 -154 l-21 -43 24 -20 c42 -35 239 -132 239 -118 0 8 -112 314 -128 350 -23 52 -62 71 -62 31z"></path>
            <path id="p3AHiTCRL" d="M2387 4263 c-2 -5 -1 -44 3 -88 4 -44 8 -68 8 -54 1 14 5 54 8 88 5 41 3 61 -4 61 -6 0 -13 -3 -15 -7z"></path>
            <path id="pf4uODIW1" d="M2506 4142 c-2 -4 -1 -23 4 -42 l8 -35 1 43 c1 41 -3 50 -13 34z"></path>
            <path id="pr19RNWVx" d="M967 4074 c-16 -9 -57 -21 -90 -28 -59 -12 -62 -14 -65 -43 -4 -36 22 -103 39 -103 8 0 10 15 6 49 -6 55 -8 54 65 66 24 5 38 13 41 26 3 10 12 19 21 19 12 0 16 -10 16 -35 0 -28 4 -35 20 -35 16 0 20 -7 20 -30 0 -20 5 -30 15 -30 8 0 15 -4 15 -10 0 -5 -16 -10 -35 -10 -23 0 -35 -5 -35 -14 0 -16 -93 -32 -98 -16 -4 10 -52 15 -52 5 0 -18 33 -65 45 -65 54 0 195 82 195 114 0 6 -17 37 -38 68 -20 31 -41 63 -47 72 -9 14 -13 14 -38 0z"></path>
            <path id="pEzed1ZHW" d="M2370 4065 c0 -9 9 -15 24 -15 30 0 42 15 20 24 -27 10 -44 7 -44 -9z"></path>
            <path id="p1DD91skIC" d="M1900 4026 c0 -25 5 -48 10 -51 6 -4 10 13 10 44 0 28 -4 51 -10 51 -5 0 -10 -20 -10 -44z"></path>
            <path id="p10eS0mYzJ" d="M1717 3948 c-127 -182 -208 -337 -226 -433 -5 -25 -5 -93 -1 -152 6 -94 12 -118 42 -183 19 -41 55 -97 80 -125 l45 -49 79 73 79 74 -4 62 c-3 75 -11 67 168 160 l116 60 -3 39 c-5 57 -46 174 -91 264 -43 84 -145 232 -190 276 l-29 28 -65 -94z"></path>
            <path id="p18WdqnUDK" d="M2505 4009 c-10 -15 3 -25 16 -12 7 7 7 13 1 17 -6 3 -14 1 -17 -5z"></path>
            <path id="phOi0appS" d="M1334 3964 c3 -9 6 -22 6 -30 0 -9 11 -14 30 -14 23 0 30 -4 30 -20 0 -15 9 -22 30 -26 33 -7 39 -18 15 -28 -8 -3 -15 -12 -15 -20 0 -9 -14 -15 -40 -18 -36 -3 -40 -1 -40 19 0 13 -6 23 -13 23 -15 0 -35 34 -39 67 l-3 23 -29 -23 -29 -24 23 -31 c21 -28 143 -102 168 -102 9 0 82 99 82 112 0 3 -24 18 -52 33 -29 15 -67 38 -84 51 -36 28 -49 30 -40 8z"></path>
            <path id="p10cK0bhU0" d="M2362 3963 c2 -10 14 -19 26 -21 25 -4 55 15 46 29 -9 15 -32 10 -37 -8 -4 -17 -5 -17 -6 0 0 9 -8 17 -17 17 -9 0 -14 -7 -12 -17z"></path>
            <path id="puhISrv7A" d="M2626 3917 c-5 -21 -6 -41 -2 -44 12 -12 17 5 14 43 l-4 39 -8 -38z"></path>
            <path id="pcvUFEGyH" d="M1092 3890 c-11 -18 -10 -20 18 -20 28 0 29 2 18 20 -7 11 -15 20 -18 20 -3 0 -11 -9 -18 -20z"></path>
            <path id="p178dopQGn" d="M1183 3861 c-43 -21 -42 -41 1 -41 19 0 36 6 39 13 5 15 13 9 21 -20 6 -20 4 -23 -18 -23 -14 0 -26 -4 -26 -10 0 -5 -7 -10 -15 -10 -8 0 -15 -4 -15 -9 0 -5 -11 -12 -25 -15 -29 -7 -32 -18 -10 -36 12 -10 24 -7 63 19 27 17 57 40 67 50 16 19 16 21 -16 60 -18 23 -33 40 -33 40 -1 -1 -16 -9 -33 -18z"></path>
            <path id="pHFr3IszN" d="M2350 3865 c-19 -23 5 -45 49 -45 45 0 64 12 59 36 -4 26 -88 33 -108 9z m66 -6 c9 -16 -10 -31 -30 -23 -13 5 -14 9 -5 20 14 17 25 18 35 3z"></path>
            <path id="p1FCfk3uVN" d="M1040 3845 c-9 -11 -8 -20 9 -43 11 -16 27 -35 36 -42 13 -11 15 -8 15 24 0 23 -5 39 -15 42 -8 4 -15 12 -15 20 0 18 -14 18 -30 -1z"></path>
            <path id="p17wkHedzv" d="M2500 3845 c0 -8 5 -15 10 -15 6 0 10 7 10 15 0 8 -4 15 -10 15 -5 0 -10 -7 -10 -15z"></path>
            <path id="p7l8yD6ty" d="M3651 3837 c2 -2 18 -11 34 -22 l30 -18 -19 21 c-11 12 -26 22 -34 22 -9 0 -13 -1 -11 -3z"></path>
            <path id="p1EIuzrdiA" d="M2454 3812 c-17 -14 -21 -30 -23 -98 l-3 -81 29 -6 c35 -7 51 7 33 28 -13 16 -14 30 -6 133 4 47 0 49 -30 24z"></path>
            <path id="pUMaVrCa0" d="M3573 3813 c-8 -3 -1 -16 20 -36 17 -18 37 -39 42 -48 8 -13 17 -15 43 -7 38 10 44 38 7 38 -25 0 -37 29 -12 31 6 0 -1 7 -18 14 -31 14 -60 17 -82 8z"></path>
            <path id="p1GX68CY86" d="M2395 3789 c-10 -15 3 -25 16 -12 7 7 7 13 1 17 -6 3 -14 1 -17 -5z"></path>
            <path id="p7pKuUhh4" d="M1287 3772 c-23 -25 -21 -42 2 -42 14 0 21 -8 24 -27 2 -16 5 -2 6 30 1 60 -6 68 -32 39z"></path>
            <path id="p1H8bema4z" d="M3490 3773 c-23 -8 -60 -45 -60 -59 0 -6 -7 -14 -15 -18 -22 -8 -18 -43 5 -49 16 -4 20 -14 20 -43 0 -36 0 -37 20 -19 11 10 20 25 20 34 0 9 -9 22 -20 29 -14 8 -20 22 -19 45 l1 32 14 -32 c12 -29 25 -39 37 -30 2 1 11 -4 20 -11 27 -23 85 -32 91 -15 8 20 8 77 0 98 -12 31 -75 52 -114 38z m66 -50 c23 -31 17 -53 -13 -53 -33 0 -63 47 -40 62 20 13 39 9 53 -9z"></path>
            <path id="p22nYQDY6" d="M1340 3740 c0 -35 -2 -34 40 -14 l33 17 -33 13 c-42 18 -40 19 -40 -16z"></path>
            <path id="pCptlw1xS" d="M3020 3715 c-74 -30 -143 -54 -152 -54 -24 -1 -40 -29 -88 -156 -41 -108 -42 -112 -42 -233 1 -123 1 -123 29 -144 15 -12 49 -41 75 -65 26 -24 52 -43 59 -43 6 0 70 -31 141 -70 72 -38 134 -67 139 -65 12 8 49 111 69 195 38 156 34 323 -12 495 -25 93 -62 188 -74 191 -5 1 -70 -22 -144 -51z"></path>
            <path id="pZPPMrQA8" d="M2500 3735 c0 -8 5 -15 10 -15 6 0 10 7 10 15 0 8 -4 15 -10 15 -5 0 -10 -7 -10 -15z"></path>
            <path id="p1153qMko9" d="M2063 3687 c16 -42 57 -180 57 -193 0 -38 47 6 56 53 5 27 3 32 -17 36 -23 4 -23 4 -2 6 20 1 21 4 12 31 -6 16 -24 41 -41 55 -32 27 -74 34 -65 12z"></path>
            <path id="pxm0oNWgN" d="M3642 3691 c-8 -4 -12 -19 -10 -32 3 -22 4 -22 15 9 7 17 11 32 10 32 -1 0 -8 -4 -15 -9z"></path>
            <path id="pITRWSxuu" d="M2609 3568 c0 -7 -2 -23 -5 -35 -2 -13 1 -23 6 -23 6 0 10 16 10 35 0 32 -9 51 -11 23z"></path>
            <path id="p153Ne6M1x" d="M2193 3510 c-6 -17 -8 -30 -3 -30 8 0 24 50 18 56 -2 2 -9 -10 -15 -26z"></path>
            <path id="p14VagEypP" d="M2596 3438 c-9 -34 -7 -68 3 -68 10 0 21 34 21 68 0 12 -4 22 -9 22 -5 0 -11 -10 -15 -22z"></path>
            <path id="p15tSGyyvW" d="M1249 3424 l-22 -24 19 -40 c21 -44 26 -47 48 -24 22 21 20 34 -4 34 -11 0 -20 5 -20 10 0 6 11 10 25 10 28 0 29 3 15 29 -15 30 -36 31 -61 5z"></path>
            <path id="pX8uruJso" d="M2143 3443 c-7 -2 -13 -10 -13 -17 0 -6 -29 -26 -65 -44 l-65 -32 0 -47 c0 -73 7 -78 71 -49 120 55 268 55 404 1 32 -14 61 -23 63 -21 1 2 4 46 5 97 l2 93 -65 12 c-63 12 -312 18 -337 7z"></path>
            <path id="p149eewP3K" d="M1951 3278 c0 -18 4 -42 9 -53 6 -15 9 -6 9 33 1 28 -3 52 -9 52 -5 0 -10 -15 -9 -32z"></path>
            <path id="p170tbEFgJ" d="M2266 3120 c-15 -5 -3 -17 59 -64 42 -32 103 -84 136 -117 32 -32 59 -55 59 -51 0 27 -32 109 -56 144 -40 57 -149 106 -198 88z"></path>
            <path id="pGicVzv6a" d="M3303 3121 c-8 -5 -33 -97 -33 -122 0 -5 9 -9 19 -9 15 0 21 10 26 43 10 57 14 61 35 37 12 -14 28 -20 44 -18 l26 3 -23 28 c-22 28 -77 50 -94 38z"></path>
            <path id="ptLT7V5FN" d="M2150 3104 c-45 -19 -77 -50 -101 -96 -21 -41 -38 -158 -23 -158 5 0 31 27 58 60 26 33 75 81 107 107 33 25 58 51 56 57 -2 6 -17 18 -33 28 -26 15 -32 15 -64 2z"></path>
            <path id="pszdeHnN1" d="M1748 3045 c-36 -36 -61 -65 -57 -65 8 0 129 119 129 126 0 10 -13 -1 -72 -61z"></path>
            <path id="pmNeaM42H" d="M2765 3075 c22 -19 39 -39 38 -44 -3 -11 45 -51 61 -51 6 0 -19 29 -54 65 -35 36 -69 65 -75 65 -5 -1 8 -16 30 -35z"></path>
            <path id="plNlCGLzI" d="M2177 2958 c-89 -90 -91 -93 -64 -96 38 -5 66 21 59 53 -5 28 13 55 36 55 12 0 11 -5 -6 -23 -44 -47 -21 -40 28 8 50 49 50 49 78 33 15 -8 47 -41 72 -72 35 -43 51 -56 73 -56 l28 0 -28 36 c-29 39 -161 154 -175 154 -5 0 -50 -42 -101 -92z"></path>
            <path id="paCtc36ej" d="M3396 2998 c-4 -18 -9 -48 -13 -65 -4 -26 -10 -33 -28 -33 -36 0 -55 -11 -55 -31 0 -30 36 -23 80 17 41 37 62 88 53 124 -8 31 -30 24 -37 -12z"></path>
            <path id="p12HtmFrFi" d="M3241 2928 c-20 -48 -18 -64 9 -71 14 -4 19 3 24 32 15 89 -3 109 -33 39z"></path>
            <path id="p1FVVy327e" d="M2234 2918 l-39 -43 84 -3 c46 -2 86 0 89 3 8 7 -69 85 -84 85 -6 0 -29 -19 -50 -42z m66 -23 c0 -8 -7 -15 -16 -15 -14 0 -14 3 -4 15 7 8 14 15 16 15 2 0 4 -7 4 -15z"></path>
            <path id="pW6wJYrhn" d="M3422 2889 c-13 -16 -19 -29 -14 -29 10 0 46 49 40 55 -2 1 -13 -11 -26 -26z"></path>
            <path id="pksLqKVxu" d="M2238 2843 c-10 -2 -18 -11 -18 -19 0 -11 16 -14 70 -14 53 0 70 3 70 14 0 22 -70 33 -122 19z"></path>
            <path id="phXfaNlhB" d="M2100 2833 c-103 -16 -170 -36 -170 -50 0 -17 8 -16 157 8 64 10 83 17 86 31 5 19 -11 21 -73 11z"></path>
            <path id="pFUBCvWm3" d="M2398 2834 c6 -3 12 -11 12 -18 0 -7 31 -16 78 -24 99 -15 112 -15 112 2 0 9 -18 18 -47 24 -58 13 -173 24 -155 16z"></path>
            <path id="p19Fbgl6y1" d="M2610 2781 c0 -20 25 -31 73 -31 38 0 34 18 -8 36 -46 19 -65 18 -65 -5z"></path>
            <path id="po7mAf5R5" d="M1842 2759 c-68 -34 -78 -49 -32 -49 47 0 100 30 100 57 0 13 -2 23 -3 23 -2 0 -32 -14 -65 -31z"></path>
            <path id="p13HygeSWD" d="M1658 2629 c-52 -53 -59 -65 -52 -88 4 -14 6 -38 5 -53 -1 -22 3 -28 20 -28 20 0 21 4 17 55 -4 41 -1 55 9 55 8 0 13 12 13 30 0 27 3 30 30 30 27 0 30 3 30 30 0 17 -3 30 -6 30 -3 0 -33 -27 -66 -61z"></path>
            <path id="pCBCQ1mgN" d="M2880 2630 c0 -27 3 -30 30 -30 27 0 29 2 19 19 -7 10 -20 23 -30 30 -17 10 -19 8 -19 -19z"></path>
            <path id="pIRtn5QM1" d="M1454 2561 c-23 -10 -44 -24 -48 -30 -4 -5 6 -4 21 5 15 8 45 17 66 21 26 4 34 8 25 14 -17 11 -17 11 -64 -10z"></path>
            <path id="puObgpsOV" d="M2170 2545 c0 -35 0 -35 43 -34 29 2 34 3 15 6 -35 5 -36 21 -3 29 41 10 31 34 -15 34 -39 0 -40 -1 -40 -35z"></path>
            <path id="p1DTO3kSIJ" d="M2300 2566 c0 -8 16 -18 37 -23 54 -13 58 -37 4 -28 -37 6 -41 5 -41 -14 0 -17 6 -21 35 -21 19 0 35 5 35 10 0 6 9 10 20 10 16 0 20 7 20 34 0 26 -5 35 -22 40 -42 11 -88 7 -88 -8z"></path>
            <path id="ptO5SpOVl" d="M2926 2534 c-10 -77 -9 -84 19 -84 22 0 24 2 14 27 -7 19 -7 35 2 54 12 30 6 49 -15 49 -8 0 -16 -18 -20 -46z"></path>
            <path id="pd0qGwSMm" d="M1481 2526 c-19 -6 -36 -17 -39 -23 -6 -19 67 -17 74 2 11 27 0 33 -35 21z"></path>
            <path id="pxL3KYvPm" d="M3050 2521 c0 -21 18 -31 56 -31 15 0 24 -6 24 -15 0 -10 10 -15 34 -15 32 0 34 -3 39 -37 9 -64 30 -113 49 -113 21 0 22 11 7 63 -19 69 -101 141 -181 161 -23 5 -28 3 -28 -13z"></path>
            <path id="pU3uhkBwF" d="M1571 2523 c0 -4 4 -17 9 -28 8 -19 9 -19 9 2 1 12 -3 25 -9 28 -5 3 -10 3 -9 -2z"></path>
            <path id="psJrNSu3W" d="M2987 2523 c-4 -3 -7 -16 -6 -27 0 -19 1 -19 10 3 10 24 8 36 -4 24z"></path>
            <path id="peEhDWHB1" d="M1490 2440 c0 -48 25 -56 35 -10 7 33 1 50 -21 50 -10 0 -14 -12 -14 -40z"></path>
            <path id="p18oKON6Yt" d="M2213 2435 c-7 -8 -13 -28 -13 -45 0 -28 3 -30 35 -30 19 0 35 4 35 9 0 5 8 12 18 14 9 2 2 3 -15 1 -22 -2 -33 2 -33 11 0 30 62 33 90 5 l20 -20 0 35 0 35 -62 0 c-42 -1 -67 -6 -75 -15z"></path>
            <path id="pQqzvIdXx" d="M1610 2414 c6 -14 8 -30 4 -35 -3 -5 4 -9 15 -9 17 0 21 6 21 35 0 31 -3 35 -25 35 -22 0 -24 -2 -15 -26z"></path>
            <path id="p895AMn2l" d="M2920 2375 c0 -30 3 -35 24 -35 23 0 24 2 13 35 -6 19 -16 35 -24 35 -8 0 -13 -13 -13 -35z"></path>
            <path id="pUfLBGhal" d="M2080 2380 c0 -5 4 -10 9 -10 4 0 20 -12 35 -26 l26 -27 0 37 c0 35 -1 36 -35 36 -19 0 -35 -4 -35 -10z"></path>
            <path id="pwSPKY7Tl" d="M2530 2384 c0 -3 11 -15 25 -26 18 -14 25 -29 25 -54 0 -31 3 -34 28 -34 l28 0 -10 45 c-6 25 -14 45 -18 45 -5 0 -8 7 -8 15 0 10 -11 15 -35 15 -19 0 -35 -3 -35 -6z"></path>
            <path id="pv2pD2wNi" d="M2410 2310 l0 -60 35 0 35 0 -20 20 c-11 11 -20 29 -20 40 0 11 9 29 20 40 l20 20 -35 0 -35 0 0 -60z"></path>
            <path id="p6G8R7oiM" d="M1500 2325 c0 -39 9 -44 27 -15 15 22 7 50 -13 50 -9 0 -14 -12 -14 -35z"></path>
            <path id="pu6si24YL" d="M1610 2304 c6 -14 8 -30 4 -35 -3 -5 4 -9 15 -9 17 0 21 6 21 35 0 31 -3 35 -25 35 -22 0 -24 -2 -15 -26z"></path>
            <path id="p5PngtsAy" d="M1958 2300 c-4 -24 -1 -30 13 -30 23 0 29 11 22 38 -8 32 -30 27 -35 -8z"></path>
            <path id="p1GlPRnAGs" d="M2121 2275 c-19 -20 -33 -25 -75 -25 -28 0 -69 -5 -90 -10 -47 -10 -67 -2 -41 17 17 12 16 13 -13 13 -30 0 -32 -2 -32 -36 l0 -36 108 7 c59 4 109 11 110 16 2 5 17 9 33 9 27 0 29 3 29 35 0 19 -1 35 -2 35 -2 0 -14 -12 -27 -25z"></path>
            <path id="ps6u35xwU" d="M2920 2265 c0 -30 3 -35 24 -35 23 0 24 2 13 35 -6 19 -16 35 -24 35 -8 0 -13 -13 -13 -35z"></path>
            <path id="pE6425tro" d="M3230 2270 c0 -16 -4 -30 -10 -30 -5 0 -10 -11 -10 -25 0 -18 -5 -25 -20 -25 -11 0 -20 -6 -20 -14 0 -9 -16 -16 -48 -21 -38 -5 -50 -12 -64 -35 -19 -33 -4 -55 17 -27 7 10 27 20 46 24 76 15 129 70 145 152 6 27 4 31 -15 31 -17 0 -21 -6 -21 -30z"></path>
            <path id="p1Cs7IQ6Qf" d="M1310 2272 c0 -32 44 -106 77 -128 18 -12 51 -24 73 -28 31 -5 40 -10 36 -21 -3 -9 0 -15 8 -15 22 0 24 9 7 44 -14 29 -21 34 -51 34 -19 0 -36 5 -38 11 -2 6 -12 11 -23 11 -12 0 -19 7 -19 20 0 11 -7 20 -15 20 -10 0 -15 11 -15 35 0 28 -4 35 -20 35 -13 0 -20 -7 -20 -18z"></path>
            <path id="p1Es9MyuSJ" d="M1490 2223 l0 -37 21 23 c22 24 19 51 -6 51 -11 0 -15 -10 -15 -37z"></path>
            <path id="pjQRVF6N" d="M2550 2233 c0 -16 9 -21 46 -27 26 -3 55 -6 65 -6 24 0 25 35 2 37 -10 0 -39 4 -65 8 -44 7 -48 6 -48 -12z"></path>
            <path id="pSBX4nzvI" d="M1613 2185 c6 -19 16 -35 24 -35 8 0 13 13 13 35 0 30 -3 35 -24 35 -23 0 -24 -2 -13 -35z"></path>
            <path id="pAxriAQnE" d="M2920 2173 c0 -65 9 -93 29 -93 28 0 30 9 15 47 -11 26 -13 43 -5 64 9 27 8 29 -15 29 -22 0 -24 -4 -24 -47z"></path>
            <path id="pnLuPTuOL" d="M2981 2170 c0 -14 4 -32 9 -40 9 -13 10 -13 9 0 -1 8 -5 26 -9 40 l-8 25 -1 -25z"></path>
            <path id="pLquqwOe7" d="M1531 2150 c-1 -21 16 -46 26 -37 4 5 3 11 -3 15 -6 4 -14 14 -17 22 -5 13 -5 13 -6 0z"></path>
            <path id="pOW95TUiO" d="M2070 2140 c0 -5 -7 -10 -15 -10 -9 0 -15 -9 -15 -25 0 -27 9 -26 68 10 41 25 41 35 -3 35 -19 0 -35 -4 -35 -10z"></path>
            <path id="pXgFQMMTU" d="M2140 2111 c0 -6 -13 -18 -30 -28 -39 -23 -38 -33 5 -33 33 0 35 2 35 35 0 19 -2 35 -5 35 -3 0 -5 -4 -5 -9z"></path>
            <path id="pPCOdTyAG" d="M1870 2066 c0 -48 9 -56 61 -56 19 0 29 5 29 15 0 8 -6 15 -13 15 -7 0 -22 7 -33 15 -19 14 -19 15 4 21 36 10 27 34 -13 34 -35 0 -35 0 -35 -44z"></path>
            <path id="p1EMOxKRSa" d="M1950 2096 c0 -16 32 -26 60 -19 37 10 23 33 -20 33 -27 0 -40 -4 -40 -14z"></path>
            <path id="p12358Rc6L" d="M2460 2057 c0 -22 7 -28 38 -36 90 -26 131 2 45 30 -27 9 -56 19 -65 23 -15 7 -18 3 -18 -17z"></path>
            <path id="pAjQA2iG9" d="M2675 2069 c4 -5 -7 -15 -24 -22 -42 -16 -40 -37 4 -37 33 0 35 2 35 35 0 19 -5 35 -11 35 -5 0 -7 -5 -4 -11z"></path>
            <path id="pLvrpLhqD" d="M1643 2035 c6 -19 16 -35 24 -35 8 0 13 13 13 35 0 30 -3 35 -24 35 -23 0 -24 -2 -13 -35z"></path>
            <path id="pNa9gW9a8" d="M2008 2043 c-33 -8 -20 -33 17 -33 28 0 35 4 35 20 0 20 -14 23 -52 13z"></path>
            <path id="p1FStzE0fQ" d="M1643 1713 c15 -2 37 -2 50 0 12 2 0 4 -28 4 -27 0 -38 -2 -22 -4z"></path>
            <path id="pFfIrBlVi" d="M2028 1713 c12 -2 32 -2 45 0 12 2 2 4 -23 4 -25 0 -35 -2 -22 -4z"></path>
            <path id="pabOwqYyR" d="M1610 1670 c0 -17 7 -20 50 -20 36 0 50 4 50 14 0 15 -30 26 -72 26 -21 0 -28 -5 -28 -20z"></path>
            <path id="pauyreSlB" d="M2028 1683 c-10 -2 -18 -11 -18 -19 0 -11 15 -14 65 -14 58 0 65 2 65 20 0 17 -6 20 -47 19 -27 -1 -56 -3 -65 -6z"></path>
            <path id="p9Kdyde15" d="M2400 1670 c0 -18 7 -20 55 -20 40 0 55 4 55 14 0 16 -30 26 -77 26 -26 0 -33 -4 -33 -20z"></path>
            <path id="p183XYqKCB" d="M2928 1683 c-36 -9 -20 -33 22 -33 33 0 40 3 40 20 0 20 -20 24 -62 13z"></path>
            <path id="p15KLpeImm" d="M3030 1635 c0 -28 4 -35 20 -35 21 0 24 10 14 48 -10 36 -34 27 -34 -13z"></path>
            <path id="pBxd0LEhv" d="M1506 1608 c-10 -38 -7 -48 14 -48 16 0 20 7 20 35 0 40 -24 49 -34 13z"></path>
            <path id="p1DLIkT5yw" d="M1550 1536 c0 -13 28 -26 58 -26 6 0 12 9 12 20 0 16 -7 20 -35 20 -23 0 -35 -5 -35 -14z"></path>
            <path id="p12DG7dHQK" d="M2900 1514 c0 -9 5 -57 12 -105 10 -77 14 -89 31 -89 16 0 19 5 14 30 -4 16 -9 59 -13 95 -6 56 -5 65 10 65 9 0 16 5 16 10 0 6 -16 10 -35 10 -26 0 -35 -4 -35 -16z"></path>
            <path id="pKAi2WZqk" d="M1940 1485 c0 -24 5 -35 15 -35 8 0 15 7 15 15 0 8 11 17 25 21 41 10 31 34 -15 34 -39 0 -40 -1 -40 -35z"></path>
            <path id="p1HZDMzEAn" d="M1577 1483 c14 -3 23 -13 26 -29 4 -21 4 -21 3 3 -1 23 -6 28 -26 29 -20 1 -21 0 -3 -3z"></path>
            <path id="ppGaGTllp" d="M1636 1458 c-10 -38 -7 -48 14 -48 16 0 20 7 20 35 0 40 -24 49 -34 13z"></path>
            <path id="p16a26XyLX" d="M2523 1300 c0 -30 2 -43 4 -27 2 15 2 39 0 55 -2 15 -4 2 -4 -28z"></path>
            <path id="pD0vXR8LP" d="M1616 1318 c-10 -38 -7 -48 14 -48 16 0 20 7 20 35 0 40 -24 49 -34 13z"></path>
            <path id="pHqWIvVJm" d="M2460 1318 c0 -13 -3 -47 -6 -75 -8 -61 4 -69 30 -20 23 41 19 110 -6 115 -13 3 -18 -3 -18 -20z"></path>
            <path id="pTVYUkSQf" d="M1930 1285 c0 -28 4 -35 20 -35 16 0 20 7 20 35 0 28 -4 35 -20 35 -16 0 -20 -7 -20 -35z"></path>
            <path id="poocnvIOl" d="M1993 1285 c0 -22 2 -30 4 -17 2 12 2 30 0 40 -3 9 -5 -1 -4 -23z"></path>
            <path id="p15c9MNNNu" d="M2600 1263 c1 -19 22 -53 34 -53 3 0 6 16 6 35 0 28 -4 35 -20 35 -13 0 -20 -7 -20 -17z"></path>
            <path id="pdxvd8sya" d="M2515 1220 c-4 -12 -5 -24 -2 -27 3 -2 8 5 12 17 4 12 5 24 2 27 -3 2 -8 -5 -12 -17z"></path>
            <path id="pmkSnzLco" d="M1900 1195 c0 -31 3 -35 26 -35 l26 0 -7 -70 c-6 -59 -5 -70 8 -70 9 0 17 8 19 17 2 10 10 18 18 19 44 3 50 5 50 19 0 8 -6 15 -14 15 -22 0 -89 97 -83 120 4 16 0 20 -19 20 -21 0 -24 -5 -24 -35z"></path>
            <path id="pheKpAgy7" d="M2935 1173 l-18 -28 27 24 c28 26 31 31 17 31 -5 0 -17 -12 -26 -27z"></path>
            <path id="pJvMfmZpt" d="M2480 1136 c0 -33 2 -36 31 -36 l30 0 -21 30 c-31 44 -40 45 -40 6z"></path>
            <path id="pCe21hmhp" d="M1805 1070 c3 -5 19 -19 35 -30 l30 -21 0 30 c0 29 -3 31 -36 31 -20 0 -33 -4 -29 -10z"></path>
            <path id="pBQK1Kfjd" d="M2610 995 c0 -30 3 -30 41 -8 38 23 37 33 -6 33 -31 0 -35 -3 -35 -25z"></path>
            <path id="pAdM7sRDq" d="M1493 915 c0 -22 2 -30 4 -17 2 12 2 30 0 40 -3 9 -5 -1 -4 -23z"></path>
            <path id="p1FI9eQFDF" d="M1425 670 c11 -5 29 -9 40 -9 17 -1 17 1 5 9 -8 5 -26 9 -40 9 -23 0 -23 -1 -5 -9z"></path>
            <path id="psiWom6Lf" d="M1689 563 c-33 -40 -41 -53 -32 -53 11 0 57 60 50 66 -2 2 -10 -4 -18 -13z"></path>
    </g>
    <g id="l6HL1oB0j5YxtOBg0UMNy9H" fill="rgb(254,213,15)">
            <path id="pPnTi5oLk" d="M1945 4649 c-55 -10 -131 -28 -170 -40 -83 -25 -229 -91 -240 -109 -11 -17 8 -12 120 38 50 22 145 52 210 67 373 84 757 46 1109 -109 28 -13 37 -14 34 -4 -6 22 -163 94 -266 122 -163 43 -277 56 -497 55 -151 -1 -225 -6 -300 -20z"></path>
            <path id="pEWRvSpny" d="M2050 4583 c-84 -12 -92 -15 -83 -24 6 -6 32 -6 74 0 92 14 248 14 380 0 147 -16 153 -16 159 -4 9 18 -150 34 -330 33 -96 0 -186 -2 -200 -5z"></path>
            <path id="pnwV3NGCy" d="M2387 4263 c-2 -5 -2 -37 1 -73 6 -63 6 -64 13 -25 11 56 11 105 0 105 -6 0 -12 -3 -14 -7z"></path>
            <path id="ptECznQDz" d="M2370 4066 c0 -11 9 -16 26 -16 31 0 28 23 -4 28 -15 2 -22 -2 -22 -12z"></path>
            <path id="pQ1MpZzXC" d="M1780 4013 c0 -4 17 -27 39 -53 105 -125 215 -352 237 -492 10 -59 28 -47 21 15 -14 133 -132 373 -245 499 -32 35 -52 47 -52 31z"></path>
            <path id="phxrEcYfz" d="M2362 3963 c4 -22 44 -29 63 -13 22 18 9 30 -31 30 -28 0 -35 -4 -32 -17z"></path>
            <path id="pFOQnFqnW" d="M1740 3942 c0 -7 15 -29 34 -49 87 -97 173 -260 212 -399 13 -48 26 -89 29 -92 14 -14 14 12 1 77 -18 87 -87 235 -155 334 -53 77 -121 149 -121 129z"></path>
            <path id="p15qjSKw2s" d="M2500 3895 c0 -8 5 -15 10 -15 6 0 10 7 10 15 0 8 -4 15 -10 15 -5 0 -10 -7 -10 -15z"></path>
            <path id="phXZI9R6d" d="M2350 3865 c-19 -23 5 -45 50 -45 40 0 66 20 56 45 -7 20 -89 21 -106 0z"></path>
            <path id="p1GgFutDzn" d="M3160 3739 c0 -8 11 -48 25 -89 68 -199 72 -412 13 -630 -30 -108 -32 -120 -20 -120 6 0 20 28 31 63 76 231 78 447 6 674 -25 79 -54 134 -55 102z"></path>
            <path id="pITc4lDqD" d="M3070 3703 c0 -5 11 -41 25 -82 70 -206 71 -382 3 -614 -17 -61 -18 -91 -3 -75 12 12 46 124 60 196 33 170 15 355 -52 540 -14 36 -33 57 -33 35z"></path>
            <path id="p16ZMQlLVQ" d="M2228 3593 c-10 -2 -18 -13 -18 -24 0 -11 -6 -35 -14 -53 l-14 -34 156 -5 c87 -4 172 -9 190 -13 l32 -6 0 60 0 59 -88 12 c-87 11 -210 13 -244 4z"></path>
            <path id="psAuzqzjM" d="M2346 3242 c-2 -4 -7 -23 -11 -43 -6 -34 -5 -37 20 -43 15 -4 28 -6 30 -4 8 10 14 88 7 88 -5 0 -14 -19 -20 -42 l-11 -43 4 48 c4 41 -5 61 -19 39z"></path>
            <path id="pLZiwqdDc" d="M2100 3218 c0 -7 10 -29 22 -48 27 -44 38 -22 12 26 -19 34 -34 44 -34 22z"></path>
            <path id="pkAPo3uGx" d="M2410 3206 c-14 -37 -13 -69 2 -64 16 6 30 70 18 82 -6 6 -13 -2 -20 -18z"></path>
            <path id="p1Fy4muBSx" d="M2070 3200 c0 -18 30 -70 40 -70 13 0 13 4 -7 45 -16 34 -33 46 -33 25z"></path>
            <path id="p1pPW7ush" d="M2037 3194 c-3 -4 3 -24 14 -46 14 -28 24 -37 31 -30 7 7 4 21 -12 46 -23 39 -24 39 -33 30z"></path>
            <path id="pX0s00KHB" d="M2276 3112 c5 -4 32 -25 59 -46 28 -21 78 -68 112 -105 55 -58 63 -63 63 -42 0 39 -179 201 -223 201 -12 0 -17 -4 -11 -8z"></path>
            <path id="p1CllfjI9q" d="M2118 3085 c-32 -22 -86 -91 -77 -99 2 -2 35 25 74 60 69 64 71 86 3 39z"></path>
            <path id="pZNiRPFDo" d="M2151 3034 c-68 -63 -131 -144 -131 -168 0 -25 14 -19 35 17 33 56 77 106 132 148 47 37 59 59 33 59 -5 0 -36 -25 -69 -56z"></path>
            <path id="psrtsP5F6" d="M2546 3059 c-25 -13 -35 -24 -29 -30 13 -13 83 20 83 38 0 17 -8 16 -54 -8z"></path>
            <path id="phO9fONGn" d="M2558 3024 c-27 -14 -38 -34 -19 -34 11 0 81 40 81 46 0 9 -37 2 -62 -12z"></path>
            <path id="p18dMdCLsS" d="M1920 3017 c0 -17 69 -30 84 -16 13 12 7 16 -41 24 -35 5 -43 4 -43 -8z"></path>
            <path id="p18t3zPVmW" d="M2575 2993 c-39 -20 -38 -20 -30 -32 4 -7 20 -3 45 12 61 34 47 53 -15 20z"></path>
            <path id="pVy7M1bzI" d="M1910 2983 c0 -11 79 -27 88 -18 10 9 -6 17 -47 22 -24 3 -41 2 -41 -4z"></path>
            <path id="p15Vb9Ob3I" d="M1905 2951 c-7 -12 5 -18 53 -24 22 -2 32 1 32 10 0 7 -11 13 -24 13 -13 0 -31 3 -39 6 -8 3 -18 1 -22 -5z"></path>
            <path id="pl3PtxPIB" d="M1540 2790 c-14 -19 -20 -41 -18 -62 3 -31 5 -33 42 -33 57 0 68 23 37 80 -13 25 -27 45 -32 45 -4 0 -17 -13 -29 -30z"></path>
            <path id="prK27eQNi" d="M2969 2775 c-31 -57 -20 -80 37 -80 36 0 39 2 42 30 2 30 -29 95 -46 95 -5 0 -20 -20 -33 -45z"></path>
            <path id="pf7jYCRXo" d="M1550 2611 c0 -35 13 -47 30 -26 16 19 9 49 -13 53 -13 3 -17 -3 -17 -27z"></path>
            <path id="pMneUc2iq" d="M2984 2625 c-8 -21 3 -48 19 -43 19 7 22 58 2 58 -8 0 -18 -7 -21 -15z"></path>
            <path id="pqtw4Juak" d="M1550 2501 c0 -35 13 -47 30 -26 16 19 9 49 -13 53 -13 3 -17 -3 -17 -27z"></path>
            <path id="puWSkSJv1" d="M2983 2514 c-7 -18 8 -49 23 -49 5 0 10 15 12 33 2 24 -1 32 -13 32 -8 0 -18 -7 -22 -16z"></path>
            <path id="pVUp0DXJO" d="M1550 2391 c0 -35 13 -47 30 -26 16 19 9 49 -13 53 -13 3 -17 -3 -17 -27z"></path>
            <path id="pMF97ofXV" d="M2985 2410 c-10 -17 4 -62 18 -57 15 5 16 59 0 64 -6 2 -14 -1 -18 -7z"></path>
            <path id="plAfqJyb3" d="M3036 2343 c-4 -9 -3 -20 2 -25 6 -6 10 1 10 16 0 30 -3 32 -12 9z"></path>
            <path id="pBRwc2HQs" d="M1557 2304 c-11 -11 -8 -52 4 -60 14 -8 30 15 27 40 -3 21 -20 31 -31 20z"></path>
            <path id="pe45M1CGR" d="M2985 2300 c-10 -17 4 -62 18 -57 15 5 16 59 0 64 -6 2 -14 -1 -18 -7z"></path>
            <path id="p1JhFjJBT" d="M2954 2224 c0 -30 2 -33 9 -16 5 12 5 26 0 36 -7 12 -9 7 -9 -20z"></path>
            <path id="p5WtkHOQg" d="M3040 2238 c0 -8 7 -21 15 -28 19 -16 19 -1 0 24 -12 16 -15 17 -15 4z"></path>
            <path id="pvRz0P02G" d="M1542 2198 c-14 -14 -16 -57 -3 -77 13 -20 39 -6 47 25 11 42 -19 77 -44 52z"></path>
            <path id="p15UYaiyjM" d="M2992 2198 c-16 -16 -15 -50 2 -73 12 -16 16 -17 30 -6 26 22 16 91 -14 91 -3 0 -11 -5 -18 -12z"></path>
            <path id="ptBL80IEk" d="M3056 2114 c-8 -21 -8 -34 2 -34 4 0 8 11 8 25 2 29 -1 32 -10 9z"></path>
            <path id="pT5j8e1Ds" d="M2962 2105 c4 -4 -3 -16 -15 -25 -12 -10 -20 -21 -17 -23 3 -3 15 5 28 18 17 18 19 25 10 31 -7 4 -10 4 -6 -1z"></path>
            <path id="p6NDC9wAm" d="M1524 2045 c-22 -33 -13 -91 20 -123 l24 -25 26 26 c47 47 27 147 -29 147 -15 0 -31 -10 -41 -25z"></path>
            <path id="pRCZ0Rj5w" d="M2976 2054 c-26 -26 -21 -100 9 -130 22 -22 28 -24 42 -12 24 19 45 76 37 101 -16 52 -58 72 -88 41z"></path>
            <path id="p16LNA5Uhc" d="M2050 1980 l-185 -6 205 -3 c270 -5 155 -18 -179 -20 l-235 -1 -31 -34 c-39 -43 -78 -42 -116 3 -50 60 -72 40 -87 -79 -12 -92 -69 -474 -101 -685 -55 -351 -130 -775 -162 -913 -10 -45 -19 -85 -19 -88 0 -14 124 63 150 93 24 27 30 43 30 81 0 26 -5 64 -11 85 -7 28 -7 53 2 93 7 30 15 57 18 59 3 1 30 -2 60 -7 l53 -11 -6 -46 c-15 -106 -16 -147 -7 -161 17 -25 41 17 35 60 -3 19 2 77 10 129 9 52 14 96 13 98 -2 1 -34 9 -71 17 -37 7 -69 16 -71 18 -5 4 40 327 46 333 3 2 96 -14 106 -19 1 -1 -3 -35 -8 -76 -5 -41 -7 -93 -3 -115 l6 -39 20 24 c12 15 17 32 13 49 -3 14 1 71 9 126 8 55 11 103 7 107 -4 4 -36 14 -71 21 -54 11 -65 17 -63 33 4 50 44 307 48 314 2 4 26 2 52 -5 54 -14 50 1 42 -157 -2 -37 0 -71 5 -75 13 -13 38 30 32 57 -3 14 2 70 10 124 8 55 13 105 10 112 -2 6 -32 15 -66 19 -38 4 -63 12 -67 21 -3 8 1 55 9 106 l13 91 368 1 367 1 0 -127 0 -128 -115 0 c-85 0 -115 -3 -115 -12 -2 -90 -15 -226 -22 -235 -10 -13 1 -42 25 -62 22 -18 62 40 47 68 -5 11 -10 49 -10 85 l0 66 95 0 95 0 0 -170 0 -170 -114 0 -113 0 -7 -31 c-3 -17 -6 -67 -6 -111 0 -44 -5 -88 -10 -99 -8 -15 -7 -27 7 -49 9 -17 21 -30 24 -30 4 0 17 13 29 30 17 24 19 34 10 50 -6 11 -10 48 -8 83 l3 62 93 3 92 3 0 -171 0 -170 -97 -2 c-54 0 -102 -2 -108 -3 -5 -2 -16 -3 -22 -4 -10 -1 -13 -30 -13 -108 -1 -77 -5 -113 -15 -127 -12 -16 -11 -22 7 -47 l21 -28 20 26 c18 23 21 38 18 115 l-3 88 96 0 96 0 0 -59 c0 -49 -6 -68 -35 -117 -47 -77 -51 -96 -30 -149 18 -48 99 -145 120 -145 17 0 81 74 107 124 30 58 26 98 -16 166 -31 50 -36 66 -36 119 l0 62 93 -3 92 -3 0 -98 c1 -77 4 -101 17 -114 16 -15 18 -15 38 8 12 15 18 31 14 44 -11 37 -22 130 -23 193 l-1 62 -115 0 -115 0 0 170 0 170 90 0 90 0 2 -47 c3 -65 1 -84 -7 -109 -5 -15 1 -29 17 -49 l25 -28 22 31 c21 30 21 33 7 54 -12 17 -16 49 -16 130 l0 108 -115 0 -115 0 0 170 0 170 89 0 89 0 4 -66 c1 -36 -1 -73 -6 -81 -9 -16 19 -83 34 -83 3 0 16 14 29 31 21 28 21 32 7 48 -11 12 -16 44 -18 126 l-3 110 -112 3 -113 3 0 127 0 127 373 0 374 0 12 -99 c14 -112 15 -111 -59 -121 -73 -10 -73 -10 -60 -106 6 -46 12 -104 12 -129 0 -49 15 -87 29 -73 13 13 13 49 -1 131 -6 41 -10 76 -7 78 3 3 28 11 57 19 39 10 52 11 56 2 6 -17 44 -284 44 -311 0 -20 -7 -24 -70 -35 -38 -7 -70 -16 -70 -19 0 -4 7 -53 14 -110 8 -56 12 -111 9 -121 -5 -20 12 -61 26 -61 18 0 20 47 6 130 -7 47 -10 88 -7 91 7 7 112 22 112 17 0 -2 11 -77 25 -168 13 -90 22 -166 20 -168 -2 -2 -34 -11 -71 -18 -37 -8 -69 -16 -70 -17 -2 -1 4 -52 12 -112 8 -60 12 -117 9 -126 -6 -17 13 -59 27 -59 13 0 19 59 9 97 -5 21 -11 56 -13 78 l-3 40 55 12 c30 6 58 9 61 5 16 -17 28 -111 19 -143 -6 -19 -10 -57 -10 -86 0 -62 27 -99 104 -143 67 -39 77 -39 65 3 -14 46 -72 356 -113 602 -41 241 -58 354 -126 807 -26 180 -51 332 -55 338 -12 20 -40 10 -68 -25 -37 -46 -69 -46 -111 0 l-32 35 -240 1 c-131 1 -270 5 -309 9 -51 5 -15 7 134 8 112 1 202 4 200 6 -8 7 -476 11 -659 6z"></path>
            <path id="pgIzBqiCn" d="M1951 1249 c-7 -12 -10 -23 -8 -26 3 -3 11 5 17 17 15 28 8 35 -9 9z"></path>
            <path id="p10GhXtt3L" d="M1940 1175 c0 -5 12 -23 26 -40 14 -16 21 -21 15 -10 -14 30 -40 61 -41 50z"></path>
            <path id="pNgqNd4W9" d="M2061 1149 c-13 -17 -21 -32 -19 -35 3 -2 15 10 27 27 13 17 21 32 19 35 -3 2 -15 -10 -27 -27z"></path>
            <path id="puhKdTywO" d="M2480 1175 c0 -5 10 -21 21 -35 13 -17 17 -18 10 -5 -17 33 -31 51 -31 40z"></path>
            <path id="pyPmTGTq" d="M2595 1143 l-17 -28 23 22 c12 12 20 25 17 28 -3 3 -13 -7 -23 -22z"></path>
            <path id="pAV4JNDdX" d="M1767 1043 c-2 -5 -10 -26 -17 -48 -19 -61 -56 -130 -90 -168 -26 -30 -41 -77 -24 -77 16 0 44 23 44 36 0 21 49 114 60 114 19 0 23 -56 12 -147 -12 -94 -23 -128 -55 -175 -10 -16 -14 -28 -8 -28 6 0 15 9 21 20 6 11 16 20 22 20 22 0 -3 -94 -51 -197 -39 -80 -54 -103 -70 -103 -33 0 -61 -46 -61 -101 0 -58 8 -61 73 -19 30 19 49 39 53 57 4 15 22 55 39 88 18 33 41 81 50 108 21 55 32 59 46 17 22 -60 27 -28 7 41 -17 61 -18 78 -8 113 6 22 14 125 17 227 l6 186 -31 22 c-17 12 -33 18 -35 14z"></path>
            <path id="pHcfGhG7Q" d="M2776 1027 l-28 -23 5 -190 c3 -104 10 -205 16 -224 9 -29 7 -49 -9 -105 -25 -88 -25 -114 1 -56 15 35 22 41 33 32 8 -7 17 -24 21 -38 3 -15 21 -59 39 -98 18 -38 38 -82 44 -98 11 -27 93 -87 119 -87 9 0 13 15 13 49 0 55 -26 98 -63 103 -27 4 -69 78 -108 192 -33 95 -29 120 12 80 36 -34 37 -26 4 24 -46 69 -74 298 -38 309 12 4 63 -85 63 -111 0 -9 9 -20 20 -26 35 -19 34 14 -2 62 -28 37 -68 115 -104 205 l-9 23 -29 -23z"></path>
            <path id="pczpkWByh" d="M1618 487 c-26 -21 -38 -57 -20 -57 15 0 38 25 50 53 14 33 6 34 -30 4z"></path>
            <path id="prYvRDLAM" d="M2920 507 c0 -15 33 -66 46 -71 23 -9 30 25 8 40 -10 7 -24 18 -31 24 -12 10 -23 13 -23 7z"></path>
            <path id="piDIMWNQs" d="M1832 362 c-2 -43 13 -66 24 -37 4 9 0 31 -8 48 l-15 31 -1 -42z"></path>
            <path id="pnUtMewLK" d="M2720 329 c0 -11 5 -17 10 -14 6 3 10 13 10 21 0 8 -4 14 -10 14 -5 0 -10 -9 -10 -21z"></path>
    </g>
    <g id="l4CM5qJy6wtPEZ1wKh4y13x" fill="rgb(228,199,137)">
            <path id="pkW8xcUim" d="M2042 4664 c8 -7 419 -7 426 1 3 3 -93 5 -213 5 -120 0 -216 -3 -213 -6z"></path>
            <path id="ppgOA6GKR" d="M1965 4560 c3 -5 16 -10 28 -9 21 0 21 1 2 9 -28 12 -37 12 -30 0z"></path>
            <path id="p1AhDInQzi" d="M2373 4563 c9 -2 25 -2 35 0 9 3 1 5 -18 5 -19 0 -27 -2 -17 -5z"></path>
            <path id="pmui0fngB" d="M1576 4518 c5 -7 2 -9 -9 -5 -8 3 -21 -1 -27 -9 -16 -18 5 -19 39 0 20 11 21 14 7 19 -12 5 -15 3 -10 -5z"></path>
            <path id="p1FSHz44DP" d="M2983 4513 c4 -6 4 -13 0 -16 -5 -2 -3 -2 4 -1 6 2 14 -2 17 -9 3 -8 5 -8 5 -1 1 6 -7 18 -16 25 -9 8 -14 9 -10 2z"></path>
            <path id="pqc5kXGoY" d="M1798 4491 c-92 -10 -80 -22 15 -15 l87 7 1 -214 c0 -118 4 -234 8 -259 10 -55 14 374 5 444 -7 51 -1 49 -116 37z"></path>
            <path id="pVQ3U53yy" d="M2640 4476 c0 -14 5 -26 10 -26 6 0 10 7 10 16 0 15 11 16 88 11 106 -8 80 7 -30 18 l-78 7 0 -26z"></path>
            <path id="pf8NbaKNc" d="M2840 4471 c0 -3 29 -16 65 -27 65 -22 93 -16 33 6 -49 18 -98 29 -98 21z"></path>
            <path id="psqLiqyTW" d="M1098 4329 c-17 -18 -17 -19 17 -19 37 0 49 22 19 34 -19 7 -15 9 -36 -15z"></path>
            <path id="pJi2ZeA2m" d="M2392 4130 c0 -19 2 -27 5 -17 2 9 2 25 0 35 -3 9 -5 1 -5 -18z"></path>
            <path id="p18HkiPvmQ" d="M2512 4110 c0 -19 2 -27 5 -17 2 9 2 25 0 35 -3 9 -5 1 -5 -18z"></path>
            <path id="p11ui86F40" d="M3280 4065 c1 -6 7 -21 14 -34 9 -17 15 -20 21 -11 4 7 -1 21 -14 33 -11 12 -21 17 -21 12z"></path>
            <path id="pu5hOTtHf" d="M2628 3925 c-5 -38 -7 -117 -7 -175 1 -99 2 -102 10 -50 5 30 8 109 7 175 -3 116 -3 117 -10 50z"></path>
            <path id="pM2vmym1i" d="M3660 3833 c8 -3 24 -13 35 -22 20 -16 20 -16 1 7 -11 12 -26 22 -35 21 -14 0 -14 -1 -1 -6z"></path>
            <path id="puqc8jSJ1" d="M1253 3795 c-21 -24 -15 -40 7 -20 20 18 26 35 13 35 -5 -1 -14 -7 -20 -15z"></path>
            <path id="p1Dskumt3n" d="M3636 3800 c12 -5 25 -13 29 -19 3 -6 14 -11 23 -11 14 1 13 4 -7 20 -13 11 -33 20 -45 19 l-21 0 21 -9z"></path>
            <path id="pa70i9b36" d="M1287 3769 c-21 -24 -21 -34 1 -59 9 -11 20 -42 23 -68 5 -36 6 -26 7 45 1 50 -2 94 -6 97 -5 3 -16 -4 -25 -15z"></path>
            <path id="pwc0FCxsu" d="M1395 3776 c17 -7 32 -11 35 -9 8 7 -24 23 -45 22 -15 0 -13 -3 10 -13z"></path>
            <path id="p59xJ2OYq" d="M1344 3744 c3 -9 6 -20 6 -25 0 -7 21 1 50 19 8 5 -24 22 -44 22 -12 0 -16 -5 -12 -16z"></path>
            <path id="pDH5O2jqW" d="M1980 3746 c0 -11 30 -66 36 -66 2 0 -3 15 -12 33 -19 36 -24 44 -24 33z"></path>
            <path id="p1A8ECIyZQ" d="M2064 3688 c2 -7 17 -51 31 -98 15 -47 29 -92 32 -100 7 -22 41 23 49 64 10 59 -49 146 -99 146 -11 0 -17 -5 -13 -12z"></path>
            <path id="p1CPgY3Yiw" d="M3630 3663 c0 -22 2 -25 10 -13 13 20 13 40 0 40 -5 0 -10 -12 -10 -27z"></path>
            <path id="pELThI5Mp" d="M2606 3529 c-12 -80 -17 -209 -8 -209 11 0 29 227 19 236 -3 4 -8 -9 -11 -27z"></path>
            <path id="pMBkCH3Xt" d="M2553 3495 c0 -22 2 -30 4 -17 2 12 2 30 0 40 -3 9 -5 -1 -4 -23z"></path>
            <path id="pdoXoJCDJ" d="M2263 3483 c26 -2 68 -2 95 0 26 2 4 3 -48 3 -52 0 -74 -1 -47 -3z"></path>
            <path id="pOVyDpr3f" d="M2060 3445 c0 -8 5 -15 10 -15 6 0 10 7 10 15 0 8 -4 15 -10 15 -5 0 -10 -7 -10 -15z"></path>
            <path id="p14No7j8Op" d="M3264 3310 c0 -52 1 -74 3 -47 2 26 2 68 0 95 -2 26 -3 4 -3 -48z"></path>
            <path id="pwMLfxYXa" d="M3243 3310 c0 -30 2 -43 4 -27 2 15 2 39 0 55 -2 15 -4 2 -4 -28z"></path>
            <path id="pLHBOF4va" d="M1951 3283 c1 -15 5 -41 9 -58 7 -26 8 -23 9 22 0 28 -3 55 -9 58 -6 4 -10 -5 -9 -22z"></path>
            <path id="p10IQwTjHr" d="M2581 3253 c0 -36 3 -43 9 -28 12 28 12 75 0 75 -5 0 -10 -21 -9 -47z"></path>
            <path id="p2OuAFlIF" d="M2345 3238 c-8 -25 11 -83 28 -86 9 -2 17 1 17 7 0 6 -7 8 -15 5 -10 -4 -15 0 -15 14 0 11 -3 28 -7 38 -4 12 -3 15 5 10 7 -4 12 -1 12 8 0 19 -19 21 -25 4z"></path>
            <path id="pfiGYwIuC" d="M2083 3133 c-3 -7 -10 -10 -16 -6 -6 4 -7 1 -2 -7 6 -10 10 -10 19 2 6 8 17 13 24 11 6 -3 12 -1 12 5 0 14 -31 10 -37 -5z"></path>
            <path id="pih5TCPEQ" d="M2270 3115 c0 -1 15 -12 33 -25 26 -19 29 -20 14 -3 -9 11 -15 22 -12 24 2 3 -5 5 -15 5 -11 0 -20 -1 -20 -1z"></path>
            <path id="p1DDDlZOzS" d="M3296 3108 c-2 -7 -11 -42 -21 -78 -9 -36 -25 -84 -35 -107 -19 -43 -19 -43 3 -58 30 -21 57 -19 57 4 0 11 -5 21 -11 23 -8 3 -4 26 10 72 12 37 21 76 21 86 0 22 22 39 28 22 2 -7 9 -12 17 -12 7 0 15 -13 19 -30 4 -21 11 -30 26 -30 37 0 14 65 -40 107 -20 16 -70 16 -74 1z"></path>
            <path id="pXqEELSTM" d="M2740 3104 c0 -15 110 -127 118 -120 3 4 -22 35 -56 69 -34 34 -62 57 -62 51z"></path>
            <path id="pz5pHDmRB" d="M1741 3039 c-29 -32 -49 -59 -44 -59 10 0 113 102 113 113 0 16 -18 2 -69 -54z"></path>
            <path id="pbuGOvIoT" d="M2250 3025 l-24 -26 37 3 c29 2 44 -4 69 -27 18 -17 26 -22 19 -12 -11 14 -11 17 0 17 13 1 -59 70 -72 70 -3 0 -16 -11 -29 -25z"></path>
            <path id="pl95vOqqc" d="M2515 3040 c-3 -6 0 -13 9 -16 8 -3 13 -11 10 -19 -3 -7 3 -15 14 -17 11 -3 19 0 19 7 0 7 -6 11 -12 9 -6 -3 -12 2 -12 11 0 9 6 14 14 11 9 -4 11 -1 7 6 -5 8 -1 9 12 4 14 -5 16 -4 8 4 -9 9 -17 9 -32 1 -26 -14 -35 -14 -27 -1 3 6 4 10 1 10 -3 0 -8 -5 -11 -10z"></path>
            <path id="p14SDDoUss" d="M2080 3025 c-7 -8 -17 -12 -23 -8 -5 3 -7 1 -3 -5 3 -5 0 -12 -6 -15 -7 -2 -10 -7 -7 -11 3 -3 18 8 34 24 16 17 26 30 23 30 -3 0 -11 -7 -18 -15z"></path>
            <path id="pJpucvtVS" d="M2460 2985 c19 -19 36 -35 39 -35 3 0 -10 16 -29 35 -19 19 -36 35 -39 35 -3 0 10 -16 29 -35z"></path>
            <path id="pgkW5LodA" d="M1910 2980 c0 -6 11 -8 28 -4 39 10 40 14 4 14 -18 0 -32 -5 -32 -10z"></path>
            <path id="pSmnwkPf4" d="M2225 2960 c-19 -19 -39 -30 -57 -30 -15 0 -28 -5 -28 -11 0 -6 -10 -19 -22 -29 -13 -10 -20 -21 -16 -25 16 -16 56 8 106 65 56 63 66 82 17 30z"></path>
            <path id="pvRAj2jgm" d="M3390 2970 c0 -11 -4 -20 -10 -20 -5 0 -10 -16 -10 -35 0 -20 -5 -35 -12 -35 -6 0 -8 -3 -5 -7 9 -9 46 26 63 59 20 38 18 58 -6 58 -13 0 -20 -7 -20 -20z"></path>
            <path id="p16typdzlh" d="M2240 2915 l-44 -45 88 0 87 0 -37 45 c-20 25 -39 45 -43 45 -4 0 -27 -20 -51 -45z"></path>
            <path id="p88kuOZWX" d="M2381 2923 c35 -48 55 -63 78 -63 24 0 23 1 -15 40 -21 22 -47 40 -58 40 -16 0 -17 -2 -5 -17z"></path>
            <path id="p1ECJXFYkO" d="M3426 2888 l-18 -33 21 25 c18 22 26 40 18 40 -1 0 -11 -15 -21 -32z"></path>
            <path id="p14LuJiuqn" d="M2064 2824 c-99 -16 -186 -45 -192 -61 -5 -19 37 -16 119 7 39 11 105 22 145 26 63 6 74 10 74 25 0 23 -27 23 -146 3z"></path>
            <path id="pLMl4adjW" d="M2370 2820 c0 -16 7 -20 34 -20 19 0 70 -7 113 -15 98 -19 123 -19 123 -1 0 15 -39 26 -165 46 -90 15 -105 13 -105 -10z"></path>
            <path id="pBmanFbw8" d="M2660 2767 c0 -19 13 -29 63 -53 34 -16 64 -32 65 -36 2 -5 10 -8 17 -8 7 0 15 -7 19 -15 3 -10 19 -15 43 -15 l38 1 -38 33 c-36 33 -125 84 -180 105 -24 10 -27 8 -27 -12z"></path>
            <path id="pQbwnqTJg" d="M1783 2726 c-62 -35 -121 -85 -153 -129 -24 -33 -27 -43 -19 -65 6 -16 6 -36 -1 -58 -8 -24 -8 -39 0 -54 8 -16 8 -30 0 -55 -8 -25 -8 -39 0 -55 8 -16 9 -30 1 -52 -8 -23 -8 -40 0 -62 9 -24 8 -39 -3 -65 -13 -32 -12 -35 14 -62 20 -20 28 -37 28 -63 l0 -35 320 -3 c176 -2 464 -2 640 0 l320 3 0 38 c0 28 7 45 23 61 22 22 23 25 9 52 -8 18 -11 40 -7 56 4 15 6 37 6 50 -1 12 -1 36 -1 52 0 17 0 41 0 55 0 14 0 39 0 55 0 17 0 41 0 55 0 14 -1 37 -2 53 -1 15 1 37 5 49 6 15 1 29 -17 50 l-25 28 -1 -256 c0 -208 -3 -262 -15 -285 -8 -16 -15 -39 -15 -51 0 -23 -1 -23 -155 -23 -127 0 -155 3 -155 14 0 8 -14 17 -32 21 -43 9 -108 51 -108 70 0 20 6 19 40 -5 16 -11 42 -23 59 -26 27 -6 31 -4 31 14 0 14 -9 22 -29 27 -16 3 -32 13 -35 21 -4 9 -21 14 -56 14 l-50 0 0 -40 c0 -33 3 -40 20 -40 13 0 20 -7 20 -20 0 -16 7 -20 35 -20 24 0 35 -5 35 -15 0 -12 -13 -15 -55 -15 -30 0 -55 -4 -55 -8 0 -4 -49 -8 -110 -8 -60 0 -110 4 -110 8 0 4 -26 8 -57 9 l-58 0 38 16 c24 10 37 22 37 34 0 12 7 19 20 19 16 0 20 7 20 34 0 26 -5 35 -22 40 -36 9 -78 7 -78 -4 0 -5 -7 -10 -15 -10 -8 0 -15 -4 -15 -10 0 -5 -9 -10 -20 -10 -13 0 -20 -7 -20 -20 0 -27 26 -26 75 5 47 29 55 30 55 10 0 -18 -50 -51 -102 -67 -21 -6 -38 -17 -38 -25 0 -7 -11 -13 -25 -13 -15 0 -25 6 -25 14 0 8 -11 17 -25 20 -14 4 -25 13 -25 21 0 8 -4 15 -10 15 -5 0 -10 -16 -10 -35 l0 -35 -94 0 -94 0 -7 33 c-4 17 -13 35 -19 39 -7 5 -12 85 -14 253 -2 203 -1 245 11 245 16 0 57 41 57 58 0 7 6 12 14 12 8 0 35 12 60 28 32 19 45 34 46 50 0 28 -5 27 -57 -2z"></path>
            <path id="pMXYzjvWj" d="M1579 2610 c-2 -14 -10 -24 -17 -22 -8 1 -10 -2 -7 -9 11 -17 38 15 33 37 -4 15 -5 14 -9 -6z"></path>
            <path id="pn9pdvW3g" d="M1454 2561 c-23 -10 -44 -23 -48 -29 -3 -5 11 -1 31 9 21 11 50 19 65 19 15 0 28 5 28 10 0 15 -31 12 -76 -9z"></path>
            <path id="p12BxZQr5w" d="M2320 2566 c0 -8 14 -17 30 -21 18 -4 30 -13 30 -22 0 -12 -8 -14 -37 -9 -21 3 -62 6 -90 6 -40 0 -53 4 -53 15 0 8 7 15 15 15 8 0 15 5 15 10 0 6 -16 10 -36 10 l-35 0 3 -42 3 -43 65 -3 c36 -2 93 -1 128 3 l62 7 0 34 c0 24 -5 34 -15 34 -8 0 -15 5 -15 10 0 6 -16 10 -35 10 -24 0 -35 -5 -35 -14z"></path>
            <path id="p12omwSbpR" d="M1445 2511 c-78 -36 -135 -120 -135 -198 0 -92 54 -174 122 -188 60 -12 70 -16 64 -31 -3 -8 1 -14 9 -14 17 0 20 26 5 35 -14 9 -13 72 2 98 15 29 19 85 13 197 -2 30 -4 70 -4 88 -1 38 -16 41 -76 13z m36 -151 c0 -61 -5 -119 -11 -130 -5 -10 -10 -31 -10 -45 0 -22 -3 -25 -20 -20 -76 24 -114 141 -70 213 11 18 20 44 20 57 0 21 5 25 28 25 15 0 34 4 42 10 8 5 16 7 18 5 3 -2 4 -54 3 -115z"></path>
            <path id="p9C8fMOKf" d="M3050 2449 c0 -44 -5 -89 -11 -100 -7 -15 -7 -24 2 -35 7 -9 9 -29 5 -53 -4 -28 -2 -42 9 -51 18 -15 19 -59 3 -95 -15 -34 -3 -44 22 -17 12 12 30 22 42 22 41 0 103 46 124 92 52 115 -4 255 -123 305 -67 28 -73 22 -73 -68z m88 10 c2 -5 15 -9 28 -9 19 0 24 -5 24 -25 0 -15 6 -25 14 -25 17 0 28 -79 20 -142 -5 -34 -12 -48 -25 -51 -11 -3 -19 -14 -19 -26 0 -17 -6 -21 -34 -21 -37 0 -33 -8 -53 115 -5 28 -7 85 -5 128 4 74 5 77 26 71 11 -4 23 -11 24 -15z"></path>
            <path id="p6lYlPAkd" d="M2240 2447 c0 -8 -3 -24 -6 -34 -6 -15 -4 -16 7 -5 25 23 99 10 99 -19 0 -3 -25 -5 -55 -4 -47 2 -55 0 -55 -15 0 -14 12 -19 55 -25 79 -9 95 -2 95 44 0 49 -18 63 -86 69 -44 4 -54 2 -54 -11z"></path>
            <path id="p13vLG3LwP" d="M2008 2403 c-10 -2 -18 -11 -18 -19 0 -8 -7 -14 -15 -14 -10 0 -15 -10 -15 -29 0 -26 -5 -30 -45 -40 -43 -11 -45 -13 -45 -46 0 -28 4 -35 20 -35 11 0 20 -4 20 -10 0 -5 16 -10 35 -10 29 0 35 4 35 21 0 19 -4 20 -40 14 -25 -4 -40 -3 -40 4 0 14 19 24 60 31 31 5 35 9 32 32 -7 59 83 93 128 48 39 -39 19 -85 -45 -101 -54 -14 -62 -39 -12 -39 47 0 77 10 77 26 0 8 7 14 15 14 12 0 15 13 15 60 0 47 -3 60 -15 60 -8 0 -15 6 -15 14 0 22 -78 33 -132 19z"></path>
            <path id="p11QHQ5WQF" d="M2453 2404 c-7 -3 -13 -19 -13 -35 0 -29 1 -30 22 -15 52 37 137 1 123 -51 -4 -18 0 -24 22 -28 91 -20 94 -52 4 -35 -30 5 -70 10 -90 10 -20 0 -47 7 -59 16 -21 15 -22 14 -22 -15 0 -35 6 -37 163 -47 l107 -6 0 45 c0 46 0 46 -42 58 -46 12 -58 23 -58 52 0 33 -29 51 -89 54 -31 1 -62 0 -68 -3z"></path>
            <path id="p11eijED8r" d="M2640 2096 c0 -7 10 -17 23 -20 l22 -6 -22 -19 c-31 -26 -29 -31 12 -31 35 0 35 0 35 45 0 45 0 45 -35 45 -23 0 -35 -5 -35 -14z"></path>
            <path id="phBLlKhxf" d="M1512 2000 c0 -19 2 -27 5 -17 2 9 2 25 0 35 -3 9 -5 1 -5 -18z"></path>
            <path id="pwbth3wb3" d="M2168 1953 c17 -2 47 -2 65 0 17 2 3 4 -33 4 -36 0 -50 -2 -32 -4z"></path>
            <path id="p1ETYSYlYl" d="M2348 1953 c18 -2 45 -2 60 0 15 2 0 4 -33 4 -33 0 -45 -2 -27 -4z"></path>
            <path id="pm55qb6EC" d="M1713 1943 c37 -2 96 -2 130 0 34 2 4 3 -68 3 -71 0 -99 -1 -62 -3z"></path>
            <path id="pgekhDyRE" d="M2743 1943 c37 -2 96 -2 130 0 34 2 4 3 -68 3 -71 0 -99 -1 -62 -3z"></path>
            <path id="pEjMr8LfP" d="M1622 1860 c-27 -25 -28 -42 -4 -63 42 -38 116 -28 128 18 14 58 -75 90 -124 45z m98 -8 c26 -21 19 -47 -18 -60 -31 -10 -61 -2 -81 22 -12 14 -11 19 4 36 22 25 66 26 95 2z"></path>
            <path id="pQ7VADxNW" d="M1925 1860 c-12 -13 -15 -27 -11 -44 12 -49 112 -51 138 -2 10 20 10 20 -15 -2 -49 -46 -146 -11 -103 37 10 11 32 22 50 24 31 4 30 4 -5 5 -24 1 -42 -4 -54 -18z"></path>
            <path id="p1CIXAdUnu" d="M2242 1864 c-12 -8 -22 -19 -22 -25 0 -5 9 0 20 11 36 36 117 17 108 -25 -2 -11 -14 -25 -28 -32 -17 -9 -20 -13 -8 -13 22 0 48 27 48 50 0 24 -37 50 -70 50 -14 0 -36 -7 -48 -16z"></path>
            <path id="p7AJl6YPr" d="M2552 1873 c-7 -2 -17 -14 -23 -26 -11 -20 -11 -20 16 1 34 27 76 28 99 3 14 -15 15 -24 6 -40 -6 -12 -16 -21 -22 -21 -6 0 -8 -3 -5 -7 9 -8 47 27 47 44 0 38 -70 65 -118 46z"></path>
            <path id="p1EQxl0doO" d="M2847 1862 c-10 -10 -17 -26 -17 -35 0 -21 27 -47 48 -47 11 1 8 6 -10 16 -33 17 -35 34 -8 59 14 13 29 16 55 12 21 -3 33 -2 30 4 -11 17 -81 10 -98 -9z"></path>
            <path id="pQDgRN7ZE" d="M2946 1804 c-21 -19 -25 -25 -12 -23 10 2 25 14 34 27 19 28 14 27 -22 -4z"></path>
            <path id="pjUKWbGMP" d="M2220 1814 c0 -18 24 -34 50 -33 20 1 21 2 5 6 -11 3 -28 12 -37 21 -10 8 -18 11 -18 6z"></path>
            <path id="p2qH0F9bj" d="M2530 1812 c0 -13 20 -28 48 -36 13 -5 22 -3 22 3 0 6 -9 11 -19 11 -11 0 -27 7 -35 16 -9 8 -16 11 -16 6z"></path>
            <path id="p3wCEmJ12" d="M1738 1713 c68 -2 176 -2 240 0 64 1 9 3 -123 3 -132 0 -185 -2 -117 -3z"></path>
            <path id="p1Dgautcio" d="M2628 1713 c56 -2 148 -2 205 0 56 1 10 3 -103 3 -113 0 -159 -2 -102 -3z"></path>
            <path id="pbh1EGRYy" d="M2335 1583 l0 -128 113 -1 112 0 -110 3 -109 4 -4 124 -3 125 1 -127z"></path>
            <path id="p8KSyGtFd" d="M1516 1665 c-2 -11 -8 -45 -11 -76 l-7 -56 67 -13 c37 -7 69 -18 71 -25 3 -7 -2 -61 -11 -120 -18 -122 -19 -119 58 -202 59 -64 251 -203 280 -203 4 0 7 20 7 45 l0 45 115 0 115 0 0 140 0 140 -65 0 -65 0 0 -42 c0 -23 5 -56 12 -74 10 -30 9 -36 -26 -83 -21 -28 -41 -49 -46 -46 -4 3 -24 27 -43 54 -34 47 -35 50 -19 72 19 27 20 37 21 172 l1 97 115 0 115 0 0 98 0 97 -340 0 c-331 0 -339 0 -344 -20z"></path>
            <path id="p17fd3PQ9v" d="M2370 1588 l0 -97 113 -3 112 -3 5 -120 c3 -72 11 -131 19 -147 13 -25 11 -30 -26 -77 l-40 -50 -20 22 c-11 12 -30 36 -42 54 -21 31 -21 34 -6 63 9 18 15 47 13 68 l-4 37 -62 3 -62 3 0 -140 0 -140 113 -3 112 -3 3 -42 c2 -24 7 -43 13 -43 18 0 143 81 211 136 36 30 84 78 106 107 l40 52 -17 118 c-10 65 -15 119 -12 121 3 2 37 9 74 16 68 12 69 13 64 40 -3 15 -9 49 -12 76 l-7 49 -344 0 -344 0 0 -97z"></path>
            <path id="paXAu5cZU" d="M2053 1453 c31 -2 83 -2 115 0 31 2 5 3 -58 3 -63 0 -89 -1 -57 -3z"></path>
            <path id="p1F7PtWXNU" d="M2264 1439 c-3 -6 -2 -15 4 -21 13 -13 32 -2 32 18 0 16 -26 19 -36 3z"></path>
            <path id="p9yABAlHQ" d="M3060 1369 c-7 -11 -9 -23 -7 -26 3 -2 8 5 12 16 3 11 14 22 23 24 16 4 16 5 0 6 -10 0 -22 -8 -28 -20z"></path>
            <path id="pqIFTCZ0" d="M2334 1367 c-2 -7 -3 -87 -2 -177 l3 -165 118 0 117 -1 -115 3 -115 4 0 169 c0 152 2 169 18 173 16 4 16 5 -1 6 -10 0 -20 -5 -23 -12z"></path>
            <path id="p18CSq4HTD" d="M2523 1310 c0 -36 2 -50 4 -32 2 17 2 47 0 65 -2 17 -4 3 -4 -33z"></path>
            <path id="piRqfY1YM" d="M1993 1300 c0 -36 2 -50 4 -32 2 17 2 47 0 65 -2 17 -4 3 -4 -33z"></path>
            <path id="pnfrWUN8r" d="M2926 1162 l-30 -37 37 34 c38 36 42 42 30 40 -5 0 -21 -17 -37 -37z"></path>
            <path id="pKw4qis06" d="M1357 1143 c-3 -5 -2 -15 2 -22 7 -10 10 -10 16 -1 4 6 3 16 -3 22 -5 5 -12 6 -15 1z"></path>
            <path id="pK3XZmgrt" d="M1561 937 c-8 -64 -11 -120 -8 -124 4 -3 7 10 7 30 0 20 5 58 11 86 6 27 9 67 7 88 -2 24 -8 -5 -17 -80z"></path>
            <path id="p10m1QGvBC" d="M2043 1023 c26 -2 68 -2 95 0 26 2 4 3 -48 3 -52 0 -74 -1 -47 -3z"></path>
            <path id="pR2H8gNfo" d="M1994 900 c0 -52 1 -74 3 -47 2 26 2 68 0 95 -2 26 -3 4 -3 -48z"></path>
            <path id="p7dVBAy1s" d="M1326 962 c-3 -6 -1 -14 5 -17 15 -10 25 3 12 16 -7 7 -13 7 -17 1z"></path>
            <path id="ph9MhKvX3" d="M2334 937 c-2 -7 -3 -87 -2 -177 l3 -165 118 0 117 -1 -115 3 -115 4 0 169 0 169 33 4 32 4 -33 1 c-19 1 -35 -3 -38 -11z"></path>
            <path id="pioIXrHX2" d="M2523 895 c0 -27 2 -38 4 -22 2 15 2 37 0 50 -2 12 -4 0 -4 -28z"></path>
            <path id="ph9tRN5mk" d="M1717 808 c-14 -37 -15 -45 -7 -58 11 -17 24 28 17 57 -4 17 -4 17 -10 1z"></path>
            <path id="p14N8m1n40" d="M1430 670 c14 -4 32 -8 40 -9 13 -1 13 0 0 9 -8 5 -26 9 -40 9 l-25 -1 25 -8z"></path>
            <path id="p88vaHvXb" d="M2058 623 c23 -2 59 -2 80 0 20 2 1 4 -43 4 -44 0 -61 -2 -37 -4z"></path>
            <path id="p17m2xVcLG" d="M1264 609 c-8 -14 11 -33 25 -25 11 7 4 36 -9 36 -5 0 -12 -5 -16 -11z"></path>
            <path id="p1EhODWn04" d="M2088 593 c29 -2 74 -2 100 0 26 2 2 3 -53 3 -55 0 -76 -1 -47 -3z"></path>
            <path id="pxTyOpJSq" d="M2857 594 c-8 -8 75 -114 91 -114 11 0 -12 32 -60 82 -10 10 -18 21 -17 24 1 9 -7 14 -14 8z"></path>
            <path id="p18W3u6ueU" d="M1701 584 c-1 -6 -18 -30 -38 -53 -20 -24 -37 -54 -38 -66 0 -13 3 -21 7 -19 4 3 8 11 8 18 0 7 16 34 36 60 19 26 33 52 31 59 -3 7 -6 7 -6 1z"></path>
            <path id="p173Ars6FO" d="M1993 555 c0 -22 2 -30 4 -17 2 12 2 30 0 40 -3 9 -5 -1 -4 -23z"></path>
            <path id="p1DGaqWZLz" d="M2265 550 c-10 -16 16 -43 28 -31 11 11 2 41 -12 41 -5 0 -13 -5 -16 -10z"></path>
            <path id="pemaUSFDp" d="M2333 445 c0 -33 2 -45 4 -27 2 18 2 45 0 60 -2 15 -4 0 -4 -33z"></path>
            <path id="p9KTObauc" d="M1670 470 c-6 -11 -9 -26 -7 -33 3 -7 10 1 16 17 14 35 7 47 -9 16z"></path>
            <path id="pOtzwRXvt" d="M2033 420 c0 -30 2 -43 4 -27 2 15 2 39 0 55 -2 15 -4 2 -4 -28z"></path>
            <path id="pgz69QOYj" d="M1818 450 c-3 -8 0 -29 7 -47 8 -17 10 -35 7 -39 -4 -4 -2 -4 5 -1 11 7 9 18 -11 92 -1 6 -5 3 -8 -5z"></path>
            <path id="p51hQnc5q" d="M2573 420 c0 -25 2 -35 4 -22 2 12 2 32 0 45 -2 12 -4 2 -4 -23z"></path>
            <path id="p17J5Gf8Vn" d="M2242 268 c-7 -7 -12 -19 -12 -27 0 -11 4 -9 15 6 8 12 25 24 38 26 20 4 20 4 -3 6 -15 0 -31 -4 -38 -11z"></path>
            <path id="piYpuqULF" d="M2318 238 c3 -22 0 -35 -14 -45 -10 -7 -13 -13 -8 -13 27 0 49 70 26 84 -5 3 -6 -9 -4 -26z"></path>
            <path id="pYOXhKqQT" d="M2230 213 c0 -13 29 -38 35 -31 3 3 -4 13 -15 23 -11 10 -20 13 -20 8z"></path>
    </g>
    <g id="l6GUVE3TWuOmuPy6M9I770I" fill="rgb(254,169,176)">
            <path id="pyCmcu9TL" d="M1835 4490 c-14 -6 -6 -8 27 -7 27 1 48 5 48 10 0 9 -50 8 -75 -3z"></path>
            <path id="piH3sxX7I" d="M2640 4337 c0 -90 -2 -206 -5 -258 -3 -67 -2 -84 4 -59 5 19 11 132 13 250 l3 216 24 2 c39 3 38 12 -2 12 l-37 0 0 -163z"></path>
            <path id="p1Fd9IaYAS" d="M1683 4469 c-65 -16 -173 -62 -173 -74 0 -5 95 31 114 43 6 3 42 13 80 22 38 9 65 19 60 22 -5 3 -41 -3 -81 -13z"></path>
            <path id="pPAnR4TYl" d="M2810 4470 c14 -4 34 -8 45 -9 16 -1 17 1 5 9 -8 5 -28 9 -45 9 -29 -1 -29 -1 -5 -9z"></path>
            <path id="pdQczJ3er" d="M2936 4442 c-2 -4 20 -17 50 -29 30 -12 54 -19 54 -17 0 9 -99 53 -104 46z"></path>
            <path id="pXd4VWZEe" d="M870 4346 c-26 -6 -63 -22 -83 -35 -64 -40 -135 -142 -152 -220 l-7 -33 128 4 c107 3 138 8 180 26 l51 23 1 49 c1 53 28 126 55 149 27 21 21 29 -33 40 -62 13 -82 13 -140 -3z"></path>
            <path id="p12ib5R2I4" d="M1087 4316 c-65 -59 -90 -145 -62 -212 19 -47 134 -224 145 -224 29 0 174 142 190 186 13 34 13 106 -1 141 -24 64 -102 118 -190 132 -45 7 -51 6 -82 -23z"></path>
            <path id="p1Am8C44IE" d="M1350 4286 c0 0 11 -23 25 -50 33 -64 34 -146 4 -196 l-21 -34 33 -29 c35 -29 157 -91 202 -102 l26 -7 -28 74 c-15 40 -47 126 -71 190 -36 99 -47 118 -70 128 -25 10 -100 30 -100 26z"></path>
            <path id="pPVbbx539" d="M960 4071 c-19 -10 -61 -24 -94 -31 l-58 -12 6 -41 c5 -34 62 -167 71 -167 2 0 31 9 66 20 60 18 139 70 139 90 0 8 -17 37 -85 143 -9 14 -14 14 -45 -2z"></path>
            <path id="pvfSC0Onf" d="M1293 3939 c-24 -22 -43 -46 -43 -54 0 -21 75 -80 130 -103 l49 -21 29 37 c53 68 56 78 22 92 -17 7 -55 30 -86 51 -30 22 -56 39 -57 39 -1 0 -21 -19 -44 -41z"></path>
            <path id="pdfXUuTmt" d="M1067 3866 l-39 -32 40 -50 c73 -92 70 -91 143 -42 35 24 64 48 64 53 0 6 -12 26 -27 45 -24 31 -30 34 -48 23 -29 -19 -46 -16 -64 12 -9 14 -20 25 -24 25 -4 -1 -24 -15 -45 -34z"></path>
            <path id="pIoxK04iN" d="M3582 3811 c-21 -6 -21 -7 13 -34 19 -15 35 -35 35 -44 0 -12 7 -14 31 -9 17 3 36 6 41 6 5 0 8 10 6 21 -6 40 -76 74 -126 60z"></path>
            <path id="pYSBOcQ9i" d="M3490 3769 c-29 -12 -60 -38 -60 -51 0 -5 5 -6 10 -3 6 3 14 -4 19 -17 9 -24 41 -57 41 -43 0 4 6 3 13 -3 6 -6 28 -13 48 -17 37 -7 37 -7 44 33 9 58 -13 93 -65 105 -14 3 -36 1 -50 -4z"></path>
            <path id="pvVaXQV4C" d="M3399 3679 c-15 -29 1 -139 21 -139 4 0 20 18 35 40 l27 39 -26 31 c-14 18 -26 36 -26 41 0 17 -19 9 -31 -12z"></path>
            <path id="pQKTX31Dp" d="M2618 3641 c-5 -18 -8 -54 -7 -80 l1 -46 9 45 c5 25 8 61 7 80 l-3 35 -7 -34z"></path>
            <path id="pzqrYJfPM" d="M1252 3428 c-15 -15 -15 -50 0 -83 14 -32 21 -31 47 1 26 33 27 56 3 77 -22 20 -34 21 -50 5z"></path>
            <path id="pP3GQspyL" d="M2588 3330 c-3 -30 -2 -64 2 -75 5 -13 9 -3 12 35 3 30 2 64 -2 75 -5 13 -9 3 -12 -35z"></path>
            <path id="pqAv15bJb" d="M2265 3039 c-5 -6 -28 -26 -50 -45 l-40 -34 35 2 c28 2 36 8 38 26 3 17 10 22 33 22 31 0 36 9 17 28 -14 14 -20 14 -33 1z"></path>
    </g>
    <g id="l3ELe6bp6rtdGUgqjwlsbux" fill="rgb(254,221,189)">
            <path id="ppxSCH6so" d="M2632 3990 c0 -19 2 -27 5 -17 2 9 2 25 0 35 -3 9 -5 1 -5 -18z"></path>
            <path id="p17IYzVKZk" d="M2080 3648 c11 -29 27 -80 36 -112 l16 -59 19 24 c39 51 16 153 -43 185 -43 25 -49 17 -28 -38z"></path>
            <path id="p137tUswl1" d="M3295 3093 c-3 -16 -19 -70 -35 -121 -17 -52 -28 -98 -25 -103 10 -16 75 -22 106 -9 68 29 107 126 75 187 -35 70 -111 97 -121 46z"></path>
            <path id="pSJsKyCE9" d="M2224 3001 c-53 -44 -124 -121 -124 -136 0 -3 12 -2 26 1 15 4 57 39 95 78 l68 71 70 -72 c41 -42 81 -75 98 -79 26 -6 24 -2 -27 51 -30 31 -76 74 -101 95 l-46 39 -59 -48z"></path>
            <path id="p8osdNePj" d="M2090 2825 c-52 -7 -124 -23 -160 -34 -81 -26 -211 -105 -270 -166 -47 -48 -48 -53 -48 -177 0 -10 0 -36 0 -58 0 -22 0 -47 0 -55 0 -8 0 -33 0 -55 0 -22 -1 -46 -1 -52 -1 -7 2 -29 5 -49 3 -21 1 -46 -6 -58 -9 -18 -8 -26 11 -45 13 -13 28 -41 34 -61 l10 -38 627 -1 626 -1 5 38 c3 22 15 49 27 62 18 19 20 27 11 43 -13 25 -14 72 -2 91 5 7 4 25 -2 42 -9 22 -8 37 1 61 8 21 8 36 2 42 -13 13 -13 52 1 78 8 14 8 23 0 31 -14 14 -14 70 1 85 8 8 4 20 -16 47 -70 92 -235 186 -381 217 -121 25 -350 32 -475 13z m281 -286 c36 -19 9 -28 -82 -27 -88 2 -107 7 -94 28 8 13 151 13 176 -1z m-31 -135 c13 -13 13 -16 0 -24 -9 -5 -19 -5 -27 1 -7 6 -25 8 -42 4 -37 -8 -48 9 -19 30 25 17 64 13 88 -11z m-217 -51 c22 -21 22 -65 -1 -86 -20 -19 -44 -23 -149 -32 -61 -4 -73 -3 -73 10 0 9 17 19 45 26 40 10 45 15 45 39 0 61 83 87 133 43z m450 -4 c9 -12 17 -31 17 -44 0 -18 8 -25 45 -34 28 -7 45 -17 45 -26 0 -13 -12 -14 -72 -10 -140 11 -168 24 -168 76 0 62 91 88 133 38z m-429 -228 c9 -14 -50 -59 -92 -71 -54 -17 -146 -9 -150 11 -3 14 9 17 75 20 62 3 85 9 108 26 32 24 51 28 59 14z m347 -13 c24 -18 47 -24 110 -27 56 -2 79 -7 79 -16 0 -18 -23 -25 -81 -25 -56 0 -112 20 -146 52 -44 42 -14 54 38 16z"></path>
            <path id="pXsGSoMI7" d="M1443 2506 c-88 -41 -141 -138 -127 -232 12 -80 67 -138 141 -150 l42 -6 -5 34 c-4 24 -1 40 14 57 15 20 17 29 9 52 -8 21 -7 32 5 51 13 19 13 27 4 40 -8 11 -12 48 -11 97 1 52 -3 81 -9 81 -6 0 -34 -11 -63 -24z"></path>
            <path id="p1vqXKlJ7" d="M3055 2458 c1 -40 -2 -85 -7 -99 -5 -15 -5 -36 1 -52 6 -16 7 -36 2 -50 -7 -17 -4 -29 10 -46 23 -28 24 -56 5 -93 -8 -16 -11 -28 -6 -28 4 0 10 6 13 14 3 7 24 16 48 19 73 10 123 61 138 141 19 101 -29 194 -121 240 -81 41 -85 38 -83 -46z"></path>
    </g>
</svg>