<svg 
    xmlns="http://www.w3.org/2000/svg" style="transform: none; transform-origin: 50% 50%; cursor: move;" viewBox="0 0 5000 3860">
    <g fill="rgb(147,49,2)">
        <g>
            <path d="M4405 3729 c-72 -50 -147 -104 -167 -120 -44 -34 -57 -36 -88 -9 -28 24 -23 24 -68 1 -46 -23 -76 -56 -69 -74 8 -21 -6 -38 -23 -27 -10 7 -11 10 -2 10 6 0 12 5 12 10 0 6 -14 4 -31 -5 -26 -14 -30 -21 -25 -43 6 -25 5 -26 -8 -9 -14 18 -15 18 -41 1 -15 -10 -38 -34 -51 -55 -16 -26 -29 -36 -41 -33 -11 3 -43 -12 -78 -36 -129 -87 -197 -138 -233 -173 -39 -37 -81 -68 -307 -227 -75 -52 -175 -124 -223 -159 -48 -35 -143 -104 -212 -153 -138 -98 -171 -123 -209 -154 -14 -11 -66 -49 -116 -83 -148 -102 -234 -163 -345 -245 -58 -43 -125 -88 -150 -101 -37 -19 -91 -56 -165 -112 -6 -4 -27 -17 -48 -27 -67 -35 -76 -52 -77 -156 -1 -48 -5 -46 -14 10 -11 63 -19 67 -64 31 -35 -27 -102 -118 -102 -137 0 -3 7 -4 15 0 10 4 15 -1 15 -14 0 -25 1 -25 -40 5 -41 30 -66 32 -80 6 -15 -28 -61 -35 -106 -16 -167 71 -354 56 -496 -42 -29 -20 -40 -23 -57 -14 -47 26 -99 3 -87 -37 5 -13 -2 -30 -19 -50 -37 -45 -104 -249 -105 -319 0 -68 33 -220 66 -303 35 -87 131 -228 180 -264 l25 -19 -3 34 c-2 24 -10 37 -25 44 -13 5 -23 18 -23 28 0 10 -7 20 -15 23 -23 9 -18 34 8 34 16 0 35 -18 69 -64 26 -36 60 -72 76 -80 17 -9 44 -29 60 -46 24 -23 40 -30 74 -31 30 -2 34 -3 16 -6 -16 -3 -28 -11 -28 -19 0 -12 -7 -10 -37 6 -59 31 -77 44 -86 58 -4 6 -25 12 -45 12 l-37 -1 45 -40 c58 -51 129 -92 207 -118 76 -26 93 -26 93 -3 0 11 -11 21 -32 27 -46 14 -48 35 -4 35 25 0 36 -4 36 -15 0 -10 11 -15 35 -15 19 0 35 5 35 10 0 6 11 10 25 10 16 0 25 6 25 15 0 12 13 15 59 15 65 0 97 9 132 37 56 45 128 122 155 165 25 41 34 48 62 48 30 0 32 2 32 35 0 28 -4 35 -20 35 -18 0 -20 7 -20 60 0 57 1 60 25 60 22 0 25 4 25 35 0 32 -3 35 -28 35 -25 0 -30 5 -45 54 -10 30 -24 57 -32 60 -8 3 -15 12 -15 21 0 8 -9 15 -20 15 -13 0 -20 7 -20 20 0 31 14 24 45 -20 38 -54 101 -110 124 -110 17 0 21 -10 27 -70 6 -61 9 -70 26 -70 19 0 20 4 13 66 l-7 66 37 30 c20 17 41 41 45 54 6 14 15 22 23 18 8 -3 35 12 60 33 25 21 60 47 77 58 111 72 295 202 333 235 45 40 212 162 347 255 41 28 96 67 121 86 59 44 180 130 449 321 118 84 226 161 240 171 14 10 72 51 130 92 58 40 137 96 176 124 39 28 87 58 108 66 40 17 199 127 287 200 31 25 83 62 115 81 32 19 70 46 85 60 14 13 29 24 35 24 5 0 20 9 34 19 20 16 22 21 11 35 -8 9 -9 16 -3 16 6 0 12 -6 14 -12 3 -9 12 -8 32 6 28 18 29 21 12 81 -5 17 28 46 190 170 l195 150 -5 43 c-3 23 -24 82 -47 129 -32 66 -58 104 -113 160 -46 47 -80 73 -94 73 -38 0 -25 -32 32 -82 43 -38 96 -111 96 -132 0 -3 -17 -15 -37 -27 -39 -24 -42 -26 -82 -59 -13 -11 -37 -20 -53 -20 -20 0 -31 -6 -38 -22 -8 -21 -9 -20 -9 10 -1 25 -5 32 -21 32 -14 0 -20 7 -20 24 0 26 -16 36 -57 36 -14 0 -33 9 -42 19 -9 11 -29 21 -45 23 -27 3 -27 3 21 38 26 19 60 42 76 49 15 8 27 18 27 22 0 4 16 17 35 29 37 23 48 60 17 60 -9 0 -76 -41 -147 -91z m-65 -149 c0 -33 -3 -40 -19 -40 -11 0 -21 -5 -23 -11 -4 -13 -35 -2 -42 17 -3 8 11 25 37 43 23 17 43 30 45 31 1 0 2 -18 2 -40z m-230 -21 c0 -5 -6 -9 -14 -9 -15 0 -28 24 -19 34 7 7 33 -13 33 -25z m44 -44 c3 -10 -1 -15 -14 -15 -23 0 -35 16 -18 23 21 9 26 8 32 -8z m694 -35 c8 -16 11 -34 7 -40 -3 -5 -64 -55 -136 -110 -71 -56 -129 -105 -129 -110 0 -6 -6 -10 -14 -10 -7 0 -19 -7 -26 -15 -20 -24 -33 -18 -59 27 l-24 42 44 38 c24 20 47 38 52 38 4 0 7 7 7 15 0 9 9 15 21 15 25 0 126 56 189 105 25 19 47 35 50 35 3 0 11 -13 18 -30z m-728 -10 c0 -5 -7 -10 -15 -10 -8 0 -15 5 -15 10 0 6 7 10 15 10 8 0 15 -4 15 -10z m90 -32 c0 -6 -7 -5 -15 2 -8 7 -15 17 -15 22 0 6 7 5 15 -2 8 -7 15 -17 15 -22z m-223 -3 c-4 -8 -14 -15 -23 -15 -16 0 -16 2 1 20 20 22 31 20 22 -5z m383 4 c0 -18 6 -20 43 -19 23 1 62 1 87 0 l45 -2 -35 -10 c-19 -5 -55 -13 -78 -17 -40 -7 -46 -6 -68 18 -27 29 -31 51 -9 51 9 0 15 -9 15 -21z m-430 -49 c0 -11 -33 -30 -52 -30 -7 1 -3 9 11 20 25 22 41 26 41 10z m230 -22 c0 -7 15 -22 33 -32 l32 -19 -30 -8 c-16 -5 -36 -7 -42 -4 -15 5 -18 75 -3 75 6 0 10 -6 10 -12z m-417 -68 c8 0 8 -3 0 -11 -13 -13 -43 -5 -43 12 0 6 7 8 16 5 9 -3 21 -6 27 -6z m57 -30 c0 -5 -9 -10 -21 -10 -11 0 -17 5 -14 10 3 6 13 10 21 10 8 0 14 -4 14 -10z m267 -42 c51 -12 74 -38 33 -38 -11 0 -20 -4 -20 -9 0 -5 -21 -6 -46 -3 -33 3 -49 1 -55 -9 -14 -22 -12 14 3 46 13 29 15 29 85 13z m-407 -21 c0 -6 14 -26 32 -44 23 -24 41 -33 65 -33 18 0 33 -5 33 -11 0 -17 51 -79 66 -79 8 0 14 -6 14 -14 0 -8 9 -18 20 -21 14 -4 20 -15 20 -34 0 -15 9 -36 20 -46 12 -11 20 -31 20 -52 0 -26 4 -33 20 -33 21 0 60 -33 60 -50 0 -5 5 -10 10 -10 32 0 -12 -67 -54 -83 -9 -4 -16 -11 -16 -17 0 -5 -7 -10 -15 -10 -8 0 -15 -3 -15 -7 0 -5 -11 -13 -25 -20 -22 -10 -25 -9 -25 7 0 10 -6 25 -13 32 -7 7 -16 20 -19 29 -11 28 -200 294 -219 308 -11 7 -19 20 -19 27 0 8 -9 14 -19 14 -14 0 -21 8 -23 28 -2 22 -9 28 -37 32 l-33 5 43 35 c84 68 109 79 109 47z m268 -73 c-11 -23 -13 -24 -19 -7 -12 29 -10 33 11 33 17 0 18 -3 8 -26z m-402 -144 c8 0 14 -6 14 -13 0 -7 26 -44 58 -83 32 -38 89 -109 127 -159 38 -49 72 -92 75 -95 20 -16 18 -41 -5 -56 -14 -9 -25 -23 -25 -30 0 -8 -9 -14 -20 -14 -11 0 -20 -4 -20 -9 0 -5 -9 -11 -20 -14 -12 -3 -20 -14 -20 -26 0 -17 -6 -21 -30 -21 -16 0 -30 -4 -30 -10 0 -5 -6 -10 -14 -10 -7 0 -25 -11 -40 -25 -15 -14 -31 -25 -37 -25 -5 0 -9 -4 -9 -9 0 -5 -9 -11 -20 -14 -12 -3 -20 -14 -20 -26 0 -17 -6 -21 -30 -21 -18 0 -33 -6 -36 -15 -4 -8 -12 -15 -20 -15 -8 0 -14 -4 -14 -10 0 -5 -7 -10 -15 -10 -8 0 -15 -7 -15 -15 0 -8 -9 -15 -20 -15 -11 0 -20 -4 -20 -10 0 -5 -7 -10 -15 -10 -8 0 -15 -4 -15 -9 0 -5 -9 -11 -20 -14 -11 -3 -20 -12 -20 -21 0 -9 -8 -16 -20 -16 -11 0 -28 -8 -38 -17 -9 -10 -30 -24 -45 -30 -15 -7 -30 -20 -33 -28 -4 -8 -12 -15 -20 -15 -7 0 -17 -6 -21 -13 -4 -7 -20 -18 -35 -24 -16 -7 -28 -17 -28 -23 0 -5 -7 -10 -15 -10 -8 0 -15 -4 -15 -10 0 -5 -7 -10 -15 -10 -9 0 -18 -7 -21 -15 -9 -22 -24 -18 -24 5 0 16 -7 20 -35 20 -33 0 -35 -2 -35 -35 0 -19 5 -35 10 -35 6 0 10 -7 10 -15 0 -9 -9 -15 -21 -15 -12 0 -23 -8 -26 -20 -3 -13 -14 -20 -29 -20 -15 0 -24 -6 -24 -15 0 -8 -9 -15 -20 -15 -10 0 -23 -6 -27 -13 -4 -8 -16 -16 -25 -20 -10 -3 -18 -13 -18 -22 0 -9 -9 -15 -22 -15 -26 -1 -58 -22 -58 -39 0 -6 -9 -11 -20 -11 -11 0 -20 -4 -20 -10 0 -5 -7 -10 -15 -10 -9 0 -18 -7 -21 -15 -4 -8 -12 -15 -20 -15 -8 0 -14 -7 -14 -15 0 -8 -9 -15 -20 -15 -11 0 -20 -7 -20 -15 0 -8 -9 -15 -20 -15 -11 0 -20 -4 -20 -10 0 -5 -7 -10 -15 -10 -8 0 -15 -4 -15 -10 0 -5 -7 -10 -15 -10 -8 0 -15 -7 -15 -15 0 -16 -36 -21 -56 -7 -11 7 -98 119 -169 217 -28 38 -47 55 -62 55 -19 0 -23 6 -23 29 0 17 -4 32 -9 35 -5 3 -18 24 -30 46 -32 61 -31 144 1 112 7 -7 27 -12 45 -12 31 0 33 2 33 34 0 44 9 66 25 66 7 0 15 5 17 11 2 6 25 13 51 16 46 5 47 7 47 39 0 27 4 34 20 34 13 0 20 7 20 20 0 16 7 20 31 20 22 0 32 5 36 20 3 11 14 20 24 20 11 0 22 7 25 15 4 8 12 15 20 15 8 0 14 5 14 10 0 6 7 10 15 10 8 0 24 9 35 20 22 22 40 26 40 10 0 -11 33 -13 79 -4 24 5 31 12 31 30 0 19 5 24 26 24 23 0 25 3 23 38 -2 28 3 44 19 60 12 12 27 22 32 22 6 0 10 5 10 10 0 6 7 10 15 10 7 0 18 6 22 13 4 6 24 21 43 31 19 11 42 27 50 36 8 9 23 19 33 23 9 3 17 13 17 22 0 8 7 15 16 15 19 0 104 57 104 70 0 6 6 10 13 10 7 0 23 9 35 20 12 11 24 20 27 20 15 0 85 54 85 66 0 8 9 14 20 14 12 0 32 11 46 25 14 14 29 25 34 25 6 0 10 3 10 8 0 4 14 13 30 20 17 8 30 20 30 28 0 8 9 14 20 14 11 0 20 5 20 10 0 6 7 10 15 10 9 0 18 7 21 15 4 8 12 15 20 15 8 0 14 4 14 9 0 5 8 11 18 13 14 3 19 -7 26 -54 6 -38 14 -58 22 -58z m640 -76 c-9 -8 -16 -21 -16 -27 0 -7 -5 -4 -11 7 -12 19 1 36 29 36 10 0 9 -4 -2 -16z m-2281 -985 c15 -46 87 -139 109 -139 10 0 16 -9 16 -22 1 -28 185 -278 205 -278 9 0 15 -9 15 -23 0 -15 -10 -26 -31 -36 -18 -8 -34 -22 -36 -32 -7 -24 -73 -28 -73 -4 0 8 -6 15 -14 15 -8 0 -16 10 -18 23 -2 14 -11 23 -25 25 -15 2 -23 10 -23 23 0 16 -7 19 -40 19 l-40 0 0 -40 c0 -22 3 -40 8 -40 4 0 6 -20 4 -44 -3 -36 -1 -45 15 -49 12 -3 9 -5 -9 -6 -27 -1 -28 1 -28 52 0 29 -6 61 -14 72 -7 11 -16 37 -19 59 -8 49 -32 72 -88 83 -40 8 -44 11 -47 41 -2 18 1 32 7 32 6 0 11 -6 11 -12 1 -20 68 -58 102 -58 29 0 30 1 26 40 -2 22 0 40 4 40 5 0 8 16 8 35 0 28 -4 35 -20 35 -15 0 -20 7 -20 25 0 14 -4 25 -10 25 -5 0 -10 8 -10 17 0 9 -10 36 -21 60 -12 24 -20 45 -18 47 21 16 55 36 61 36 3 0 10 -9 13 -21z m-165 -78 c0 -10 -7 -24 -15 -31 -12 -10 -15 -9 -15 8 0 29 11 53 21 46 5 -3 9 -13 9 -23z m30 -50 c0 -14 -18 -23 -31 -15 -8 4 -7 9 2 15 18 11 29 11 29 0z m-199 -74 l-20 -21 17 36 c10 21 18 29 20 20 2 -8 -5 -24 -17 -35z m162 16 c-5 -12 -7 -12 -14 -1 -13 20 -11 28 5 22 8 -3 12 -12 9 -21z m-113 0 c0 -5 -8 -17 -17 -28 -14 -18 -15 -18 -9 -2 3 10 6 23 6 28 0 5 5 9 10 9 6 0 10 -3 10 -7z m-40 -60 c-1 -14 -27 -43 -38 -43 -21 0 -25 23 -7 37 20 14 45 18 45 6z m82 -28 c-5 -29 -32 -34 -32 -7 0 22 8 32 25 32 8 0 10 -10 7 -25z m-632 -45 c0 -16 5 -30 10 -30 6 0 10 -7 10 -15 0 -9 -14 -16 -37 -20 -75 -12 -129 -28 -170 -51 -50 -29 -53 -29 -53 -4 0 17 -7 20 -45 20 -25 0 -45 5 -45 10 0 6 -7 10 -15 10 -8 0 -15 4 -15 8 0 5 27 6 60 4 40 -3 60 -1 60 7 0 6 6 11 13 11 7 0 23 9 34 20 12 11 41 23 65 26 24 4 54 13 68 20 42 22 60 18 60 -16z m90 10 c0 -11 -4 -20 -10 -20 -5 0 -10 9 -10 20 0 11 5 20 10 20 6 0 10 -9 10 -20z m285 -16 c12 -12 13 -19 4 -30 -16 -19 -26 -18 -39 6 -19 36 6 53 35 24z m185 -9 c0 -8 -6 -15 -14 -15 -8 0 -16 7 -20 15 -4 10 1 15 14 15 11 0 20 -7 20 -15z m-328 -35 c2 -18 10 -26 28 -29 35 -4 57 -41 25 -41 -10 0 -15 -11 -15 -35 0 -34 1 -35 40 -35 22 0 40 -4 40 -10 0 -5 -9 -10 -20 -10 -13 0 -20 -7 -20 -20 0 -14 -7 -20 -21 -20 -20 0 -21 -4 -16 -50 4 -31 2 -50 -4 -50 -6 0 -18 -7 -26 -16 -11 -10 -24 -13 -42 -9 -14 4 -27 7 -27 8 -1 1 -5 26 -9 55 -4 33 -3 52 3 52 6 0 12 -15 14 -32 3 -30 6 -33 41 -36 l38 -3 -3 38 c-3 35 -6 38 -36 41 -29 3 -32 6 -26 25 3 12 10 26 15 32 11 11 12 95 1 95 -4 0 -6 21 -3 46 3 47 17 49 23 4z m182 -7 c-4 -16 -16 -39 -27 -53 -11 -14 -18 -18 -15 -10 3 8 -2 22 -10 30 -14 13 -14 15 0 18 9 2 18 12 21 23 3 10 12 19 21 19 13 0 15 -6 10 -27z m329 -65 c15 -14 18 -22 10 -25 -8 -3 -13 -22 -13 -44 l0 -39 48 -1 c26 -1 37 -4 25 -6 -16 -3 -23 -11 -23 -29 0 -21 -5 -24 -34 -24 -19 0 -38 5 -41 11 -4 5 -19 15 -33 22 l-27 11 28 4 c23 3 27 8 27 37 0 27 -8 40 -37 64 -21 17 -48 31 -60 31 -13 0 -23 5 -23 11 0 21 128 2 153 -23z m-306 0 c2 -18 0 -20 -7 -8 -8 13 -10 12 -10 -2 0 -21 -16 -24 -23 -5 -2 6 5 17 17 24 12 7 21 12 21 13 1 0 2 -10 2 -22z m-298 1 c31 -11 32 -14 26 -48 -4 -20 -10 -37 -13 -39 -25 -10 -33 -24 -36 -67 -2 -27 1 -57 7 -67 6 -9 8 -20 4 -24 -13 -13 -58 19 -96 67 -41 54 -70 66 -111 45 -27 -13 -30 -12 -54 13 -13 14 -35 33 -47 42 l-23 16 26 17 c76 50 237 73 317 45z m-489 -39 c0 -5 -9 -10 -21 -10 -11 0 -17 5 -14 10 3 6 13 10 21 10 8 0 14 -4 14 -10z m70 -55 c0 -18 -5 -25 -20 -25 -11 0 -30 -16 -45 -37 -21 -32 -25 -34 -25 -15 0 18 -6 22 -30 22 -28 0 -30 2 -24 28 8 33 14 41 14 19 0 -13 9 -17 35 -17 31 0 35 3 35 25 0 21 5 25 30 25 25 0 30 -4 30 -25z m780 -27 c0 -13 -23 -5 -28 10 -2 7 2 10 12 6 9 -3 16 -11 16 -16z m-89 -76 c-5 -33 -6 -34 -9 -9 -2 15 -8 27 -13 27 -5 0 -9 14 -9 31 l0 31 18 -22 c13 -16 16 -32 13 -58z m-819 -52 c26 0 29 -2 18 -15 -7 -8 -23 -15 -36 -15 -21 0 -24 -5 -24 -35 0 -31 3 -35 26 -35 16 0 24 -5 22 -12 -3 -7 -20 -13 -39 -13 -30 0 -34 3 -37 30 -4 28 11 114 26 160 5 14 8 8 10 -22 3 -41 5 -43 34 -43z m134 65 c5 -13 10 -13 36 3 28 16 30 16 44 -2 20 -28 18 -36 -11 -36 -39 0 -75 -42 -75 -85 0 -68 40 -102 60 -50 12 31 17 31 41 1 11 -14 28 -28 39 -31 24 -8 25 -22 5 -45 -8 -9 -21 -34 -28 -56 -11 -31 -19 -38 -36 -36 -30 5 -28 -42 3 -73 21 -21 29 -23 52 -15 42 16 59 5 33 -21 -18 -18 -19 -23 -6 -42 17 -27 59 -34 77 -13 7 9 18 16 26 16 23 0 27 -21 8 -41 -16 -17 -16 -22 -4 -29 18 -12 61 -13 77 -2 6 4 16 20 22 35 13 34 24 34 119 -3 108 -41 182 -115 116 -115 -14 0 -20 8 -22 33 -2 17 -7 32 -13 32 -14 0 -49 -38 -49 -54 0 -28 21 -71 43 -89 22 -18 20 -18 -68 -14 -100 5 -157 24 -262 90 -57 35 -143 122 -143 144 0 4 -18 30 -39 56 -22 26 -52 80 -68 120 -24 62 -28 86 -28 172 0 62 5 112 14 133 14 35 28 41 37 17z m1274 -20 c0 -8 -4 -15 -10 -15 -5 0 -10 7 -10 15 0 8 5 15 10 15 6 0 10 -7 10 -15z m-125 -2 c-11 -3 -23 -10 -27 -17 -5 -7 -8 -5 -8 7 0 12 7 17 28 16 21 -1 22 -2 7 -6z m-98 -78 c-4 -8 -11 -15 -17 -15 -14 0 -13 27 3 33 16 6 21 1 14 -18z m-128 -11 c4 3 21 1 37 -4 l29 -10 -32 5 c-18 2 -33 0 -33 -5 0 -6 5 -10 11 -10 15 0 41 -28 37 -41 -2 -6 -22 10 -45 34 -23 25 -39 48 -36 51 4 4 11 0 16 -9 4 -8 12 -13 16 -11z m-645 -5 c14 -7 27 -18 30 -25 7 -19 5 -18 -34 11 -37 27 -35 32 4 14z m826 -13 c0 -8 -4 -18 -10 -21 -5 -3 -10 -4 -10 -1 0 2 -3 11 -6 20 -4 11 -1 16 10 16 9 0 16 -6 16 -14z m-406 -111 c-19 -40 -30 -44 -39 -14 -11 33 3 69 25 69 15 0 20 7 22 28 1 20 2 17 5 -10 3 -22 -3 -52 -13 -73z m-483 67 c57 -38 99 -82 99 -104 0 -21 -5 -23 -47 -23 l-48 0 -3 -42 c-3 -43 -4 -43 -42 -43 l-38 0 11 38 c6 20 19 48 29 61 11 14 18 41 18 66 0 34 -4 44 -22 53 -21 10 -22 11 -3 11 11 1 32 -7 46 -17z m621 -107 c22 -63 23 -158 3 -217 -17 -50 -103 -163 -124 -163 -8 0 -14 16 -16 43 -5 58 -43 114 -97 141 -31 15 -43 27 -44 43 0 13 -4 32 -7 44 -7 19 0 23 70 44 68 20 84 29 123 72 24 27 51 47 60 46 8 -2 23 -26 32 -53z m-968 -47 c4 -42 13 -69 27 -84 18 -19 20 -29 14 -65 l-7 -42 -15 33 c-7 19 -17 37 -21 40 -4 3 -12 23 -19 45 -6 22 -18 61 -27 88 l-15 47 28 0 c27 0 28 -2 35 -62z m724 29 c5 -24 -56 -32 -99 -14 l-34 15 47 1 c26 1 50 6 53 12 9 14 29 6 33 -14z m-343 -107 c3 -5 26 -10 51 -10 40 0 44 -2 44 -24 0 -31 -14 -40 -30 -21 -8 9 -30 15 -56 15 -40 0 -44 2 -44 25 0 25 23 35 35 15z"></path>
            <path d="M3430 2595 c0 -28 4 -35 20 -35 15 0 20 -7 20 -25 0 -22 4 -25 35 -25 33 0 35 2 35 35 0 28 -4 35 -20 35 -15 0 -20 7 -20 25 0 22 -4 25 -35 25 -33 0 -35 -2 -35 -35z"></path>
            <path d="M3160 2505 c0 -28 5 -38 20 -42 11 -3 20 -14 20 -24 0 -11 7 -22 15 -25 8 -4 15 -12 15 -20 0 -9 12 -14 35 -14 33 0 35 2 35 35 0 19 -4 35 -9 35 -5 0 -11 9 -14 20 -3 11 -12 20 -20 20 -9 0 -17 10 -19 23 -2 18 -10 23 -40 25 -38 3 -38 3 -38 -33z"></path>
            <path d="M3040 2335 c0 -28 4 -35 20 -35 11 0 20 -7 20 -15 0 -9 -9 -15 -25 -15 -22 0 -25 -4 -25 -35 0 -33 2 -35 35 -35 31 0 35 3 35 25 0 20 5 25 25 25 22 0 25 4 25 35 0 28 -4 35 -20 35 -15 0 -20 7 -20 25 0 22 -4 25 -35 25 -33 0 -35 -2 -35 -35z"></path>
            <path d="M2810 2311 c0 -39 9 -61 25 -61 7 0 16 -11 19 -25 5 -21 12 -25 41 -25 34 0 35 1 35 41 0 32 -4 42 -19 46 -11 3 -22 16 -25 29 -5 20 -13 24 -41 24 -32 0 -35 -3 -35 -29z"></path>
            <path d="M2420 2155 c0 -33 2 -35 35 -35 33 0 35 2 35 35 0 33 -2 35 -35 35 -33 0 -35 -2 -35 -35z"></path>
            <path d="M2510 2095 c0 -21 5 -35 13 -35 16 0 37 -46 37 -82 0 -18 5 -28 15 -28 8 0 15 -9 15 -20 0 -16 7 -20 35 -20 33 0 35 2 35 35 0 23 -5 35 -14 35 -14 0 -26 41 -26 87 0 16 -7 27 -20 30 -11 3 -20 12 -20 19 0 9 -12 14 -35 14 -33 0 -35 -2 -35 -35z"></path>
            <path d="M2240 1975 c0 -33 2 -35 35 -35 33 0 35 2 35 35 0 33 -2 35 -35 35 -33 0 -35 -2 -35 -35z"></path>
            <path d="M1727 841 c-3 -28 -13 -63 -21 -80 -9 -16 -16 -41 -16 -56 0 -14 -6 -25 -12 -25 -15 -1 -58 -64 -58 -85 0 -8 -12 -15 -27 -17 -20 -2 -29 -9 -31 -25 -2 -14 -10 -23 -21 -23 -12 0 -21 -11 -27 -32 -9 -29 -14 -33 -49 -36 -72 -4 -125 -23 -125 -43 0 -23 14 -24 68 -5 29 11 50 12 73 6 40 -12 52 -3 67 48 9 28 27 51 68 83 41 33 64 62 91 114 60 119 81 225 44 225 -14 0 -19 -10 -24 -49z"></path>
        </g>
    </g>
    <g fill="rgb(207,135,95)">
        <g>
            <path d="M4511 3795 c-19 -13 -37 -28 -40 -34 -3 -5 -20 -17 -38 -27 -17 -11 -79 -52 -137 -93 l-106 -73 22 -31 c34 -48 -2 -27 -41 24 -37 49 -44 54 -68 45 -14 -6 -14 -8 2 -26 10 -11 22 -17 27 -14 10 7 38 -14 38 -28 0 -5 -5 -6 -11 -2 -7 4 -10 1 -7 -7 3 -8 12 -13 22 -11 9 2 16 -2 16 -7 0 -15 -37 -23 -73 -17 -29 6 -30 5 -9 -6 27 -14 28 -20 3 -35 -16 -10 -20 -7 -30 26 -6 21 -11 55 -11 75 l0 36 -25 -16 c-23 -15 -25 -22 -22 -82 1 -45 -2 -66 -10 -69 -9 -3 -13 6 -13 26 0 19 -8 35 -22 45 -27 19 -37 13 -30 -19 4 -24 -12 -55 -29 -55 -5 0 -6 15 -2 33 l6 32 -22 -20 c-20 -17 -81 -100 -81 -110 0 -2 8 -1 19 2 16 4 39 -23 28 -33 -7 -7 -72 35 -70 45 2 6 -2 11 -7 11 -6 0 -10 -4 -10 -10 0 -5 -4 -10 -10 -10 -5 0 -24 -9 -42 -20 l-33 -20 33 -12 c33 -13 42 -32 18 -41 -8 -3 -24 6 -37 19 -19 20 -26 22 -34 12 -5 -7 -30 -26 -55 -42 -25 -16 -70 -50 -100 -76 -30 -26 -108 -85 -173 -131 -65 -46 -131 -93 -146 -104 -16 -11 -64 -44 -107 -74 -44 -30 -95 -66 -114 -81 -19 -15 -62 -46 -95 -71 -33 -24 -64 -47 -70 -52 -5 -4 -71 -50 -145 -103 -74 -53 -142 -103 -150 -111 -8 -7 -55 -41 -105 -74 -187 -126 -377 -265 -383 -280 -2 -5 -8 -9 -14 -9 -6 0 -26 -11 -44 -25 -18 -14 -37 -25 -43 -25 -18 0 -12 -22 12 -48 17 -20 18 -24 5 -19 -25 9 -22 -4 12 -49 16 -21 30 -44 30 -50 0 -6 7 -17 15 -24 8 -7 15 -17 15 -22 0 -5 -10 3 -22 19 -35 44 -68 91 -68 99 0 4 -9 22 -21 41 l-21 33 -35 -31 c-20 -17 -46 -35 -59 -41 -29 -14 -30 -27 -3 -75 30 -53 40 -83 29 -83 -5 0 -23 29 -41 65 -17 36 -34 65 -38 65 -4 0 -27 -16 -50 -36 -41 -36 -42 -38 -41 -93 2 -76 2 -81 -10 -81 -5 0 -10 11 -10 24 0 35 -17 76 -32 76 -17 0 -98 -78 -98 -94 0 -7 -9 -22 -20 -34 -14 -14 -16 -22 -8 -22 7 0 19 -9 26 -20 8 -13 9 -20 1 -20 -13 0 -52 20 -59 31 -9 14 -60 22 -60 10 0 -7 -16 -21 -35 -32 -19 -12 -38 -32 -41 -45 -3 -13 -10 -21 -15 -18 -6 3 -7 14 -4 23 7 23 -6 33 -79 60 -76 28 -225 33 -271 10 -16 -9 -47 -19 -67 -22 -21 -3 -58 -20 -84 -38 -44 -30 -49 -31 -80 -20 -49 18 -74 7 -74 -31 0 -17 -11 -45 -24 -63 -13 -17 -30 -51 -36 -75 -6 -24 -17 -53 -24 -64 -18 -29 -49 -181 -42 -203 3 -10 10 -53 16 -95 28 -224 192 -455 410 -580 49 -28 191 -78 221 -78 11 0 19 7 19 15 0 8 5 15 10 15 6 0 10 -7 10 -16 0 -14 7 -15 37 -10 21 3 48 6 61 6 18 0 22 5 22 34 0 33 1 33 52 39 29 4 54 11 56 17 6 18 32 10 32 -10 0 -15 -7 -20 -26 -20 -50 0 -104 -22 -104 -42 0 -22 23 -23 81 -2 29 10 59 13 86 9 l42 -6 12 41 c9 30 29 55 71 92 123 106 185 313 142 470 -3 9 7 27 23 42 15 15 36 34 45 42 13 13 14 21 6 46 -10 27 -8 32 18 53 33 26 46 24 21 -3 -22 -24 -22 -52 1 -52 9 0 35 16 56 35 22 19 44 35 49 35 9 0 56 32 120 82 l22 17 -22 1 c-13 0 -23 5 -23 10 0 17 29 23 45 10 11 -10 27 -3 83 34 38 26 93 67 122 92 29 25 73 59 98 76 24 17 97 68 161 114 64 46 147 105 184 131 37 27 105 75 150 109 97 71 217 157 307 219 86 58 453 319 557 395 45 33 101 69 125 79 24 10 70 39 104 64 33 24 71 50 83 57 14 7 21 18 18 28 -2 10 -6 23 -8 31 -2 7 2 16 9 18 7 3 12 -5 12 -21 0 -32 14 -33 43 -3 29 30 93 78 141 106 60 34 165 114 161 122 -3 4 -20 14 -40 23 -19 9 -35 21 -35 26 0 16 22 11 36 -7 11 -15 16 -16 33 -6 15 10 22 9 31 -2 18 -22 54 0 46 28 -3 12 -9 31 -12 43 -5 21 38 59 298 260 42 32 79 65 82 72 3 7 -4 33 -15 57 -11 24 -22 52 -23 62 -5 27 -32 18 -106 -36 -87 -63 -180 -115 -188 -106 -4 4 -1 10 6 12 7 3 17 16 22 29 8 19 15 23 32 19 15 -4 32 2 50 17 14 13 36 30 48 38 74 50 100 72 100 83 0 7 -11 29 -25 49 -14 20 -25 41 -25 47 0 5 -28 34 -62 65 -59 54 -63 56 -117 56 -43 -1 -64 -7 -90 -25z m-459 -269 c3 -14 1 -31 -3 -38 -6 -8 -9 1 -9 25 0 42 6 48 12 13z m428 14 c8 -5 12 -12 8 -15 -7 -7 -64 -23 -113 -32 l-30 -6 24 26 c30 33 82 46 111 27z m-225 -51 c4 -6 14 -8 22 -5 12 5 14 1 9 -19 -5 -18 -2 -27 9 -31 8 -4 15 -11 15 -18 0 -6 15 -27 33 -46 31 -34 59 -41 81 -20 5 5 16 4 26 -2 14 -9 23 -7 45 10 15 12 32 22 38 22 5 0 -14 -18 -42 -41 -78 -62 -79 -69 -31 -144 22 -36 36 -65 32 -65 -9 0 -92 113 -92 125 0 3 -9 15 -19 26 -11 12 -45 59 -77 105 -31 47 -61 87 -65 90 -12 7 -11 24 0 24 6 0 13 -5 16 -11z m264 -25 c-13 -12 -20 -13 -45 -3 l-29 13 40 6 c48 7 54 4 34 -16z m-314 -15 c8 -25 1 -34 -20 -26 -19 8 -20 47 -1 47 8 0 18 -9 21 -21z m-215 -3 c0 -8 3 -22 7 -31 5 -14 2 -16 -18 -10 -32 10 -32 10 -24 34 7 24 35 29 35 7z m173 -17 c4 -15 2 -19 -10 -15 -8 3 -19 6 -25 6 -6 0 -6 6 2 15 17 21 27 19 33 -6z m114 -85 c-3 -3 -21 6 -40 19 -28 19 -33 27 -24 36 9 9 18 5 40 -19 16 -18 26 -34 24 -36z m-328 42 c10 -12 8 -17 -8 -25 -46 -25 -89 -4 -49 23 28 20 42 20 57 2z m170 -32 c2 -2 1 -11 -3 -20 -6 -15 -8 -15 -26 1 -27 24 -25 38 3 29 12 -3 24 -8 26 -10z m-95 -39 c-4 -10 0 -16 12 -17 34 -2 39 -3 52 -11 21 -14 3 -27 -22 -17 -13 5 -33 6 -45 3 -25 -6 -39 20 -21 42 16 19 31 19 24 0z m-51 -41 c-10 -38 -31 -85 -36 -78 -12 20 -11 62 2 78 14 17 38 16 34 0z m-135 -11 c2 -9 -8 -13 -32 -13 -26 0 -36 4 -36 16 0 19 61 16 68 -3z m335 2 c17 -3 35 -1 43 6 15 12 19 2 6 -17 -11 -17 -112 -5 -112 13 0 9 7 13 18 10 9 -3 30 -8 45 -12z m-399 -104 c-7 -8 -64 52 -79 84 -11 23 -3 17 34 -25 27 -30 47 -57 45 -59z m504 91 c2 -7 -3 -12 -12 -12 -20 0 -21 -16 0 -28 13 -7 14 -10 0 -21 -12 -10 -23 -9 -57 2 -24 8 -45 20 -47 26 -5 15 18 13 48 -4 33 -19 43 -19 32 2 -7 11 -6 23 1 35 13 19 28 19 35 0z m-488 -34 c0 -13 -23 -5 -28 10 -2 7 2 10 12 6 9 -3 16 -11 16 -16z m73 1 c12 -44 -14 -62 -37 -27 -7 12 -6 21 3 32 18 22 28 20 34 -5z m507 7 c0 -7 7 -19 15 -26 20 -16 19 -36 -1 -44 -21 -8 -20 -9 -29 42 -4 28 -3 42 4 42 6 0 11 -6 11 -14z m-70 -73 c-1 -24 -2 -26 -11 -10 -5 9 -7 22 -4 27 10 17 15 11 15 -17z m-49 -13 c18 -16 35 -27 40 -24 12 7 22 -40 14 -65 -3 -12 -15 -26 -26 -31 -15 -9 -19 -7 -20 7 0 11 -3 13 -6 6 -5 -15 -33 -18 -33 -4 0 18 30 33 55 27 14 -4 25 -2 25 3 0 11 -80 91 -91 91 -5 0 -9 5 -9 10 0 18 20 10 51 -20z m-111 -2 c0 -12 -8 -31 -18 -42 -20 -24 -47 -95 -38 -103 5 -6 42 15 67 39 16 14 56 38 64 38 18 0 -1 -24 -37 -46 -50 -31 -58 -42 -50 -62 6 -17 4 -16 -75 36 -29 18 -53 38 -53 43 0 14 26 10 40 -6 7 -8 16 -15 20 -15 13 0 18 49 6 54 -6 2 -4 5 5 5 19 1 49 42 49 66 0 8 5 15 10 15 6 0 10 -10 10 -22z m-254 -30 c16 -47 4 -49 -30 -4 -32 42 -32 48 -4 44 14 -2 25 -15 34 -40z m160 31 c3 -6 15 -9 25 -6 12 3 19 0 19 -9 0 -8 -10 -14 -23 -14 -23 0 -47 17 -47 32 0 12 18 10 26 -3z m384 -10 c7 -11 9 -23 7 -26 -7 -6 -47 16 -47 26 0 26 26 27 40 0z m-458 -76 c-15 -12 -31 -22 -37 -22 -5 0 -2 6 8 13 9 7 17 21 17 30 0 10 5 27 12 39 11 22 12 21 19 -8 7 -25 5 -33 -19 -52z m448 37 c0 -9 -31 -30 -44 -30 -3 0 -6 9 -6 20 0 15 7 20 25 20 14 0 25 -4 25 -10z m50 -25 c0 -16 -27 -32 -37 -21 -7 7 16 36 28 36 5 0 9 -7 9 -15z m-848 -77 c18 -15 207 -284 215 -307 4 -9 -29 29 -71 84 -43 55 -97 123 -120 150 -70 85 -70 85 -54 85 8 0 21 -6 30 -12z m597 3 c19 -12 -18 -32 -47 -24 -28 7 -28 20 1 26 12 2 24 5 27 5 3 1 11 -2 19 -7z m-232 -31 c14 -11 32 -20 39 -20 16 0 16 -2 8 -24 -7 -17 -34 -22 -34 -7 0 5 -12 23 -26 40 -30 35 -24 40 13 11z m357 5 c-25 -19 -40 -19 -24 0 7 8 20 15 28 15 13 0 12 -3 -4 -15z m4 -44 c-11 -19 -65 -34 -73 -21 -8 13 11 28 40 33 17 2 33 5 38 6 4 0 2 -8 -5 -18z m-98 -24 c0 -13 -21 -36 -47 -51 -22 -12 -15 22 9 44 25 23 38 26 38 7z m-146 -12 c8 -8 18 -24 21 -36 8 -25 -13 -55 -29 -39 -7 7 -6 14 2 22 21 21 13 37 -20 40 -38 4 -51 28 -15 28 14 0 32 -7 41 -15z m-2364 -1041 c0 -6 -9 -19 -20 -29 -20 -18 -20 -17 -20 13 0 17 3 38 6 46 6 15 8 15 20 -1 7 -10 14 -23 14 -29z m34 -65 c-7 -12 -28 -11 -41 2 -9 9 -8 15 0 24 10 11 15 10 29 -2 10 -9 15 -20 12 -24z m36 -13 c0 -6 -7 -2 -15 8 -8 11 -15 25 -15 30 0 6 7 2 15 -8 8 -11 15 -25 15 -30z m-220 0 c0 -17 -36 -63 -44 -55 -8 7 27 78 37 72 4 -2 7 -10 7 -17z m138 -23 c-13 -16 -28 -7 -28 18 0 16 3 18 19 7 15 -9 17 -16 9 -25z m377 -18 c22 -31 66 -89 98 -130 31 -41 53 -75 48 -75 -6 0 -49 53 -97 118 -48 64 -91 123 -97 130 -5 6 -6 12 -1 12 5 0 27 -25 49 -55z m-485 11 c0 -16 -28 -42 -36 -33 -3 3 -3 15 1 26 7 23 35 29 35 7z m184 -12 c4 -9 4 -19 2 -21 -8 -8 -26 8 -26 23 0 19 16 18 24 -2z m-34 -20 c0 -16 -2 -16 -24 -8 -13 5 -14 9 -5 20 13 16 29 9 29 -12z m-198 -50 c-20 -15 -58 -18 -66 -5 -4 5 6 18 21 29 26 19 30 19 45 5 17 -15 17 -17 0 -29z m288 0 c17 -15 29 -28 27 -31 -6 -5 -76 40 -77 50 0 14 19 7 50 -19z m-135 -34 c-4 -6 -14 -5 -25 2 -24 16 -15 31 11 18 11 -6 17 -15 14 -20z m-288 -34 c40 -18 58 -49 43 -76 -7 -14 -7 -20 0 -20 5 0 10 -7 10 -16 0 -12 -6 -15 -24 -10 -25 6 -45 -17 -26 -29 6 -4 10 -1 10 4 0 6 4 11 8 11 13 0 68 -73 76 -100 6 -21 0 -17 -35 20 -47 50 -36 31 25 -43 25 -31 42 -44 46 -37 5 8 18 -1 38 -26 20 -23 36 -35 46 -31 11 4 13 1 9 -10 -4 -10 -2 -14 5 -9 6 3 13 2 17 -4 3 -5 17 -10 31 -10 13 0 24 -4 24 -10 0 -5 -9 -10 -20 -10 -12 0 -20 -7 -20 -16 0 -13 7 -15 31 -10 27 5 31 4 26 -13 -3 -12 1 -22 9 -25 15 -6 20 -36 6 -36 -14 0 -43 36 -35 44 4 4 1 4 -8 1 -9 -3 -28 8 -48 27 -24 23 -31 26 -23 12 6 -12 26 -34 43 -48 33 -28 34 -45 1 -27 -41 22 -300 338 -338 412 -39 78 -27 148 20 114 12 -8 35 -21 53 -29z m-257 6 c13 -10 21 -23 19 -28 -2 -5 -17 3 -33 19 -32 30 -21 37 14 9z m476 -12 c28 0 54 -10 54 -20 0 -4 -21 -6 -47 -5 -42 3 -48 6 -51 27 -3 18 -1 21 9 11 7 -7 23 -13 35 -13z m-525 -30 c13 -10 19 -19 12 -20 -6 0 -15 5 -18 10 -3 6 -17 10 -31 10 -13 0 -24 5 -24 10 0 17 36 11 61 -10z m662 4 c20 -3 37 -11 37 -16 0 -6 -10 -8 -22 -4 -13 3 -38 6 -55 6 -23 0 -33 5 -33 16 0 10 6 14 18 10 9 -3 34 -8 55 -12z m-222 -61 c-10 -19 -9 -21 -25 31 -7 23 6 27 21 6 10 -14 11 -25 4 -37z m599 21 c0 -8 -9 -14 -19 -14 -11 0 -23 -5 -26 -10 -9 -15 -35 7 -35 29 0 13 8 16 40 13 26 -3 40 -9 40 -18z m-1002 -21 c23 -8 42 -18 42 -22 0 -19 -41 -89 -56 -95 -12 -5 -15 -14 -11 -36 4 -16 2 -32 -4 -36 -7 -4 -5 -12 5 -23 9 -9 13 -26 10 -38 -9 -32 45 -56 99 -43 23 5 43 14 45 19 2 7 15 6 37 -3 29 -12 35 -12 49 2 20 20 25 14 31 -32 4 -30 2 -36 -14 -36 -11 0 -23 -9 -26 -20 -4 -11 -10 -18 -15 -15 -4 3 -13 -2 -19 -9 -10 -11 -8 -16 8 -21 32 -10 26 -33 -6 -27 -16 3 -31 9 -34 14 -4 6 -16 0 -27 -12 -18 -19 -26 -21 -59 -15 -21 5 -44 7 -50 6 -7 -1 -13 5 -13 14 0 10 7 16 18 14 32 -3 39 1 50 27 8 17 9 31 2 43 -15 28 -37 33 -43 9 -5 -17 -11 -19 -39 -13 -30 5 -31 4 -15 -8 9 -8 17 -23 17 -35 0 -31 -34 -17 -48 20 -6 18 -14 29 -17 26 -7 -7 15 -68 25 -68 4 0 11 -7 14 -16 3 -9 -17 4 -45 28 -79 67 -111 88 -139 88 -30 0 -44 9 -53 33 -8 21 1 21 27 2 23 -18 56 -20 56 -4 0 7 12 10 30 7 17 -3 30 -1 30 4 0 4 -4 8 -10 8 -5 0 -29 19 -51 41 -36 36 -43 39 -51 25 -15 -27 -34 -18 -46 23 -15 48 -36 66 -73 63 -35 -4 -36 0 -6 31 44 47 134 86 227 100 37 6 100 -3 148 -20z m661 9 c47 -21 46 -35 -2 -19 -18 5 -38 12 -45 13 -7 2 -10 8 -7 14 8 13 6 13 54 -8z m-1097 -38 c-24 -17 -39 -14 -27 5 3 6 16 11 28 11 l21 0 -22 -16z m958 -49 c10 -12 10 -15 -4 -15 -17 0 -65 47 -66 63 0 10 51 -25 70 -48z m166 29 c14 -9 30 -26 36 -38 l11 -21 -24 21 c-13 11 -35 28 -49 37 -13 10 -19 17 -12 17 7 0 24 -7 38 -16z m182 -33 c3 -8 -1 -12 -9 -9 -7 2 -15 10 -17 17 -3 8 1 12 9 9 7 -2 15 -10 17 -17z m-425 -57 c-7 -18 -23 -18 -23 0 0 8 -3 22 -7 31 -6 16 -4 16 15 0 11 -10 18 -24 15 -31z m394 19 c-9 -9 -19 -14 -23 -11 -10 10 6 28 24 28 15 0 15 -1 -1 -17z m-301 -75 c3 -5 17 -13 30 -18 13 -5 24 -15 24 -21 0 -7 -11 -4 -27 7 -16 10 -47 29 -70 42 -24 13 -43 28 -43 33 0 10 77 -28 86 -43z m-921 22 c26 14 28 13 55 -19 16 -21 25 -42 22 -53 -4 -16 -11 -17 -53 -12 -45 6 -49 5 -60 -20 -10 -22 -10 -33 4 -61 17 -35 37 -47 37 -21 0 7 7 19 15 26 12 10 20 6 48 -24 19 -20 39 -36 46 -36 17 0 13 -24 -8 -51 -10 -13 -21 -38 -25 -55 -4 -17 -16 -41 -28 -54 -33 -35 -13 -56 47 -52 46 4 48 3 41 -20 -16 -48 -12 -63 15 -66 14 -2 31 4 39 12 16 20 34 20 50 1 10 -13 9 -19 -5 -35 -21 -23 -20 -26 17 -35 24 -6 30 -2 49 29 27 45 51 46 149 7 108 -44 155 -98 115 -131 -24 -20 -45 -4 -45 35 0 33 -2 35 -20 25 -22 -12 -27 -58 -10 -89 14 -28 61 -44 93 -32 51 20 68 82 38 139 -17 32 -93 92 -116 92 -26 0 -45 20 -74 77 -14 28 -39 54 -76 78 -61 41 -70 51 -27 31 168 -78 160 -77 278 -29 42 17 67 34 76 52 7 14 19 31 27 37 10 8 11 15 2 32 -16 30 -14 34 9 14 12 -9 25 -18 30 -18 6 -1 14 -2 20 -3 15 -2 50 -128 50 -180 0 -56 -24 -130 -60 -187 -41 -66 -167 -182 -200 -186 -8 -1 -22 -2 -30 -4 -8 -1 -36 -2 -62 -3 -36 -1 -48 -5 -48 -16 0 -19 0 -19 -57 10 -28 15 -75 28 -113 32 -53 5 -70 12 -94 35 -15 16 -41 35 -57 44 -16 8 -54 48 -84 88 -30 41 -69 86 -87 101 -18 15 -25 24 -15 21 17 -6 17 -5 0 27 -10 17 -25 41 -34 52 -9 11 -17 27 -17 35 0 8 -4 26 -8 39 -6 20 -4 23 9 18 16 -6 16 -3 2 29 -8 20 -12 40 -10 45 3 5 7 29 9 54 1 24 6 48 9 52 4 3 7 16 7 28 0 11 14 43 31 69 28 45 31 47 44 30 12 -17 16 -17 40 -4z m580 -1 c11 -17 2 -18 -25 -4 -24 14 -24 14 -3 15 12 0 25 -5 28 -11z m119 -56 c4 -16 9 -36 12 -45 3 -10 2 -18 -3 -18 -5 0 -13 20 -19 45 -6 25 -7 45 -3 45 4 0 10 -12 13 -27z m346 18 c3 -1 -2 -6 -12 -11 -17 -11 -51 -3 -43 10 4 6 37 7 55 1z m140 -41 c0 -4 -12 -10 -27 -13 -34 -6 -52 15 -20 24 24 6 47 1 47 -11z m-994 -128 c-7 -7 -46 9 -46 18 0 5 11 4 25 -2 14 -6 23 -13 21 -16z m50 -140 c15 -10 37 -52 26 -52 -17 0 -62 26 -62 36 0 21 17 29 36 16z m114 -54 c24 -39 25 -58 6 -58 -18 0 -22 6 -30 53 -8 46 -2 47 24 5z m-104 -48 c19 0 34 -3 34 -7 0 -5 -22 -6 -50 -5 -27 2 -50 8 -50 14 0 6 7 7 16 4 9 -3 31 -6 50 -6z m631 -137 c-26 -4 -28 -7 -26 -48 2 -38 -1 -46 -32 -71 -19 -16 -51 -45 -71 -66 -38 -39 -78 -50 -78 -23 0 9 13 18 31 22 17 3 33 13 37 21 3 9 23 33 44 55 22 23 38 49 38 63 0 13 5 24 10 24 6 0 10 7 10 15 0 11 10 15 33 14 30 -2 31 -2 4 -6z"></path>
            <path d="M1433 1525 c-10 -27 6 -30 30 -7 l21 22 -22 0 c-12 0 -25 -7 -29 -15z"></path>
        </g>
    </g>
    <g fill="rgb(250,201,104)">
        <g>
            <path d="M4098 3373 c13 -3 26 -11 29 -19 3 -8 11 -14 18 -14 7 0 29 -11 49 -25 20 -14 49 -27 64 -30 25 -5 24 -4 -8 14 -19 11 -54 29 -76 40 -23 11 -45 24 -48 30 -4 6 -17 10 -29 10 -21 -2 -21 -2 1 -6z"></path>
            <path d="M4143 3305 c9 -19 20 -25 42 -25 l30 1 -32 14 c-18 8 -33 19 -33 25 0 5 -4 10 -9 10 -5 0 -4 -11 2 -25z"></path>
            <path d="M4035 3197 c-16 -13 -16 -14 0 -30 23 -24 35 -21 35 7 0 31 -12 39 -35 23z"></path>
            <path d="M4120 3184 c0 -12 35 -33 54 -34 16 0 15 3 -7 20 -25 20 -47 26 -47 14z"></path>
            <path d="M3645 3160 l-30 -6 35 -6 c38 -6 49 -3 34 10 -5 5 -22 6 -39 2z"></path>
            <path d="M3800 3147 c0 -8 6 -20 14 -26 12 -10 13 -8 9 9 -7 25 -23 37 -23 17z"></path>
            <path d="M4210 3120 c6 -11 15 -20 20 -20 17 0 11 15 -11 28 -19 12 -19 11 -9 -8z"></path>
            <path d="M3430 3086 c0 -8 3 -16 8 -18 10 -4 109 -122 167 -198 28 -36 77 -99 111 -142 34 -42 74 -96 89 -121 26 -45 47 -53 59 -22 3 9 0 12 -9 9 -8 -3 -21 6 -31 23 -18 28 -53 75 -77 103 -7 8 -35 44 -62 78 -28 35 -67 85 -87 110 -21 26 -38 50 -38 54 0 14 12 9 31 -14 11 -11 19 -17 19 -11 0 13 -34 43 -49 43 -13 0 -47 34 -88 88 -27 34 -43 41 -43 18z"></path>
            <path d="M4010 3088 c0 -19 36 -52 44 -40 3 5 -6 20 -19 32 -19 18 -25 20 -25 8z"></path>
            <path d="M3851 3085 c-1 -6 10 -27 24 -47 14 -20 25 -42 25 -49 0 -7 3 -9 7 -6 3 4 15 0 25 -10 11 -9 18 -11 18 -5 0 7 -4 12 -10 12 -5 0 -10 5 -10 10 0 6 -10 21 -22 33 -13 13 -31 34 -40 47 -9 14 -17 20 -17 15z"></path>
            <path d="M3767 3058 c-7 -25 8 -48 21 -32 5 5 3 19 -3 32 l-12 23 -6 -23z"></path>
            <path d="M3370 3054 c0 -3 26 -36 58 -73 120 -142 342 -433 342 -450 0 -6 4 -11 8 -11 19 0 20 14 1 43 -21 35 -25 52 -9 42 19 -12 10 14 -16 45 -20 24 -29 28 -35 18 -7 -10 -9 -10 -9 -1 0 7 -14 25 -31 40 -17 16 -37 39 -44 53 -8 14 -27 39 -42 55 -16 17 -44 50 -63 75 -19 25 -49 61 -67 80 -17 19 -41 47 -53 63 -19 24 -40 36 -40 21z"></path>
            <path d="M3634 3018 c3 -18 5 -37 5 -42 1 -5 10 -1 20 8 11 10 25 15 30 11 6 -3 11 -1 11 4 0 6 -11 11 -25 11 -18 0 -25 5 -25 20 0 11 -4 20 -10 20 -5 0 -8 -15 -6 -32z"></path>
            <path d="M3685 3040 c-4 -6 7 -10 25 -10 18 0 29 4 25 10 -3 6 -15 10 -25 10 -10 0 -22 -4 -25 -10z"></path>
            <path d="M3800 3016 c-14 -18 -5 -37 14 -30 22 9 31 -35 11 -50 -14 -10 -16 -17 -7 -32 11 -18 11 -18 12 4 0 24 15 30 23 10 2 -7 7 -10 11 -6 4 3 -6 31 -22 62 -25 47 -31 54 -42 42z"></path>
            <path d="M4090 3015 c-16 -19 -1 -19 24 0 16 12 17 15 4 15 -8 0 -21 -7 -28 -15z"></path>
            <path d="M3401 2971 c19 -24 47 -57 62 -75 l29 -31 -18 33 c-10 18 -38 51 -63 75 l-44 42 34 -44z"></path>
            <path d="M3460 3004 c0 -5 17 -25 37 -44 20 -20 31 -26 25 -15 -13 25 -62 72 -62 59z"></path>
            <path d="M3260 2978 c1 -7 19 -31 40 -53 22 -22 40 -44 40 -50 0 -5 9 -18 20 -30 48 -49 240 -294 240 -306 0 -4 -10 -5 -22 -1 -22 5 -22 5 2 -28 24 -34 24 -34 30 -10 l6 24 22 -31 c26 -36 27 -43 8 -43 -8 0 -16 -6 -18 -12 -3 -7 -15 3 -29 24 -37 56 -198 266 -209 273 -13 8 -13 25 0 25 5 0 16 -13 25 -30 9 -16 20 -30 26 -30 6 0 -4 18 -22 41 -20 26 -34 36 -39 29 -5 -8 -14 -3 -29 16 -25 32 -20 45 9 19 22 -20 27 -15 8 7 -7 8 -17 21 -23 29 -32 50 -101 127 -109 122 -5 -4 -1 -13 10 -22 29 -24 87 -101 81 -107 -5 -5 -26 16 -91 91 -16 19 -25 25 -26 15 0 -8 12 -26 26 -40 15 -13 38 -40 52 -60 15 -19 77 -98 138 -175 61 -77 118 -154 127 -170 9 -17 28 -43 41 -60 23 -27 26 -28 43 -14 10 9 26 19 36 22 15 6 13 12 -15 54 -18 26 -36 50 -39 53 -4 3 -28 34 -55 70 -26 36 -51 67 -56 68 -4 2 -8 8 -8 13 0 8 -21 35 -55 73 -6 6 -28 36 -50 66 -48 65 -114 144 -126 148 -5 2 -9 -2 -9 -10z"></path>
            <path d="M3367 2958 c6 -7 32 -42 59 -78 27 -36 76 -99 109 -140 81 -99 130 -169 123 -175 -3 -3 -22 13 -42 35 -20 22 -36 36 -36 32 0 -5 11 -19 25 -32 14 -13 25 -29 25 -35 0 -6 13 -26 30 -45 16 -18 31 -37 32 -42 4 -11 58 11 58 24 0 4 -4 8 -9 8 -5 0 -31 30 -57 68 -41 57 -177 233 -209 268 -5 6 -30 37 -55 67 -25 31 -49 56 -54 57 -5 0 -4 -6 1 -12z m327 -430 c18 -26 20 -38 7 -38 -5 0 -13 10 -17 23 -4 12 -12 25 -18 29 -8 6 -8 8 1 8 6 0 19 -10 27 -22z"></path>
            <path d="M4089 2946 c26 -28 31 -31 31 -17 0 5 -12 17 -27 26 l-28 18 24 -27z"></path>
            <path d="M3750 2949 c-13 -9 -12 -10 3 -5 9 3 17 0 17 -6 0 -6 -11 -8 -30 -4 -22 4 -30 2 -30 -8 0 -12 27 -15 72 -7 8 1 -2 41 -11 41 -3 0 -13 -5 -21 -11z"></path>
            <path d="M4267 2945 c-15 -10 -17 -18 -8 -32 10 -17 10 -16 11 5 0 13 6 22 15 22 8 0 15 5 15 10 0 14 -11 12 -33 -5z"></path>
            <path d="M4059 2926 c8 -9 27 -24 42 -31 26 -14 44 -59 31 -79 -9 -15 -8 -66 1 -66 5 0 11 9 14 20 3 11 16 23 28 26 13 3 36 19 51 36 l29 30 -27 -13 c-16 -7 -28 -15 -28 -19 0 -4 -8 -10 -18 -12 -17 -5 -18 -2 -6 31 11 33 11 37 -9 44 -11 4 -25 6 -31 4 -6 -2 -22 3 -36 13 -49 33 -57 36 -41 16z"></path>
            <path d="M3621 2915 c0 -5 18 -30 40 -55 23 -25 36 -36 30 -25 -15 29 -70 92 -70 80z"></path>
            <path d="M3864 2899 c-3 -6 -1 -16 5 -22 8 -8 16 -6 29 7 9 11 11 16 5 12 -7 -4 -13 -2 -13 3 0 14 -17 14 -26 0z"></path>
            <path d="M3760 2880 c0 -5 7 -10 15 -10 8 0 15 5 15 10 0 6 -7 10 -15 10 -8 0 -15 -4 -15 -10z"></path>
            <path d="M4260 2875 c0 -9 6 -12 15 -9 8 4 12 10 9 15 -8 14 -24 10 -24 -6z"></path>
            <path d="M3730 2857 c0 -2 10 -17 23 -33 21 -28 57 -36 57 -13 0 6 9 8 19 4 11 -3 23 0 27 6 4 7 3 9 -4 5 -6 -3 -15 2 -21 11 -9 17 -10 17 -16 1 -9 -24 -37 -23 -53 2 -10 17 -32 28 -32 17z"></path>
            <path d="M3070 2842 c0 -5 10 -18 23 -30 21 -20 41 -44 71 -87 8 -11 17 -17 21 -14 3 4 -6 20 -21 35 -14 16 -38 46 -52 67 -23 35 -42 48 -42 29z"></path>
            <path d="M3250 2784 c68 -92 103 -134 108 -130 5 5 -124 172 -140 182 -6 4 9 -20 32 -52z"></path>
            <path d="M3900 2819 c-27 -4 -31 -7 -17 -13 20 -9 21 -24 5 -63 l-11 -28 -6 35 c-6 36 -6 36 -68 28 -14 -2 -8 -14 36 -81 15 -23 37 -57 48 -75 l20 -34 43 41 c24 23 49 41 56 41 6 0 22 9 35 20 13 11 20 20 14 19 -23 -3 -35 2 -35 15 0 8 -19 34 -42 58 -39 39 -47 42 -78 37z m38 -31 c-2 -12 -8 -23 -14 -25 -7 -2 -10 6 -7 22 6 30 26 34 21 3z m47 -54 c17 -27 17 -27 -6 -21 -13 4 -34 7 -46 7 -13 0 -23 3 -23 8 0 6 35 28 51 31 4 0 15 -11 24 -25z m-20 -44 c4 -6 -11 -10 -37 -9 -36 1 -39 2 -18 9 36 11 48 11 55 0z"></path>
            <path d="M3285 2794 c9 -14 23 -33 30 -42 14 -17 183 -237 221 -288 12 -16 25 -26 28 -23 5 5 -46 74 -109 146 -5 6 -46 61 -90 122 -44 60 -84 110 -89 111 -4 0 -1 -12 9 -26z"></path>
            <path d="M3537 2796 c10 -13 19 -23 21 -21 7 6 -19 45 -29 45 -5 0 -2 -11 8 -24z"></path>
            <path d="M3020 2803 c0 -5 20 -33 44 -61 64 -75 89 -112 81 -120 -4 -4 -12 2 -19 12 -20 34 -128 157 -133 152 -3 -2 5 -15 17 -28 12 -13 34 -39 48 -58 45 -61 214 -270 218 -270 2 0 1 7 -2 15 -15 37 17 6 81 -82 38 -52 71 -90 73 -84 2 6 -23 46 -55 88 -33 43 -79 105 -103 138 -24 33 -51 67 -60 76 -22 24 -47 55 -78 98 -41 56 -112 135 -112 124z m195 -256 c30 -41 55 -78 55 -83 0 -5 -7 0 -16 11 -8 11 -30 36 -48 55 -40 43 -67 90 -51 90 2 0 29 -33 60 -73z"></path>
            <path d="M3471 2766 c11 -19 27 -37 35 -40 17 -7 7 14 -25 52 -28 33 -33 27 -10 -12z"></path>
            <path d="M4050 2795 c0 -3 9 -14 20 -25 22 -22 25 -19 10 11 -10 17 -30 27 -30 14z"></path>
            <path d="M4022 2765 c7 -16 15 -22 21 -16 6 6 4 15 -6 25 -23 23 -28 20 -15 -9z"></path>
            <path d="M3220 2772 c0 -7 3 -12 8 -12 4 0 16 -16 27 -36 10 -19 27 -45 37 -57 10 -12 21 -27 25 -32 9 -12 82 -102 101 -124 11 -13 11 -12 1 9 -7 14 -15 27 -18 30 -4 3 -42 52 -85 110 -91 123 -96 128 -96 112z"></path>
            <path d="M3197 2745 c9 -16 51 -73 93 -125 96 -120 125 -161 133 -182 5 -15 3 -16 -11 -7 -16 10 -52 57 -126 163 -45 65 -89 108 -97 94 -5 -7 -16 -2 -34 18 l-27 29 17 -30 c25 -41 108 -144 118 -144 8 -1 -25 49 -57 86 -11 13 -17 25 -15 27 5 5 109 -118 109 -128 0 -4 26 -39 58 -79 32 -39 68 -87 81 -104 12 -18 26 -33 31 -33 11 0 -15 51 -32 61 -7 4 -9 11 -6 14 6 7 14 -1 57 -55 10 -14 23 -22 27 -18 4 5 -14 35 -40 69 -26 33 -45 64 -41 67 4 4 10 0 15 -8 5 -9 20 -28 34 -43 14 -15 29 -35 35 -44 5 -10 12 -15 15 -12 4 3 -11 28 -31 55 -53 70 -63 79 -72 66 -4 -7 -40 31 -89 96 -94 124 -173 214 -145 167z"></path>
            <path d="M2940 2748 c0 -6 8 -21 19 -32 46 -52 152 -199 146 -204 -7 -8 -72 65 -80 91 -4 9 -13 17 -21 17 -14 0 -5 -14 81 -126 16 -22 41 -53 55 -70 14 -17 34 -44 45 -59 11 -16 25 -33 30 -39 6 -6 29 -37 53 -68 23 -32 47 -58 52 -58 6 0 5 9 -2 20 -7 11 -16 20 -20 20 -5 0 -8 6 -8 13 0 6 -17 31 -38 54 -20 23 -50 60 -67 82 -16 23 -40 53 -52 68 -25 30 -30 53 -12 53 6 0 9 7 5 15 -6 17 9 20 20 4 3 -6 1 -15 -6 -19 -14 -9 -10 -15 119 -187 46 -62 88 -110 93 -107 11 7 -2 30 -57 93 -31 36 -44 59 -40 71 3 10 0 22 -6 26 -9 5 -10 2 -5 -11 5 -15 4 -16 -9 -5 -9 7 -14 19 -11 27 3 8 2 12 -3 9 -5 -3 -15 1 -22 10 -10 13 -10 17 0 24 9 5 10 10 2 14 -6 4 -11 2 -11 -5 0 -7 -8 -5 -20 6 -11 10 -20 23 -20 29 0 6 5 5 12 -2 29 -29 27 -8 -3 29 -20 26 -34 36 -39 29 -8 -12 -16 -4 -114 124 -33 42 -61 76 -63 76 -2 0 -3 -5 -3 -12z"></path>
            <path d="M3542 2680 c12 -16 23 -30 25 -30 6 0 -12 36 -23 48 -23 23 -25 12 -2 -18z"></path>
            <path d="M3800 2681 c10 -21 30 -37 30 -26 0 14 -21 45 -31 45 -6 0 -6 -7 1 -19z"></path>
            <path d="M2950 2684 c1 -16 39 -59 46 -51 4 4 2 7 -4 7 -7 0 -12 6 -12 14 0 7 -7 19 -15 26 -8 7 -15 9 -15 4z"></path>
            <path d="M2830 2675 c1 -19 230 -314 245 -315 5 0 4 5 -3 12 -7 7 -12 17 -12 23 1 5 9 0 20 -13 10 -13 16 -30 13 -38 -4 -10 0 -12 11 -8 9 4 18 0 22 -9 3 -9 29 -40 58 -69 30 -30 57 -64 60 -76 7 -21 26 -31 26 -14 0 9 -61 85 -72 90 -5 2 -8 10 -8 17 0 8 -8 20 -18 27 -10 7 -29 29 -42 48 -13 19 -30 41 -37 48 -7 7 -43 53 -80 103 -36 49 -68 87 -71 85 -2 -3 5 -17 16 -33 10 -15 26 -39 35 -53 9 -14 29 -40 43 -57 15 -18 22 -33 17 -33 -5 0 -22 18 -39 40 -46 64 -154 204 -170 220 -8 8 -14 10 -14 5z"></path>
            <path d="M3050 2652 c0 -5 9 -17 21 -28 21 -19 21 -19 8 9 -12 26 -29 37 -29 19z"></path>
            <path d="M2787 2638 c-15 -12 -14 -16 16 -48 18 -19 100 -125 182 -235 164 -218 201 -262 211 -252 4 3 -5 20 -20 37 -14 17 -26 37 -26 43 0 6 7 2 15 -9 11 -14 17 -16 23 -6 7 10 13 8 27 -8 10 -11 13 -20 7 -20 -6 0 -12 6 -15 13 -2 6 -7 9 -11 6 -7 -7 3 -39 13 -39 3 0 14 7 25 15 18 13 16 17 -30 74 -54 67 -73 78 -48 29 l17 -33 -21 18 c-11 10 -53 62 -94 115 -121 160 -181 233 -186 227 -3 -3 0 -11 6 -17 7 -7 12 -16 12 -22 0 -5 -20 12 -45 38 -50 54 -64 97 -18 55 l26 -24 -19 27 c-22 32 -24 32 -47 16z m293 -367 c-1 -9 -59 63 -60 73 0 5 14 -8 30 -29 17 -21 30 -41 30 -44z m44 -60 c-5 -5 -33 30 -34 43 0 4 9 -2 19 -15 11 -13 17 -26 15 -28z"></path>
            <path d="M3694 2593 c16 -33 36 -52 36 -34 0 5 -11 23 -26 38 l-25 28 15 -32z"></path>
            <path d="M2805 2538 c30 -38 56 -75 58 -82 2 -6 8 -8 12 -4 4 4 -5 22 -21 40 -16 19 -40 50 -54 71 -14 20 -30 39 -37 41 -7 3 12 -27 42 -66z"></path>
            <path d="M2960 2604 c0 -4 14 -23 31 -43 30 -35 160 -202 249 -320 41 -55 60 -72 60 -54 0 7 -42 64 -63 85 -8 7 -62 76 -120 153 -59 77 -115 150 -126 163 -19 22 -31 28 -31 16z"></path>
            <path d="M3422 2558 c19 -24 59 -74 88 -113 63 -85 60 -81 60 -68 0 6 -20 38 -45 70 -26 32 -62 79 -81 106 -20 26 -40 47 -46 47 -6 0 5 -19 24 -42z"></path>
            <path d="M2759 2542 c11 -16 27 -35 36 -42 8 -7 15 -17 15 -21 0 -5 13 -24 29 -42 16 -17 39 -43 51 -57 33 -38 12 -4 -39 65 -60 80 -98 125 -106 125 -4 0 3 -13 14 -28z"></path>
            <path d="M3280 2529 c7 -11 14 -19 16 -16 7 7 -7 37 -17 37 -6 0 -5 -9 1 -21z"></path>
            <path d="M2655 2510 c10 -11 20 -18 23 -16 5 6 -23 36 -34 36 -4 0 1 -9 11 -20z"></path>
            <path d="M2750 2502 c0 -11 78 -118 138 -188 18 -22 67 -83 109 -136 42 -54 78 -96 81 -93 6 6 -99 145 -110 145 -5 0 -13 10 -18 23 -17 39 -200 268 -200 249z"></path>
            <path d="M2582 2491 c3 -9 41 -57 95 -120 12 -14 23 -21 23 -16 0 6 -15 27 -34 46 -18 20 -41 50 -52 67 -17 29 -40 45 -32 23z"></path>
            <path d="M2570 2463 c0 -5 30 -47 66 -93 36 -47 84 -109 106 -139 22 -30 78 -101 124 -159 46 -57 84 -108 84 -113 0 -5 7 -9 15 -9 20 0 19 6 -10 44 -28 37 -33 55 -10 36 22 -18 18 4 -4 24 -14 12 -20 14 -23 5 -2 -7 -14 2 -28 21 -19 27 -21 32 -7 27 15 -6 16 -3 7 13 -12 22 -30 27 -30 8 -1 -14 -44 33 -62 67 -6 12 5 6 27 -15 25 -23 34 -28 27 -14 -6 11 -18 26 -26 34 -9 7 -16 18 -16 24 0 14 -98 121 -104 115 -3 -3 8 -20 24 -39 17 -19 30 -39 30 -45 -1 -11 -27 18 -122 134 -38 45 -68 78 -68 74z"></path>
            <path d="M3330 2468 c0 -15 122 -178 131 -173 7 5 -21 48 -73 110 -9 11 -26 31 -37 45 -11 14 -20 22 -21 18z"></path>
            <path d="M2750 2453 c0 -6 38 -58 84 -116 46 -57 103 -133 126 -168 47 -70 108 -139 124 -139 5 0 -2 12 -15 28 -14 15 -34 39 -45 53 -56 76 -243 318 -270 348 -2 2 -4 0 -4 -6z"></path>
            <path d="M2496 2385 c15 -20 29 -34 31 -31 6 6 -39 66 -49 66 -5 0 3 -16 18 -35z"></path>
            <path d="M2707 2382 c16 -21 34 -44 40 -52 7 -8 31 -37 52 -65 186 -236 200 -253 201 -240 0 6 -30 46 -65 90 -36 44 -104 131 -151 193 -48 61 -90 112 -95 112 -5 0 3 -17 18 -38z"></path>
            <path d="M2777 2350 c20 -27 39 -47 41 -45 6 6 -60 94 -71 95 -4 0 9 -22 30 -50z"></path>
            <path d="M2910 2397 c0 -2 11 -17 25 -33 14 -16 25 -24 25 -19 -1 18 -50 69 -50 52z"></path>
            <path d="M3317 2363 c10 -16 35 -46 57 -68 37 -38 36 -37 -10 27 -48 65 -82 95 -47 41z"></path>
            <path d="M2400 2359 c0 -14 12 -31 130 -175 82 -101 200 -256 200 -263 0 -4 18 -27 40 -51 39 -43 40 -43 60 -25 20 18 20 18 -10 46 -16 16 -37 41 -47 56 -10 15 -21 33 -26 38 -4 6 -33 44 -64 85 -63 84 -124 152 -132 145 -2 -3 5 -15 16 -28 11 -12 23 -29 27 -37 5 -8 -8 3 -28 25 -25 28 -32 41 -23 47 8 5 8 11 2 16 -6 4 -23 24 -38 45 -16 21 -35 36 -44 35 -9 -2 -18 4 -20 12 -4 13 -3 13 7 0 9 -13 10 -12 7 5 -2 11 -9 19 -16 17 -7 -1 -19 3 -27 9 -11 9 -14 8 -14 -2z m103 -99 c10 -16 16 -30 14 -30 -2 0 -13 14 -25 30 -13 17 -19 30 -14 30 4 0 16 -13 25 -30z m161 -199 c-6 -6 -43 39 -44 53 0 5 11 -4 25 -20 13 -15 22 -31 19 -33z m57 -73 c15 -28 5 -21 -21 15 -15 20 -17 27 -6 18 9 -8 22 -23 27 -33z"></path>
            <path d="M2600 2362 c0 -9 44 -72 57 -81 14 -11 99 -115 154 -191 31 -41 75 -95 100 -120 51 -52 42 -38 -61 97 -41 54 -83 110 -92 124 -9 14 -33 44 -55 66 -21 23 -53 57 -70 77 -18 20 -33 33 -33 28z"></path>
            <path d="M2941 2307 c17 -23 49 -67 71 -97 67 -92 120 -150 130 -144 5 4 -5 21 -23 40 -18 19 -29 37 -25 41 4 4 11 1 16 -7 8 -13 10 -12 10 3 0 16 -10 21 -35 18 -6 0 -42 39 -80 89 -71 90 -121 135 -64 57z"></path>
            <path d="M2402 2294 c34 -48 48 -61 48 -46 0 5 -13 25 -30 43 -16 19 -30 37 -30 42 0 4 -5 7 -11 7 -5 0 5 -21 23 -46z"></path>
            <path d="M2537 2328 c5 -7 56 -70 113 -141 57 -70 100 -131 96 -135 -4 -4 -12 1 -17 10 -12 21 -112 146 -163 203 -23 26 -33 32 -28 19 4 -12 32 -50 63 -85 31 -35 82 -95 113 -133 31 -38 56 -64 56 -59 0 5 -5 14 -12 21 -6 6 -9 14 -6 18 4 3 19 -12 35 -33 73 -101 114 -142 113 -115 0 4 -21 30 -45 57 -58 65 -58 66 -80 100 -25 40 -129 168 -182 225 -24 25 -43 48 -43 53 0 4 -5 7 -11 7 -8 0 -8 -4 -2 -12z"></path>
            <path d="M2346 2319 c17 -32 106 -145 299 -381 7 -9 19 -27 26 -40 7 -12 19 -29 26 -37 8 -7 21 -24 30 -37 17 -27 35 -30 52 -10 10 12 3 24 -35 63 -49 51 -50 43 -1 -20 16 -21 27 -40 24 -43 -3 -3 -35 32 -71 78 -106 132 -181 226 -257 323 -76 97 -108 133 -93 104z"></path>
            <path d="M2977 2315 c7 -23 43 -61 43 -46 0 5 -11 23 -25 38 -19 22 -24 23 -18 8z"></path>
            <path d="M2320 2308 c0 -3 18 -32 39 -64 22 -33 37 -61 34 -64 -3 -3 -21 13 -41 35 -38 43 -35 33 9 -30 47 -66 78 -100 85 -92 4 3 1 15 -6 24 -31 41 49 -48 90 -101 56 -71 81 -111 46 -71 -50 56 -62 70 -79 98 -10 15 -22 27 -28 27 -6 0 11 -28 38 -61 78 -100 162 -213 173 -234 6 -11 -21 14 -60 55 -38 41 -70 78 -70 83 0 7 -53 75 -139 177 -26 30 -55 68 -65 83 -10 16 -20 27 -23 24 -5 -6 21 -59 39 -79 36 -39 50 -58 42 -58 -5 0 -24 21 -43 45 -33 44 -56 60 -45 30 4 -9 1 -15 -7 -15 -8 0 -29 25 -48 55 -18 30 -37 55 -42 55 -15 0 -11 -9 26 -57 34 -45 45 -70 25 -58 -6 3 -7 -1 -3 -10 5 -14 8 -14 15 -3 7 9 8 7 3 -8 -6 -25 15 -47 37 -39 9 4 22 -4 32 -20 23 -34 14 -43 -13 -14 -12 13 -21 18 -21 13 0 -6 11 -21 25 -34 15 -14 25 -18 25 -11 0 11 3 11 16 0 15 -12 15 -14 0 -19 -15 -5 -15 -7 -1 -25 8 -11 44 -58 79 -105 35 -47 80 -100 99 -119 l36 -34 33 20 c18 11 32 25 31 30 -1 6 3 10 10 10 37 -1 46 4 40 21 -4 9 -12 22 -19 27 -23 19 -94 106 -94 116 0 21 18 5 69 -61 49 -63 72 -83 71 -62 -1 4 -19 25 -41 47 -22 22 -79 92 -126 155 -48 63 -89 117 -93 120 -3 3 -37 46 -75 95 -80 105 -85 111 -85 103z m64 -265 c31 -38 60 -72 64 -78 109 -140 141 -185 128 -185 -3 0 -52 57 -115 135 -4 6 -10 16 -12 22 -4 12 -60 80 -101 124 -25 26 -36 49 -24 49 2 0 29 -30 60 -67z m152 -135 c32 -44 67 -89 77 -100 19 -20 20 -32 1 -20 -5 4 -23 25 -40 47 -16 22 -59 77 -96 123 -38 46 -68 86 -68 90 0 14 71 -64 126 -140z m-84 -8 c67 -86 93 -124 80 -116 -7 4 -37 40 -66 80 -80 109 -90 133 -14 36z m141 -174 c16 -18 21 -26 14 -26 -2 0 -19 17 -38 37 -18 20 -25 31 -14 23 11 -8 28 -24 38 -34z"></path>
            <path d="M2625 2277 c10 -15 20 -25 23 -22 3 3 -5 16 -17 28 l-23 22 17 -28z"></path>
            <path d="M2846 2265 c22 -36 64 -81 64 -69 0 6 -18 30 -41 54 -30 34 -36 37 -23 15z"></path>
            <path d="M3340 2283 c0 -14 28 -49 34 -42 3 3 -3 16 -14 29 -11 13 -20 19 -20 13z"></path>
            <path d="M2253 2223 c14 -18 27 -38 30 -45 2 -7 8 -10 11 -6 4 3 -9 24 -29 45 -30 30 -32 32 -12 6z"></path>
            <path d="M2160 2190 c0 -5 16 -31 36 -56 19 -26 33 -53 30 -60 -3 -7 4 -25 16 -39 16 -21 23 -24 30 -13 7 10 8 8 4 -5 -6 -19 24 -67 134 -212 85 -112 123 -154 139 -155 11 0 11 4 -2 18 -10 10 -17 23 -17 28 0 5 7 0 15 -10 8 -11 18 -17 21 -13 4 3 0 12 -7 20 -8 8 -27 29 -42 46 -16 18 -31 30 -35 27 -3 -3 4 -16 16 -29 12 -13 22 -27 22 -32 0 -12 -49 41 -74 80 -16 25 -17 28 -3 16 32 -26 29 -3 -4 41 -19 24 -35 45 -36 47 -2 2 -6 1 -10 -2 -3 -4 1 -15 10 -25 10 -10 17 -23 17 -28 0 -11 -46 43 -61 71 -10 20 -10 20 5 1 26 -32 30 -10 5 26 -13 18 -26 35 -29 38 -3 3 -18 23 -34 45 -16 22 -37 47 -45 56 -9 9 -34 42 -56 73 -41 58 -45 62 -45 46z"></path>
            <path d="M2090 2134 c0 -6 7 -19 15 -30 8 -10 14 -14 14 -9 0 6 -6 19 -14 29 -8 11 -15 15 -15 10z"></path>
            <path d="M2960 2131 c0 -25 75 -121 94 -121 8 0 8 2 0 8 -6 4 -16 16 -22 27 -17 33 -72 99 -72 86z"></path>
            <path d="M2569 2095 c17 -34 31 -51 31 -39 0 7 -9 22 -21 35 -16 19 -18 20 -10 4z"></path>
            <path d="M2080 2095 c0 -5 10 -21 21 -35 13 -17 17 -18 10 -5 -17 33 -31 51 -31 40z"></path>
            <path d="M2145 2053 c8 -18 28 -47 44 -66 44 -49 230 -301 231 -310 0 -5 -9 2 -20 15 -17 20 -116 144 -138 173 -4 6 -30 39 -57 75 -27 36 -51 67 -52 69 -2 2 -6 2 -9 -1 -8 -8 23 -55 63 -98 18 -19 33 -40 33 -46 0 -6 7 -17 15 -24 8 -7 15 -17 15 -23 0 -5 -10 -2 -22 9 l-23 19 19 -22 c10 -12 21 -22 25 -21 19 2 24 -4 11 -13 -13 -8 -13 -9 1 -7 10 2 31 -16 53 -45 38 -49 44 -63 24 -51 -7 4 -3 -8 8 -27 11 -19 27 -34 35 -35 23 -2 49 -15 49 -27 0 -5 -9 -2 -20 8 -18 16 -20 16 -20 2 0 -28 31 -37 54 -16 11 11 27 19 35 19 10 0 3 12 -19 35 -18 19 -31 38 -27 42 4 3 7 1 7 -5 0 -7 7 -12 15 -12 8 0 15 -4 15 -10 0 -5 5 -10 12 -10 18 0 -53 70 -71 70 -15 1 -121 127 -149 178 -22 39 -7 35 21 -5 14 -21 32 -47 41 -58 9 -11 30 -40 48 -65 17 -24 33 -39 35 -33 2 6 -18 39 -44 73 -26 35 -61 81 -78 104 -64 90 -118 156 -123 152 -6 -7 18 -43 57 -85 17 -18 31 -37 31 -42 0 -21 -20 -5 -61 47 -24 32 -52 66 -62 78 -18 20 -18 20 -2 -11z m323 -421 c8 -12 10 -22 4 -22 -5 0 -17 12 -27 26 -11 17 -13 25 -4 22 7 -2 19 -14 27 -26z"></path>
            <path d="M2790 2077 c0 -10 119 -167 126 -167 6 0 -63 98 -101 145 -14 17 -25 26 -25 22z"></path>
            <path d="M1980 2062 c0 -5 13 -26 30 -48 39 -51 38 -65 -2 -28 -34 32 -31 23 22 -51 55 -80 99 -129 106 -122 4 4 -3 15 -14 26 -12 10 -22 21 -22 25 0 4 -9 16 -20 28 -11 12 -20 26 -20 32 0 12 58 -53 148 -169 78 -99 95 -127 82 -135 -7 -5 -10 -16 -6 -26 7 -22 -30 20 -87 96 -21 29 -41 49 -44 46 -3 -3 12 -29 34 -58 38 -51 76 -113 56 -93 -6 6 -38 46 -73 90 -34 44 -67 82 -72 84 -15 5 147 -211 186 -249 34 -32 37 -33 53 -17 16 15 15 18 -3 39 l-19 23 23 -19 c32 -28 40 -11 9 20 -15 15 -27 32 -27 37 0 6 18 -7 40 -28 29 -28 40 -34 40 -22 0 9 3 16 8 15 21 -8 5 23 -37 69 -26 29 -56 64 -67 79 -28 39 -110 145 -139 179 -19 23 -25 26 -25 13 0 -10 5 -18 10 -18 6 0 10 -5 10 -11 0 -16 -26 6 -52 45 -12 17 -15 25 -8 19 23 -22 31 -14 16 15 -18 34 -91 116 -76 85 16 -35 -6 -28 -27 7 -16 29 -33 39 -33 22z m290 -336 c29 -34 60 -82 60 -91 0 -20 -25 7 -79 85 -87 129 -82 131 19 6z"></path>
            <path d="M2809 1937 c16 -24 37 -50 47 -58 16 -13 16 -12 5 8 -6 12 -23 34 -36 49 -14 15 -25 31 -25 35 0 5 -5 9 -10 9 -6 0 2 -19 19 -43z"></path>
            <path d="M2010 1914 c0 -6 22 -37 50 -68 27 -31 54 -66 60 -76 6 -11 15 -20 21 -20 6 0 -4 19 -20 43 -44 61 -111 134 -111 121z"></path>
            <path d="M1960 1878 c0 -3 7 -18 14 -34 8 -15 12 -32 9 -37 -8 -12 -87 -1 -91 13 -2 6 -10 0 -18 -15 -12 -24 -11 -30 13 -68 14 -23 39 -57 54 -75 16 -18 29 -39 29 -46 0 -8 7 -16 15 -20 8 -3 14 -11 13 -18 -2 -7 3 -12 10 -10 8 1 11 -2 8 -7 -8 -13 4 -42 15 -35 5 3 9 -2 9 -10 0 -9 18 -34 41 -57 44 -44 46 -68 1 -27 -15 14 -32 24 -39 21 -6 -2 -14 1 -17 6 -4 6 -14 4 -27 -7 -16 -14 -31 -19 -28 -9 0 1 -4 15 -10 30 -9 22 -8 35 4 57 17 33 19 44 6 35 -5 -3 -12 -1 -16 5 -3 5 -14 10 -24 10 -10 0 -34 13 -52 30 -19 16 -43 33 -54 36 -11 4 -22 10 -25 14 -9 12 -100 49 -100 41 0 -5 7 -11 15 -15 8 -3 12 -11 9 -19 -3 -8 2 -20 11 -27 10 -8 12 -16 6 -19 -6 -4 -8 -16 -5 -28 5 -17 16 -24 49 -29 24 -3 50 -2 57 2 8 5 6 -3 -5 -19 -19 -30 -11 -35 19 -12 25 19 31 18 38 -1 5 -12 2 -15 -10 -10 -13 5 -15 2 -11 -16 4 -14 0 -29 -10 -40 -9 -10 -11 -18 -5 -18 6 0 25 -18 42 -40 37 -47 34 -69 -13 -99 -18 -11 -51 -33 -75 -49 -23 -17 -50 -29 -60 -27 -9 1 -11 0 -4 -2 7 -3 12 -12 11 -21 -3 -26 12 -75 29 -94 22 -26 44 -5 32 28 -12 30 -5 49 26 69 23 15 25 35 3 35 -6 0 -7 -5 -3 -12 4 -7 3 -8 -4 -4 -25 15 -10 34 41 55 66 26 122 18 121 -17 0 -13 4 -21 10 -19 6 2 10 11 8 20 -2 11 2 15 13 11 8 -3 15 -1 15 5 0 6 -4 11 -10 11 -5 0 -10 4 -10 10 0 5 6 7 13 4 8 -3 13 4 14 18 0 13 -1 17 -4 11 -7 -19 -53 -16 -53 2 0 8 -4 15 -9 15 -5 0 -11 11 -13 25 -4 21 -2 24 13 20 14 -5 16 -2 12 15 -5 21 3 25 31 14 22 -8 20 -26 -4 -52 -15 -16 -17 -22 -7 -22 8 0 20 7 27 15 16 19 30 19 30 1 0 -17 41 -29 67 -19 34 12 44 24 32 39 -9 11 -5 14 21 14 28 0 100 33 100 46 0 2 -24 27 -52 56 -29 29 -84 97 -122 151 -41 58 -74 96 -82 93 -16 -6 -38 19 -31 36 4 8 6 7 6 -4 1 -10 6 -18 11 -18 13 0 13 17 -1 25 -6 4 -24 25 -40 47 -16 23 -29 39 -29 36z m30 -133 c-7 -14 -15 -23 -17 -22 -2 2 0 18 3 36 5 22 10 29 17 22 7 -7 6 -18 -3 -36z m-32 13 c2 -8 -5 -21 -14 -29 -16 -12 -17 -12 -11 5 4 10 3 24 -3 31 -9 10 -7 13 7 11 10 -2 19 -10 21 -18z m25 -100 c6 -22 5 -22 -8 -4 -17 22 -20 40 -6 32 5 -3 11 -16 14 -28z m87 18 c0 -8 -4 -18 -10 -21 -5 -3 -10 3 -10 14 0 12 5 21 10 21 6 0 10 -6 10 -14z m59 -315 c-6 -2 -15 3 -20 10 -15 24 -10 29 11 11 12 -10 16 -18 9 -21z"></path>
            <path d="M2050 1807 c0 -8 7 -17 15 -21 8 -3 15 -2 15 3 0 5 -7 14 -15 21 -12 10 -15 10 -15 -3z"></path>
            <path d="M2140 1802 c0 -5 17 -31 38 -58 21 -27 49 -66 62 -86 14 -21 28 -38 33 -38 14 0 7 17 -18 40 -14 13 -25 29 -25 37 0 7 -4 13 -9 13 -5 0 -21 20 -35 44 -26 45 -46 65 -46 48z"></path>
            <path d="M1735 1740 c-10 -11 -13 -20 -7 -20 6 0 14 5 17 10 4 6 10 8 15 5 4 -3 13 2 20 10 20 24 -23 19 -45 -5z"></path>
            <path d="M1645 1704 c-14 -11 -16 -18 -7 -21 6 -3 9 -10 5 -16 -4 -7 0 -8 13 -4 19 7 19 7 0 -8 -10 -8 -23 -12 -27 -9 -5 3 -9 -1 -10 -8 0 -19 -57 -61 -74 -54 -9 3 -12 0 -9 -8 3 -8 0 -17 -5 -21 -6 -3 -9 -10 -7 -14 3 -4 7 -27 10 -50 5 -43 12 -59 21 -50 2 3 0 21 -5 40 -14 49 -12 79 5 79 8 0 15 -5 15 -11 0 -8 5 -7 15 1 9 7 14 19 11 26 -5 13 84 84 107 84 6 0 1 6 -13 13 -14 7 -24 21 -24 30 1 9 1 17 0 17 0 0 -10 -8 -21 -16z"></path>
            <path d="M1835 1703 c3 -8 5 -18 5 -23 0 -4 7 -10 15 -14 13 -4 14 -2 5 14 -6 11 -9 24 -6 29 3 4 -2 8 -10 8 -9 0 -13 -6 -9 -14z"></path>
            <path d="M1780 1690 c0 -5 6 -10 14 -10 8 0 18 5 21 10 3 6 -3 10 -14 10 -12 0 -21 -4 -21 -10z"></path>
            <path d="M990 1647 c0 -15 5 -18 23 -13 12 3 25 6 30 6 4 0 7 7 7 15 0 11 -9 15 -30 13 -22 -2 -30 -7 -30 -21z"></path>
            <path d="M810 1605 c-53 -33 -71 -43 -97 -50 -12 -4 -28 -63 -20 -72 3 -3 31 13 62 36 32 22 72 45 90 51 25 8 34 18 37 40 6 39 -5 38 -72 -5z"></path>
            <path d="M1654 1616 c-10 -8 -16 -18 -11 -22 4 -4 14 1 23 12 14 17 15 17 10 1 -4 -11 1 -20 12 -24 9 -4 20 -11 24 -17 5 -7 8 -4 8 6 0 17 -28 58 -40 58 -4 0 -15 -6 -26 -14z"></path>
            <path d="M1053 1585 c-35 -15 -60 -50 -43 -60 13 -8 30 3 30 20 0 42 87 41 115 -2 12 -18 20 -22 28 -14 14 14 -9 40 -50 58 -39 16 -40 16 -80 -2z"></path>
            <path d="M640 1546 c0 -18 -7 -39 -15 -46 -12 -10 -12 -14 0 -26 7 -8 18 -14 24 -14 17 0 13 20 -4 27 -13 4 -14 8 -3 22 37 46 41 71 11 71 -8 0 -13 -12 -13 -34z"></path>
            <path d="M930 1559 c0 -5 -4 -7 -10 -4 -5 3 -10 1 -10 -4 0 -6 5 -11 11 -11 5 0 7 -4 4 -10 -4 -6 -14 -5 -27 3 -16 9 -22 9 -25 0 -3 -7 -11 -13 -19 -13 -8 0 -14 -9 -14 -21 0 -15 4 -19 16 -15 9 3 18 6 20 6 2 0 4 7 4 15 0 11 7 13 29 9 16 -3 37 -1 48 5 10 6 12 11 6 11 -7 0 -13 5 -13 11 0 5 4 7 10 4 6 -3 7 1 4 9 -7 18 -34 22 -34 5z"></path>
            <path d="M1606 1527 c-28 -28 -32 -56 -15 -106 11 -32 24 -38 49 -21 13 9 12 13 -8 28 -25 20 -28 62 -4 70 7 2 12 0 11 -5 -5 -29 18 -53 69 -68 19 -5 23 -3 20 11 -2 9 2 19 8 21 13 4 25 -43 17 -64 -7 -19 -33 -16 -33 3 0 14 -3 14 -15 4 -19 -15 -12 -65 13 -92 20 -23 29 -23 37 3 9 29 59 47 111 41 26 -3 44 0 44 5 0 13 -86 93 -100 93 -7 0 -9 8 -5 20 5 15 2 20 -14 20 -25 0 -36 17 -22 34 8 10 3 13 -22 13 -17 0 -51 4 -74 8 -37 7 -45 4 -67 -18z m107 -17 c3 -11 1 -23 -4 -26 -5 -3 -9 6 -9 20 0 31 6 34 13 6z m101 -86 c5 -12 -18 -74 -27 -74 -1 0 -2 20 -2 45 0 45 17 61 29 29z"></path>
            <path d="M1078 1524 c12 -8 27 -12 32 -9 17 10 1 25 -28 25 l-26 0 22 -16z"></path>
            <path d="M1313 1533 c4 -3 3 -11 -3 -18 -6 -7 -1 -17 15 -29 26 -20 34 -56 13 -56 -7 0 -22 7 -32 15 -11 8 -30 15 -41 15 -23 0 -75 -41 -75 -60 0 -15 19 -12 36 5 9 8 29 15 46 15 38 0 126 -47 133 -71 4 -11 17 -22 31 -25 14 -4 37 -23 52 -43 26 -34 66 -82 88 -105 6 -6 19 -24 30 -41 17 -26 17 -28 1 -22 -20 7 -22 -4 -5 -21 10 -10 10 -15 0 -21 -10 -6 -9 -10 7 -14 12 -3 21 -13 21 -22 0 -9 -4 -13 -10 -10 -11 7 -14 -18 -4 -28 9 -9 35 4 28 14 -3 5 -1 9 5 9 5 0 13 -4 16 -10 3 -5 11 -10 17 -10 6 0 3 9 -7 20 -11 12 -13 20 -6 20 7 0 9 5 6 11 -5 7 8 9 41 4 l49 -7 -42 22 c-24 12 -66 50 -95 83 -29 34 -55 64 -59 67 -19 16 -187 233 -211 273 -17 26 -35 47 -41 47 -5 0 -7 -3 -4 -7z m336 -471 c14 -11 14 -12 -4 -10 -13 2 -21 12 -22 28 -2 15 0 19 4 10 3 -8 13 -21 22 -28z"></path>
            <path d="M1970 1512 c0 -12 7 -25 15 -29 25 -9 27 2 6 28 l-20 24 -1 -23z"></path>
            <path d="M600 1465 c-2 -5 -4 -14 -5 -20 -2 -5 -4 -12 -5 -15 -1 -3 -2 -33 -4 -68 -1 -34 -7 -67 -14 -74 -9 -9 -12 -7 -12 10 0 41 -18 22 -35 -35 -17 -59 -17 -166 1 -194 5 -8 7 -24 5 -37 -3 -26 28 -126 63 -205 13 -28 50 -86 82 -127 123 -158 247 -243 428 -295 43 -13 73 -15 115 -9 31 4 70 6 86 5 17 -1 50 5 75 14 25 9 68 15 95 13 l50 -2 13 42 c10 31 29 55 71 89 46 38 65 64 93 123 54 114 64 154 47 187 -11 20 -11 27 -1 30 6 3 12 12 12 20 0 11 -6 14 -22 10 -13 -4 -31 1 -46 14 -14 10 -31 19 -38 19 -31 0 -60 -89 -34 -105 6 -3 10 -17 10 -31 0 -13 5 -24 10 -24 6 0 10 14 10 30 0 17 5 30 10 30 6 0 10 -18 10 -40 0 -50 -24 -65 -50 -30 l-17 23 -7 -27 c-4 -15 -4 -31 -1 -36 4 -6 1 -10 -4 -10 -6 0 -11 -11 -11 -24 0 -14 -16 -40 -38 -63 -21 -22 -41 -46 -44 -55 -4 -8 -20 -18 -36 -21 -18 -4 -31 -14 -35 -27 -3 -13 -10 -18 -21 -14 -10 4 -16 1 -16 -9 0 -17 -43 -28 -89 -22 -18 2 -44 0 -59 -6 l-27 -10 35 -30 35 -31 -30 7 c-16 4 -30 7 -31 8 -12 39 -82 93 -107 84 -7 -3 -1 -9 13 -15 31 -12 64 -48 52 -56 -5 -3 -17 3 -27 14 -26 28 -91 27 -122 -2 l-23 -22 -21 20 -20 20 23 11 c13 6 34 16 48 22 24 11 24 11 -7 8 -18 -2 -33 0 -33 5 0 4 -7 8 -16 8 -26 0 -184 138 -184 161 0 5 -4 9 -8 9 -4 0 -14 15 -20 34 -13 36 -38 63 -49 52 -4 -3 3 -19 15 -36 12 -16 19 -36 16 -45 -5 -13 -12 -7 -31 24 -13 23 -31 41 -39 41 -23 0 -16 28 9 32 19 3 17 6 -18 25 -32 17 -37 23 -22 28 17 7 24 45 8 45 -14 0 -41 65 -45 112 -2 24 -4 46 -5 51 -1 4 -10 2 -21 -5 -17 -11 -22 -10 -30 2 -12 18 -7 36 8 33 8 -2 9 8 5 30 -5 26 -3 30 8 20 16 -15 49 -17 49 -3 0 6 -9 10 -20 10 -15 0 -20 7 -20 25 0 18 5 25 19 25 20 0 57 63 46 80 -3 5 7 17 22 27 15 9 29 18 31 19 2 1 5 17 7 35 3 19 14 41 25 51 11 9 20 18 20 21 0 3 -22 4 -50 4 l-50 -1 20 -33 c27 -45 25 -59 -7 -75 -16 -7 -29 -23 -31 -35 -4 -26 -27 -47 -42 -38 -12 8 -13 42 -1 49 14 9 21 88 12 126 -5 19 -10 31 -11 25z m-5 -454 c10 -17 -11 -21 -31 -6 -18 14 -18 14 3 15 12 0 24 -4 28 -9z m1081 -89 c14 -9 34 -78 33 -112 -1 -19 -3 -15 -10 13 -5 21 -14 47 -19 58 -12 21 -36 25 -43 7 -2 -7 -7 -10 -11 -6 -9 8 15 48 29 48 5 0 15 -4 21 -8z m-830 -319 c9 -18 14 -36 11 -40 -4 -3 -25 6 -47 21 -34 22 -39 30 -30 45 14 28 47 15 66 -26z m664 -133 c-19 -13 -30 -13 -30 0 0 6 10 10 23 10 18 0 19 -2 7 -10z"></path>
            <path d="M1502 1428 c2 -6 10 -14 16 -16 7 -2 10 2 6 12 -7 18 -28 22 -22 4z"></path>
            <path d="M1563 1375 c-1 -19 3 -35 8 -35 11 0 12 40 1 57 -5 8 -8 -1 -9 -22z"></path>
            <path d="M1654 1392 c-13 -9 -26 -42 -16 -43 4 0 14 -2 23 -4 12 -2 16 5 15 26 -1 30 -4 33 -22 21z"></path>
            <path d="M1258 1383 c-17 -4 -21 -13 -15 -30 2 -7 117 -12 117 -6 0 3 -79 43 -82 42 -2 -1 -11 -3 -20 -6z"></path>
            <path d="M1797 1320 c-24 -15 -26 -18 -11 -24 18 -7 54 1 54 12 -1 23 -17 28 -43 12z"></path>
            <path d="M1212 1290 c-7 -11 -10 -20 -6 -20 7 0 34 27 34 34 0 13 -16 5 -28 -14z"></path>
            <path d="M1290 1300 c-13 -8 -13 -11 1 -26 13 -13 21 -14 38 -5 21 12 29 31 12 31 -5 0 -15 2 -23 5 -7 3 -20 0 -28 -5z"></path>
            <path d="M1932 1288 c-6 -6 -19 -12 -29 -13 -19 -1 -23 -6 -23 -27 0 -9 3 -9 12 0 7 7 20 12 30 12 10 0 21 7 25 15 7 21 0 28 -15 13z"></path>
            <path d="M1680 1275 c7 -8 20 -15 29 -15 13 1 13 3 -3 15 -26 19 -42 19 -26 0z"></path>
            <path d="M1620 1260 c0 -13 28 -25 38 -16 3 4 0 11 -8 16 -20 13 -30 12 -30 0z"></path>
            <path d="M1690 1222 c0 -16 13 -20 35 -11 11 4 15 8 8 8 -6 1 -18 4 -27 7 -9 3 -16 1 -16 -4z"></path>
            <path d="M1876 1206 c-20 -32 -20 -36 2 -36 10 0 29 12 43 27 13 14 18 23 11 19 -7 -4 -19 -3 -26 3 -10 9 -17 6 -30 -13z"></path>
            <path d="M780 1180 c0 -17 3 -18 25 -8 27 12 24 28 -6 28 -12 0 -19 -7 -19 -20z"></path>
            <path d="M859 1164 c-11 -14 -9 -20 21 -44 27 -22 35 -36 35 -61 0 -28 4 -34 33 -41 19 -5 39 -5 50 1 13 7 27 6 46 -5 38 -19 44 -18 20 4 -10 10 -40 24 -66 31 -27 8 -48 18 -48 22 0 16 57 9 81 -9 31 -23 104 -46 118 -38 16 10 4 26 -20 26 -11 0 -41 21 -67 46 -57 55 -83 69 -143 78 -36 5 -49 3 -60 -10z"></path>
            <path d="M1715 1170 c-3 -5 1 -10 9 -10 8 0 18 5 21 10 3 6 -1 10 -9 10 -8 0 -18 -4 -21 -10z"></path>
            <path d="M1436 1120 c4 -37 2 -50 -8 -50 -8 0 -6 -5 5 -11 22 -13 23 -12 32 29 4 20 3 32 -4 32 -6 0 -10 3 -10 8 3 20 -2 42 -11 42 -6 0 -8 -20 -4 -50z"></path>
            <path d="M1279 1044 c-10 -12 -23 -14 -53 -10 -34 6 -38 5 -26 -9 10 -12 10 -15 -1 -15 -21 0 23 -29 46 -30 20 -1 20 -2 0 -9 -17 -7 -16 -8 8 -15 32 -8 96 2 115 17 20 16 14 29 -10 22 -19 -6 -21 -5 -10 6 21 22 15 51 -10 48 -13 -2 -28 0 -34 4 -7 4 -18 0 -25 -9z m31 -23 c0 -18 -64 -29 -74 -12 -3 4 5 6 18 4 13 -3 27 0 30 6 9 13 26 15 26 2z"></path>
            <path d="M972 984 c-14 -9 -33 -13 -50 -10 -35 8 -50 -3 -58 -41 -6 -31 -5 -32 32 -35 39 -3 39 -3 37 -45 -1 -36 1 -43 17 -43 10 0 22 5 25 10 10 16 46 12 67 -7 16 -14 24 -15 52 -5 46 17 57 15 133 -15 93 -37 153 -85 153 -123 0 -16 -4 -32 -10 -35 -13 -8 -13 -25 -1 -25 22 0 41 33 38 68 -2 44 -61 107 -108 117 -21 5 -38 20 -56 48 -20 34 -108 127 -119 127 -9 0 53 -98 70 -112 30 -24 17 -29 -38 -15 -47 12 -48 13 -51 56 -4 49 -2 46 -33 56 -21 6 -22 5 -10 -14 26 -41 -27 -54 -77 -18 -17 13 -18 18 -7 42 11 23 17 27 42 21 17 -3 30 -1 30 4 0 16 -53 12 -78 -6z"></path>
        </g>
    </g>
</svg>