<svg viewBox="0 0 650 650" fill="none" xmlns="http://www.w3.org/2000/svg" width="256" height="256">
<g clip-path="url(#clip0_722_4945)">
<path d="M1095 0H-140V650H1095V0Z" fill="#B22234"/>
<path d="M-140 75H1095ZM1095 175H-140ZM-140 275H1095ZM1095 375H-140ZM-140 475H1095ZM1095 575H-140Z" fill="black"/>
<path fill-rule="evenodd" clip-rule="evenodd" d="M1095 100H-140V50H1095V100ZM-140 150H1095V200H-140V150ZM1095 300H-140V250H1095V300ZM-140 350H1095V400H-140V350ZM1095 500H-140V450H1095V500ZM-140 550H1095V600H-140V550Z" fill="white"/>
<path d="M354 0H-140V350H354V0Z" fill="#3C3B6E"/>
<path d="M-16.5 15L-4.74428 51.1803L-35.5211 28.8197H2.52114L-28.2557 51.1803L-16.5 15Z" fill="white"/>
<path d="M-16.5 85L-4.74428 121.18L-35.5211 98.8197H2.52114L-28.2557 121.18L-16.5 85Z" fill="white"/>
<path d="M-16.5 155L-4.74428 191.18L-35.5211 168.82H2.52114L-28.2557 191.18L-16.5 155Z" fill="white"/>
<path d="M-16.5 225L-4.74428 261.18L-35.5211 238.82H2.52114L-28.2557 261.18L-16.5 225Z" fill="white"/>
<path d="M-16.5 295L-4.74428 331.18L-35.5211 308.82H2.52114L-28.2557 331.18L-16.5 295Z" fill="white"/>
<path d="M24.6666 50L36.4223 86.1803L5.64551 63.8197H43.6878L12.9109 86.1803L24.6666 50Z" fill="white"/>
<path d="M24.6666 120L36.4223 156.18L5.64551 133.82H43.6878L12.9109 156.18L24.6666 120Z" fill="white"/>
<path d="M24.6666 190L36.4223 226.18L5.64551 203.82H43.6878L12.9109 226.18L24.6666 190Z" fill="white"/>
<path d="M24.6666 260L36.4223 296.18L5.64551 273.82H43.6878L12.9109 296.18L24.6666 260Z" fill="white"/>
<path d="M65.8333 15L77.589 51.1803L46.8121 28.8197H84.8544L54.0776 51.1803L65.8333 15Z" fill="white"/>
<path d="M65.8333 85L77.589 121.18L46.8121 98.8197H84.8544L54.0776 121.18L65.8333 85Z" fill="white"/>
<path d="M65.8333 155L77.589 191.18L46.8121 168.82H84.8544L54.0776 191.18L65.8333 155Z" fill="white"/>
<path d="M65.8333 225L77.589 261.18L46.8121 238.82H84.8544L54.0776 261.18L65.8333 225Z" fill="white"/>
<path d="M65.8333 295L77.589 331.18L46.8121 308.82H84.8544L54.0776 331.18L65.8333 295Z" fill="white"/>
<path d="M107 50L118.756 86.1803L87.9788 63.8197H126.021L95.2442 86.1803L107 50Z" fill="white"/>
<path d="M107 120L118.756 156.18L87.9788 133.82H126.021L95.2442 156.18L107 120Z" fill="white"/>
<path d="M107 190L118.756 226.18L87.9788 203.82H126.021L95.2442 226.18L107 190Z" fill="white"/>
<path d="M107 260L118.756 296.18L87.9788 273.82H126.021L95.2442 296.18L107 260Z" fill="white"/>
<path d="M148.167 15L159.922 51.1803L129.146 28.8197H167.188L136.411 51.1803L148.167 15Z" fill="white"/>
<path d="M148.167 85L159.922 121.18L129.146 98.8197H167.188L136.411 121.18L148.167 85Z" fill="white"/>
<path d="M148.167 155L159.922 191.18L129.146 168.82H167.188L136.411 191.18L148.167 155Z" fill="white"/>
<path d="M148.167 225L159.922 261.18L129.146 238.82H167.188L136.411 261.18L148.167 225Z" fill="white"/>
<path d="M148.167 295L159.922 331.18L129.146 308.82H167.188L136.411 331.18L148.167 295Z" fill="white"/>
<path d="M189.333 50L201.089 86.1803L170.312 63.8197H208.354L177.578 86.1803L189.333 50Z" fill="white"/>
<path d="M189.333 120L201.089 156.18L170.312 133.82H208.354L177.578 156.18L189.333 120Z" fill="white"/>
<path d="M189.333 190L201.089 226.18L170.312 203.82H208.354L177.578 226.18L189.333 190Z" fill="white"/>
<path d="M189.333 260L201.089 296.18L170.312 273.82H208.354L177.578 296.18L189.333 260Z" fill="white"/>
<path d="M230.5 15L242.256 51.1803L211.479 28.8197H249.521L218.744 51.1803L230.5 15Z" fill="white"/>
<path d="M230.5 85L242.256 121.18L211.479 98.8197H249.521L218.744 121.18L230.5 85Z" fill="white"/>
<path d="M230.5 155L242.256 191.18L211.479 168.82H249.521L218.744 191.18L230.5 155Z" fill="white"/>
<path d="M230.5 225L242.256 261.18L211.479 238.82H249.521L218.744 261.18L230.5 225Z" fill="white"/>
<path d="M230.5 295L242.256 331.18L211.479 308.82H249.521L218.744 331.18L230.5 295Z" fill="white"/>
<path d="M271.667 50L283.422 86.1803L252.646 63.8197H290.688L259.911 86.1803L271.667 50Z" fill="white"/>
<path d="M271.667 120L283.422 156.18L252.646 133.82H290.688L259.911 156.18L271.667 120Z" fill="white"/>
<path d="M271.667 190L283.422 226.18L252.646 203.82H290.688L259.911 226.18L271.667 190Z" fill="white"/>
<path d="M271.667 260L283.422 296.18L252.646 273.82H290.688L259.911 296.18L271.667 260Z" fill="white"/>
<path d="M312.833 15L324.589 51.1803L293.812 28.8197H331.855L301.078 51.1803L312.833 15Z" fill="white"/>
<path d="M312.833 85L324.589 121.18L293.812 98.8197H331.855L301.078 121.18L312.833 85Z" fill="white"/>
<path d="M312.833 155L324.589 191.18L293.812 168.82H331.855L301.078 191.18L312.833 155Z" fill="white"/>
<path d="M312.833 225L324.589 261.18L293.812 238.82H331.855L301.078 261.18L312.833 225Z" fill="white"/>
<path d="M312.833 295L324.589 331.18L293.812 308.82H331.855L301.078 331.18L312.833 295Z" fill="white"/>
</g>
</svg>