<svg width="512" height="512" viewBox="0 0 512 512" fill="none" xmlns="http://www.w3.org/2000/svg">
<g clip-path="url(#clip0_725_524)">
<path d="M512 0H0V512H512V0Z" fill="#F0F0F0"/>
<path d="M345.043 256C345.043 278.261 305.177 333.913 256 333.913C206.823 333.913 166.957 305.178 166.957 256C166.957 206.822 206.823 166.957 256 166.957C305.177 166.957 345.043 206.822 345.043 256Z" fill="#D80027"/>
<path d="M255 257.099C255 308.599 167 315.5 167 251.5C167 318.5 217 344.599 258 344.599C299 344.599 345.5 315.099 345.5 257.099C345.5 199.099 255 205.599 255 257.099Z" fill="#0052B4"/>
<path d="M374.053 311.094L350.442 334.705L366.183 350.446L389.793 326.835L374.053 311.094Z" fill="black"/>
<path d="M334.695 350.448L311.085 374.059L326.825 389.8L350.436 366.189L334.695 350.448Z" fill="black"/>
<path d="M421.281 358.306L397.67 381.917L413.411 397.658L437.022 374.047L421.281 358.306Z" fill="black"/>
<path d="M381.924 397.668L358.314 421.278L374.054 437.019L397.665 413.408L381.924 397.668Z" fill="black"/>
<path d="M397.666 334.702L374.055 358.313L389.795 374.054L413.406 350.443L397.666 334.702Z" fill="black"/>
<path d="M358.32 374.056L334.709 397.667L350.45 413.408L374.06 389.797L358.32 374.056Z" fill="black"/>
<path d="M334.715 114.327L397.678 177.289L413.418 161.549L350.456 98.5864L334.715 114.327Z" fill="black"/>
<path d="M311.103 137.947L334.713 161.558L350.453 145.818L326.843 122.207L311.103 137.947Z" fill="black"/>
<path d="M350.449 177.296L374.06 200.907L389.8 185.167L366.189 161.556L350.449 177.296Z" fill="black"/>
<path d="M358.304 90.7248L381.915 114.336L397.656 98.5948L374.045 74.984L358.304 90.7248Z" fill="black"/>
<path d="M397.672 130.078L421.283 153.688L437.024 137.948L413.413 114.337L397.672 130.078Z" fill="black"/>
<path d="M153.685 421.28L90.7226 358.318L74.9818 374.059L137.944 437.021L153.685 421.28Z" fill="black"/>
<path d="M177.291 397.661L153.68 374.051L137.94 389.791L161.551 413.401L177.291 397.661Z" fill="black"/>
<path d="M137.941 358.314L114.331 334.703L98.5898 350.444L122.201 374.055L137.941 358.314Z" fill="black"/>
<path d="M200.905 374.054L137.943 311.091L122.202 326.832L185.164 389.794L200.905 374.054Z" fill="black"/>
<path d="M90.7212 153.683L153.684 90.7202L137.943 74.9795L74.9805 137.942L90.7212 153.683Z" fill="black"/>
<path d="M114.324 177.288L177.287 114.325L161.546 98.5847L98.5837 161.547L114.324 177.288Z" fill="black"/>
<path d="M137.95 200.909L200.912 137.947L185.172 122.207L122.21 185.169L137.95 200.909Z" fill="black"/>
</g>
<defs>
<clipPath id="clip0_725_524">
<rect width="512" height="512" fill="white"/>
</clipPath>
</defs>
</svg>
